<?xml version="1.0" encoding="utf-8"?>
<!-- Generator: Adobe Illustrator 16.0.0, SVG Export Plug-In . SVG Version: 6.00 Build 0)  -->
<!DOCTYPE svg PUBLIC "-//W3C//DTD SVG 1.1//EN" "http://www.w3.org/Graphics/SVG/1.1/DTD/svg11.dtd">
<svg version="1.1" id="Layer_1" xmlns="http://www.w3.org/2000/svg" xmlns:xlink="http://www.w3.org/1999/xlink" x="0px" y="0px"
	 width="106px" height="69px" viewBox="0 0 106 69" enable-background="new 0 0 106 69" xml:space="preserve">
<path fill="#F5F5F5" d="M105.917,7.678c-0.124-4.254-3.62-7.667-7.923-7.667H7.923C3.559,0.032,0,3.547,0,7.904v53.194
	c0,0.08,0,0.143,0,0.226l0,0c0.021,1.067,0.269,2.075,0.683,2.979l0,0c0.042,0.122,0.104,0.227,0.166,0.329l0,0
	c0.062,0.103,0.104,0.205,0.165,0.329c0,0,0,0,0,0.021c0.062,0.102,0.125,0.205,0.187,0.307c0,0,0,0.021,0.02,0.021
	c0.062,0.103,0.125,0.184,0.187,0.286l0.021,0.021c0.062,0.103,0.124,0.186,0.207,0.267c0,0.021,0.02,0.021,0.02,0.041
	c0.063,0.083,0.145,0.164,0.207,0.247c0.021,0.021,0.021,0.021,0.042,0.041c0.062,0.083,0.145,0.164,0.207,0.247
	c0.021,0.02,0.021,0.02,0.042,0.041c0.062,0.083,0.145,0.143,0.228,0.227c0.021,0.021,0.042,0.04,0.042,0.04
	c0.083,0.062,0.145,0.146,0.227,0.205c0.021,0.021,0.042,0.042,0.063,0.062c0.082,0.063,0.144,0.124,0.227,0.186
	c0.021,0.021,0.042,0.041,0.082,0.063c0.083,0.062,0.146,0.123,0.229,0.164c0.02,0.021,0.062,0.041,0.082,0.063
	c0.083,0.062,0.145,0.102,0.229,0.143c0.042,0.021,0.062,0.043,0.103,0.063c0.083,0.04,0.144,0.102,0.228,0.145
	c0.042,0.02,0.083,0.041,0.104,0.063c0.062,0.04,0.145,0.08,0.207,0.121c0.042,0.021,0.083,0.043,0.124,0.063
	c0.063,0.04,0.145,0.08,0.207,0.102c0.042,0.021,0.083,0.041,0.145,0.063c0.062,0.043,0.145,0.062,0.207,0.102
	c0.042,0.021,0.104,0.041,0.146,0.063c0.062,0.021,0.145,0.063,0.207,0.083c0.062,0.02,0.104,0.04,0.166,0.06
	c0.062,0.021,0.124,0.043,0.207,0.063c0.062,0.021,0.124,0.043,0.186,0.043c0.063,0.02,0.125,0.04,0.187,0.062
	c0.062,0.019,0.124,0.019,0.186,0.04c0.063,0.02,0.125,0.02,0.187,0.041c0.062,0.021,0.145,0.021,0.207,0.041
	c0.062,0.021,0.124,0.021,0.187,0.042c0.082,0.02,0.144,0.02,0.227,0.02c0.062,0,0.104,0.021,0.166,0.021
	c0.083,0,0.165,0.02,0.269,0.02c0.042,0,0.083,0,0.145,0.021c0.124,0,0.269,0,0.414,0h90.051c0.145,0,0.268,0,0.413,0
	c0.04,0,0.083,0,0.146-0.021c0.083,0,0.164-0.02,0.269-0.02c0.062,0,0.103-0.021,0.164-0.021c0.083,0,0.146-0.02,0.229-0.02
	c0.062,0,0.124-0.021,0.186-0.042c0.062-0.02,0.146-0.02,0.207-0.041s0.126-0.021,0.188-0.041c0.062-0.021,0.124-0.021,0.186-0.04
	c0.062-0.021,0.124-0.042,0.186-0.062c0.062-0.021,0.124-0.043,0.188-0.043c0.059-0.02,0.123-0.041,0.204-0.063
	c0.062-0.02,0.104-0.04,0.167-0.06c0.062-0.021,0.145-0.062,0.207-0.083c0.04-0.021,0.102-0.041,0.145-0.063
	c0.063-0.019,0.145-0.059,0.207-0.102c0.041-0.021,0.083-0.041,0.145-0.063c0.063-0.041,0.146-0.062,0.207-0.102
	c0.041-0.02,0.084-0.041,0.124-0.063c0.083-0.041,0.146-0.081,0.207-0.121c0.04-0.021,0.083-0.043,0.103-0.063
	c0.083-0.043,0.145-0.084,0.229-0.145c0.04-0.02,0.062-0.041,0.102-0.063c0.084-0.041,0.146-0.103,0.229-0.143
	c0.021-0.021,0.063-0.041,0.084-0.063c0.082-0.063,0.145-0.103,0.228-0.164c0.02-0.021,0.04-0.041,0.081-0.063
	c0.084-0.062,0.145-0.123,0.229-0.186c0.021-0.02,0.043-0.04,0.062-0.062c0.083-0.06,0.146-0.144,0.229-0.205
	c0.019-0.019,0.04-0.04,0.062-0.04c0.084-0.084,0.146-0.144,0.229-0.227c0.02-0.021,0.02-0.021,0.041-0.041
	c0.082-0.083,0.145-0.164,0.207-0.247c0.021-0.02,0.021-0.02,0.04-0.041c0.062-0.083,0.146-0.164,0.207-0.247
	c0-0.02,0.021-0.02,0.021-0.041c0.063-0.081,0.146-0.186,0.207-0.267l0.02-0.021c0.064-0.103,0.126-0.184,0.188-0.286
	c0,0,0-0.021,0.021-0.021c0.063-0.102,0.124-0.205,0.186-0.307c0,0,0,0,0-0.021c0.063-0.104,0.124-0.205,0.164-0.329l0,0
	c0.064-0.103,0.105-0.226,0.167-0.329l0,0c0.413-0.926,0.661-1.932,0.683-2.979l0,0c0-0.083,0-0.146,0-0.226V7.904
	C105.917,7.842,105.917,7.76,105.917,7.678z"/>
<path fill="#41479B" d="M0,45.99h105.917v7.666l0,0H0l0,0V45.99z M0.683,64.303L0.683,64.303c0.042,0.122,0.104,0.227,0.166,0.329
	l0,0c0.062,0.103,0.104,0.205,0.165,0.329c0,0,0,0,0,0.021c0.062,0.102,0.125,0.205,0.187,0.307c0,0,0,0.021,0.02,0.021
	c0.062,0.103,0.125,0.184,0.187,0.286l0.021,0.021c0.062,0.103,0.124,0.186,0.207,0.267c0,0.021,0.02,0.021,0.02,0.041
	c0.063,0.083,0.145,0.164,0.207,0.247c0.021,0.021,0.021,0.021,0.042,0.041c0.062,0.083,0.145,0.164,0.207,0.247
	c0.021,0.02,0.021,0.02,0.042,0.041c0.062,0.083,0.145,0.143,0.228,0.227c0.021,0.021,0.042,0.04,0.042,0.04
	c0.083,0.062,0.145,0.146,0.227,0.205c0.021,0.021,0.042,0.042,0.063,0.062c0.082,0.063,0.144,0.124,0.227,0.186
	c0.021,0.021,0.042,0.041,0.082,0.063c0.083,0.062,0.146,0.123,0.229,0.164c0.02,0.021,0.062,0.041,0.082,0.063
	c0.083,0.062,0.145,0.102,0.229,0.143c0.042,0.021,0.062,0.043,0.103,0.063c0.083,0.04,0.144,0.102,0.228,0.145
	c0.042,0.02,0.083,0.041,0.104,0.063c0.062,0.04,0.145,0.08,0.207,0.121c0.042,0.021,0.083,0.043,0.124,0.063
	c0.063,0.04,0.145,0.08,0.207,0.102c0.042,0.021,0.083,0.041,0.145,0.063c0.062,0.043,0.145,0.062,0.207,0.102
	c0.042,0.021,0.104,0.041,0.146,0.063c0.062,0.021,0.145,0.063,0.207,0.083c0.062,0.02,0.104,0.04,0.166,0.06
	c0.062,0.021,0.124,0.043,0.207,0.063c0.062,0.021,0.124,0.043,0.186,0.043c0.063,0.02,0.125,0.04,0.187,0.062
	c0.062,0.019,0.124,0.019,0.186,0.04c0.063,0.02,0.125,0.02,0.187,0.041c0.062,0.021,0.145,0.021,0.207,0.041
	c0.062,0.021,0.124,0.021,0.187,0.042c0.082,0.02,0.144,0.02,0.227,0.02c0.062,0,0.104,0.021,0.166,0.021
	c0.083,0,0.165,0.02,0.269,0.02c0.042,0,0.083,0,0.145,0.021c0.124,0,0.269,0,0.414,0h90.051c0.145,0,0.268,0,0.413,0
	c0.04,0,0.083,0,0.146-0.021c0.083,0,0.164-0.02,0.269-0.02c0.062,0,0.103-0.021,0.164-0.021c0.083,0,0.146-0.02,0.229-0.02
	c0.062,0,0.124-0.021,0.186-0.042c0.062-0.02,0.146-0.02,0.207-0.041s0.126-0.021,0.188-0.041c0.062-0.021,0.124-0.021,0.186-0.04
	c0.062-0.021,0.124-0.042,0.186-0.062c0.062-0.021,0.124-0.043,0.188-0.043c0.059-0.02,0.123-0.041,0.204-0.063
	c0.062-0.02,0.104-0.04,0.167-0.06c0.062-0.021,0.145-0.062,0.207-0.083c0.04-0.021,0.102-0.041,0.145-0.063
	c0.063-0.019,0.145-0.059,0.207-0.102c0.041-0.021,0.083-0.041,0.145-0.063c0.063-0.041,0.146-0.062,0.207-0.102
	c0.041-0.02,0.084-0.041,0.124-0.063c0.083-0.041,0.146-0.081,0.207-0.121c0.04-0.021,0.083-0.043,0.103-0.063
	c0.083-0.043,0.145-0.084,0.229-0.145c0.04-0.02,0.062-0.041,0.102-0.063c0.084-0.041,0.146-0.103,0.229-0.143
	c0.021-0.021,0.063-0.041,0.084-0.063c0.082-0.062,0.145-0.103,0.228-0.164c0.02-0.021,0.04-0.041,0.081-0.063
	c0.084-0.062,0.145-0.123,0.229-0.186c0.021-0.02,0.043-0.04,0.062-0.062c0.083-0.06,0.146-0.144,0.229-0.205
	c0.019-0.019,0.04-0.04,0.062-0.04c0.084-0.084,0.146-0.144,0.229-0.227c0.02-0.021,0.02-0.021,0.041-0.041
	c0.082-0.083,0.145-0.164,0.207-0.247c0.021-0.02,0.021-0.02,0.04-0.041c0.062-0.083,0.146-0.164,0.207-0.247
	c0-0.02,0.021-0.02,0.021-0.041c0.063-0.081,0.146-0.186,0.207-0.267l0.02-0.021c0.064-0.103,0.126-0.184,0.188-0.286
	c0,0,0-0.021,0.021-0.021c0.063-0.102,0.124-0.205,0.186-0.307c0,0,0,0,0-0.021c0.063-0.104,0.124-0.205,0.164-0.329l0,0
	c0.064-0.103,0.105-0.226,0.167-0.329l0,0c0.413-0.926,0.661-1.932,0.683-2.979H0C0.042,62.371,0.269,63.377,0.683,64.303z
	 M36.533,15.344v7.667H22.135v15.313h83.782v-7.667H36.533l0,0V22.99h69.384l0,0v-7.667H36.533V15.344z M14.398,23.011H0l0,0v7.666
	v7.666h14.398V23.011z M105.917,7.678c-0.124-4.254-3.62-7.667-7.923-7.667h-75.88v15.313h14.399V7.658h69.404V7.678z M14.398,0.032
	H7.923C3.559,0.032,0,3.547,0,7.904v7.44h14.398V0.032z"/>
</svg>
