<svg width="60" height="38" fill="none" xmlns="http://www.w3.org/2000/svg"><path d="M54.63 0H4.76A7.61 7.61 0 0 0 3.1.1a3.84 3.84 0 0 0-1.99 1.01A3.56 3.56 0 0 0 .11 3.08 7.33 7.33 0 0 0 0 4.7L0 5.3v28.5c.02.37.04.74.1 1.11a3.72 3.72 0 0 0 1.02 1.97 3.58 3.58 0 0 0 2 1 7.67 7.67 0 0 0 1.64.1l.61.01h50.39a7.7 7.7 0 0 0 1.13-.1 3.83 3.83 0 0 0 1.98-1.01 3.57 3.57 0 0 0 1.02-1.97 7.32 7.32 0 0 0 .1-1.63l.01-.6V4.18a7.32 7.32 0 0 0-.1-1.11 3.7 3.7 0 0 0-1.03-1.97 3.6 3.6 0 0 0-1.98-1 7.63 7.63 0 0 0-1.65-.1L54.63 0Z" fill="#000"/><path d="M54.63 1.27h1.1c.28.01.62.03.93.08.28.05.5.13.72.24a2.32 2.32 0 0 1 1.25 1.71 6.23 6.23 0 0 1 .09 1.42V33.78c-.02.28-.03.61-.09.92a2.44 2.44 0 0 1-.66 1.3 2.3 2.3 0 0 1-1.3.65 6.59 6.59 0 0 1-1.44.08H4.27c-.26-.01-.61-.03-.93-.08a2.54 2.54 0 0 1-1.3-.66 2.28 2.28 0 0 1-.67-1.3 6.2 6.2 0 0 1-.09-1.4V4.22c.02-.28.03-.6.09-.92A2.46 2.46 0 0 1 2.03 2a2.31 2.31 0 0 1 1.3-.65 6.46 6.46 0 0 1 1.44-.08h49.86" fill="#fff"/><path d="M16.38 12.78c.51-.63.86-1.49.77-2.36-.75.04-1.67.49-2.2 1.13-.48.54-.9 1.43-.79 2.27.84.07 1.69-.42 2.22-1.04ZM17.14 13.98c-1.23-.07-2.27.69-2.85.69-.59 0-1.49-.65-2.46-.64a3.62 3.62 0 0 0-3.07 1.85c-1.32 2.25-.35 5.58.93 7.4.63.91 1.38 1.91 2.36 1.87.94-.03 1.3-.6 2.44-.6 1.13 0 1.46.6 2.45.59 1.02-.02 1.66-.91 2.29-1.82.71-1.03 1-2.02 1.02-2.08-.02-.02-1.97-.76-2-2.99-.01-1.86 1.54-2.75 1.62-2.8a3.52 3.52 0 0 0-2.73-1.47ZM27.81 11.46c2.67 0 4.52 1.81 4.52 4.46s-1.89 4.48-4.58 4.48H24.8v4.64h-2.13V11.46h5.14Zm-3.01 7.17h2.44c1.86 0 2.92-.99 2.92-2.7 0-1.72-1.06-2.7-2.9-2.7H24.8v5.4ZM32.9 22.23c0-1.74 1.33-2.8 3.71-2.93l2.74-.16v-.76c0-1.1-.75-1.77-2-1.77-1.2 0-1.94.57-2.12 1.45H33.3c.12-1.78 1.66-3.1 4.13-3.1 2.43 0 3.98 1.27 3.98 3.26v6.82h-1.97v-1.63h-.05a3.58 3.58 0 0 1-3.16 1.8c-1.96 0-3.33-1.2-3.33-2.98Zm6.45-.9v-.78l-2.46.15c-1.23.09-1.92.62-1.92 1.47 0 .87.72 1.43 1.82 1.43 1.44 0 2.56-.98 2.56-2.27ZM43.26 28.68v-1.64c.15.03.5.03.67.03.95 0 1.46-.4 1.77-1.4l.19-.62-3.62-9.91h2.23l2.53 8.06h.04l2.53-8.06h2.17l-3.75 10.42c-.86 2.4-1.85 3.17-3.92 3.17-.17 0-.69-.02-.84-.05Z" fill="#000"/></svg>