<svg width="36" height="40" fill="none" xmlns="http://www.w3.org/2000/svg"><path fill-rule="evenodd" clip-rule="evenodd" d="M3.38 37.9c.02.48-.36.82-.83.82H1.31v-1.58h1.25c.44 0 .8.3.82.77ZM34.23 35v4.7c0 .09-.07.14-.15.14h-1c-.08 0-.16-.05-.16-.13V35h-1.56c-.08 0-.14-.08-.14-.16v-.8c0-.08.06-.16.14-.16h4.46c.08 0 .13.08.13.16v.8c0 .08-.05.16-.13.16h-1.6ZM9.29 39.66v-.78a.14.14 0 0 0-.14-.15H6.82a.43.43 0 0 1-.43-.45v-1.13h2.48c.1 0 .15-.1.15-.14v-.8c0-.08-.06-.14-.16-.14H6.39v-.64c0-.27.23-.41.43-.41h2.32c.11 0 .15-.09.15-.15v-.82c0-.08-.06-.15-.16-.15H6.71c-.9-.01-1.62.74-1.62 1.57v2.82c0 .87.74 1.56 1.59 1.56h2.47c.08 0 .14-.06.14-.14v-.05Zm9.88-2.97v-.04c.18-.11.34-.26.46-.44.12-.17.21-.38.27-.62l.4-1.52a.14.14 0 0 0-.15-.17h-.94c-.03 0-.06 0-.1.02-.03.02-.05.05-.07.1l-.38 1.43c-.05.18-.11.31-.19.42a.77.77 0 0 1-.25.23.92.92 0 0 1-.28.1l-.27.01h-.68v-2.16c0-.1-.08-.15-.14-.15h-1.01c-.09 0-.15.07-.15.14v5.68c0 .08.07.13.15.13h1c.08 0 .15-.05.15-.13v-2.52h.7c.2 0 .36.01.5.05s.25.11.34.21c.1.1.17.26.23.45l.53 1.84c.03.08.08.1.13.1h1c.12 0 .16-.11.15-.17l-.53-1.97a3.54 3.54 0 0 0-.11-.34c-.04-.1-.1-.2-.15-.28a.96.96 0 0 0-.24-.23 1.6 1.6 0 0 0-.37-.17Zm3.61.87.33-1.07.32-1.21h.06l.31 1.2.33 1.08h-1.35Zm1.66 1.05.33 1.1c.03.1.09.14.15.14h1.09c.1 0 .17-.08.14-.18l-1.78-5.3c-.08-.26-.2-.47-.51-.47h-.77a.43.43 0 0 0-.4.18.88.88 0 0 0-.13.29l-1.78 5.3c-.04.11.06.18.14.18h1.04c.04 0 .1 0 .15-.08a.42.42 0 0 0 .03-.08l.33-1.08h1.97Zm5.35-2.81c0 .41-.34.77-.8.77h-1.16v-1.55h1.11c.5-.02.85.36.85.78Zm-1.96 3.88v-2h1.42a1.9 1.9 0 0 0 1.73-2.66 1.86 1.86 0 0 0-1.18-1.03c-.2-.06-.44-.08-.66-.09h-2.18c-.23 0-.42.16-.43.41v5.4c0 .08.06.14.14.14h1.01c.06 0 .1-.03.13-.07a.2.2 0 0 0 .02-.1Zm-27.4.17h2.25c1.11.04 2.02-.72 2.06-1.86 0-.1 0-.22-.02-.35a1.91 1.91 0 0 0-1.9-1.57H1.32V35H3.9c.1 0 .16-.07.15-.16v-.76c0-.1-.03-.19-.15-.19H.46c-.36 0-.46.26-.46.42v5.12c0 .22.19.41.43.41Zm10.29-5.38-.08 1.3-.08 1.14c-.05.54-.1 1.82-.81 1.82h-.03c-.06 0-.14.06-.14.14V39.7c0 .1.06.15.14.15h.07c.53 0 1-.05 1.4-.65.12-.19.23-.4.3-.64.09-.24.15-.5.2-.8a85.22 85.22 0 0 0 .2-2.14l.03-.6h1.67v4.69c0 .08.07.15.16.14h1c.1 0 .15-.07.15-.15v-5.38c0-.22-.19-.42-.46-.42h-3.29c-.25 0-.4.22-.41.4l-.02.17ZM21.1 18.94a.34.34 0 0 0-.34.33v2.99l2.03 2.55-4.55-4.5a.34.34 0 0 0-.48 0l-2.17 2.14-.4 3.2v-6.37a.34.34 0 0 0-.34-.33H11.6l-2.4 1.93 4.55-4.5a.33.33 0 0 0 0-.47l-2.28-2.25-3.08-.3h6.43c.19 0 .34-.14.34-.33V10l-2-2.5L17.7 12c.13.13.35.13.48 0l2.24-2.2.33-3.13v6.36c0 .19.15.34.34.34h3.2l2.43-1.94-4.55 4.5a.33.33 0 0 0 0 .47l2.23 2.21 3.13.33H21.1Zm12.94-.74-4.88-4.83-1.96-1.94 3.56 1.94c.19 0 .34-.15.34-.34V6.67a.34.34 0 0 0-.34-.33H21.1l3.93-1.1a.33.33 0 0 0 0-.48L20.47.26a.34.34 0 0 0-.47 0l-4.84 4.79-2.07 2.07.01-.03 2.06-3.62a.34.34 0 0 0-.34-.34H8.4a.34.34 0 0 0-.34.34V13.03L6.91 9.15a.34.34 0 0 0-.48 0l-4.55 4.5a.33.33 0 0 0 0 .47l6.85 6.76-3.56-1.93a.34.34 0 0 0-.33.33v6.36c0 .19.15.34.33.34h9.68l-3.93 1.1a.33.33 0 0 0 0 .47l4.55 4.5c.13.12.34.12.48 0l4.81-4.77 2-1.97-2 3.53c0 .18.15.33.34.33h6.43c.19 0 .34-.15.34-.33v-9.57l1.14 3.9c.14.13.35.13.48 0l4.55-4.5a.33.33 0 0 0 0-.47Z" fill="#005793"/></svg>