<?xml version="1.0" encoding="UTF-8" standalone="no"?>
<svg
   xmlns:dc="http://purl.org/dc/elements/1.1/"
   xmlns:cc="http://creativecommons.org/ns#"
   xmlns:rdf="http://www.w3.org/1999/02/22-rdf-syntax-ns#"
   xmlns:svg="http://www.w3.org/2000/svg"
   xmlns="http://www.w3.org/2000/svg"
   viewBox="0 0 853.29333 640"
   height="640"
   width="853.29333"
   xml:space="preserve"
   id="svg2"
   version="1.1"><metadata
     id="metadata8"><rdf:RDF><cc:Work
         rdf:about=""><dc:format>image/svg+xml</dc:format><dc:type
           rdf:resource="http://purl.org/dc/dcmitype/StillImage" /></cc:Work></rdf:RDF></metadata><defs
     id="defs6" /><g
     transform="matrix(1.3333333,0,0,-1.3333333,0,640)"
     id="g10"><g
       transform="scale(0.1)"
       id="g12"><path
         id="path14"
         style="fill:#2d428c;fill-opacity:1;fill-rule:nonzero;stroke:none"
         d="M 0.00390625,4800 H 6399.68 V 0 H 0.00390625 v 4800" /><path
         id="path16"
         style="fill:#72d1e2;fill-opacity:1;fill-rule:nonzero;stroke:none"
         d="M 0.00390625,4800 H 6399.68 V 2400 H 0.00390625 v 2400" /><path
         id="path18"
         style="fill:#eac526;fill-opacity:1;fill-rule:nonzero;stroke:none"
         d="m 3178.93,4080.76 c 928.26,0 1680.76,-752.5 1680.76,-1680.76 0,-928.26 -752.5,-1680.758 -1680.76,-1680.758 -928.26,0 -1680.76,752.498 -1680.76,1680.758 0,928.26 752.5,1680.76 1680.76,1680.76" /><path
         id="path20"
         style="fill:none;stroke:#2c7b53;stroke-width:298.10699463;stroke-linecap:round;stroke-linejoin:round;stroke-miterlimit:4;stroke-dasharray:none;stroke-opacity:1"
         d="m 3178.93,4080.76 c 928.26,0 1680.76,-752.5 1680.76,-1680.76 0,-928.26 -752.5,-1680.758 -1680.76,-1680.758 -928.26,0 -1680.76,752.498 -1680.76,1680.758 0,928.26 752.5,1680.76 1680.76,1680.76 z" /><path
         id="path22"
         style="fill:#0f0d0c;fill-opacity:1;fill-rule:nonzero;stroke:none"
         d="m 2362.58,3322.35 c -77.3,0 -143.65,-66.36 -143.65,-143.66 V 3024.9 2309.69 2155.88 c 0,-77.29 66.35,-143.64 143.65,-143.64 h 153.81 715.21 153.78 c 77.3,0 143.67,66.35 143.67,143.64 v 153.81 110.12 h -264.62 v -110.12 c 0,-20.48 -12.35,-32.84 -32.83,-32.84 h -715.21 c -20.48,0 -32.84,12.36 -32.84,32.84 v 715.21 c 0,20.48 12.36,32.84 32.84,32.84 h 715.21 c 20.48,0 32.83,-12.36 32.83,-32.84 v -110.14 h 264.62 v 110.14 153.79 c 0,77.3 -66.37,143.66 -143.67,143.66 H 3231.6 2516.39 2362.58 v 0" /><path
         id="path24"
         style="fill:#0f0d0c;fill-opacity:1;fill-rule:nonzero;stroke:none"
         d="m 2972.46,2787.76 c -77.3,0 -143.65,-66.36 -143.65,-143.66 v -153.8 -715.2 -153.81 c 0,-77.29 66.35,-143.64 143.65,-143.64 h 153.81 715.22 153.78 c 77.29,0 143.66,66.35 143.66,143.64 v 153.81 110.12 H 3874.31 V 1775.1 c 0,-20.48 -12.34,-32.84 -32.82,-32.84 h -715.22 c -20.48,0 -32.84,12.36 -32.84,32.84 v 715.2 c 0,20.49 12.36,32.84 32.84,32.84 h 715.22 c 20.48,0 32.82,-12.35 32.82,-32.84 v -110.13 h 264.62 v 110.13 153.8 c 0,77.3 -66.37,143.66 -143.66,143.66 h -153.78 -715.22 -153.81 v 0" /></g></g></svg>