<?xml version="1.0" encoding="utf-8"?>
<!-- Generator: Adobe Illustrator 16.0.0, SVG Export Plug-In . SVG Version: 6.00 Build 0)  -->
<!DOCTYPE svg PUBLIC "-//W3C//DTD SVG 1.1//EN" "http://www.w3.org/Graphics/SVG/1.1/DTD/svg11.dtd">
<svg version="1.1" id="Layer_1" xmlns="http://www.w3.org/2000/svg" xmlns:xlink="http://www.w3.org/1999/xlink" x="0px" y="0px"
	 width="106px" height="69px" viewBox="0 0 106 69" enable-background="new 0 0 106 69" xml:space="preserve">
<g>
	<path fill="#C8414B" d="M0,61.111C0,65.467,3.554,69,7.938,69h90.123c4.386,0,7.939-3.53,7.939-7.889v-6.639H0V61.111z"/>
	<path fill="#C8414B" d="M98.061,0H7.938C3.554,0,0,3.531,0,7.887v6.639h106V7.887C106,3.531,102.446,0,98.061,0z"/>
</g>
<rect y="14.526" fill="#FFD250" width="106" height="39.949"/>
<path fill="#C8414B" d="M44.775,34.5l1.55-6.928c0.143-0.639-0.345-1.243-1.003-1.243H44.23c-0.658,0-1.147,0.604-1.004,1.243
	L44.775,34.5z"/>
<rect x="42.948" y="30.867" fill="#F5F5F5" width="3.656" height="15.433"/>
<rect x="42.033" y="29.053" fill="#FAB446" width="5.483" height="1.816"/>
<g>
	<rect x="38.379" y="34.5" fill="#C8414B" width="9.139" height="1.815"/>
	<polygon fill="#C8414B" points="47.517,41.764 42.034,39.946 42.034,38.131 47.517,39.946 	"/>
	<path fill="#C8414B" d="M17.362,34.5l1.55-6.928c0.143-0.639-0.346-1.243-1.004-1.243h-1.091c-0.657,0-1.146,0.604-1.004,1.243
		L17.362,34.5z"/>
</g>
<path fill="#F5F5F5" d="M23.759,29.053c-1.01,0-1.828,0.813-1.828,1.815v11.803c0,2.205,2.073,6.355,9.138,6.355
	s9.138-4.15,9.138-6.355V30.869c0-1.002-0.818-1.815-1.827-1.815H23.759z"/>
<g>
	<path fill="#C8414B" d="M31.069,38.131h-9.138v-7.262c0-1.002,0.818-1.815,1.828-1.815h7.31V38.131z"/>
	<path fill="#C8414B" d="M31.069,38.131h9.138v4.541c0,2.506-2.045,4.539-4.569,4.539l0,0c-2.523,0-4.569-2.033-4.569-4.539V38.131z
		"/>
</g>
<path fill="#FAB446" d="M21.931,38.131h9.138v4.541c0,2.506-2.045,4.539-4.569,4.539l0,0c-2.523,0-4.569-2.033-4.569-4.539V38.131z"
	/>
<g>
	<path fill="#C8414B" d="M29.241,46.281v-8.15h-1.827v8.988C28.093,46.982,28.708,46.684,29.241,46.281z"/>
	<path fill="#C8414B" d="M25.586,47.119v-8.988h-1.828v8.15C24.292,46.684,24.907,46.982,25.586,47.119z"/>
</g>
<rect x="23.759" y="34.5" fill="#FFB441" width="5.483" height="1.815"/>
<g>
	<rect x="23.759" y="30.867" fill="#FAB446" width="5.483" height="1.815"/>
	<rect x="24.672" y="31.948" fill="#FAB446" width="3.655" height="3.29"/>
</g>
<rect x="15.533" y="30.867" fill="#F5F5F5" width="3.656" height="15.433"/>
<g>
	<rect x="14.621" y="45.396" fill="#FAB446" width="5.482" height="1.814"/>
	<rect x="14.621" y="29.053" fill="#FAB446" width="5.482" height="1.816"/>
</g>
<rect x="13.708" y="47.21" fill="#5064AA" width="7.311" height="1.817"/>
<rect x="42.948" y="45.396" fill="#FAB446" width="5.483" height="1.814"/>
<rect x="41.121" y="47.21" fill="#5064AA" width="7.311" height="1.817"/>
<rect x="25.587" y="27.236" fill="#FAB446" width="10.965" height="1.817"/>
<rect x="30.156" y="21.79" fill="#FFB441" width="1.828" height="5.448"/>
<g>
	<path fill="#F5F5F5" d="M29.241,24.514c-1.512,0-2.741-1.223-2.741-2.724s1.229-2.724,2.741-2.724c1.512,0,2.742,1.222,2.742,2.724
		S30.753,24.514,29.241,24.514z M29.241,20.881c-0.504,0-0.914,0.407-0.914,0.908s0.41,0.907,0.914,0.907
		c0.504,0,0.915-0.406,0.915-0.907S29.746,20.881,29.241,20.881z"/>
	<path fill="#F5F5F5" d="M32.896,24.514c-1.512,0-2.741-1.223-2.741-2.724s1.229-2.724,2.741-2.724c1.512,0,2.741,1.222,2.741,2.724
		S34.409,24.514,32.896,24.514z M32.896,20.881c-0.504,0-0.914,0.407-0.914,0.908s0.409,0.907,0.914,0.907
		c0.505,0,0.914-0.406,0.914-0.907S33.401,20.881,32.896,20.881z"/>
	<path fill="#F5F5F5" d="M36.552,26.329c-1.512,0-2.741-1.222-2.741-2.724c0-1.502,1.229-2.724,2.741-2.724
		c1.512,0,2.742,1.223,2.742,2.724S38.063,26.329,36.552,26.329z M36.552,22.697c-0.504,0-0.914,0.407-0.914,0.909
		c0,0.501,0.41,0.908,0.914,0.908s0.915-0.407,0.915-0.908C37.466,23.104,37.056,22.697,36.552,22.697z"/>
	<path fill="#F5F5F5" d="M25.586,26.329c-1.512,0-2.742-1.222-2.742-2.724c0-1.502,1.23-2.724,2.742-2.724
		c1.512,0,2.741,1.223,2.741,2.724S27.098,26.329,25.586,26.329z M25.586,22.697c-0.504,0-0.913,0.407-0.913,0.909
		c0,0.501,0.409,0.908,0.913,0.908c0.505,0,0.914-0.407,0.914-0.909C26.5,23.104,26.091,22.697,25.586,22.697z"/>
</g>
<path fill="#FAB446" d="M36.552,41.764v0.908c0,0.5-0.41,0.907-0.914,0.907s-0.913-0.407-0.913-0.907v-0.908H36.552 M38.379,39.946
	h-5.483v2.726c0,1.502,1.23,2.722,2.742,2.722s2.741-1.22,2.741-2.722L38.379,39.946L38.379,39.946z"/>
<path fill="#FFA0D2" d="M35.638,36.315L35.638,36.315c-1.008,0-1.827-0.813-1.827-1.815v-1.816c0-1.002,0.819-1.815,1.827-1.815l0,0
	c1.01,0,1.829,0.813,1.829,1.815V34.5C37.466,35.502,36.647,36.315,35.638,36.315z"/>
<ellipse fill="#5064AA" cx="31.069" cy="38.13" rx="2.742" ry="2.724"/>
<rect x="30.156" y="18.158" fill="#FAB446" width="1.828" height="5.447"/>
<path fill="#C8414B" d="M25.586,27.236l-1.828-1.815l1.071-1.063c1.654-1.645,3.9-2.568,6.24-2.568l0,0
	c2.341,0,4.585,0.924,6.241,2.568l1.07,1.063l-1.828,1.815H25.586z"/>
<g>
	<ellipse fill="#FFD250" cx="31.069" cy="25.421" rx="0.915" ry="0.908"/>
	<ellipse fill="#FFD250" cx="27.413" cy="25.421" rx="0.914" ry="0.908"/>
	<ellipse fill="#FFD250" cx="34.723" cy="25.421" rx="0.914" ry="0.908"/>
</g>
<g>
	<rect x="14.621" y="34.5" fill="#C8414B" width="9.138" height="1.815"/>
	<polygon fill="#C8414B" points="14.621,41.764 20.103,39.946 20.103,38.131 14.621,39.946 	"/>
</g>
</svg>
