<svg width="40" height="40" viewBox="0 0 40 40" fill="none" xmlns="http://www.w3.org/2000/svg">
<g clip-path="url(#clip0_2456_2823)">
<path d="M33.7886 33.7886C30.1316 37.4455 25.1717 39.5 20 39.5C14.8283 39.5 9.86838 37.4455 6.21142 33.7886C2.55446 30.1316 0.5 25.1717 0.5 20C0.5 14.8283 2.55446 9.86838 6.21142 6.21142C9.86838 2.55446 14.8283 0.5 20 0.5C25.1717 0.5 30.1316 2.55446 33.7886 6.21142C37.4455 9.86838 39.5 14.8283 39.5 20C39.5 25.1717 37.4455 30.1316 33.7886 33.7886Z" stroke="#0073B0"/>
<path fill-rule="evenodd" clip-rule="evenodd" d="M17.6 17.6H20.53V19.1H20.57C21.01 18.3 22.35 17.47 23.97 17.47C27.12 17.47 28 19.14 28 22.23V28H24.88V22.8C24.88 21.42 24.32 20.2 23.03 20.2C21.47 20.2 20.72 21.27 20.72 23V28H17.6V17.6ZM12.4 28H15.5V17.6H12.4V28H12.41H12.4ZM15.9 13.95C15.9 14.4672 15.6946 14.9632 15.3289 15.3289C14.9632 15.6946 14.4672 15.9 13.95 15.9C13.4328 15.9 12.9368 15.6946 12.5711 15.3289C12.2054 14.9632 12 14.4672 12 13.95C12 13.4328 12.2054 12.9368 12.5711 12.5711C12.9368 12.2054 13.4328 12 13.95 12C14.4672 12 14.9632 12.2054 15.3289 12.5711C15.6946 12.9368 15.9 13.4328 15.9 13.95V13.95Z" fill="#0073B0"/>
</g>
<defs>
<clipPath id="clip0_2456_2823">
<rect width="40" height="40" fill="white"/>
</clipPath>
</defs>
</svg>
