<svg

        xmlns="http://www.w3.org/2000/svg"
        width="100%"
        height="100%"
        viewBox="0 0 283.4 54.5"
>
	<path style="fill:#00ab4d"  d="M0.2,42.8V11.3H16c7.1,0,10.9,4.8,10.9,10.5c0,5.7-3.9,10.4-10.9,10.4H8.3v10.6H0.2z M18.7,21.8
		c0-2.2-1.6-3.4-3.8-3.4H8.3v6.7h6.6C17.1,25.2,18.7,23.9,18.7,21.8z M50.3,42.8L45,32.2h-4.2v10.6h-8.1V11.3h15.8
		c7,0,10.9,4.6,10.9,10.5c0,5.5-3.4,8.4-6.3,9.4l6.4,11.6H50.3z M51.2,21.8c0-2.1-1.8-3.3-3.9-3.3h-6.4v6.7h6.4
		C49.4,25.2,51.2,24,51.2,21.8z M66.5,42.8V11.3h8.1v31.5H66.5z M103.9,42.8l-1.6-4.5H90l-1.6,4.5h-9.2l11.8-31.5h10.2l11.9,31.5
		H103.9z M96.2,19.4l-4,11.8h8L96.2,19.4z M139.2,42.8l-13.3-18.2v18.2h-8.1V11.3h8.4l12.7,17.3V11.3h8.2v31.5H139.2z M238,42.8
		l-5.3-10.6h-4.2v10.6h-8.1V11.3h15.8c7,0,10.9,4.6,10.9,10.5c0,5.5-3.3,8.4-6.3,9.4l6.4,11.6H238z M238.9,21.8
		c0-2.1-1.8-3.3-3.9-3.3h-6.4v6.7h6.4C237.1,25.2,238.9,24,238.9,21.8z M253.7,30.1V11.3h8.3v18.4c0,3.7,2.2,6.4,6.7,6.4
		c4.3,0,6.6-2.7,6.6-6.4V11.3h8.2V30c0,7.8-4.8,13.3-14.8,13.3C258.4,43.4,253.7,37.8,253.7,30.1z"/>
	<circle style="fill:#00ab4d" cx="183.7" cy="27.1" r="26.2"/>
</svg>
