<svg xmlns="http://www.w3.org/2000/svg" width="134" height="34">
  <linearGradient id="a" gradientUnits="userSpaceOnUse" x1="309.978" y1="-400.049" x2="285.224" y2="-375.295" gradientTransform="matrix(1 0 0 -1 -285.6 -367.84)">
    <stop offset="0" stop-color="#07c"/>
    <stop offset="1" stop-color="#0ca"/>
  </linearGradient>
  <path fill="url(#a)" d="M2.399 34c-.309 0-.621-.061-.918-.186A2.427 2.427 0 0 1 0 31.571V12.143C0 5.447 5.383 0 12 0s12 5.447 12 12.143c0 4.972-2.968 9.255-7.206 11.13l6.503 6.58a2.45 2.45 0 0 1 0 3.436 2.384 2.384 0 0 1-3.395 0l-9.599-9.715a2.449 2.449 0 0 1-.521-2.646A2.4 2.4 0 0 1 12 19.429c3.97 0 7.2-3.269 7.2-7.286 0-4.018-3.23-7.286-7.2-7.286s-7.2 3.269-7.2 7.286v13.566l1.279-1.295a2.382 2.382 0 0 1 3.395 0 2.45 2.45 0 0 1 0 3.435l-5.376 5.44A2.391 2.391 0 0 1 2.399 34z"/>
  <g>
    <path fill="#07C" d="M40.708 18.533c.918-.253 1.685-.772 2.3-1.557.614-.785.922-1.787.922-3.007 0-1.475-.467-2.671-1.401-3.59C41.595 9.46 40.366 9 38.84 9h-5.393C32.483 9 32 9.492 32 10.474v13.124c0 .38.132.709.397.986a1.3 1.3 0 0 0 .98.416c.374 0 .692-.139.957-.416s.397-.606.397-.986v-4.66h3.175l3.665 5.469a1.33 1.33 0 0 0 1.145.593c.358 0 .661-.135.911-.404.248-.269.373-.555.373-.856a1.53 1.53 0 0 0-.257-.88l-3.035-4.327zm-.187-2.733c-.507.459-1.155.689-1.946.689h-3.798v-5.04h3.798c.791 0 1.439.23 1.946.69.506.46.76 1.069.76 1.831 0 .76-.254 1.37-.76 1.83zm15.244-4.329a1.2 1.2 0 0 0 .867-.36c.245-.24.368-.528.368-.863 0-.352-.123-.648-.368-.888S56.098 9 55.765 9h-8.292C46.491 9 46 9.496 46 10.487v13.025c0 .992.491 1.488 1.474 1.488h8.292c.333 0 .621-.119.867-.359s.367-.536.367-.889c0-.336-.123-.623-.368-.863s-.534-.359-.867-.359H48.78v-4.438h6.818c.333 0 .622-.12.867-.36a1.19 1.19 0 0 0 .368-.888c0-.336-.123-.624-.368-.864s-.534-.36-.867-.36H48.78v-4.15l6.985.001zm12.403-.916a2.535 2.535 0 0 0-.859-1.12A2.152 2.152 0 0 0 66 9a2.15 2.15 0 0 0-1.31.436 2.526 2.526 0 0 0-.858 1.12l-4.719 12.537c-.075.233-.113.399-.113.493 0 .393.131.727.395 1.002.263.274.584.412.96.412a1.3 1.3 0 0 0 1.242-.895l.791-2.263h7.226l.79 2.263c.09.268.249.483.474.648.226.165.481.247.768.247.376 0 .696-.138.959-.412.263-.275.395-.609.395-1.002 0-.094-.037-.26-.112-.494l-4.72-12.537zm-4.945 8.86L66 11.475l2.777 7.94h-5.554zm20.529 3.136h-5.947V10.403c0-.38-.135-.709-.406-.987A1.333 1.333 0 0 0 76.414 9c-.397 0-.734.139-1.007.416a1.361 1.361 0 0 0-.407.987v13.123c0 .983.495 1.474 1.486 1.474h7.266c.336 0 .628-.119.875-.357a1.17 1.17 0 0 0 .373-.879c0-.333-.125-.617-.373-.855a1.217 1.217 0 0 0-.875-.358zM94.163 9h-9.659c-.314 0-.59.119-.822.357a1.21 1.21 0 0 0-.349.879c0 .333.116.618.349.855s.507.357.822.357h3.512v12.149c0 .38.128.709.384.986.253.278.569.417.945.417.359 0 .667-.139.923-.416.255-.277.384-.606.384-.986V11.449h3.512c.314 0 .589-.119.821-.357a1.18 1.18 0 0 0 .349-.855c0-.348-.115-.642-.349-.879A1.11 1.11 0 0 0 94.163 9zm5.349 0c-.428 0-.785.138-1.076.413-.29.275-.436.6-.436.977v13.219c0 .377.146.703.436.979.291.274.648.412 1.076.412.411 0 .762-.138 1.053-.412.291-.275.436-.602.436-.979V10.39c0-.377-.145-.703-.436-.978S99.923 9 99.512 9zm16.161 0c-.359 0-.667.138-.923.413a1.394 1.394 0 0 0-.382.978v9.897l-7.242-10.533c-.331-.504-.795-.755-1.396-.755-.479 0-.888.177-1.225.53a1.794 1.794 0 0 0-.505 1.284v12.795c0 .377.127.703.382.979.255.274.569.412.943.412.36 0 .669-.138.924-.412.255-.275.382-.602.382-.979V13.407l7.445 10.886c.314.472.75.707 1.305.707.449 0 .831-.168 1.146-.507.315-.337.473-.734.473-1.189V10.39c0-.377-.127-.703-.383-.978a1.238 1.238 0 0 0-.944-.412zm16.938 7.409h-4.659c-.313 0-.587.116-.817.348a1.135 1.135 0 0 0-.349.833c0 .339.116.625.349.856.23.231.504.348.817.348h3.427v2.408c-.388.37-.9.693-1.534.973a4.963 4.963 0 0 1-2.004.416c-1.479 0-2.708-.528-3.686-1.586-.978-1.057-1.467-2.396-1.467-4.018 0-1.62.489-2.956 1.467-4.005s2.206-1.575 3.686-1.575c1.298 0 2.418.486 3.359 1.458.238.248.53.371.873.371.328 0 .613-.119.852-.358.239-.24.358-.536.358-.892a1.25 1.25 0 0 0-.358-.903C131.581 9.695 129.886 9 127.841 9c-2.211 0-4.07.737-5.579 2.211-1.508 1.475-2.262 3.4-2.262 5.777s.754 4.307 2.262 5.789C123.771 24.26 125.63 25 127.841 25c2.09 0 3.904-.695 5.442-2.084.478-.432.717-1.02.717-1.76v-3.312c0-.956-.464-1.435-1.389-1.435z"/>
  </g>
</svg>