<?xml version="1.0" encoding="utf-8"?>
<!-- Generator: Adobe Illustrator 21.0.0, SVG Export Plug-In . SVG Version: 6.00 Build 0)  -->
<svg version="1.1" id="Слой_1" xmlns="http://www.w3.org/2000/svg" xmlns:xlink="http://www.w3.org/1999/xlink" x="0px" y="0px"
	 viewBox="0 0 317.5 60.1" style="enable-background:new 0 0 317.5 60.1;" xml:space="preserve">
<style type="text/css">
	.st0{clip-path:url(#SVGID_2_);fill:#a0dff2;}
</style>
<g>
	<defs>
		<rect id="SVGID_1_" x="-0.2" y="-0.3" width="317.4" height="60.6"/>
	</defs>
	<clipPath id="SVGID_2_">
		<use xlink:href="#SVGID_1_"  style="overflow:visible;"/>
	</clipPath>
	<path class="st0" d="M45,2.1c0-0.3-0.3-0.6-0.6-0.6h-1.3l1.4-1.4c0.2-0.2,0.2-0.6,0-0.8c-0.2-0.2-0.6-0.2-0.8,0l-2.2,2.2h-3.9
		l2.6-2.6c0.2-0.2,0.2-0.6,0-0.8c-0.2-0.2-0.6-0.2-0.8,0L36,1.5h-3.9l-1.4-1.4h2.8c0.3,0,0.6-0.3,0.6-0.6S33.9-1,33.6-1h-1.9L33-2.4
		H36c0.3,0,0.6-0.3,0.6-0.6c0-0.3-0.3-0.6-0.6-0.6h-1.9l1.3-1.3h3.1c0.3,0,0.6-0.3,0.6-0.6c0-0.3-0.3-0.6-0.6-0.6h-1.9l1.3-1.3H41
		c0.3,0,0.6-0.3,0.6-0.6c0-0.3-0.3-0.6-0.6-0.6h-1.9L40-9.3c0.2-0.2,0.2-0.6,0-0.8c-0.2-0.2-0.6-0.2-0.8,0l-0.9,0.9v-1.9
		c0-0.3-0.3-0.6-0.6-0.6c-0.3,0-0.6,0.3-0.6,0.6v3.1l-1.3,1.3v-1.9c0-0.3-0.3-0.6-0.6-0.6c-0.3,0-0.6,0.3-0.6,0.6v3.1l-1.3,1.3v-1.9
		c0-0.3-0.3-0.6-0.6-0.6c-0.3,0-0.6,0.3-0.6,0.6v3.1l-1.3,1.3v-1.9c0-0.3-0.3-0.6-0.6-0.6c-0.3,0-0.6,0.3-0.6,0.6v2.8l-1.4-1.4v-3.9
		l3.4-3.4c0.2-0.2,0.2-0.6,0-0.8c-0.2-0.2-0.6-0.2-0.8,0l-2.6,2.6v-3.9l2.2-2.2c0.2-0.2,0.2-0.6,0-0.8c-0.2-0.2-0.6-0.2-0.8,0
		l-1.4,1.4v-1.3c0-0.3-0.3-0.6-0.6-0.6c-0.3,0-0.6,0.3-0.6,0.6v1.3l-1.4-1.4c-0.2-0.2-0.6-0.2-0.8,0c-0.2,0.2-0.2,0.6,0,0.8l2.2,2.2
		v3.9l-2.6-2.6c-0.2-0.2-0.6-0.2-0.8,0c-0.2,0.2-0.2,0.6,0,0.8l3.4,3.4v3.9l-1.4,1.4v-2.8c0-0.3-0.3-0.6-0.6-0.6
		c-0.3,0-0.6,0.3-0.6,0.6v1.9l-1.3-1.3v-3.1c0-0.3-0.3-0.6-0.6-0.6c-0.3,0-0.6,0.3-0.6,0.6v1.9l-1.3-1.3v-3.1c0-0.3-0.3-0.6-0.6-0.6
		c-0.3,0-0.6,0.3-0.6,0.6v1.9l-1.3-1.3v-3.1c0-0.3-0.3-0.6-0.6-0.6s-0.6,0.3-0.6,0.6v1.9l-0.9-0.9c-0.2-0.2-0.6-0.2-0.8,0
		c-0.2,0.2-0.2,0.6,0,0.8l0.9,0.9h-1.9c-0.3,0-0.6,0.3-0.6,0.6c0,0.3,0.3,0.6,0.6,0.6h3.1L18.9-6h-1.9c-0.3,0-0.6,0.3-0.6,0.6
		c0,0.3,0.3,0.6,0.6,0.6H20l1.3,1.3h-1.9c-0.3,0-0.6,0.3-0.6,0.6c0,0.3,0.3,0.6,0.6,0.6h3.1L23.8-1h-1.9c-0.3,0-0.6,0.3-0.6,0.6
		s0.3,0.6,0.6,0.6h2.8l-1.4,1.4h-3.9l-3.4-3.4c-0.2-0.2-0.6-0.2-0.8,0c-0.2,0.2-0.2,0.6,0,0.8l2.6,2.6h-3.9l-2.2-2.2
		c-0.2-0.2-0.6-0.2-0.8,0c-0.2,0.2-0.2,0.6,0,0.8l1.4,1.4H11c-0.3,0-0.6,0.3-0.6,0.6s0.3,0.6,0.6,0.6h1.3L10.9,4
		c-0.2,0.2-0.2,0.6,0,0.8C11,4.9,11.2,5,11.3,5c0.1,0,0.3-0.1,0.4-0.2l2.2-2.2h3.9l-2.6,2.6C15,5.4,15,5.8,15.3,6
		c0.1,0.1,0.3,0.2,0.4,0.2c0.1,0,0.3-0.1,0.4-0.2l3.4-3.4h3.9L24.7,4h-2.8c-0.3,0-0.6,0.3-0.6,0.6c0,0.3,0.3,0.6,0.6,0.6h1.9
		l-1.3,1.3h-3.1c-0.3,0-0.6,0.3-0.6,0.6c0,0.3,0.3,0.6,0.6,0.6h1.9L20,9h-3.1c-0.3,0-0.6,0.3-0.6,0.6s0.3,0.6,0.6,0.6h1.9l-1.3,1.3
		h-3.1c-0.3,0-0.6,0.3-0.6,0.6c0,0.3,0.3,0.6,0.6,0.6h1.9l-0.9,0.9c-0.2,0.2-0.2,0.6,0,0.8c0.1,0.1,0.3,0.2,0.4,0.2
		c0.1,0,0.3-0.1,0.4-0.2l0.9-0.9v1.9c0,0.3,0.3,0.6,0.6,0.6s0.6-0.3,0.6-0.6v-3.1l1.3-1.3v1.9c0,0.3,0.3,0.6,0.6,0.6
		c0.3,0,0.6-0.3,0.6-0.6V9.8l1.3-1.3v1.9c0,0.3,0.3,0.6,0.6,0.6c0.3,0,0.6-0.3,0.6-0.6V7.3L24.6,6v1.9c0,0.3,0.3,0.6,0.6,0.6
		c0.3,0,0.6-0.3,0.6-0.6V5.1l1.4,1.4v3.9l-3.4,3.4c-0.2,0.2-0.2,0.6,0,0.8c0.2,0.2,0.6,0.2,0.8,0l2.6-2.6v3.9L25,18.1
		c-0.2,0.2-0.2,0.6,0,0.8c0.2,0.2,0.6,0.2,0.8,0l1.4-1.4v1.3c0,0.3,0.3,0.6,0.6,0.6c0.3,0,0.6-0.3,0.6-0.6v-1.3l1.4,1.4
		c0.1,0.1,0.3,0.2,0.4,0.2c0.1,0,0.3-0.1,0.4-0.2c0.2-0.2,0.2-0.6,0-0.8l-2.2-2.2V12l2.6,2.6c0.1,0.1,0.3,0.2,0.4,0.2
		c0.1,0,0.3-0.1,0.4-0.2c0.2-0.2,0.2-0.6,0-0.8l-3.4-3.4V6.5l1.4-1.4v2.8c0,0.3,0.3,0.6,0.6,0.6c0.3,0,0.6-0.3,0.6-0.6V6l1.3,1.3
		v3.1c0,0.3,0.3,0.6,0.6,0.6c0.3,0,0.6-0.3,0.6-0.6V8.5l1.3,1.3v3.1c0,0.3,0.3,0.6,0.6,0.6c0.3,0,0.6-0.3,0.6-0.6v-1.9l1.3,1.3v3.1
		c0,0.3,0.3,0.6,0.6,0.6c0.3,0,0.6-0.3,0.6-0.6v-1.9l0.9,0.9c0.1,0.1,0.3,0.2,0.4,0.2s0.3-0.1,0.4-0.2c0.2-0.2,0.2-0.6,0-0.8
		l-0.9-0.9H41c0.3,0,0.6-0.3,0.6-0.6c0-0.3-0.3-0.6-0.6-0.6h-3.1l-1.3-1.3h1.9c0.3,0,0.6-0.3,0.6-0.6S38.8,9,38.5,9h-3.1l-1.3-1.3
		H36c0.3,0,0.6-0.3,0.6-0.6c0-0.3-0.3-0.6-0.6-0.6H33l-1.3-1.3h1.9c0.3,0,0.6-0.3,0.6-0.6c0-0.3-0.3-0.6-0.6-0.6h-2.8l1.4-1.4H36
		L39.4,6c0.1,0.1,0.3,0.2,0.4,0.2c0.1,0,0.3-0.1,0.4-0.2c0.2-0.2,0.2-0.6,0-0.8l-2.6-2.6h3.9l2.2,2.2C43.9,4.9,44,5,44.2,5
		c0.1,0,0.3-0.1,0.4-0.2c0.2-0.2,0.2-0.6,0-0.8l-1.4-1.4h1.3C44.8,2.6,45,2.4,45,2.1z M27.7,5.4l-3.3-3.3l3.3-3.3l2.8,2.8l0.6,0.6
		L27.7,5.4z"/>
	<path class="st0" d="M132.1,58.4h-1.4l1-1c0.2-0.2,0.2-0.5,0-0.7c-0.2-0.2-0.5-0.2-0.7,0l-1.7,1.7h-1.7l1.5-1.5
		c0.2-0.2,0.2-0.5,0-0.7c-0.2-0.2-0.5-0.2-0.7,0l-2.2,2.2h-2.3l2.2-2.2c0.2-0.2,0.2-0.5,0-0.7c-0.1-0.1-0.1-0.1-0.2-0.1
		c0-0.1,0.1-0.2,0.1-0.2c0-0.3-0.2-0.5-0.5-0.5h-3.1l1.7-1.7h3.2c0.3,0,0.5-0.2,0.5-0.5c0-0.3-0.2-0.5-0.5-0.5H125l1.2-1.2h2.4
		c0.3,0,0.5-0.2,0.5-0.5c0-0.3-0.2-0.5-0.5-0.5h-1.4l1-1c0.2-0.2,0.2-0.5,0-0.7c-0.2-0.2-0.5-0.2-0.7,0l-1,1v-1.4
		c0-0.3-0.2-0.5-0.5-0.5c-0.3,0-0.5,0.2-0.5,0.5V50l-1.2,1.2V49c0-0.3-0.2-0.5-0.5-0.5c-0.3,0-0.5,0.2-0.5,0.5v3.2l-1.7,1.7v-3.1
		c0-0.3-0.2-0.5-0.5-0.5c-0.1,0-0.2,0-0.2,0.1c0-0.1-0.1-0.2-0.1-0.2c-0.2-0.2-0.5-0.2-0.7,0l-2.2,2.2V50l2.2-2.2
		c0.2-0.2,0.2-0.5,0-0.7c-0.2-0.2-0.5-0.2-0.7,0l-1.5,1.5v-1.7l1.7-1.7c0.2-0.2,0.2-0.5,0-0.7c-0.2-0.2-0.5-0.2-0.7,0l-1,1V44
		c0-0.3-0.2-0.5-0.5-0.5c-0.3,0-0.5,0.2-0.5,0.5v1.4l-1-1c-0.2-0.2-0.5-0.2-0.7,0c-0.2,0.2-0.2,0.5,0,0.7l1.7,1.7v1.7l-1.5-1.5
		c-0.2-0.2-0.5-0.2-0.7,0c-0.2,0.2-0.2,0.5,0,0.7l2.2,2.2v2.3l-2.2-2.2c-0.2-0.2-0.5-0.2-0.7,0c-0.1,0.1-0.1,0.1-0.1,0.2
		c-0.1,0-0.2-0.1-0.2-0.1c-0.3,0-0.5,0.2-0.5,0.5v3.1l-1.7-1.7V49c0-0.3-0.2-0.5-0.5-0.5s-0.5,0.2-0.5,0.5v2.1l-1.2-1.2v-2.4
		c0-0.3-0.2-0.5-0.5-0.5s-0.5,0.2-0.5,0.5V49l-1-1c-0.2-0.2-0.5-0.2-0.7,0c-0.2,0.2-0.2,0.5,0,0.7l1,1H106c-0.3,0-0.5,0.2-0.5,0.5
		c0,0.3,0.2,0.5,0.5,0.5h2.4l1.2,1.2h-2.1c-0.3,0-0.5,0.2-0.5,0.5c0,0.3,0.2,0.5,0.5,0.5h3.2l1.7,1.7h-3.1c-0.3,0-0.5,0.2-0.5,0.5
		c0,0.1,0,0.2,0.1,0.2c-0.1,0-0.2,0.1-0.2,0.1c-0.2,0.2-0.2,0.5,0,0.7l2.2,2.2h-2.3l-2.2-2.2c-0.2-0.2-0.5-0.2-0.7,0
		c-0.2,0.2-0.2,0.5,0,0.7l1.5,1.5h-1.7l-1.7-1.7c-0.2-0.2-0.5-0.2-0.7,0c-0.2,0.2-0.2,0.5,0,0.7l1,1h-1.4c-0.3,0-0.5,0.2-0.5,0.5
		c0,0.3,0.2,0.5,0.5,0.5h1.4l-1,1c-0.2,0.2-0.2,0.5,0,0.7c0.1,0.1,0.2,0.1,0.4,0.1c0.1,0,0.3,0,0.4-0.1l1.7-1.7h1.7l-1.5,1.5
		c-0.2,0.2-0.2,0.5,0,0.7c0.1,0.1,0.2,0.1,0.4,0.1c0.1,0,0.3,0,0.4-0.1l2.2-2.2h2.3l-2.2,2.2c-0.2,0.2-0.2,0.5,0,0.7
		c0.1,0.1,0.1,0.1,0.2,0.1c0,0.1-0.1,0.2-0.1,0.2c0,0.3,0.2,0.5,0.5,0.5h3.1l-1.7,1.7h-3.2c-0.3,0-0.5,0.2-0.5,0.5s0.2,0.5,0.5,0.5
		h2.1l-1.2,1.2H106c-0.3,0-0.5,0.2-0.5,0.5c0,0.3,0.2,0.5,0.5,0.5h1.4l-1,1c-0.2,0.2-0.2,0.5,0,0.7c0.1,0.1,0.2,0.1,0.4,0.1
		c0.1,0,0.3,0,0.4-0.1l1-1v1.4c0,0.3,0.2,0.5,0.5,0.5s0.5-0.2,0.5-0.5v-2.4l1.2-1.2v2.1c0,0.3,0.2,0.5,0.5,0.5s0.5-0.2,0.5-0.5v-3.2
		l1.7-1.7v3.1c0,0.3,0.2,0.5,0.5,0.5c0.1,0,0.2,0,0.2-0.1c0,0.1,0.1,0.2,0.1,0.2c0.2,0.2,0.5,0.2,0.7,0l2.2-2.2v2.3l-2.2,2.2
		c-0.2,0.2-0.2,0.5,0,0.7c0.1,0.1,0.2,0.1,0.4,0.1c0.1,0,0.3,0,0.4-0.1l1.5-1.5v1.7l-1.7,1.7c-0.2,0.2-0.2,0.5,0,0.7
		c0.1,0.1,0.2,0.1,0.4,0.1c0.1,0,0.3,0,0.4-0.1l1-1v1.4c0,0.3,0.2,0.5,0.5,0.5c0.3,0,0.5-0.2,0.5-0.5v-1.4l1,1
		c0.2,0.2,0.5,0.2,0.7,0c0.2-0.2,0.2-0.5,0-0.7l-1.7-1.7v-1.7l1.5,1.5c0.2,0.2,0.5,0.2,0.7,0c0.2-0.2,0.2-0.5,0-0.7l-2.2-2.2v-2.3
		l2.2,2.2c0.1,0.1,0.2,0.1,0.4,0.1c0.1,0,0.3,0,0.4-0.1c0.1-0.1,0.1-0.1,0.1-0.2c0.1,0,0.2,0.1,0.2,0.1c0.3,0,0.5-0.2,0.5-0.5v-3.1
		l1.7,1.7v3.2c0,0.3,0.2,0.5,0.5,0.5c0.3,0,0.5-0.2,0.5-0.5v-2.1l1.2,1.2v2.4c0,0.3,0.2,0.5,0.5,0.5c0.3,0,0.5-0.2,0.5-0.5v-1.4l1,1
		c0.1,0.1,0.2,0.1,0.4,0.1c0.1,0,0.3,0,0.4-0.1c0.2-0.2,0.2-0.5,0-0.7l-1-1h1.4c0.3,0,0.5-0.2,0.5-0.5c0-0.3-0.2-0.5-0.5-0.5h-2.4
		l-1.2-1.2h2.1c0.3,0,0.5-0.2,0.5-0.5s-0.2-0.5-0.5-0.5H124l-1.7-1.7h3.1c0.3,0,0.5-0.2,0.5-0.5c0-0.1,0-0.2-0.1-0.2
		c0.1,0,0.2-0.1,0.2-0.1c0.2-0.2,0.2-0.5,0-0.7l-2.2-2.2h2.3l2.2,2.2c0.1,0.1,0.2,0.1,0.4,0.1c0.1,0,0.3,0,0.4-0.1
		c0.2-0.2,0.2-0.5,0-0.7l-1.5-1.5h1.7l1.7,1.7c0.1,0.1,0.2,0.1,0.4,0.1s0.3,0,0.4-0.1c0.2-0.2,0.2-0.5,0-0.7l-1-1h1.4
		c0.3,0,0.5-0.2,0.5-0.5C132.6,58.6,132.4,58.4,132.1,58.4z M117.8,53.7l2.8-2.8v3.9l-1.4,1.4l-0.2-0.3h-1.1V53.7z M114,51l2.8,2.8
		V56h-1.1l-0.2,0.3l-1.4-1.4V51z M109.4,55.6h3.9l1.6,1.6l-0.6,1.1h-2.1L109.4,55.6z M113.3,62.1h-3.9l2.8-2.8h2.1l0.6,1.1
		L113.3,62.1z M116.8,64l-2.8,2.8v-3.9l1.4-1.4l0.2,0.3h1.1V64z M116.2,60.7l-1.1-1.8l1.1-1.8h2.1l1.1,1.8l-1.1,1.8H116.2z
		 M120.6,66.7l-2.8-2.8v-2.3h1.1l0.2-0.3l1.4,1.4V66.7z M125.2,62.1h-3.9l-1.6-1.6l0.6-1.1h2.1L125.2,62.1z M122.4,58.4h-2.1
		l-0.6-1.1l1.6-1.6h3.9L122.4,58.4z"/>
	<path class="st0" d="M262.7,1.1h-1.4l1-1c0.2-0.2,0.2-0.5,0-0.7c-0.2-0.2-0.5-0.2-0.7,0l-1.7,1.7h-1.7l1.5-1.5
		c0.2-0.2,0.2-0.5,0-0.7c-0.2-0.2-0.5-0.2-0.7,0l-2.2,2.2h-2.3l2.2-2.2c0.2-0.2,0.2-0.5,0-0.7c-0.1-0.1-0.1-0.1-0.2-0.1
		c0-0.1,0.1-0.2,0.1-0.2c0-0.3-0.2-0.5-0.5-0.5h-3.1l1.7-1.7h3.2c0.3,0,0.5-0.2,0.5-0.5c0-0.3-0.2-0.5-0.5-0.5h-2.1l1.2-1.2h2.4
		c0.3,0,0.5-0.2,0.5-0.5c0-0.3-0.2-0.5-0.5-0.5h-1.4l1-1c0.2-0.2,0.2-0.5,0-0.7c-0.2-0.2-0.5-0.2-0.7,0l-1,1v-1.4
		c0-0.3-0.2-0.5-0.5-0.5S256-9.9,256-9.6v2.4L254.8-6v-2.1c0-0.3-0.2-0.5-0.5-0.5s-0.5,0.2-0.5,0.5V-5l-1.7,1.7v-3.1
		c0-0.3-0.2-0.5-0.5-0.5c-0.1,0-0.2,0-0.2,0.1c0-0.1-0.1-0.2-0.1-0.2c-0.2-0.2-0.5-0.2-0.7,0l-2.2,2.2v-2.3l2.2-2.2
		c0.2-0.2,0.2-0.5,0-0.7c-0.2-0.2-0.5-0.2-0.7,0l-1.5,1.5v-1.7l1.7-1.7c0.2-0.2,0.2-0.5,0-0.7c-0.2-0.2-0.5-0.2-0.7,0l-1,1v-1.4
		c0-0.3-0.2-0.5-0.5-0.5c-0.3,0-0.5,0.2-0.5,0.5v1.4l-1-1c-0.2-0.2-0.5-0.2-0.7,0c-0.2,0.2-0.2,0.5,0,0.7l1.7,1.7v1.7l-1.5-1.5
		c-0.2-0.2-0.5-0.2-0.7,0c-0.2,0.2-0.2,0.5,0,0.7l2.2,2.2v2.3l-2.2-2.2c-0.2-0.2-0.5-0.2-0.7,0c-0.1,0.1-0.1,0.1-0.1,0.2
		c-0.1,0-0.2-0.1-0.2-0.1c-0.3,0-0.5,0.2-0.5,0.5v3.1L241.9-5v-3.2c0-0.3-0.2-0.5-0.5-0.5c-0.3,0-0.5,0.2-0.5,0.5V-6l-1.2-1.2v-2.4
		c0-0.3-0.2-0.5-0.5-0.5s-0.5,0.2-0.5,0.5v1.4l-1-1c-0.2-0.2-0.5-0.2-0.7,0c-0.2,0.2-0.2,0.5,0,0.7l1,1h-1.4c-0.3,0-0.5,0.2-0.5,0.5
		c0,0.3,0.2,0.5,0.5,0.5h2.4l1.2,1.2H238c-0.3,0-0.5,0.2-0.5,0.5c0,0.3,0.2,0.5,0.5,0.5h3.2l1.7,1.7h-3.1c-0.3,0-0.5,0.2-0.5,0.5
		c0,0.1,0,0.2,0.1,0.2c-0.1,0-0.2,0.1-0.2,0.1c-0.2,0.2-0.2,0.5,0,0.7l2.2,2.2h-2.3l-2.2-2.2c-0.2-0.2-0.5-0.2-0.7,0
		c-0.2,0.2-0.2,0.5,0,0.7l1.5,1.5h-1.7l-1.7-1.7c-0.2-0.2-0.5-0.2-0.7,0c-0.2,0.2-0.2,0.5,0,0.7l1,1H233c-0.3,0-0.5,0.2-0.5,0.5
		c0,0.3,0.2,0.5,0.5,0.5h1.4l-1,1c-0.2,0.2-0.2,0.5,0,0.7c0.1,0.1,0.2,0.1,0.4,0.1c0.1,0,0.3,0,0.4-0.1l1.7-1.7h1.7L236,3.7
		c-0.2,0.2-0.2,0.5,0,0.7c0.1,0.1,0.2,0.1,0.4,0.1c0.1,0,0.3,0,0.4-0.1l2.2-2.2h2.3l-2.2,2.2c-0.2,0.2-0.2,0.5,0,0.7
		c0.1,0.1,0.1,0.1,0.2,0.1c0,0.1-0.1,0.2-0.1,0.2c0,0.3,0.2,0.5,0.5,0.5h3.1l-1.7,1.7H238c-0.3,0-0.5,0.2-0.5,0.5
		c0,0.3,0.2,0.5,0.5,0.5h2.1L239,9.8h-2.4c-0.3,0-0.5,0.2-0.5,0.5c0,0.3,0.2,0.5,0.5,0.5h1.4l-1,1c-0.2,0.2-0.2,0.5,0,0.7
		c0.1,0.1,0.2,0.1,0.4,0.1c0.1,0,0.3,0,0.4-0.1l1-1v1.4c0,0.3,0.2,0.5,0.5,0.5s0.5-0.2,0.5-0.5v-2.4l1.2-1.2v2.1
		c0,0.3,0.2,0.5,0.5,0.5c0.3,0,0.5-0.2,0.5-0.5V8.3l1.7-1.7v3.1c0,0.3,0.2,0.5,0.5,0.5c0.1,0,0.2,0,0.2-0.1c0,0.1,0.1,0.2,0.1,0.2
		c0.2,0.2,0.5,0.2,0.7,0l2.2-2.2v2.3l-2.2,2.2c-0.2,0.2-0.2,0.5,0,0.7c0.1,0.1,0.2,0.1,0.4,0.1s0.3,0,0.4-0.1l1.5-1.5v1.7l-1.7,1.7
		c-0.2,0.2-0.2,0.5,0,0.7c0.1,0.1,0.2,0.1,0.4,0.1s0.3,0,0.4-0.1l1-1v1.4c0,0.3,0.2,0.5,0.5,0.5c0.3,0,0.5-0.2,0.5-0.5v-1.4l1,1
		c0.2,0.2,0.5,0.2,0.7,0c0.2-0.2,0.2-0.5,0-0.7l-1.7-1.7V12l1.5,1.5c0.2,0.2,0.5,0.2,0.7,0c0.2-0.2,0.2-0.5,0-0.7l-2.2-2.2V8.2
		l2.2,2.2c0.1,0.1,0.2,0.1,0.4,0.1s0.3,0,0.4-0.1c0.1-0.1,0.1-0.1,0.1-0.2c0.1,0,0.2,0.1,0.2,0.1c0.3,0,0.5-0.2,0.5-0.5V6.6l1.7,1.7
		v3.2c0,0.3,0.2,0.5,0.5,0.5s0.5-0.2,0.5-0.5V9.3l1.2,1.2v2.4c0,0.3,0.2,0.5,0.5,0.5s0.5-0.2,0.5-0.5v-1.4l1,1
		c0.1,0.1,0.2,0.1,0.4,0.1c0.1,0,0.3,0,0.4-0.1c0.2-0.2,0.2-0.5,0-0.7l-1-1h1.4c0.3,0,0.5-0.2,0.5-0.5c0-0.3-0.2-0.5-0.5-0.5h-2.4
		l-1.2-1.2h2.1c0.3,0,0.5-0.2,0.5-0.5c0-0.3-0.2-0.5-0.5-0.5h-3.2l-1.7-1.7h3.1c0.3,0,0.5-0.2,0.5-0.5c0-0.1,0-0.2-0.1-0.2
		c0.1,0,0.2-0.1,0.2-0.1c0.2-0.2,0.2-0.5,0-0.7l-2.2-2.2h2.3l2.2,2.2c0.1,0.1,0.2,0.1,0.4,0.1s0.3,0,0.4-0.1c0.2-0.2,0.2-0.5,0-0.7
		l-1.5-1.5h1.7l1.7,1.7c0.1,0.1,0.2,0.1,0.4,0.1c0.1,0,0.3,0,0.4-0.1c0.2-0.2,0.2-0.5,0-0.7l-1-1h1.4c0.3,0,0.5-0.2,0.5-0.5
		C263.2,1.4,263,1.1,262.7,1.1z M248.4-3.5l2.8-2.8v3.9l-1.4,1.4l-0.2-0.3h-1.1V-3.5z M244.6-6.2l2.8,2.8v2.3h-1.1L246-0.9l-1.4-1.4
		V-6.2z M240-1.6h3.9l1.6,1.6l-0.6,1.1h-2.1L240-1.6z M243.9,4.9H240l2.8-2.8h2.1l0.6,1.1L243.9,4.9z M247.3,6.8l-2.8,2.8V5.6
		l1.4-1.4l0.2,0.3h1.1V6.8z M246.8,3.5l-1.1-1.8l1.1-1.8h2.1l1.1,1.8l-1.1,1.8H246.8z M251.1,9.5l-2.8-2.8V4.5h1.1l0.2-0.3l1.4,1.4
		V9.5z M255.7,4.9h-3.9l-1.6-1.6l0.6-1.1h2.1L255.7,4.9z M253,1.1h-2.1L250.2,0l1.6-1.6h3.9L253,1.1z"/>
</g>
</svg>
