<svg width="24" height="34" fill="none" xmlns="http://www.w3.org/2000/svg"><g clip-path="url(#a)"><path d="M2.4 34a2.36 2.36 0 0 1-2-1.08c-.26-.4-.4-.87-.4-1.35V12.14C0 5.44 5.38 0 12 0s12 5.45 12 12.14c0 4.97-2.97 9.26-7.2 11.13l6.5 6.58a2.45 2.45 0 0 1-.78 3.96 2.38 2.38 0 0 1-2.62-.52l-9.6-9.72a2.45 2.45 0 0 1 .36-3.73c.4-.27.86-.41 1.34-.41 3.97 0 7.2-3.27 7.2-7.29A7.25 7.25 0 0 0 12 4.86a7.25 7.25 0 0 0-7.2 7.28v13.57l1.28-1.3a2.38 2.38 0 0 1 3.4 0 2.45 2.45 0 0 1 0 3.44L4.1 33.29a2.4 2.4 0 0 1-1.7.71Z" fill="url(#b)"/></g><defs><linearGradient id="b" x1="24.38" y1="32.21" x2="-.38" y2="7.46" gradientUnits="userSpaceOnUse"><stop stop-color="#07C"/><stop offset="1" stop-color="#0CA"/></linearGradient><clipPath id="a"><path fill="#fff" d="M0 0h24v34H0z"/></clipPath></defs></svg>