<svg width="48" height="14" fill="none" xmlns="http://www.w3.org/2000/svg"><g clip-path="url(#a)" fill-rule="evenodd" clip-rule="evenodd"><path d="M12.93 0s-1.87 0-2.37 1.84L8.78 8.31h-.35S7.1 3.55 6.65 1.83C6.15 0 4.27 0 4.27 0H0v14h4.27V5.69h.36L7.12 14h2.97l2.49-8.3h.35V14h4.28V0h-4.28ZM28.54 0s-1.25.12-1.84 1.47L23.67 8.3h-.35V0h-4.27v14h4.03s1.31-.12 1.9-1.47l2.97-6.84h.35V14h4.27V0h-4.03ZM34.47 6.36V14h4.27V9.54h4.63a4.63 4.63 0 0 0 4.36-3.18H34.47Z" fill="#4DB45E"/><path d="M43.37 0h-9.5a6.95 6.95 0 0 0 4.93 5.5c.57.16 1.17.25 1.78.25h7.33c.06-.32.09-.65.09-.98A4.7 4.7 0 0 0 43.37 0Z" fill="url(#b)"/></g><defs><linearGradient id="b" x1="33.87" y1="2.87" x2="48" y2="2.87" gradientUnits="userSpaceOnUse"><stop offset=".3" stop-color="#00B4E6"/><stop offset="1" stop-color="#088CCB"/></linearGradient><clipPath id="a"><path fill="#fff" d="M0 0h48v14H0z"/></clipPath></defs></svg>