<svg width="32" height="32" fill="none" xmlns="http://www.w3.org/2000/svg"><path d="M31.45 3.31H.55c-.3 0-.55.25-.55.55v24.28c0 .3.25.55.55.55h30.9c.3 0 .55-.25.55-.55V3.86c0-.3-.25-.55-.55-.55zm-.55 24.28H1.1V4.4h29.8V27.6z" fill="#07C"/><path d="M8.83 15.52a3.08 3.08 0 100-6.15 3.08 3.08 0 000 6.15zm0-5.04a1.97 1.97 0 110 3.95 1.97 1.97 0 010-3.95zM3.86 25.38c.13 0 .26-.05.37-.14l9-7.92L18.9 23a.55.55 0 10.78-.78l-2.65-2.65 5.06-5.55 6.22 5.7a.55.55 0 00.74-.82l-6.62-6.07a.55.55 0 00-.78.03l-5.4 5.93-2.62-2.62a.55.55 0 00-.75-.02l-9.4 8.26a.55.55 0 00.37.97z" fill="#07C"/></svg>