<svg width="32" height="32" fill="none" xmlns="http://www.w3.org/2000/svg"><g clip-path="url(#clip0)" fill="#07C"><path d="M16 5.33a10.67 10.67 0 100 21.34 10.67 10.67 0 000-21.34zm0 20.27a9.6 9.6 0 110-19.2 9.6 9.6 0 010 19.2z"/><path d="M20.8 9.07h-1.07a.53.53 0 00-.42.21.82.82 0 01-1.28 0 .53.53 0 00-.43-.21h-2.32a5.23 5.23 0 00-3.9 1.33 5.43 5.43 0 00-1.78 4 .53.53 0 00.91.38 5.4 5.4 0 013.36-1.45v9.6c0 .89.71 1.6 1.6 1.6h1.06c.89 0 1.6-.71 1.6-1.6V13a.82.82 0 011.18.12c.1.14.26.21.42.21h1.07c.59 0 1.07-.47 1.07-1.06v-2.14c0-.59-.48-1.06-1.07-1.06zm-3.73 13.86c0 .3-.24.54-.54.54h-1.06a.53.53 0 01-.54-.54v-8h2.14v8zm3.73-10.66h-.83a1.85 1.85 0 00-1.3-.54c-.92 0-1.6.71-1.6 1.07v1.07h-2.14V12.8c0-.3-.24-.53-.53-.53h-.53a5.82 5.82 0 00-3.02.92 4.2 4.2 0 014.43-3.06h2.08c.74.69 1.88.69 2.61 0h.83v2.14z"/><path d="M31.17 13.3l-1.64-.88-1.43-3.45.53-1.8c.17-.55.01-1.16-.4-1.57L26.4 3.77a1.58 1.58 0 00-1.58-.4l-1.79.54-3.45-1.44L18.7.83A1.59 1.59 0 0017.3 0h-2.58c-.59 0-1.12.32-1.4.83l-.9 1.64L8.98 3.9l-1.8-.53a1.58 1.58 0 00-1.57.4L3.77 5.6a1.59 1.59 0 00-.4 1.58l.54 1.79-1.44 3.45-1.64.89c-.51.28-.83.81-.83 1.4v2.58c0 .59.32 1.12.83 1.4l1.64.9 1.43 3.44-.53 1.8c-.17.55-.01 1.16.4 1.57l1.83 1.83c.41.41 1.02.57 1.58.4l1.79-.54 3.45 1.43.89 1.65c.27.51.81.83 1.4.83h2.58c.59 0 1.12-.32 1.4-.83l.9-1.64 3.44-1.43 1.8.53c.55.17 1.16.01 1.57-.4l1.83-1.83c.41-.41.56-1.02.4-1.58l-.54-1.79 1.43-3.45 1.65-.89c.51-.27.83-.81.83-1.4v-2.58c0-.59-.32-1.12-.83-1.4zm-.24 4c0 .19-.1.36-.27.45l-1.8.98c-.11.06-.2.16-.25.27l-1.57 3.8a.53.53 0 00-.02.35l.59 1.98c.05.18 0 .38-.13.51l-1.83 1.84a.52.52 0 01-.52.13l-1.97-.59a.53.53 0 00-.36.02L19 28.6a.53.53 0 00-.27.24l-.98 1.8a.52.52 0 01-.46.28h-2.58c-.2 0-.37-.1-.46-.27l-.98-1.8a.53.53 0 00-.27-.25l-3.8-1.57a.53.53 0 00-.35-.02l-1.98.59a.52.52 0 01-.51-.13l-1.83-1.84a.52.52 0 01-.14-.51l.6-1.98a.53.53 0 00-.03-.35L3.4 19a.53.53 0 00-.24-.27l-1.81-.98a.52.52 0 01-.27-.46v-2.58c0-.2.1-.37.27-.46l1.8-.98c.12-.06.2-.16.25-.27l1.57-3.8a.53.53 0 00.02-.35l-.59-1.98a.52.52 0 01.13-.51l1.83-1.84a.52.52 0 01.52-.13l1.97.59c.12.04.25.03.36-.02L13 3.4c.11-.05.2-.13.27-.24l.98-1.8c.09-.18.26-.28.46-.28h2.58c.2 0 .37.1.46.27l.98 1.8c.06.12.16.2.27.25l3.8 1.57c.11.05.24.05.35.02l1.98-.59c.18-.05.38 0 .51.13l1.84 1.83c.13.14.18.34.13.52l-.59 1.97a.53.53 0 00.02.36L28.6 13c.05.11.13.2.24.27l1.8.98c.18.09.28.26.28.46v2.58z"/></g><defs><clipPath id="clip0"><path fill="#fff" d="M0 0h32v32H0z"/></clipPath></defs></svg>