<svg width="32" height="32" fill="none" xmlns="http://www.w3.org/2000/svg"><g clip-path="url(#clip0)" fill="#07C"><path d="M5.33 32h21.34c1.47 0 2.66-1.2 2.66-2.67V20.8c0-1.47-1.2-2.66-2.66-2.67H22.5c1.65-2.32 3-5.16 3.08-8.23.1-5.1-3.75-9.4-8.82-9.87A9.63 9.63 0 006.4 9.6c0 3.2 1.4 6.13 3.09 8.53H5.33a2.67 2.67 0 00-2.66 2.67v8.53c0 1.48 1.2 2.67 2.66 2.67zm-1.6-2.67v-6.51l14.5 8.11H5.32a1.6 1.6 0 01-1.6-1.6zm24.54 0c0 .89-.72 1.6-1.6 1.6H25.2l-5.88-3.29 8.86-7.33c.05.16.08.32.09.5v8.52zm-.73-9.87l-9.5 7.86a.53.53 0 00.08.87l4.9 2.74H20.4L3.73 21.6v-.8c0-.2.04-.4.12-.58l12.04 6.73c.2.1.43.09.6-.05l9.3-7.7h.88c.3 0 .6.1.87.26zM10.2 3.34a8.45 8.45 0 016.48-2.24 8.65 8.65 0 017.84 8.77c-.17 6.36-6.32 11.72-8.2 13.2a.53.53 0 01-.66 0c-1.92-1.51-8.2-7-8.2-13.47 0-2.38 1-4.65 2.74-6.26zm.08 15.86A30.1 30.1 0 0015 23.92c.58.46 1.4.46 1.98 0a30.17 30.17 0 004.72-4.72h2.4l-8.01 6.64L4.57 19.4c.23-.13.5-.2.76-.2h4.96z"/><path d="M20.8 9.6a4.8 4.8 0 10-9.6 0 4.8 4.8 0 009.6 0zm-8.53 0a3.73 3.73 0 117.46 0 3.73 3.73 0 01-7.46 0z"/></g><defs><clipPath id="clip0"><path fill="#fff" d="M0 0h32v32H0z"/></clipPath></defs></svg>