<svg xmlns="http://www.w3.org/2000/svg" xmlns:xlink="http://www.w3.org/1999/xlink"  width="45" height="2000" >

    <symbol id="broom"  viewBox="0 0 512 512" preserveAspectRatio="none">
        <g>
            <g>
                <path fill="#127D8F"   d="M463.2,9.5L343.5,241.7c0.7,0.2,1.4,0.4,2.1,0.6c5.1,1.6,9.8,3.6,14.2,5.9c5.3,2.8,10.2,6.1,14.5,9.9
			l120-232.7c4.4-8.6,1.1-19.1-7.5-23.5C478.2-2.5,467.7,0.9,463.2,9.5z"/>
                <path  fill="#127D8F"  d="M67.5,440.2c19,17.2,42.4,32.1,69.5,44.5c45.7,20.8,85.9,27,87.6,27.2c0,0,0.1,0,0.1,0
			c0.5,0.1,1.1,0.1,1.6,0.1c0.1,0,0.3,0,0.4,0c48.1-1.6,85.6-17.6,111.4-47.6c34-39.5,46.2-98.8,43.9-149.9
			c-0.7-14.6-5.9-29.5-16.1-40.2c-0.8-0.8-1.5-1.6-2.4-2.3c-3.6-3.3-7.6-6-11.9-8.2c-3.7-2-7.6-3.6-11.6-4.8c-1.7-0.5-3.3-0.9-5-1.2
			c-2.3-0.4-4.6-0.6-6.9-0.6c-16.9,0-33,10.6-45.4,21.4c-12.8,11.2-25.7,23.4-40.1,32.9c-15.8,10.5-33.1,15.7-51.2,20.9
			c-23.3,6.6-47.3,10.9-71.4,13.6c-21.4,2.4-43.1,3.8-64.7,3.8c-8.6,0-17.2-0.2-25.7-0.7c-0.5,0-1-0.1-1.5-0.1c-0.3,0-0.6,0-0.8,0
			c-3.7,0-7.2,1.7-9.4,4.6c-2.4,3.2-3.1,7.3-1.8,11.1C26.1,392.9,43.3,418.3,67.5,440.2z M50.9,373.3
			C50.9,373.3,50.9,373.3,50.9,373.3c1.2,0,2.5,0,3.7,0c17.5,0,41.8-0.8,69.2-3.9c57.8-6.6,105-20.7,140.6-41.9
			c1-0.6,2.2-0.9,3.3-0.9c1.1,0,2.2,0.3,3.1,0.8c20.7,11.4,53,28.3,76,36.5c2.8,1,4.6,3.9,4.3,6.9c-2.7,24-10.5,54.5-31,78.2
			c-21,24.3-51.9,37.5-92,39.2c-0.1,0-0.3,0-0.4,0c-0.5,0-1,0-1.6-0.1c-4-0.7-14-2.6-27.4-6.3c3.8-1.7,7.8-3.7,11.7-6
			c3.6-2,7.2-4.2,10.7-6.5c11-7.1,21.7-15.2,30-21.8c1.9-1.5,0.1-4.5-2.2-3.6c-18.2,7.6-41.4,12.7-62.1,16.1
			c-6.5,1.1-12.8,1.9-18.6,2.7c-6.8,0.9-12.9,1.5-18.1,2c-1.3-0.6-2.7-1.2-4-1.8c-11.6-5.3-22.3-11.1-32.3-17.3
			c4.3-0.4,8.9-1.1,13.6-2.1c4.2-0.9,8.5-1.9,12.7-3c12.3-3.4,24.1-7.6,32.1-10.7c1.5-0.6,1-2.9-0.6-2.7
			c-14.6,1.4-34.9,1.5-52.2,1.3c-5.7-0.1-11-0.2-15.8-0.3c-6.2-0.2-11.4-0.4-14.8-0.5c-2-1.7-3.9-3.3-5.8-5.1
			c-2.4-2.2-4.8-4.5-7.1-6.8c3.5-0.4,7.2-0.9,10.9-1.6c3.5-0.7,7-1.5,10.5-2.3c13.8-3.5,27.2-8.3,36.1-11.8c1.5-0.6,1-2.9-0.6-2.7
			c-13.7,1.3-32.4,1.5-49,1.3c-4.1,0-8-0.1-11.8-0.2c-4.1-0.1-8-0.2-11.4-0.3c-4.8-6.4-9.1-13-12.7-19.9
			C46.9,375.9,48.5,373.3,50.9,373.3z"/>
                <circle  fill="#127D8F"  cx="434.3" cy="433.2" r="28.1"/>
                <circle  fill="#127D8F"  cx="373.8" cy="497.5" r="14.2"/>
                <circle  fill="#127D8F"  cx="450.6" cy="494.2" r="14.2"/>
            </g>
        </g>
    </symbol>

    <symbol id="zoom"  viewBox="0 0 129 129" preserveAspectRatio="none">
                <path d="M51.6,96.7c11,0,21-3.9,28.8-10.5l35,35c0.8,0.8,1.8,1.2,2.9,1.2c1,0,2.1-0.4,2.9-1.2c1.6-1.6,1.6-4.2,0-5.8l-35-35    c6.5-7.8,10.5-17.9,10.5-28.8c0-24.9-20.2-45.1-45.1-45.1C26.8,6.5,6.5,26.8,6.5,51.6C6.5,76.5,26.8,96.7,51.6,96.7z M51.6,14.7    c20.4,0,36.9,16.6,36.9,36.9C88.5,72,72,88.5,51.6,88.5c-20.4,0-36.9-16.6-36.9-36.9C14.7,31.3,31.3,14.7,51.6,14.7z" fill="#D80027"/>
                <path d="m47.5,78.3c0,2.3 1.8,4.1 4.1,4.1 2.3,0 4.1-1.8 4.1-4.1v-22.6h22.6c2.3,0 4.1-1.8 4.1-4.1s-1.8-4.1-4.1-4.1h-22.6v-22.6c0-2.3-1.8-4.1-4.1-4.1-2.3,0-4.1,1.8-4.1,4.1v22.6h-22.6c-2.3,0-4.1,1.8-4.1,4.1s1.8,4.1 4.1,4.1h22.6v22.6z" fill="#D80027"/>
    </symbol>
    <symbol id="odn" preserveAspectRatio="none" viewBox="0 0 15 15">
            <path fill="#fff" d="M7.4,7.7c2.1,0,3.9-1.7,3.9-3.9C11.3,1.7,9.6,0,7.4,0C5.3,0,3.6,1.7,3.6,3.9C3.6,6,5.3,7.7,7.4,7.7z M7.4,2.3
		C8.3,2.3,9,3,9,3.9c0,0.9-0.7,1.6-1.6,1.6c-0.9,0-1.6-0.7-1.6-1.6C5.8,3,6.6,2.3,7.4,2.3z"/>
            <path fill="#fff" d="M9,10.9c0.8-0.2,1.5-0.5,2.2-0.9c0.5-0.3,0.7-1,0.4-1.6c-0.3-0.5-1-0.7-1.6-0.4C8.5,9,6.4,9,4.8,8C4.3,7.7,3.6,7.9,3.3,8.4
		C2.9,8.9,3.1,9.6,3.6,10c0.7,0.4,1.5,0.8,2.2,0.9l-2.2,2.2c-0.4,0.4-0.4,1.2,0,1.6C3.9,14.9,4.2,15,4.5,15c0.3,0,0.6-0.1,0.8-0.3
		l2.1-2.1l2.1,2.1c0.4,0.4,1.2,0.4,1.6,0c0.4-0.4,0.4-1.2,0-1.6L9,10.9z"/>
    </symbol>
    <symbol id="insta" preserveAspectRatio="none" viewBox="0 0 15 15">
            <path fill="#fff" d="M7.5,1.4c2,0,2.2,0,3,0c0.7,0,1.1,0.2,1.4,0.3c0.4,0.1,0.6,0.3,0.9,0.6c0.3,0.3,0.4,0.5,0.6,0.9c0.1,0.3,0.2,0.7,0.3,1.4
		c0,0.8,0,1,0,3s0,2.2,0,3c0,0.7-0.2,1.1-0.3,1.4c-0.1,0.4-0.3,0.6-0.6,0.9c-0.3,0.3-0.5,0.4-0.9,0.6c-0.3,0.1-0.7,0.2-1.4,0.3
		c-0.8,0-1,0-3,0s-2.2,0-3,0c-0.7,0-1.1-0.2-1.4-0.3c-0.4-0.1-0.6-0.3-0.9-0.6c-0.3-0.3-0.4-0.5-0.6-0.9c-0.1-0.3-0.2-0.7-0.3-1.4
		c0-0.8,0-1,0-3s0-2.2,0-3c0-0.7,0.2-1.1,0.3-1.4C1.8,2.7,2,2.5,2.2,2.2C2.5,2,2.7,1.8,3.1,1.7c0.3-0.1,0.7-0.2,1.4-0.3
		C5.3,1.4,5.5,1.4,7.5,1.4 M7.5,0c-2,0-2.3,0-3.1,0c-0.8,0-1.3,0.2-1.8,0.3C2.1,0.6,1.7,0.8,1.3,1.3S0.6,2.1,0.4,2.6
		c-0.2,0.5-0.3,1-0.3,1.8c0,0.8,0,1.1,0,3.1c0,2,0,2.3,0,3.1c0,0.8,0.2,1.3,0.3,1.8c0.2,0.5,0.4,0.9,0.9,1.3s0.8,0.7,1.3,0.9
		c0.5,0.2,1,0.3,1.8,0.3c0.8,0,1.1,0,3.1,0s2.3,0,3.1,0c0.8,0,1.3-0.2,1.8-0.3c0.5-0.2,0.9-0.4,1.3-0.9c0.4-0.4,0.7-0.8,0.9-1.3
		c0.2-0.5,0.3-1,0.3-1.8c0-0.8,0-1.1,0-3.1s0-2.3,0-3.1c0-0.8-0.2-1.3-0.3-1.8c-0.2-0.5-0.4-0.9-0.9-1.3c-0.4-0.4-0.8-0.7-1.3-0.9
		c-0.5-0.2-1-0.3-1.8-0.3C9.8,0,9.5,0,7.5,0L7.5,0z"/>
            <path fill="#fff" d="M7.5,3.6c-2.1,0-3.9,1.7-3.9,3.9s1.7,3.9,3.9,3.9s3.9-1.7,3.9-3.9S9.6,3.6,7.5,3.6z M7.5,10C6.1,10,5,8.9,5,7.5
		S6.1,5,7.5,5S10,6.1,10,7.5S8.9,10,7.5,10z"/>
            <circle  fill="#fff" cx="11.5" cy="3.5" r="0.9"/>
</symbol>
    <symbol id="vk" viewBox="0 0 15 15">
        <path fill="#fff" d="M7.4 11.8h.9s.3 0 .4-.2c.1-.1.1-.4.1-.4s0-1.2.5-1.4c.6-.2 1.3 1.2 2 1.7.6.4 1 .3 1 .3h2s1.1-.1.6-.9c0-.1-.3-.6-1.5-1.7-1.3-1.2-1.1-1 .4-3 .9-1.2 1.3-2 1.2-2.3-.1-.3-.8-.2-.8-.2h-2.3s-.2 0-.3.1l-.1.2s-.4 1-.8 1.8c-1 1.7-1.4 1.8-1.6 1.7-.4-.2-.3-1-.3-1.5 0-1.7.3-2.3-.5-2.5-.3-.2-.4-.2-1.1-.2-.8 0-1.5 0-1.9.2-.2.1-.4.4-.3.4.1 0 .5.1.7.3.2.3.2 1 .2 1s.1 2-.3 2.2c-.3.2-.7-.1-1.6-1.7-.5-.8-.8-1.7-.8-1.7L3 3.8l-.4-.2H.5s-.3 0-.4.1c-.1.1 0 .4 0 .4S1.8 8 3.7 10c1.7 1.9 3.7 1.8 3.7 1.8z"></path>
    </symbol>
    <symbol id="tw" viewBox="0 0 15 15">
    <path fill="#fff" d="M14.8,3.3c-0.6,0.2-1.1,0.4-1.8,0.5c0.6-0.4,1.1-1,1.4-1.7c-0.6,0.4-1.3,0.6-2,0.7c-0.6-0.6-1.4-1-2.2-1
	c-1.7,0-3.1,1.4-3.1,3.1c0,0.2,0,0.5,0.1,0.7C4.7,5.5,2.4,4.2,0.9,2.4c-0.3,0.5-0.4,1-0.4,1.5c0,1.1,0.5,2,1.4,2.6
	c-0.5,0-1-0.2-1.4-0.4c0,0,0,0,0,0c0,1.5,1.1,2.7,2.5,3C2.6,9.2,2.4,9.3,2.1,9.3c-0.2,0-0.4,0-0.6-0.1c0.4,1.2,1.5,2.1,2.9,2.1
	c-1.1,0.8-2.4,1.3-3.8,1.3c-0.2,0-0.5,0-0.7,0c1.4,0.9,3,1.4,4.7,1.4c5.7,0,8.7-4.7,8.7-8.7c0-0.1,0-0.3,0-0.4
	C13.9,4.4,14.4,3.9,14.8,3.3z"/>
    </symbol>
    <symbol id="facebook" viewBox="0 0 15 15">
    <path fill="#fff" d="M8.5,15V8.2h2.3l0.3-2.7H8.5V3.9c0-0.8,0.2-1.3,1.3-1.3l1.4,0V0.2c-0.2,0-1.1-0.1-2-0.1 c-2,0-3.4,1.2-3.4,3.5v2H3.5v2.7h2.3V15H8.5z"/>
    </symbol>

    <symbol id="youtube" viewBox="0 0 15 15">
    <path fill="#fff"  d="M11.4,9.8c-0.3,0-0.4,0.2-0.4,0.6v0.4h0.7v-0.4C11.8,10,11.7,9.8,11.4,9.8z"/>
    <path  fill="#fff"  d="M13.2,7.7c-0.2-0.7-0.7-1.1-1.3-1.2c-1.5-0.2-3.1-0.2-4.6-0.2c-1.5,0-3.1,0-4.6,0.2C2,6.6,1.4,7.1,1.3,7.7
			c-0.2,0.9-0.2,2-0.2,2.9c0,1,0,2,0.2,2.9c0.2,0.7,0.7,1.1,1.3,1.2C4.1,15,5.7,15,7.3,15c1.5,0,3.1,0,4.6-0.2
			c0.6-0.1,1.2-0.6,1.3-1.2c0.2-0.9,0.2-2,0.2-2.9C13.5,9.7,13.5,8.7,13.2,7.7z M4.6,8.6H3.7v4.8H2.9V8.6H2V7.8h2.6V8.6z M6.9,13.4
			H6.1v-0.5c-0.3,0.3-0.6,0.5-0.9,0.5c-0.2,0-0.4-0.1-0.5-0.3c0-0.1-0.1-0.3-0.1-0.6V9.2h0.7v3c0,0.2,0,0.3,0,0.3
			c0,0.1,0.1,0.2,0.2,0.2c0.2,0,0.3-0.1,0.5-0.4V9.2h0.7V13.4z M9.7,12.1c0,0.4,0,0.7-0.1,0.8c-0.1,0.3-0.3,0.5-0.6,0.5
			c-0.3,0-0.5-0.1-0.8-0.5v0.4H7.5V7.8h0.7v1.8C8.5,9.3,8.8,9.2,9,9.2c0.3,0,0.5,0.2,0.6,0.5c0,0.2,0.1,0.4,0.1,0.8V12.1z
			 M12.5,11.4H11v0.7c0,0.4,0.1,0.6,0.4,0.6c0.2,0,0.3-0.1,0.3-0.3c0,0,0-0.2,0-0.5h0.8V12c0,0.2,0,0.4,0,0.5c0,0.2-0.1,0.3-0.2,0.4
			c-0.2,0.3-0.5,0.4-0.9,0.4c-0.4,0-0.7-0.1-0.9-0.4c-0.2-0.2-0.2-0.5-0.2-1v-1.4c0-0.4,0.1-0.8,0.2-1c0.2-0.3,0.5-0.4,0.9-0.4
			c0.4,0,0.7,0.1,0.9,0.4c0.2,0.2,0.2,0.5,0.2,1V11.4z"/>
    <path  fill="#fff"  d="M8.6,9.8c-0.1,0-0.2,0.1-0.4,0.2v2.5c0.1,0.1,0.3,0.2,0.4,0.2c0.2,0,0.3-0.2,0.3-0.6v-1.8
			C9,10,8.8,9.8,8.6,9.8z"/>
<path  fill="#fff"  d="M6,0H5.1L4.5,2.2L3.9,0H3.1c0.2,0.5,0.4,1,0.5,1.6C3.9,2.3,4,2.9,4.1,3.3v2.3h0.8V3.3L6,0z M8.2,4.3V2.8
		c0-0.4-0.1-0.8-0.2-1C7.8,1.5,7.5,1.4,7.1,1.4c-0.4,0-0.7,0.1-0.9,0.4C6,2,6,2.3,6,2.8v1.5C6,4.7,6,5,6.2,5.2
		c0.2,0.3,0.5,0.4,0.9,0.4c0.4,0,0.7-0.1,0.9-0.4C8.1,5,8.2,4.7,8.2,4.3z M7.4,4.4C7.4,4.8,7.3,5,7.1,5C6.8,5,6.7,4.8,6.7,4.4V2.6
		c0-0.4,0.1-0.6,0.4-0.6c0.2,0,0.4,0.2,0.4,0.6V4.4z M11,5.6V1.4h-0.8v3.2C10.1,4.9,9.9,5,9.8,5C9.7,5,9.6,4.9,9.6,4.8
		c0,0,0-0.1,0-0.3V1.4H8.8v3.3c0,0.3,0,0.5,0.1,0.6C9,5.6,9.1,5.7,9.4,5.7c0.3,0,0.6-0.2,0.9-0.5v0.5H11z"/>
    </symbol>

    <symbol id="dzen-mono" viewBox="0 0 42.5 42.5">

        <path fill="#fff"  d="M21.6,0.1c0,0-0.1,13.2,3.5,16.9c4.8,4.9,17,3.8,17,3.8s0.3-6.3-0.4-11.5c-0.2-1.4-0.9-6.3-4.4-7.7
	C33.1,0,21.6,0.1,21.6,0.1z"/>
        <path fill="#fff" d="M20.9,0.1c0,0,0.7,12.8-3.5,16.9c-4.9,4.7-17,3.8-17,3.8S0.1,14.5,0.8,9.3C1,7.9,1.6,3,5.2,1.6
	C9.4-0.1,20.9,0.1,20.9,0.1z"/>
        <path fill="#fff" d="M21.5,42.3c0,0-0.1-13.2,3.5-16.9c4.8-4.9,17-3.8,17-3.8s0.3,6.3-0.4,11.5c-0.2,1.4-0.9,6.3-4.4,7.7
	C33.1,42.4,21.5,42.3,21.5,42.3z"/>
        <path fill="#fff" d="M20.8,42.3c0,0,0.7-12.8-3.5-16.9c-4.9-4.7-17-3.8-17-3.8S0,27.9,0.7,33.1c0.2,1.4,0.9,6.3,4.4,7.7
	C9.3,42.5,20.8,42.3,20.8,42.3z"/>

    </symbol>

    <symbol id="heart"  viewBox="0 0 59 59">
        <path  fill="transparent" stroke-width="3px" stroke="#f7941d" d="M24.85,10.126c2.018-4.783,6.628-8.125,11.99-8.125c7.223,0,12.425,6.179,13.079,13.543
	c0,0,0.353,1.828-0.424,5.119c-1.058,4.482-3.545,8.464-6.898,11.503L24.85,48L7.402,32.165c-3.353-3.038-5.84-7.021-6.898-11.503
	c-0.777-3.291-0.424-5.119-0.424-5.119C0.734,8.179,5.936,2,13.159,2C18.522,2,22.832,5.343,24.85,10.126z"/>
    </symbol>

    <symbol id="heart-red"  viewBox="0 0 59 59">
        <path  fill="#f7941d" d="M24.85,10.126c2.018-4.783,6.628-8.125,11.99-8.125c7.223,0,12.425,6.179,13.079,13.543
	c0,0,0.353,1.828-0.424,5.119c-1.058,4.482-3.545,8.464-6.898,11.503L24.85,48L7.402,32.165c-3.353-3.038-5.84-7.021-6.898-11.503
	c-0.777-3.291-0.424-5.119-0.424-5.119C0.734,8.179,5.936,2,13.159,2C18.522,2,22.832,5.343,24.85,10.126z"/>
    </symbol>

    <symbol id="heart-green"  viewBox="0 0 59 59">
        <path  fill="transparent" stroke-width="3px" stroke="#00ab4d" d="M24.85,10.126c2.018-4.783,6.628-8.125,11.99-8.125c7.223,0,12.425,6.179,13.079,13.543
	c0,0,0.353,1.828-0.424,5.119c-1.058,4.482-3.545,8.464-6.898,11.503L24.85,48L7.402,32.165c-3.353-3.038-5.84-7.021-6.898-11.503
	c-0.777-3.291-0.424-5.119-0.424-5.119C0.734,8.179,5.936,2,13.159,2C18.522,2,22.832,5.343,24.85,10.126z"/>
    </symbol>

    <symbol id="heart-green-act"  viewBox="0 0 59 59">
        <path  fill="#00ab4d" d="M24.85,10.126c2.018-4.783,6.628-8.125,11.99-8.125c7.223,0,12.425,6.179,13.079,13.543
	c0,0,0.353,1.828-0.424,5.119c-1.058,4.482-3.545,8.464-6.898,11.503L24.85,48L7.402,32.165c-3.353-3.038-5.84-7.021-6.898-11.503
	c-0.777-3.291-0.424-5.119-0.424-5.119C0.734,8.179,5.936,2,13.159,2C18.522,2,22.832,5.343,24.85,10.126z"/>
    </symbol>

    <symbol id="message"  viewBox="0 0 15 15">
            <path fill="#0096c8" stroke="#0096c8" stroke-width=".3" d="M14.7,2.3h-14c-0.2,0-0.3,0.2-0.3,0.3v10c0,0.2,0.2,0.3,0.3,0.3h14c0.2,0,0.3-0.2,0.3-0.3v-10
				C15,2.4,14.8,2.3,14.7,2.3z M14.3,11.5l-4.1-4.1L9.7,7.8l4.5,4.5H1.1l4.5-4.5L5.1,7.3L1,11.5V2.9h13.4V11.5z"/>
            <path fill="#0096c8" stroke="#0096c8" stroke-width=".3"  d="M13.6,2.9l-6,6l-6-6H1v0.3l6.4,6.4c0.1,0.1,0.3,0.1,0.5,0l6.4-6.4V2.9C14.3,2.9,13.6,2.9,13.6,2.9z"/>
    </symbol>

    <symbol id="toggle-list"  viewBox="0 0 50 50" fill="#999">
        <rect  y="2" width="50" height="4"/>
        <rect y="16" width="50" height="4"/>
        <rect y="30" width="50" height="4"/>
        <rect y="44" width="50" height="4"/>
    </symbol>

    <symbol id="toggle-list-green"  viewBox="0 0 50 50" fill="#00ab4d">
        <rect  y="2" width="50" height="4"/>
        <rect y="16" width="50" height="4"/>
        <rect y="30" width="50" height="4"/>
        <rect y="44" width="50" height="4"/>
    </symbol>

    <symbol id="toggle-list-orange"  viewBox="0 0 50 50" fill="#f7941d">
        <rect  y="2" width="50" height="4"/>
        <rect y="16" width="50" height="4"/>
        <rect y="30" width="50" height="4"/>
        <rect y="44" width="50" height="4"/>
    </symbol>

    <symbol id="toggle-table"  viewBox="0 0 290 290" fill="#999">
    <rect y="220" width="70" height="70"/>
    <rect y="110" width="70" height="70"/>
    <rect width="70" height="70"/>
    <rect x="110" y="220" width="70" height="70"/>
    <rect x="110" y="110" width="70" height="70"/>
    <rect x="110" width="70" height="70"/>
    <rect x="220" y="220" width="70" height="70"/>
    <rect x="220" y="110" width="70" height="70"/>
    <rect x="220" width="70" height="70"/>
    </symbol>

    <symbol id="toggle-table-green"  viewBox="0 0 290 290" fill="#00ab4d">
        <rect y="220" width="70" height="70"/>
        <rect y="110" width="70" height="70"/>
        <rect width="70" height="70"/>
        <rect x="110" y="220" width="70" height="70"/>
        <rect x="110" y="110" width="70" height="70"/>
        <rect x="110" width="70" height="70"/>
        <rect x="220" y="220" width="70" height="70"/>
        <rect x="220" y="110" width="70" height="70"/>
        <rect x="220" width="70" height="70"/>
    </symbol>

    <symbol id="toggle-table-orange"  viewBox="0 0 290 290" fill="#f7941d">
        <rect y="220" width="70" height="70"/>
        <rect y="110" width="70" height="70"/>
        <rect width="70" height="70"/>
        <rect x="110" y="220" width="70" height="70"/>
        <rect x="110" y="110" width="70" height="70"/>
        <rect x="110" width="70" height="70"/>
        <rect x="220" y="220" width="70" height="70"/>
        <rect x="220" y="110" width="70" height="70"/>
        <rect x="220" width="70" height="70"/>
    </symbol>

    <symbol id="message-gray"  viewBox="0 0 15 15">
    <path fill="#ddd" stroke="#ddd" stroke-width=".3" d="M14.7,2.3h-14c-0.2,0-0.3,0.2-0.3,0.3v10c0,0.2,0.2,0.3,0.3,0.3h14c0.2,0,0.3-0.2,0.3-0.3v-10
				C15,2.4,14.8,2.3,14.7,2.3z M14.3,11.5l-4.1-4.1L9.7,7.8l4.5,4.5H1.1l4.5-4.5L5.1,7.3L1,11.5V2.9h13.4V11.5z"/>
    <path fill="#ddd" stroke="#ddd" stroke-width=".3"  d="M13.6,2.9l-6,6l-6-6H1v0.3l6.4,6.4c0.1,0.1,0.3,0.1,0.5,0l6.4-6.4V2.9C14.3,2.9,13.6,2.9,13.6,2.9z"/>
</symbol>

    <symbol id="message-black"  viewBox="0 0 15 15">
        <path fill="#333" stroke="#333" stroke-width=".3" d="M14.7,2.3h-14c-0.2,0-0.3,0.2-0.3,0.3v10c0,0.2,0.2,0.3,0.3,0.3h14c0.2,0,0.3-0.2,0.3-0.3v-10
				C15,2.4,14.8,2.3,14.7,2.3z M14.3,11.5l-4.1-4.1L9.7,7.8l4.5,4.5H1.1l4.5-4.5L5.1,7.3L1,11.5V2.9h13.4V11.5z"/>
        <path fill="#333" stroke="#333" stroke-width=".3"  d="M13.6,2.9l-6,6l-6-6H1v0.3l6.4,6.4c0.1,0.1,0.3,0.1,0.5,0l6.4-6.4V2.9C14.3,2.9,13.6,2.9,13.6,2.9z"/>
    </symbol>

    <symbol id="message-white"  viewBox="0 0 15 15">
        <path fill="#fff" stroke="#fff" stroke-width=".3" d="M14.7,2.3h-14c-0.2,0-0.3,0.2-0.3,0.3v10c0,0.2,0.2,0.3,0.3,0.3h14c0.2,0,0.3-0.2,0.3-0.3v-10
				C15,2.4,14.8,2.3,14.7,2.3z M14.3,11.5l-4.1-4.1L9.7,7.8l4.5,4.5H1.1l4.5-4.5L5.1,7.3L1,11.5V2.9h13.4V11.5z"/>
        <path fill="#fff" stroke="#fff" stroke-width=".3"  d="M13.6,2.9l-6,6l-6-6H1v0.3l6.4,6.4c0.1,0.1,0.3,0.1,0.5,0l6.4-6.4V2.9C14.3,2.9,13.6,2.9,13.6,2.9z"/>
    </symbol>


    <symbol id="telegram"  viewBox="0 0 15 15">
        <path fill="#fff" d="M13.8,1.5l-13,4.9C0.1,6.6,0.1,7.3,0.6,7.5l3.3,1l1.2,3.8c0.2,0.4,0.3,0.6,0.5,0.6c0.3,0,0.4-0.1,0.7-0.3
	C6.7,12.2,7.2,11.7,8,11l3.4,2.5c0.6,0.3,1.1,0.2,1.2-0.6l2.1-10.5C14.9,1.5,14.4,1.2,13.8,1.5z M4.4,8.2l7.4-4.7
	c0.4-0.2,0.5,0,0.3,0.2L6,9.3l-0.3,2.8L4.4,8.2z"/>
    </symbol>

    <symbol id="magnifier"  viewBox="150 0 1000 890" >
        <path fill="#fff" d="M749.14,515.701c50.504-54.674,82.012-127.883,82.012-208.505C831.151,138.076,693.538,0,523.955,0
			C354.371,0,216.758,138.076,216.758,307.196c0,169.121,137.613,307.197,307.197,307.197c69.038,0,132.516-22.703,183.946-61.161
			L936.329,781.66c5.561,5.56,12.511,8.34,19.461,8.34c6.949,0,14.363-2.78,19.46-8.34c10.657-10.658,10.657-28.264,0-39.384
			L749.14,515.701z M272.359,307.196c0-138.54,112.592-251.595,251.596-251.595c138.54,0,251.595,112.593,251.595,251.595
			c0,139.004-112.592,251.596-251.595,251.596C384.952,558.792,272.359,445.737,272.359,307.196z"/>
    </symbol>


    <symbol id="earch"  viewBox="0 0 15 15" >
        <path  fill="#fff" d="M7.6,0.2c-4.1,0-7.4,3.3-7.4,7.4S3.5,15,7.6,15S15,11.7,15,7.6C15,3.5,11.7,0.2,7.6,0.2z M14,10.2l-2.1,0.4
	c0.2-0.9,0.4-1.8,0.4-2.7h2.2C14.5,8.6,14.3,9.4,14,10.2z M0.7,7.8h2.2c0,0.9,0.1,1.8,0.4,2.7l-2.1-0.4C0.9,9.4,0.7,8.6,0.7,7.8z
	 M1.2,5l2.1-0.4C3,5.5,2.9,6.4,2.9,7.3H0.7C0.7,6.5,0.9,5.7,1.2,5z M7.8,4.1c0.9,0,1.8,0.1,2.7,0.2l0.9,0.2c0.3,0.9,0.4,1.9,0.4,2.8
	h-4V4.1z M10.6,3.9C9.7,3.7,8.7,3.6,7.8,3.6v-3c1.4,0.1,2.7,1.4,3.3,3.3L10.6,3.9z M7.3,3.6c-0.9,0-1.8,0.1-2.7,0.2L4,4
	c0.7-1.9,1.9-3.2,3.3-3.3V3.6z M4.7,4.4c0.9-0.1,1.8-0.2,2.7-0.2v3.2h-4c0-1,0.2-1.9,0.4-2.8L4.7,4.4z M3.4,7.8h4V11
	c-0.9,0-1.8-0.1-2.7-0.2l-0.9-0.2C3.5,9.7,3.4,8.8,3.4,7.8z M4.6,11.3c0.9,0.2,1.8,0.2,2.7,0.3v3c-1.4-0.1-2.7-1.4-3.3-3.3L4.6,11.3
	z M7.8,11.5c0.9,0,1.8-0.1,2.7-0.3l0.6-0.1c-0.7,1.9-1.9,3.2-3.3,3.3V11.5z M10.5,10.8C9.6,10.9,8.7,11,7.8,11V7.8h4
	c0,1-0.2,1.9-0.4,2.8L10.5,10.8z M12.3,7.3c0-0.9-0.1-1.8-0.4-2.7L14,5c0.3,0.7,0.5,1.5,0.5,2.4H12.3z M13.7,4.4l-2-0.3
	c-0.4-1.2-1-2.3-2-3.1C11.5,1.6,12.9,2.8,13.7,4.4z M5.4,1c-0.9,0.8-1.6,1.9-2,3.1l-2,0.3C2.2,2.8,3.7,1.6,5.4,1z M1.4,10.7l2,0.3
	c0.4,1.2,1,2.3,2,3.1C3.7,13.6,2.2,12.3,1.4,10.7z M9.8,14.2c0.9-0.8,1.6-1.9,2-3.1l2-0.3C12.9,12.3,11.5,13.6,9.8,14.2z"/>
    </symbol>

    <symbol id="earch-blue"  viewBox="0 0 15 15" >
        <path  fill="#0096c8" d="M7.6,0.2c-4.1,0-7.4,3.3-7.4,7.4S3.5,15,7.6,15S15,11.7,15,7.6C15,3.5,11.7,0.2,7.6,0.2z M14,10.2l-2.1,0.4
	c0.2-0.9,0.4-1.8,0.4-2.7h2.2C14.5,8.6,14.3,9.4,14,10.2z M0.7,7.8h2.2c0,0.9,0.1,1.8,0.4,2.7l-2.1-0.4C0.9,9.4,0.7,8.6,0.7,7.8z
	 M1.2,5l2.1-0.4C3,5.5,2.9,6.4,2.9,7.3H0.7C0.7,6.5,0.9,5.7,1.2,5z M7.8,4.1c0.9,0,1.8,0.1,2.7,0.2l0.9,0.2c0.3,0.9,0.4,1.9,0.4,2.8
	h-4V4.1z M10.6,3.9C9.7,3.7,8.7,3.6,7.8,3.6v-3c1.4,0.1,2.7,1.4,3.3,3.3L10.6,3.9z M7.3,3.6c-0.9,0-1.8,0.1-2.7,0.2L4,4
	c0.7-1.9,1.9-3.2,3.3-3.3V3.6z M4.7,4.4c0.9-0.1,1.8-0.2,2.7-0.2v3.2h-4c0-1,0.2-1.9,0.4-2.8L4.7,4.4z M3.4,7.8h4V11
	c-0.9,0-1.8-0.1-2.7-0.2l-0.9-0.2C3.5,9.7,3.4,8.8,3.4,7.8z M4.6,11.3c0.9,0.2,1.8,0.2,2.7,0.3v3c-1.4-0.1-2.7-1.4-3.3-3.3L4.6,11.3
	z M7.8,11.5c0.9,0,1.8-0.1,2.7-0.3l0.6-0.1c-0.7,1.9-1.9,3.2-3.3,3.3V11.5z M10.5,10.8C9.6,10.9,8.7,11,7.8,11V7.8h4
	c0,1-0.2,1.9-0.4,2.8L10.5,10.8z M12.3,7.3c0-0.9-0.1-1.8-0.4-2.7L14,5c0.3,0.7,0.5,1.5,0.5,2.4H12.3z M13.7,4.4l-2-0.3
	c-0.4-1.2-1-2.3-2-3.1C11.5,1.6,12.9,2.8,13.7,4.4z M5.4,1c-0.9,0.8-1.6,1.9-2,3.1l-2,0.3C2.2,2.8,3.7,1.6,5.4,1z M1.4,10.7l2,0.3
	c0.4,1.2,1,2.3,2,3.1C3.7,13.6,2.2,12.3,1.4,10.7z M9.8,14.2c0.9-0.8,1.6-1.9,2-3.1l2-0.3C12.9,12.3,11.5,13.6,9.8,14.2z"/>
    </symbol>

    <symbol id="earch-green"  viewBox="0 0 15 15" >
        <path  fill="#00ab4d" d="M7.6,0.2c-4.1,0-7.4,3.3-7.4,7.4S3.5,15,7.6,15S15,11.7,15,7.6C15,3.5,11.7,0.2,7.6,0.2z M14,10.2l-2.1,0.4
	c0.2-0.9,0.4-1.8,0.4-2.7h2.2C14.5,8.6,14.3,9.4,14,10.2z M0.7,7.8h2.2c0,0.9,0.1,1.8,0.4,2.7l-2.1-0.4C0.9,9.4,0.7,8.6,0.7,7.8z
	 M1.2,5l2.1-0.4C3,5.5,2.9,6.4,2.9,7.3H0.7C0.7,6.5,0.9,5.7,1.2,5z M7.8,4.1c0.9,0,1.8,0.1,2.7,0.2l0.9,0.2c0.3,0.9,0.4,1.9,0.4,2.8
	h-4V4.1z M10.6,3.9C9.7,3.7,8.7,3.6,7.8,3.6v-3c1.4,0.1,2.7,1.4,3.3,3.3L10.6,3.9z M7.3,3.6c-0.9,0-1.8,0.1-2.7,0.2L4,4
	c0.7-1.9,1.9-3.2,3.3-3.3V3.6z M4.7,4.4c0.9-0.1,1.8-0.2,2.7-0.2v3.2h-4c0-1,0.2-1.9,0.4-2.8L4.7,4.4z M3.4,7.8h4V11
	c-0.9,0-1.8-0.1-2.7-0.2l-0.9-0.2C3.5,9.7,3.4,8.8,3.4,7.8z M4.6,11.3c0.9,0.2,1.8,0.2,2.7,0.3v3c-1.4-0.1-2.7-1.4-3.3-3.3L4.6,11.3
	z M7.8,11.5c0.9,0,1.8-0.1,2.7-0.3l0.6-0.1c-0.7,1.9-1.9,3.2-3.3,3.3V11.5z M10.5,10.8C9.6,10.9,8.7,11,7.8,11V7.8h4
	c0,1-0.2,1.9-0.4,2.8L10.5,10.8z M12.3,7.3c0-0.9-0.1-1.8-0.4-2.7L14,5c0.3,0.7,0.5,1.5,0.5,2.4H12.3z M13.7,4.4l-2-0.3
	c-0.4-1.2-1-2.3-2-3.1C11.5,1.6,12.9,2.8,13.7,4.4z M5.4,1c-0.9,0.8-1.6,1.9-2,3.1l-2,0.3C2.2,2.8,3.7,1.6,5.4,1z M1.4,10.7l2,0.3
	c0.4,1.2,1,2.3,2,3.1C3.7,13.6,2.2,12.3,1.4,10.7z M9.8,14.2c0.9-0.8,1.6-1.9,2-3.1l2-0.3C12.9,12.3,11.5,13.6,9.8,14.2z"/>
    </symbol>


    <symbol id="user-white" viewBox="0 0 16 16">
        <path  fill="#fff" d="M7.99835 8.54531C10.3456 8.54531 12.2881 6.67429 12.2881 4.29061C12.2881 1.90694 10.3456 0 7.99835 0C5.65108 0 3.70862 1.87102 3.70862 4.25469C3.70862 6.63837 5.65108 8.54531 7.99835 8.54531ZM7.99835 1.32898C9.63067 1.32898 10.9594 2.65796 10.9594 4.25796C10.9594 5.85796 9.63067 7.18367 7.99835 7.18367C6.36603 7.18367 5.03733 5.85469 5.03733 4.25469C5.03733 2.65469 6.36603 1.32898 7.99835 1.32898Z" />
        <path  fill="#fff" d="M10.8908 8.95348C10.6199 8.88491 10.3456 8.95348 10.1759 9.15919L7.99837 11.6441L5.82085 9.15919C5.65109 8.95348 5.34422 8.88817 5.1059 8.95348C2.00775 9.97552 0 12.4931 0 15.3176C0 15.6931 0.306876 16 0.68231 16H15.3177C15.6931 16 16 15.6931 16 15.3176C15.9967 12.4931 13.989 9.97552 10.8908 8.95348ZM1.394 14.671C1.66823 12.8 3.02959 11.2 5.13854 10.3837L7.52173 13.1069C7.76005 13.4139 8.26933 13.4139 8.50765 13.1069L10.8908 10.3837C12.9671 11.2 14.3644 12.8327 14.6354 14.671H1.394Z" />

    </symbol>

    <symbol id="user-blue"  viewBox="0 0 16 16" >
        <path  fill="#0096c8" d="M7.99835 8.54531C10.3456 8.54531 12.2881 6.67429 12.2881 4.29061C12.2881 1.90694 10.3456 0 7.99835 0C5.65108 0 3.70862 1.87102 3.70862 4.25469C3.70862 6.63837 5.65108 8.54531 7.99835 8.54531ZM7.99835 1.32898C9.63067 1.32898 10.9594 2.65796 10.9594 4.25796C10.9594 5.85796 9.63067 7.18367 7.99835 7.18367C6.36603 7.18367 5.03733 5.85469 5.03733 4.25469C5.03733 2.65469 6.36603 1.32898 7.99835 1.32898Z" />
        <path  fill="#0096c8" d="M10.8908 8.95348C10.6199 8.88491 10.3456 8.95348 10.1759 9.15919L7.99837 11.6441L5.82085 9.15919C5.65109 8.95348 5.34422 8.88817 5.1059 8.95348C2.00775 9.97552 0 12.4931 0 15.3176C0 15.6931 0.306876 16 0.68231 16H15.3177C15.6931 16 16 15.6931 16 15.3176C15.9967 12.4931 13.989 9.97552 10.8908 8.95348ZM1.394 14.671C1.66823 12.8 3.02959 11.2 5.13854 10.3837L7.52173 13.1069C7.76005 13.4139 8.26933 13.4139 8.50765 13.1069L10.8908 10.3837C12.9671 11.2 14.3644 12.8327 14.6354 14.671H1.394Z" />
    </symbol>


    <svg width="16" height="16" viewBox="0 0 16 16"  xmlns="http://www.w3.org/2000/svg">

    </svg>




    <symbol id="map"  viewBox="0 0 15 15">
    <path style="fill:#999;stroke:#999;stroke-width:0.75;stroke-miterlimit:10" d="M7.5,0.8c-2.6,0-4.7,2.1-4.7,4.7c0,1,0.6,2.6,1.9,5c0.9,1.6,1.8,2.9,1.8,3l0.6,1c0.1,0.1,0.2,0.2,0.3,0.2
	c0.1,0,0.2-0.1,0.3-0.2l0.6-1c0-0.1,0.9-1.4,1.8-3c1.3-2.3,1.9-3.9,1.9-5C12.2,2.8,10.1,0.8,7.5,0.8z M9.7,10.1
	c-0.9,1.6-1.7,2.9-1.8,2.9l-0.4,0.5L7.1,13c0-0.1-0.9-1.4-1.8-2.9C4.2,7.9,3.5,6.3,3.5,5.4c0-2.2,1.8-4,4-4s4,1.8,4,4
	C11.5,6.3,10.9,7.9,9.7,10.1z M7.5,2.8C6.1,2.8,4.9,4,4.9,5.4S6.1,8,7.5,8c1.4,0,2.6-1.2,2.6-2.6S8.9,2.8,7.5,2.8z M7.5,7.3
	c-1,0-1.9-0.8-1.9-1.9s0.8-1.9,1.9-1.9s1.9,0.8,1.9,1.9S8.5,7.3,7.5,7.3z"/>
    </symbol>

    <symbol id="map-black"  viewBox="0 0 15 15">
        <path style="fill:#000;stroke:#000;stroke-width:0.1;stroke-miterlimit:10" d="M7.5,0.8c-2.6,0-4.7,2.1-4.7,4.7c0,1,0.6,2.6,1.9,5c0.9,1.6,1.8,2.9,1.8,3l0.6,1c0.1,0.1,0.2,0.2,0.3,0.2
	c0.1,0,0.2-0.1,0.3-0.2l0.6-1c0-0.1,0.9-1.4,1.8-3c1.3-2.3,1.9-3.9,1.9-5C12.2,2.8,10.1,0.8,7.5,0.8z M9.7,10.1
	c-0.9,1.6-1.7,2.9-1.8,2.9l-0.4,0.5L7.1,13c0-0.1-0.9-1.4-1.8-2.9C4.2,7.9,3.5,6.3,3.5,5.4c0-2.2,1.8-4,4-4s4,1.8,4,4
	C11.5,6.3,10.9,7.9,9.7,10.1z M7.5,2.8C6.1,2.8,4.9,4,4.9,5.4S6.1,8,7.5,8c1.4,0,2.6-1.2,2.6-2.6S8.9,2.8,7.5,2.8z M7.5,7.3
	c-1,0-1.9-0.8-1.9-1.9s0.8-1.9,1.9-1.9s1.9,0.8,1.9,1.9S8.5,7.3,7.5,7.3z"/>
    </symbol>

    <symbol id="bell-red"  viewBox="0 0 512.002 512.002">

			<path fill="#f7601d" d="M193.734,443.487c-3.891-2.628-9.199-1.621-11.844,2.278c-6.374,9.412-16.947,15.027-28.288,15.027
				c-18.825,0-34.133-15.309-34.133-34.133c0-11.341,5.615-21.914,15.027-28.28c3.9-2.654,4.924-7.953,2.278-11.861
				c-2.637-3.891-7.945-4.907-11.844-2.278c-14.114,9.557-22.528,25.412-22.528,42.419c0,28.237,22.963,51.2,51.2,51.2
				c17.007,0,32.87-8.422,42.419-22.528C198.658,451.431,197.634,446.124,193.734,443.487z"/>
			<path fill="#f7601d" d="M341.336,17.059c-41.028,0-79.599,15.974-108.612,44.988l-84.471,84.471c-3.336,3.337-3.336,8.738,0,12.066
				c3.337,3.337,8.738,3.337,12.066,0l84.471-84.471c25.788-25.788,60.083-39.987,96.546-39.987
				c36.471,0,70.767,14.199,96.555,39.987c25.779,25.788,39.979,60.075,39.979,96.546c0,36.463-14.199,70.758-39.979,96.546
				L329.269,375.818c-2.603,2.594-3.243,6.562-1.604,9.847c10.411,20.821,5.299,62.899-9.429,77.628l-28.1,28.1L20.602,221.859
				l28.1-28.1c14.456-14.455,55.236-19.652,76.45-10.001l179.985,179.985c3.328,3.337,8.73,3.337,12.066,0
				c3.328-3.336,3.328-8.738,0-12.066L136.186,170.659c-0.649-0.648-1.399-1.186-2.219-1.596
				c-27.409-13.73-77.466-7.245-97.331,12.629L2.502,215.826c-3.336,3.337-3.336,8.73,0,12.066l281.6,281.6
				c1.664,1.664,3.849,2.5,6.033,2.5s4.369-0.836,6.033-2.5l34.133-34.133c18.534-18.534,25.421-63.352,15.113-91.554
				l104.533-104.533c29.013-29.013,44.988-67.584,44.988-108.612s-15.974-79.607-44.988-108.612
				C420.943,33.034,382.372,17.059,341.336,17.059z"/>
			<path fill="#f7601d" d="M502.001,9.994c-13.303-13.312-34.97-13.312-48.265,0l-11.264,11.264c-3.336,3.328-3.336,8.73,0,12.066
				c3.328,3.328,8.73,3.328,12.066,0l11.264-11.264c6.647-6.647,17.485-6.647,24.132,0c3.226,3.226,5.001,7.509,5.001,12.075
				c0,4.548-1.775,8.832-5.001,12.058L478.68,57.456c-3.337,3.337-3.337,8.738,0,12.075c1.664,1.664,3.849,2.492,6.033,2.492
				c2.185,0,4.361-0.828,6.033-2.5l11.255-11.255c6.451-6.451,10.001-15.019,10.001-24.132
				C512.002,25.012,508.452,16.436,502.001,9.994z"/>
			<path fill="#f7601d" d="M301.963,93.979c1.195,0,2.415-0.256,3.584-0.794c22.332-10.351,48.742-10.428,71.142-0.213
				c4.301,1.954,9.344,0.051,11.307-4.233c1.946-4.284,0.06-9.353-4.224-11.307c-26.931-12.262-58.59-12.177-85.41,0.265
				c-4.275,1.988-6.135,7.066-4.147,11.341C295.657,92.144,298.737,93.979,301.963,93.979z"/>

    </symbol>

    <symbol id="bell-green"  viewBox="0 0 512.002 512.002">
        <path fill="#00ab4d" d="M193.734,443.487c-3.891-2.628-9.199-1.621-11.844,2.278c-6.374,9.412-16.947,15.027-28.288,15.027
				c-18.825,0-34.133-15.309-34.133-34.133c0-11.341,5.615-21.914,15.027-28.28c3.9-2.654,4.924-7.953,2.278-11.861
				c-2.637-3.891-7.945-4.907-11.844-2.278c-14.114,9.557-22.528,25.412-22.528,42.419c0,28.237,22.963,51.2,51.2,51.2
				c17.007,0,32.87-8.422,42.419-22.528C198.658,451.431,197.634,446.124,193.734,443.487z"/>
        <path fill="#00ab4d" d="M341.336,17.059c-41.028,0-79.599,15.974-108.612,44.988l-84.471,84.471c-3.336,3.337-3.336,8.738,0,12.066
				c3.337,3.337,8.738,3.337,12.066,0l84.471-84.471c25.788-25.788,60.083-39.987,96.546-39.987
				c36.471,0,70.767,14.199,96.555,39.987c25.779,25.788,39.979,60.075,39.979,96.546c0,36.463-14.199,70.758-39.979,96.546
				L329.269,375.818c-2.603,2.594-3.243,6.562-1.604,9.847c10.411,20.821,5.299,62.899-9.429,77.628l-28.1,28.1L20.602,221.859
				l28.1-28.1c14.456-14.455,55.236-19.652,76.45-10.001l179.985,179.985c3.328,3.337,8.73,3.337,12.066,0
				c3.328-3.336,3.328-8.738,0-12.066L136.186,170.659c-0.649-0.648-1.399-1.186-2.219-1.596
				c-27.409-13.73-77.466-7.245-97.331,12.629L2.502,215.826c-3.336,3.337-3.336,8.73,0,12.066l281.6,281.6
				c1.664,1.664,3.849,2.5,6.033,2.5s4.369-0.836,6.033-2.5l34.133-34.133c18.534-18.534,25.421-63.352,15.113-91.554
				l104.533-104.533c29.013-29.013,44.988-67.584,44.988-108.612s-15.974-79.607-44.988-108.612
				C420.943,33.034,382.372,17.059,341.336,17.059z"/>
        <path fill="#00ab4d" d="M502.001,9.994c-13.303-13.312-34.97-13.312-48.265,0l-11.264,11.264c-3.336,3.328-3.336,8.73,0,12.066
				c3.328,3.328,8.73,3.328,12.066,0l11.264-11.264c6.647-6.647,17.485-6.647,24.132,0c3.226,3.226,5.001,7.509,5.001,12.075
				c0,4.548-1.775,8.832-5.001,12.058L478.68,57.456c-3.337,3.337-3.337,8.738,0,12.075c1.664,1.664,3.849,2.492,6.033,2.492
				c2.185,0,4.361-0.828,6.033-2.5l11.255-11.255c6.451-6.451,10.001-15.019,10.001-24.132
				C512.002,25.012,508.452,16.436,502.001,9.994z"/>
        <path fill="#00ab4d" d="M301.963,93.979c1.195,0,2.415-0.256,3.584-0.794c22.332-10.351,48.742-10.428,71.142-0.213
				c4.301,1.954,9.344,0.051,11.307-4.233c1.946-4.284,0.06-9.353-4.224-11.307c-26.931-12.262-58.59-12.177-85.41,0.265
				c-4.275,1.988-6.135,7.066-4.147,11.341C295.657,92.144,298.737,93.979,301.963,93.979z"/>

    </symbol>





    <symbol id="map-blue"  viewBox="0 0 15 15">
        <path style="fill:#0096c8;stroke:#0096c8;stroke-width:0.1;stroke-miterlimit:10" d="M7.5,0.8c-2.6,0-4.7,2.1-4.7,4.7c0,1,0.6,2.6,1.9,5c0.9,1.6,1.8,2.9,1.8,3l0.6,1c0.1,0.1,0.2,0.2,0.3,0.2
	c0.1,0,0.2-0.1,0.3-0.2l0.6-1c0-0.1,0.9-1.4,1.8-3c1.3-2.3,1.9-3.9,1.9-5C12.2,2.8,10.1,0.8,7.5,0.8z M9.7,10.1
	c-0.9,1.6-1.7,2.9-1.8,2.9l-0.4,0.5L7.1,13c0-0.1-0.9-1.4-1.8-2.9C4.2,7.9,3.5,6.3,3.5,5.4c0-2.2,1.8-4,4-4s4,1.8,4,4
	C11.5,6.3,10.9,7.9,9.7,10.1z M7.5,2.8C6.1,2.8,4.9,4,4.9,5.4S6.1,8,7.5,8c1.4,0,2.6-1.2,2.6-2.6S8.9,2.8,7.5,2.8z M7.5,7.3
	c-1,0-1.9-0.8-1.9-1.9s0.8-1.9,1.9-1.9s1.9,0.8,1.9,1.9S8.5,7.3,7.5,7.3z"/>
    </symbol>


    <symbol id="map-white"  viewBox="0 0 15 15">
        <path style="fill:#fff;stroke:#fff;stroke-width:0.1;stroke-miterlimit:10" d="M7.5,0.8c-2.6,0-4.7,2.1-4.7,4.7c0,1,0.6,2.6,1.9,5c0.9,1.6,1.8,2.9,1.8,3l0.6,1c0.1,0.1,0.2,0.2,0.3,0.2
	c0.1,0,0.2-0.1,0.3-0.2l0.6-1c0-0.1,0.9-1.4,1.8-3c1.3-2.3,1.9-3.9,1.9-5C12.2,2.8,10.1,0.8,7.5,0.8z M9.7,10.1
	c-0.9,1.6-1.7,2.9-1.8,2.9l-0.4,0.5L7.1,13c0-0.1-0.9-1.4-1.8-2.9C4.2,7.9,3.5,6.3,3.5,5.4c0-2.2,1.8-4,4-4s4,1.8,4,4
	C11.5,6.3,10.9,7.9,9.7,10.1z M7.5,2.8C6.1,2.8,4.9,4,4.9,5.4S6.1,8,7.5,8c1.4,0,2.6-1.2,2.6-2.6S8.9,2.8,7.5,2.8z M7.5,7.3
	c-1,0-1.9-0.8-1.9-1.9s0.8-1.9,1.9-1.9s1.9,0.8,1.9,1.9S8.5,7.3,7.5,7.3z"/>
    </symbol>


    <symbol id="calendar-white"  viewBox="0 0 15 15">
            <path fill="#fff" d="M13.7,1.4h-2V0.5c0-0.3-0.2-0.5-0.5-0.5c-0.3,0-0.5,0.2-0.5,0.5v0.9H7.9V0.5C7.9,0.2,7.7,0,7.4,0
			C7.1,0,6.9,0.2,6.9,0.5v0.9H4.1V0.5C4.1,0.2,3.9,0,3.7,0S3.2,0.2,3.2,0.5v0.9h-2C0.5,1.4-0.1,2-0.1,2.7v11.1
			c0,0.7,0.6,1.3,1.3,1.3h12.5c0.7,0,1.2-0.6,1.2-1.3V2.7C14.9,2,14.3,1.4,13.7,1.4z M14,13.7c0,0.2-0.1,0.3-0.3,0.3H1.2
			c-0.2,0-0.3-0.1-0.3-0.3V2.7c0-0.2,0.1-0.3,0.3-0.3h2v0.9c0,0.3,0.2,0.5,0.5,0.5s0.5-0.2,0.5-0.5V2.3h2.8v0.9
			c0,0.3,0.2,0.5,0.5,0.5c0.3,0,0.5-0.2,0.5-0.5V2.3h2.8v0.9c0,0.3,0.2,0.5,0.5,0.5c0.3,0,0.5-0.2,0.5-0.5V2.3h2
			c0.2,0,0.3,0.1,0.3,0.3V13.7z"/>
            <rect x="3.2" y="5.6" fill="#fff" width="1.9" height="1.4"/>
            <rect x="3.2" y="8" fill="#fff" width="1.9" height="1.4"/>
            <rect x="3.2" y="10.3" fill="#fff" width="1.9" height="1.4"/>
            <rect x="6.5" y="10.3" fill="#fff" width="1.9" height="1.4"/>
            <rect x="6.5" y="8" fill="#fff" width="1.9" height="1.4"/>
            <rect x="6.5" y="5.6" fill="#fff" width="1.9" height="1.4"/>
            <rect x="9.7" y="10.3" fill="#fff" width="1.9" height="1.4"/>
            <rect x="9.7" y="8" fill="#fff" width="1.9" height="1.4"/>
    </symbol>

    <symbol id="play-white"  viewBox="0 0 40 40">
<path fill="#fff" d="M15.1,30.5c-0.3,0-0.7-0.1-1-0.2c-0.7-0.4-1.1-1.1-1.1-1.9V10.8c0-0.8,0.4-1.5,1.1-1.9c0.7-0.4,1.5-0.3,2.2,0.1l3.6,2.5   c0.5,0.3,0.6,0.9,0.3,1.4c-0.3,0.5-0.9,0.6-1.4,0.3l-3.6-2.5c0,0-0.1,0-0.1,0c-0.1,0-0.1,0.1-0.1,0.1v17.6c0,0,0,0.1,0.1,0.1   c0.1,0,0.1,0,0.1,0L28,19.7v-0.2l-4.5-3.1c-0.5-0.3-0.6-0.9-0.3-1.4c0.3-0.5,0.9-0.6,1.4-0.3l4.5,3.1c0.6,0.4,0.9,1,0.9,1.7   s-0.3,1.3-0.9,1.7l-12.8,8.8C16,30.4,15.6,30.5,15.1,30.5z"/>
        <path  fill="#fff" d="M19.7,40c-11,0-20-9-20-20s9-20,20-20s20,9,20,20S30.7,40,19.7,40z M19.7,2c-9.9,0-18,8.1-18,18s8.1,18,18,18s18-8.1,18-18   S29.6,2,19.7,2z"/>
    </symbol>

    <symbol id="home-white" viewBox="0 0 15 15">
        <path fill="#fff" d="M12.2,7.2c-0.2,0-0.4,0.2-0.4,0.4v5.7h-3V11c0-0.2-0.2-0.4-0.4-0.4H6.3c-0.2,0-0.4,0.2-0.4,0.4v2.3H2.9V7.9
				c0-0.2-0.2-0.4-0.4-0.4c-0.2,0-0.4,0.2-0.4,0.4v5.9c0,0.2,0.2,0.4,0.4,0.4h3.8c0.2,0,0.4-0.2,0.4-0.4v-2.3H8v2.3
				c0,0.2,0.2,0.4,0.4,0.4h3.8c0.2,0,0.4-0.2,0.4-0.4V7.7C12.6,7.4,12.4,7.2,12.2,7.2z"/>
        <path fill="#fff" d="M12.2,14.3H8.4c-0.3,0-0.5-0.2-0.5-0.5v-2.2H6.8v2.2c0,0.3-0.2,0.5-0.5,0.5H2.5c-0.3,0-0.5-0.2-0.5-0.5V7.9
				c0-0.3,0.2-0.5,0.5-0.5C2.8,7.3,3,7.6,3,7.9v5.4h2.7V11c0-0.3,0.3-0.5,0.5-0.5h2.1c0.3,0,0.5,0.2,0.5,0.5v2.2h2.7V7.7
				c0-0.3,0.2-0.5,0.5-0.5c0.3,0,0.5,0.2,0.5,0.5v6.1C12.7,14.1,12.5,14.3,12.2,14.3z M6.5,11.3h1.6v2.5c0,0.2,0.1,0.3,0.3,0.3h3.8
				c0.1,0,0.3-0.1,0.3-0.3V7.7c0-0.2-0.1-0.3-0.3-0.3c-0.2,0-0.3,0.1-0.3,0.3v5.8H8.7V11c0-0.2-0.1-0.3-0.3-0.3H6.3
				C6.1,10.8,6,10.9,6,11v2.5H2.8V7.9c0-0.2-0.1-0.3-0.3-0.3c-0.1,0-0.3,0.1-0.3,0.3v5.9c0,0.2,0.1,0.3,0.3,0.3h3.8
				c0.1,0,0.3-0.1,0.3-0.3V11.3z"/>

        <path fill="#fff" d="M14.4,7.6l-3.3-3.3V2c0-0.2-0.2-0.4-0.4-0.4c-0.2,0-0.4,0.2-0.4,0.4v1.4L7.6,0.7C7.5,0.6,7.4,0.6,7.3,0.6
				c-0.1,0-0.2,0-0.3,0.1L0.2,7.5C0.1,7.7,0,8,0.2,8.1c0.2,0.2,0.4,0.2,0.6,0l6.5-6.5l6.5,6.6c0.1,0.1,0.2,0.1,0.3,0.1
				c0.1,0,0.2,0,0.3-0.1C14.6,8,14.6,7.7,14.4,7.6z"/>
        <path fill="#fff" d="M14.1,8.4c-0.2,0-0.3,0-0.4-0.1L7.3,1.8L0.9,8.2C0.8,8.3,0.6,8.4,0.5,8.4c0,0,0,0,0,0c-0.1,0-0.3-0.1-0.4-0.2
				C0,8.1,0,8,0,7.8C0,7.7,0,7.5,0.1,7.4l6.8-6.8c0.2-0.2,0.5-0.2,0.8,0l2.5,2.5V2c0-0.3,0.2-0.5,0.5-0.5c0.3,0,0.5,0.2,0.5,0.5v2.2
				l3.3,3.3c0.2,0.2,0.2,0.6,0,0.8C14.4,8.3,14.3,8.4,14.1,8.4z M7.3,1.4l6.6,6.7c0.1,0.1,0.3,0.1,0.4,0c0.1-0.1,0.1-0.3,0-0.4
				L11,4.3V2c0-0.2-0.1-0.3-0.3-0.3c-0.2,0-0.3,0.1-0.3,0.3v1.7L7.5,0.8c-0.1-0.1-0.3-0.1-0.4,0L0.3,7.6C0.3,7.7,0.2,7.8,0.2,7.8
				c0,0,0,0.1,0.1,0.2c0.1,0.1,0.1,0.1,0.2,0.1c0.1,0,0.2,0,0.2-0.1L7.3,1.4z"/>
    </symbol>




    <symbol id="invest-white"  viewBox="0 0 487 487">
    <path fill="#fff" d="M249.9,265.8c-0.9-0.2-1.8-0.2-2.7-0.1c-9.1-1.1-16-8.8-16.1-18c0-4.4-3.6-8-8-8c-4.4,0-8,3.6-8,8
	c0,15.4,10.3,28.8,25.1,32.9v8c0,4.4,3.6,8,8,8s8-3.6,8-8v-7.5c17.1-3.6,28.7-19.5,26.9-36.9c-1.8-17.4-16.4-30.6-33.9-30.6
	c-10,0-18.1-8.1-18.1-18.1s8.1-18.1,18.1-18.1s18.1,8.1,18.1,18.1c0,4.4,3.6,8,8,8c4.4,0,8-3.6,8-8c0-16.1-11.3-30.1-27.1-33.4v-7.3
	c0-4.4-3.6-8-8-8s-8,3.6-8,8v7.8c-16.5,4.5-27.1,20.5-24.8,37.4s16.7,29.6,33.8,29.6c9.9,0,17.9,7.9,18.1,17.8
	C267.5,257.2,259.7,265.4,249.9,265.8z"/>
    <path fill="#fff" d="M133.4,222.2c0,64,51.9,115.8,115.8,115.8S365,286.1,365,222.2s-51.9-115.8-115.8-115.8
	C185.3,106.4,133.4,158.2,133.4,222.2z M249.2,122.3c55.2,0,99.9,44.7,99.9,99.9S304.3,322,249.2,322s-99.9-44.7-99.9-99.9
	C149.4,167,194.1,122.4,249.2,122.3z"/>
    <path fill="#fff" d="M404.4,357.7l-62.6,29.6c-8.6-16.1-25.2-26.3-43.5-26.8l-57.8-1.6c-9.1-0.3-18.1-2.6-26.3-6.8l-5.9-3
	c-30.1-15.7-66-15.6-96,0.1l0.4-13.3c0.1-4.4-3.4-8.1-7.8-8.2l-63.3-1.7c-4.4-0.1-8.1,3.4-8.2,7.8l-3.8,139
	c-0.1,4.4,3.4,8.1,7.8,8.2l63.3,1.7h0.2c4.3,0,7.9-3.4,8-7.8l0.2-6.7l16.5-8.8c6.5-3.5,14-4.3,21.1-2.3l98.3,27.6
	c0.2,0.1,0.3,0.1,0.5,0.1c7.1,1.5,14.3,2.2,21.6,2.2c15.4,0,30.6-3.3,44.5-9.7c0.3-0.2,0.7-0.3,1-0.5l142.5-92.2
	c3.5-2.3,4.7-7,2.6-10.6C447.1,355.2,423.7,348,404.4,357.7z M45.9,465.1l3.4-123l47.4,1.3l-3.4,123L45.9,465.1z M304.4,463
	c-17.4,7.8-36.7,10-55.4,6.2l-98-27.5c-11-3.1-22.8-1.8-32.9,3.6l-8.4,4.5l2.3-81.8c26.6-17.7,60.8-19.5,89.2-4.8l5.9,3
	c10.3,5.3,21.6,8.2,33.2,8.6l57.8,1.6c16.2,0.5,30,12,33.3,27.9l-86-2.4c-4.4-0.1-8.1,3.4-8.2,7.8c-0.1,4.4,3.4,8.1,7.8,8.2l95,2.6
	h0.2c4.3,0,7.9-3.4,8-7.8c0.1-3.5-0.2-6.9-0.8-10.4l64.2-30.3c0.1,0,0.1-0.1,0.2-0.1c9.1-4.6,20.1-3.1,27.6,3.9L304.4,463z"/>
    <path fill="#fff" d="M257.2,83.9V8c0-4.4-3.6-8-8-8s-8,3.6-8,8v75.9c0,4.4,3.6,8,8,8S257.2,88.3,257.2,83.9z"/>
    <path fill="#fff" d="M317.1,83.9V47.9c0-4.4-3.6-8-8-8c-4.4,0-8,3.6-8,8v35.9c0,4.4,3.6,8,8,8C313.5,91.9,317.1,88.3,317.1,83.9z"/>
        <path fill="#fff" d="M197.3,83.9V47.9c0-4.4-3.6-8-8-8s-8,3.6-8,8v35.9c0,4.4,3.6,8,8,8S197.3,88.3,197.3,83.9z"/>
    </symbol>




    <symbol id="kommerc-white"  viewBox="0 0 512 512" fill="#fff">

    <path d="M480.4,494.7H466V43.1c0-4.8-3.9-8.6-8.6-8.6H296.3c-4.8,0-8.6,3.9-8.6,8.6v37.4h-17.3V43.1c0-4.8-3.9-8.6-8.6-8.6h-37.4
				V8.6c0-4.8-3.9-8.6-8.6-8.6s-8.6,3.9-8.6,8.6v25.9h-37.4c-4.8,0-8.6,3.9-8.6,8.6v37.4h-25.9c-4.8,0-8.6,3.9-8.6,8.6v71.9H54.7
				c-4.8,0-8.6,3.9-8.6,8.6v325H31.6c-4.8,0-8.6,3.9-8.6,8.6s3.9,8.6,8.6,8.6h448.7c4.8,0,8.6-3.9,8.6-8.6S485.1,494.7,480.4,494.7z
				 M178.3,51.8h74.8v28.8h-74.8V51.8z M149.6,494.7h-5.8v-14.4c0-4.8-3.9-8.6-8.6-8.6s-8.6,3.9-8.6,8.6v14.4h-5.8V466h28.8V494.7z
				 M207.1,273.3v14.8v206.6h-40.3v-37.4c0-4.8-3.9-8.6-8.6-8.6h-46c-4.8,0-8.6,3.9-8.6,8.6v37.4H63.3V178.3h143.8L207.1,273.3
				L207.1,273.3z M215.7,161.1h-71.9V97.8h143.8v166.8h-63.3v-28.8h25.9c4.8,0,8.6-3.9,8.6-8.6s-3.9-8.6-8.6-8.6h-25.9v-28.8h25.9
				c4.8,0,8.6-3.9,8.6-8.6s-3.9-8.6-8.6-8.6h-25.9v-2.9C224.4,164.9,220.5,161.1,215.7,161.1z M368.2,494.7H224.4V288.1v-6.2h143.8
				V494.7z M448.7,494.7h-63.3V273.3v-11.5c0-4.8-3.9-8.6-8.6-8.6s-8.6,3.9-8.6,8.6v2.9h-17.3v-2.9c0-4.8-3.9-8.6-8.6-8.6
				s-8.6,3.9-8.6,8.6v2.9h-28.8V89.2V51.8h143.8L448.7,494.7L448.7,494.7z"/>
    <path d="M261.8,477.5c4.8,0,8.6-3.9,8.6-8.6V307.8c0-4.8-3.9-8.6-8.6-8.6s-8.6,3.9-8.6,8.6v161.1
				C253.1,473.6,257,477.5,261.8,477.5z"/>
    <path d="M296.3,477.5c4.8,0,8.6-3.9,8.6-8.6V307.8c0-4.8-3.9-8.6-8.6-8.6s-8.6,3.9-8.6,8.6v161.1
				C287.6,473.6,291.5,477.5,296.3,477.5z"/>
    <path d="M330.8,477.5c4.8,0,8.6-3.9,8.6-8.6V307.8c0-4.8-3.9-8.6-8.6-8.6s-8.6,3.9-8.6,8.6v161.1
				C322.2,473.6,326,477.5,330.8,477.5z"/>
    <path d="M342.3,109.3c4.8,0,8.6-3.9,8.6-8.6V89.2c0-4.8-3.9-8.6-8.6-8.6s-8.6,3.9-8.6,8.6v11.5
				C333.7,105.4,337.5,109.3,342.3,109.3z"/>
    <path d="M376.8,109.3c4.8,0,8.6-3.9,8.6-8.6V89.2c0-4.8-3.9-8.6-8.6-8.6s-8.6,3.9-8.6,8.6v11.5
				C368.2,105.4,372,109.3,376.8,109.3z"/>
    <path d="M411.3,109.3c4.8,0,8.6-3.9,8.6-8.6V89.2c0-4.8-3.9-8.6-8.6-8.6s-8.6,3.9-8.6,8.6v11.5
				C402.7,105.4,406.6,109.3,411.3,109.3z"/>
    <path d="M342.3,166.8c4.8,0,8.6-3.9,8.6-8.6v-11.5c0-4.8-3.9-8.6-8.6-8.6s-8.6,3.9-8.6,8.6v11.5
				C333.7,163,337.5,166.8,342.3,166.8z"/>
    <path d="M376.8,166.8c4.8,0,8.6-3.9,8.6-8.6v-11.5c0-4.8-3.9-8.6-8.6-8.6s-8.6,3.9-8.6,8.6v11.5C368.2,163,372,166.8,376.8,166.8
				z"/>
    <path d="M411.3,166.8c4.8,0,8.6-3.9,8.6-8.6v-11.5c0-4.8-3.9-8.6-8.6-8.6s-8.6,3.9-8.6,8.6v11.5
				C402.7,163,406.6,166.8,411.3,166.8z"/>
    <path d="M342.3,224.4c4.8,0,8.6-3.9,8.6-8.6v-11.5c0-4.8-3.9-8.6-8.6-8.6s-8.6,3.9-8.6,8.6v11.5
				C333.7,220.5,337.5,224.4,342.3,224.4z"/>
    <path d="M376.8,224.4c4.8,0,8.6-3.9,8.6-8.6v-11.5c0-4.8-3.9-8.6-8.6-8.6s-8.6,3.9-8.6,8.6v11.5
				C368.2,220.5,372,224.4,376.8,224.4z"/>
    <path d="M411.3,224.4c4.8,0,8.6-3.9,8.6-8.6v-11.5c0-4.8-3.9-8.6-8.6-8.6s-8.6,3.9-8.6,8.6v11.5
				C402.7,220.5,406.6,224.4,411.3,224.4z"/>
    <path d="M100.7,247.4c4.8,0,8.6-3.9,8.6-8.6v-11.5c0-4.8-3.9-8.6-8.6-8.6s-8.6,3.9-8.6,8.6v11.5C92,243.5,95.9,247.4,100.7,247.4
				z"/>
    <path d="M135.2,247.4c4.8,0,8.6-3.9,8.6-8.6v-11.5c0-4.8-3.9-8.6-8.6-8.6s-8.6,3.9-8.6,8.6v11.5
				C126.6,243.5,130.4,247.4,135.2,247.4z"/>
    <path d="M169.7,247.4c4.8,0,8.6-3.9,8.6-8.6v-11.5c0-4.8-3.9-8.6-8.6-8.6s-8.6,3.9-8.6,8.6v11.5
				C161.1,243.5,164.9,247.4,169.7,247.4z"/>
    <path d="M100.7,304.9c4.8,0,8.6-3.9,8.6-8.6v-11.5c0-4.8-3.9-8.6-8.6-8.6S92,280,92,284.8v11.5C92,301,95.9,304.9,100.7,304.9z"
    />
    <path d="M135.2,304.9c4.8,0,8.6-3.9,8.6-8.6v-11.5c0-4.8-3.9-8.6-8.6-8.6s-8.6,3.9-8.6,8.6v11.5
				C126.6,301,130.4,304.9,135.2,304.9z"/>
    <path d="M169.7,304.9c4.8,0,8.6-3.9,8.6-8.6v-11.5c0-4.8-3.9-8.6-8.6-8.6s-8.6,3.9-8.6,8.6v11.5
				C161.1,301,164.9,304.9,169.7,304.9z"/>
    <path d="M100.7,362.4c4.8,0,8.6-3.9,8.6-8.6v-11.5c0-4.8-3.9-8.6-8.6-8.6s-8.6,3.9-8.6,8.6v11.5C92,358.6,95.9,362.4,100.7,362.4
				z"/>
    <path d="M135.2,362.4c4.8,0,8.6-3.9,8.6-8.6v-11.5c0-4.8-3.9-8.6-8.6-8.6s-8.6,3.9-8.6,8.6v11.5
				C126.6,358.6,130.4,362.4,135.2,362.4z"/>
    <path d="M169.7,362.4c4.8,0,8.6-3.9,8.6-8.6v-11.5c0-4.8-3.9-8.6-8.6-8.6s-8.6,3.9-8.6,8.6v11.5
				C161.1,358.6,164.9,362.4,169.7,362.4z"/>
    <path d="M100.7,420c4.8,0,8.6-3.9,8.6-8.6v-11.5c0-4.8-3.9-8.6-8.6-8.6s-8.6,3.9-8.6,8.6v11.5C92,416.1,95.9,420,100.7,420z"/>
    <path d="M135.2,420c4.8,0,8.6-3.9,8.6-8.6v-11.5c0-4.8-3.9-8.6-8.6-8.6s-8.6,3.9-8.6,8.6v11.5C126.6,416.1,130.4,420,135.2,420z"
    />
    <path d="M169.7,420c4.8,0,8.6-3.9,8.6-8.6v-11.5c0-4.8-3.9-8.6-8.6-8.6s-8.6,3.9-8.6,8.6v11.5C161.1,416.1,164.9,420,169.7,420z"
    />
    <path d="M411.3,281.9c4.8,0,8.6-3.9,8.6-8.6v-11.5c0-4.8-3.9-8.6-8.6-8.6s-8.6,3.9-8.6,8.6v11.5
				C402.7,278,406.6,281.9,411.3,281.9z"/>
    <path d="M411.3,339.4c4.8,0,8.6-3.9,8.6-8.6v-11.5c0-4.8-3.9-8.6-8.6-8.6s-8.6,3.9-8.6,8.6v11.5
				C402.7,335.6,406.6,339.4,411.3,339.4z"/>
    <path d="M411.3,396.9c4.8,0,8.6-3.9,8.6-8.6v-11.5c0-4.8-3.9-8.6-8.6-8.6s-8.6,3.9-8.6,8.6v11.5
				C402.7,393.1,406.6,396.9,411.3,396.9z"/>
    <path d="M411.3,454.5c4.8,0,8.6-3.9,8.6-8.6v-11.5c0-4.8-3.9-8.6-8.6-8.6s-8.6,3.9-8.6,8.6v11.5
				C402.7,450.6,406.6,454.5,411.3,454.5z"/>
    <path d="M258.9,135.2c0-4.8-3.9-8.6-8.6-8.6h-69c-4.8,0-8.6,3.9-8.6,8.6s3.9,8.6,8.6,8.6h69C255,143.8,258.9,140,258.9,135.2z"/>
    </symbol>


    <symbol id="med-white"  viewBox="0 0 420.8 420.8" fill="#fff">
		<path d="M413.6,204H378c14.8-33.6,13.2-60.8,7.6-79.2c-9.6-32.8-42-68.4-90-68.4c-12.8,0-25.6,2.4-38.8,7.2
			C234,72,218.8,81.2,212,86c-6.8-4.8-21.6-14-44.8-22.4c-13.2-4.8-26.4-7.2-38.8-7.2c-48,0-80.4,35.6-90,68.4
			c-5.6,19.6-7.6,49.2,11.2,86.4H6.4c-3.6,0-6.4,2.8-6.4,6.4c0,3.6,2.8,6.4,6.4,6.4h50.8c2,3.6,4.4,7.2,7.2,10.8
			c41.6,60,132,125.2,148.4,129.2v0.4c0,0,0.4,0,0.8-0.4c0.4,0,0.8,0,1.2,0v-0.4c14-6.8,100.8-62.8,146.4-129.2c4.4-6,8-12,11.2-18
			h42c3.6,0,6.4-2.8,6.4-6.4C420.8,206.4,417.2,204,413.6,204z M349.6,227.6c-42.4,62-120.4,112-137.2,122.8
			c-17.2-10.8-94.8-61.2-137.6-122.8c-0.8-1.2-1.6-2.4-2.4-3.6h58.8c2.4,0,4.8-1.2,6-3.6l26.8-52.8l42,107.6c0.8,2.4,3.6,4,6,4
			c0,0,0,0,0.4,0c2.8,0,5.2-2,6-4.8l36.8-126l19.6,63.6c0.8,2.4,2.8,4,5.2,4.4c2.4,0.4,4.8-0.8,6.4-2.8l15.6-22.8l13.2,22.4
			c1.2,2,3.2,3.2,5.6,3.2h36C354.4,220.4,352,224,349.6,227.6z M364,204h-39.2l-16.4-28c-1.2-2-3.2-3.2-5.6-3.2s-4.4,0.8-5.6,2.8
			l-13.6,20l-22-71.6c-0.8-2.8-3.6-4.4-6.4-4.8c-2.8,0-5.6,2-6.4,4.8l-37.2,128.4l-40.4-103.2c-0.8-2.4-3.2-4-5.6-4
			c-2.8,0-4.8,1.2-6,3.6l-31.6,62H64.4c-16-29.2-20.4-57.2-13.2-82.4c8.4-28.4,36-58.8,77.6-58.8c11.2,0,22.8,2.4,34.4,6.4
			c29.2,10.8,44.8,23.2,45.2,23.2c2.4,2,5.6,2,8,0c0,0,15.6-12.4,45.2-23.2c11.6-4.4,23.2-6.4,34.4-6.4c41.2,0,69.2,30.4,77.6,58.8
			C380.4,151.6,376.8,177.2,364,204z"/>
    </symbol>


    <symbol id="phone-blue"  viewBox="0 0 42.5 42.5" >
        <path fill="#0096c8" d="M33.1,41.5c-1.7,0-3.7-0.4-5.9-1.2c-4.9-1.8-10.2-5.5-14.9-10.2C7.6,25.3,4,20,2.1,15.1c-1.7-4.4-1.7-8,0-9.7
	c0.2-0.2,0.5-0.5,0.8-0.8C4.4,3,6.1,1.3,8.4,1.4c1.6,0,3.1,1,4.6,3c4.6,5.7,2.5,7.7,0.1,10.1l-0.4,0.4c-0.4,0.4-1.1,2.2,5.8,9.1
	c2.3,2.3,4.2,3.9,5.7,4.9c1,0.6,2.7,1.6,3.4,0.9l0.4-0.4c2.4-2.4,4.4-4.4,10.1,0.1c2,1.6,2.9,3.1,3,4.6c0.1,2.3-1.7,4-3.3,5.5
	c-0.3,0.3-0.5,0.5-0.8,0.7C36.1,41.1,34.8,41.5,33.1,41.5z M8.2,2.7c-1.6,0-3.1,1.6-4.4,2.9C3.6,5.9,3.4,6.2,3.1,6.4
	C1.9,7.7,2,10.9,3.4,14.7c1.8,4.7,5.3,9.8,9.9,14.4c4.6,4.6,9.7,8.1,14.4,9.9c3.8,1.4,7.1,1.6,8.3,0.3c0.3-0.3,0.5-0.5,0.8-0.8
	c1.4-1.3,3-2.8,2.9-4.5c0-1.2-0.9-2.4-2.4-3.6c-4.8-3.8-6.1-2.5-8.3-0.2l-0.4,0.4c-1.1,1.1-2.8,0.8-5.1-0.7
	c-1.6-1.1-3.6-2.8-5.9-5.1c-5.7-5.7-7.5-9.2-5.8-11l0.4-0.4c2.2-2.2,3.6-3.6-0.2-8.3C10.7,3.5,9.5,2.7,8.2,2.7
	C8.3,2.7,8.3,2.7,8.2,2.7z"/>
    </symbol>



    <symbol id="life-white"  viewBox="0 0 511.998 511.998" fill="#fff">

    <path d="M315.046,361.686h-28.067c-4.142,0-7.5,3.358-7.5,7.5c0,4.143,3.358,7.5,7.5,7.5h28.067c4.142,0,7.5-3.357,7.5-7.5
			C322.546,365.044,319.188,361.686,315.046,361.686z"/>

		<path d="M480.248,281.394l-40.841-15.753l-20.823-20.823c-1.337-1.337-3.06-2.061-4.82-2.174v-16.569
			c9.814-10.464,16.8-23.715,19.619-38.643c1.75,0.079,3.517-0.062,5.26-0.418c9.979-2.043,17.222-11.302,17.222-22.014v-5.469
			c0-6.197-2.513-11.885-6.605-15.952c6.623-36.02,1.168-65.374-15.846-85.021c-16.457-19.003-42.971-28.086-76.672-26.263
			c-31.136,1.683-51.236,16.009-57.604,21.25c-3.486,0.414-9.424,1.638-15.434,5.244c-8.33,4.998-18.259,15.497-18.259,37.13
			c0,18.872,3.016,34.628,5.2,43.567c-7.32,3.566-12.217,11.294-12.217,20.129v5.384c0,10.712,7.243,19.971,17.222,22.014
			c1.743,0.357,3.511,0.497,5.26,0.418c2.819,14.928,9.806,28.179,19.619,38.643v16.569c-1.76,0.113-3.484,0.837-4.82,2.174
			l-20.823,20.823l-40.841,15.753c-3.533,1.362-6.908,3.129-10.03,5.25c-3.426,2.328-4.316,6.992-1.989,10.418
			c1.451,2.136,3.81,3.286,6.21,3.286c1.451,0,2.917-0.421,4.208-1.297c2.177-1.479,4.532-2.711,6.999-3.663l37.903-14.62
			l28.98,43.471c3.592,5.389,9.35,8.846,15.795,9.484c0.717,0.071,1.434,0.106,2.146,0.106c3.731,0,7.351-0.981,10.555-2.794
			l-6.219,141.068c-0.183,4.138,3.024,7.641,7.163,7.823c0.112,0.005,0.224,0.007,0.336,0.007c3.99,0,7.31-3.145,7.487-7.17
			l5.772-130.941h15.57l5.772,130.941c0.177,4.026,3.497,7.17,7.487,7.17c0.112,0,0.224-0.002,0.336-0.007
			c4.138-0.182,7.345-3.685,7.163-7.823l-6.219-141.068c3.204,1.813,6.823,2.794,10.555,2.794c0.712,0,1.429-0.035,2.146-0.106
			c6.445-0.638,12.202-4.095,15.795-9.484l28.98-43.471l37.903,14.62c5.316,2.05,9.892,5.321,13.49,9.402l-25.931,25.931
			c-9.369,9.369-14.528,21.825-14.528,35.073v106.64c0,4.142,3.358,7.5,7.5,7.5c4.142,0,7.5-3.358,7.5-7.5v-106.64
			c0-9.241,3.599-17.931,10.134-24.466l22.758-22.758c0.914,3.353,1.341,6.878,1.197,10.482l-5.809,143.078
			c-0.168,4.139,3.051,7.63,7.189,7.799c0.104,0.004,0.207,0.006,0.31,0.006c4.001,0,7.325-3.161,7.488-7.195l5.811-143.082
			C512.809,308.433,500.066,289.038,480.248,281.394z M295.592,184.339c-1.323-7.201-7.991-12.435-15.188-11.902
			c-0.569,0.041-1.155,0.001-1.745-0.119c-2.982-0.61-5.231-3.757-5.231-7.318v-5.386c0-3.479,2.325-6.613,5.292-7.134
			c2.504-0.44,4.902,0.479,6.419,2.458c1.377,1.795,3.214,3.079,5.311,3.711c3.072,0.928,6.459,0.383,9.063-1.455
			c4.69-3.311,8.828-7.356,12.299-12.024c2.472-3.324,1.78-8.022-1.543-10.493c-3.325-2.472-8.022-1.781-10.494,1.543
			c-1.731,2.328-3.687,4.441-5.84,6.311c-2.378-2.034-5.156-3.504-8.133-4.343c-1.927-7.382-5.357-23.197-5.357-42.271
			c0-11.487,3.541-19.558,10.524-23.988c5.449-3.457,11.216-3.595,11.212-3.596c1.917,0,3.783-0.755,5.175-2.072
			c0.183-0.172,18.62-17.282,50.194-18.989c28.902-1.56,51.214,5.736,64.523,21.104c13.414,15.49,17.881,39.271,13.035,69.036
			c-2.009-0.071-4.208,0.081-6.397,0.446l-7.046-16.922c-1.438-3.452-5.204-5.316-8.822-4.373
			c-0.697,0.182-69.958,17.74-98.999-18.416c-2.593-3.229-7.313-3.745-10.544-1.151c-3.229,2.594-3.745,7.314-1.15,10.544
			c29.656,36.922,88.5,28.89,108.088,24.973l5.449,13.085c2.343,5.625,8.337,8.697,14.245,7.304
			c2.425-0.571,4.742-0.584,5.612-0.412c3.033,0.604,5.32,3.629,5.32,7.039v5.47c0,3.562-2.249,6.708-5.231,7.318
			c-0.589,0.121-1.178,0.161-1.745,0.119c-7.196-0.524-13.864,4.7-15.188,11.903c-5.456,29.704-31.343,51.264-61.554,51.264
			C326.935,235.603,301.048,214.043,295.592,184.339z M328.863,316.915c-1.902,1.902-4.113,1.995-5.263,1.881
			c-1.149-0.113-3.3-0.639-4.792-2.877l-29.195-43.792l11.741-11.741l44.82,39.218L328.863,316.915z M350.022,326.822l0.454-10.308
			l6.669-6.669l6.669,6.669l0.454,10.308H350.022z M357.146,289.272l-41.617-36.415v-14.354c12.1,7.695,26.416,12.1,41.617,12.1
			s29.518-4.405,41.618-12.1v14.354L357.146,289.272z M395.486,315.919c-1.493,2.239-3.644,2.764-4.792,2.877
			c-1.151,0.114-3.362,0.021-5.264-1.882l-17.311-17.311l44.82-39.218l11.741,11.741L395.486,315.919z"/>

		<path d="M237.845,320.699l-36.622-15.985l-20.019-20.019c-1.341-1.342-3.065-2.062-4.82-2.174v-11.799
			c17.109-11.243,29.629-29.124,33.652-50.431c1.97,0.088,3.959-0.101,5.919-0.564c9.597-2.271,16.562-11.468,16.562-21.868v-5.468
			c0-7.598-3.77-14.433-9.611-18.443c1.718-6.806,2.594-13.769,2.594-20.778c0-31.072-16.796-58.44-42.113-74.154
			c-0.27-25.933-22.405-46.953-49.588-46.953c-27.183,0-49.318,21.02-49.588,46.953C58.895,94.73,42.099,122.099,42.099,153.17
			c0,6.988,0.87,13.931,2.578,20.718c-5.838,3.99-9.595,10.857-9.595,18.585v5.386c0,10.4,6.965,19.597,16.562,21.868
			c1.96,0.464,3.948,0.652,5.919,0.564c4.023,21.307,16.544,39.188,33.653,50.431v11.799c-1.755,0.112-3.479,0.832-4.82,2.174
			l-20.019,20.019l-36.621,15.985c-18.633,8.134-30.573,27.246-29.712,47.559l4.429,104.493c0.171,4.03,3.492,7.183,7.488,7.183
			c0.107,0,0.215-0.002,0.323-0.007c4.139-0.175,7.351-3.672,7.176-7.811l-4.43-104.494c-0.285-6.733,1.465-13.266,4.755-18.889
			l19.685,23.622c6.221,7.465,9.646,16.927,9.646,26.643v73.436c0,4.142,3.358,7.5,7.5,7.5c4.142,0,7.5-3.358,7.5-7.5v-73.436
			c0-13.218-4.661-26.09-13.123-36.245L30.066,337.64c1.779-1.226,3.67-2.312,5.691-3.194l31.916-13.932l22.554,36.609
			c2.227,3.615,5.909,6.066,10.103,6.726c0.754,0.119,1.51,0.177,2.263,0.177c3.429,0,6.769-1.215,9.417-3.475l14.292-12.195
			v124.077c0,4.142,3.358,7.5,7.5,7.5s7.5-3.358,7.5-7.5V348.358l14.291,12.195c2.648,2.26,5.988,3.475,9.417,3.475
			c0.752,0,1.509-0.059,2.263-0.177c4.194-0.66,7.876-3.111,10.103-6.726l22.554-36.61l31.916,13.932
			c2.02,0.882,3.912,1.968,5.691,3.194l-20.927,25.113c-8.462,10.154-13.123,23.027-13.123,36.245v73.436c0,4.142,3.358,7.5,7.5,7.5
			c4.142,0,7.5-3.358,7.5-7.5v-73.436c0-9.716,3.426-19.178,9.646-26.643l19.685-23.622c3.29,5.623,5.04,12.156,4.755,18.889
			l-4.429,104.494c-0.175,4.138,3.037,7.635,7.176,7.811c0.108,0.005,0.215,0.007,0.323,0.007c3.996,0,7.317-3.152,7.488-7.183
			l4.429-104.493C268.42,347.946,256.479,328.833,237.845,320.699z M133.801,47.063c15.956,0,29.418,10.179,33.399,23.971
			c-10.354-3.908-21.62-6.057-33.399-6.057c-11.779,0-23.045,2.149-33.399,6.057C104.383,57.242,117.844,47.063,133.801,47.063z
			 M72.246,217.2c-1.322-7.203-8.001-12.435-15.187-11.903c-0.637,0.045-1.295-0.009-1.959-0.167
			c-2.86-0.677-5.017-3.803-5.017-7.271v-5.386c0-3.479,2.325-6.613,5.292-7.134c2.504-0.44,4.901,0.48,6.417,2.457
			c1.377,1.796,3.214,3.08,5.313,3.714c3.071,0.928,6.46,0.383,9.062-1.456c4.619-3.26,8.703-7.234,12.139-11.81
			c2.487-3.312,1.818-8.014-1.494-10.5c-3.313-2.487-8.014-1.818-10.501,1.494c-1.701,2.265-3.616,4.324-5.722,6.153
			c-3.209-2.744-7.144-4.462-11.318-4.983c-1.437-5.649-2.172-11.426-2.172-17.237c0-40.358,34.408-73.193,76.702-73.193
			c42.293,0,76.701,32.834,76.701,73.193c0,5.8-0.731,11.565-2.163,17.204c-1.974,0.157-3.98,0.48-5.837,0.962l-5.638-4.636
			c-2.833-2.33-6.399-3.496-10.008-3.281c-11.024,0.651-67.482,2.142-96.448-32.524c-2.656-3.178-7.385-3.602-10.564-0.946
			c-3.179,2.656-3.602,7.386-0.946,10.564c14.286,17.097,35.239,28.658,62.276,34.362c20.701,4.367,39.103,3.943,46.313,3.532
			l8.796,7.233c2.421,1.991,5.816,2.272,8.527,0.694c1.272-0.693,5.532-1.355,7.391-0.984c3.033,0.603,5.319,3.629,5.319,7.04v5.468
			c0,3.469-2.157,6.595-5.017,7.271c-0.663,0.157-1.322,0.214-1.959,0.166c-7.182-0.522-13.865,4.701-15.188,11.903
			c-5.456,29.705-31.343,51.265-61.554,51.265C103.59,268.464,77.702,246.904,72.246,217.2z M102.702,348.776L80.144,312.16
			L91.7,300.604l31.058,31.058L102.702,348.776z M133.801,321.491l-27.584-27.584v-15.516c8.611,3.278,17.916,5.073,27.584,5.073
			c9.668,0,18.973-1.795,27.584-5.072v15.515L133.801,321.491z M164.9,348.776l-20.056-17.114l31.058-31.058l11.556,11.556
			L164.9,348.776z"/>
		<path d="M105.734,394.766h-21.05c-4.142,0-7.5,3.358-7.5,7.5c0,4.142,3.358,7.5,7.5,7.5h21.05c4.142,0,7.5-3.358,7.5-7.5
			C113.234,398.124,109.876,394.766,105.734,394.766z"/>
    </symbol>




    <symbol viewBox="0 0 40 41" fill="#F7941D" id="magnifier-orange">
        <path d="M27 27C29.52 24.2 31.2 20.56 31.2 16.36C31.2 7.68002 24.2 0.960022 15.8 0.960022C7.11999 0.960022 0.399994 7.96002 0.399994 16.36C0.399994 25.04 7.39999 31.76 15.8 31.76C19.16 31.76 22.52 30.64 25.04 28.68L36.52 40.16C36.8 40.44 37.08 40.72 37.64 40.72C37.92 40.72 38.48 40.44 38.76 40.16C39.32 39.6 39.32 38.76 38.76 38.2L27 27ZM2.91999 16.64C2.91999 9.64002 8.51999 4.04002 15.52 4.04002C22.52 4.04002 28.12 9.64002 28.12 16.64C28.12 23.64 22.52 29.24 15.52 29.24C8.51999 29.24 2.91999 23.64 2.91999 16.64Z" fill="#F7941D"/>
    </symbol>



    <symbol viewBox="0 0 40 42" id="home-orange">
            <path d="M8.68001 19.32H5.32001C4.76001 19.32 4.48001 19.6 4.48001 19.88C4.48001 20.16 4.76001 20.44 5.04001 20.44H8.40001C8.68001 20.44 8.96001 20.16 8.96001 19.88C9.24001 19.6 8.96001 19.32 8.68001 19.32Z" fill="#F7941D"/>
            <path d="M8.68001 22.12H5.32001C4.76001 22.12 4.48001 22.4 4.48001 22.68C4.48001 22.96 4.76001 23.24 5.04001 23.24H8.40001C8.68001 23.24 8.96001 22.96 8.96001 22.68C9.24001 22.4 8.96001 22.12 8.68001 22.12Z" fill="#F7941D"/>
            <path d="M8.67999 24.64H5.31999C5.03999 24.64 4.75999 24.92 4.75999 25.2C4.75999 25.48 5.03999 25.76 5.31999 25.76H8.67999C8.95999 25.76 9.23999 25.48 9.23999 25.2C9.23999 24.92 8.95999 24.64 8.67999 24.64Z" fill="#F7941D"/>
            <path d="M8.67999 27.44H5.31999C5.03999 27.44 4.75999 27.72 4.75999 28C4.75999 28.28 5.03999 28.56 5.31999 28.56H8.67999C8.95999 28.56 9.23999 28.28 9.23999 28C9.23999 27.72 8.95999 27.44 8.67999 27.44Z" fill="#F7941D"/>
            <path d="M8.67999 30.24H5.31999C5.03999 30.24 4.75999 30.52 4.75999 30.8C4.75999 31.08 5.03999 31.36 5.31999 31.36H8.67999C8.95999 31.36 9.23999 31.08 9.23999 30.8C9.23999 30.52 8.95999 30.24 8.67999 30.24Z" fill="#F7941D"/>
            <path d="M8.67999 33.04H5.31999C5.03999 33.04 4.75999 33.32 4.75999 33.6C4.75999 33.88 5.03999 34.16 5.31999 34.16H8.67999C8.95999 34.16 9.23999 33.88 9.23999 33.6C9.23999 33.32 8.95999 33.04 8.67999 33.04Z" fill="#F7941D"/>
            <path d="M8.67999 35.84H5.31999C5.03999 35.84 4.75999 36.12 4.75999 36.4C4.75999 36.68 5.03999 36.96 5.31999 36.96H8.67999C8.95999 36.96 9.23999 36.68 9.23999 36.4C9.23999 36.12 8.95999 35.84 8.67999 35.84Z" fill="#F7941D"/>
            <path d="M8.67999 38.36H5.31999C5.03999 38.36 4.75999 38.64 4.75999 38.92C4.75999 39.2 5.03999 39.48 5.31999 39.48H8.67999C8.95999 39.48 9.23999 39.2 9.23999 38.92C9.23999 38.64 8.95999 38.36 8.67999 38.36Z" fill="#F7941D"/>
            <path d="M39.48 16.52H31.36V9.52C31.36 9.24 31.08 8.96 30.8 8.96H27.16V5.6C27.16 5.32 26.88 5.04 26.6 5.04H21.56V0.559998H20.44V4.76H15.4C15.12 4.76 14.84 5.04 14.84 5.6V8.96H11.48C11.2 8.96 10.92 9.24 10.92 9.52V16.52H2.52001C1.96001 16.52 1.68001 16.8 1.68001 17.08V41.16C1.68001 41.44 1.96001 41.72 2.24001 41.72H11.2H30.52H39.48C39.76 41.72 40.04 41.44 40.04 41.16V17.08C40.32 16.8 40.04 16.52 39.48 16.52ZM10.64 40.6H3.08001V17.92H10.64V40.6ZM16.24 6.16H25.76V8.96H16.24V6.16ZM29.96 17.08V40.32H12.04V17.08V10.36H15.4H26.32H29.68L29.96 17.08ZM38.92 40.6H31.36V17.92H38.92V40.6Z" fill="#F7941D" stroke="#F7941D" stroke-width="0.25" stroke-miterlimit="10"/>
            <path d="M36.68 19.88C36.4 19.88 36.12 20.16 36.12 20.44V38.36C36.12 38.64 36.4 38.92 36.68 38.92C36.96 38.92 37.24 38.64 37.24 38.36V20.72C37.52 20.16 37.24 19.88 36.68 19.88Z" fill="#F7941D"/>
            <path d="M33.32 19.88C33.04 19.88 32.76 20.16 32.76 20.44V38.36C32.76 38.64 33.04 38.92 33.32 38.92C33.6 38.92 33.88 38.64 33.88 38.36V20.72C34.16 20.16 33.88 19.88 33.32 19.88Z" fill="#F7941D"/>
            <path d="M19.04 33.6H14C13.72 33.6 13.44 33.88 13.44 34.16V38.36C13.44 38.92 13.72 39.2 14 39.2H18.76C19.32 39.2 19.6 38.92 19.6 38.36V34.16C19.6 33.88 19.32 33.6 19.04 33.6ZM18.2 37.8H14.84V35H18.2V37.8Z" fill="#F7941D"/>
            <path d="M19.04 26.88H14C13.72 26.88 13.44 27.16 13.44 27.44V31.64C13.44 31.92 13.72 32.2 14 32.2H18.76C19.04 32.2 19.32 31.92 19.32 31.64V27.44C19.6 27.16 19.32 26.88 19.04 26.88ZM18.2 30.8H14.84V28H18.2V30.8Z" fill="#F7941D"/>
            <path d="M19.04 19.88H14C13.72 19.88 13.44 20.16 13.44 20.44V24.64C13.44 25.2 13.72 25.48 14 25.48H18.76C19.32 25.48 19.6 25.2 19.6 24.64V20.72C19.6 20.16 19.32 19.88 19.04 19.88ZM18.2 24.08H14.84V21.28H18.2V24.08Z" fill="#F7941D"/>
            <path d="M19.04 13.16H14C13.72 13.16 13.44 13.44 13.44 13.72V17.92C13.44 18.2 13.72 18.48 14 18.48H18.76C19.32 18.48 19.6 18.2 19.6 17.92V13.72C19.6 13.44 19.32 13.16 19.04 13.16ZM18.2 17.08H14.84V14.28H18.2V17.08Z" fill="#F7941D"/>
            <path d="M28 33.6H22.96C22.68 33.6 22.4 33.88 22.4 34.44V38.64C22.4 38.92 22.68 39.2 22.96 39.2H28C28.28 39.2 28.56 38.92 28.56 38.64V34.44C28.56 33.88 28.28 33.6 28 33.6ZM27.16 37.8H23.8V35H27.16V37.8Z" fill="#F7941D"/>
            <path d="M28 26.88H22.96C22.68 26.88 22.4 27.16 22.4 27.44V31.64C22.4 31.92 22.68 32.2 22.96 32.2H28C28.28 32.2 28.56 31.92 28.56 31.64V27.44C28.56 27.16 28.28 26.88 28 26.88ZM27.16 30.8H23.8V28H27.16V30.8Z" fill="#F7941D"/>
            <path d="M28 19.88H22.96C22.68 19.88 22.4 20.16 22.4 20.72V24.92C22.4 25.2 22.68 25.48 22.96 25.48H28C28.28 25.48 28.56 25.2 28.56 24.92V20.72C28.56 20.16 28.28 19.88 28 19.88ZM27.16 24.08H23.8V21.28H27.16V24.08Z" fill="#F7941D"/>
            <path d="M28 13.16H22.96C22.68 13.16 22.4 13.44 22.4 13.72V17.92C22.4 18.2 22.68 18.48 22.96 18.48H28C28.28 18.48 28.56 18.2 28.56 17.92V13.72C28.56 13.44 28.28 13.16 28 13.16ZM27.16 17.08H23.8V14.28H27.16V17.08Z" fill="#F7941D"/>

    </symbol>



<symbol viewBox="0 0 40 42" id="paper-orange">
        <path d="M21.7 11.2H11.9V21H21.7V11.2ZM20.3 19.6H13.3V12.6H20.3V19.6Z" fill="#F7941D"/>
        <path d="M36.4 11.2H25.2C24.8129 11.2 24.5 11.5129 24.5 11.9C24.5 12.2871 24.8129 12.6 25.2 12.6H36.4C36.7871 12.6 37.1 12.2871 37.1 11.9C37.1 11.5129 36.7871 11.2 36.4 11.2Z" fill="#F7941D"/>
        <path d="M36.4 15.4H25.2C24.8129 15.4 24.5 15.7129 24.5 16.1C24.5 16.4871 24.8129 16.8 25.2 16.8H36.4C36.7871 16.8 37.1 16.4871 37.1 16.1C37.1 15.7129 36.7871 15.4 36.4 15.4Z" fill="#F7941D"/>
        <path d="M36.4 19.6H25.2C24.8129 19.6 24.5 19.9129 24.5 20.3C24.5 20.6871 24.8129 21 25.2 21H36.4C36.7871 21 37.1 20.6871 37.1 20.3C37.1 19.9129 36.7871 19.6 36.4 19.6Z" fill="#F7941D"/>
        <path d="M36.4 23.8H13.3C12.9129 23.8 12.6 24.1129 12.6 24.5C12.6 24.8871 12.9129 25.2 13.3 25.2H36.4C36.7871 25.2 37.1 24.8871 37.1 24.5C37.1 24.1129 36.7871 23.8 36.4 23.8Z" fill="#F7941D"/>
        <path d="M23.8 28H13.3C12.9129 28 12.6 28.3129 12.6 28.7C12.6 29.0871 12.9129 29.4 13.3 29.4H23.8C24.1871 29.4 24.5 29.0871 24.5 28.7C24.5 28.3129 24.1871 28 23.8 28Z" fill="#F7941D"/>
        <path d="M23.8 32.2H13.3C12.9129 32.2 12.6 32.5129 12.6 32.9C12.6 33.2871 12.9129 33.6 13.3 33.6H23.8C24.1871 33.6 24.5 33.2871 24.5 32.9C24.5 32.5129 24.1871 32.2 23.8 32.2Z" fill="#F7941D"/>
        <path d="M23.8 36.4H13.3C12.9129 36.4 12.6 36.7129 12.6 37.1C12.6 37.4871 12.9129 37.8 13.3 37.8H23.8C24.1871 37.8 24.5 37.4871 24.5 37.1C24.5 36.7129 24.1871 36.4 23.8 36.4Z" fill="#F7941D"/>
        <path d="M27.3 37.8H37.1V28H27.3V37.8ZM28.7 29.4H35.7V36.4H28.7V29.4Z" fill="#F7941D"/>
        <path d="M41.3 9.1C41.3 9.0881 41.2937 9.0783 41.293 9.0664V0H7.70001V21H0.700012V37.8C0.700012 40.1163 2.58371 42 4.90001 42H37.1C39.4121 42 41.293 40.1184 41.293 37.807V9.1336C41.2937 9.1217 41.3 9.1119 41.3 9.1ZM39.893 1.4V8.4H9.10001V1.4H39.893ZM2.10001 37.8V22.4H7.70001V37.8C7.70001 39.3442 6.44421 40.6 4.90001 40.6C3.35581 40.6 2.10001 39.3442 2.10001 37.8ZM37.1 40.6H8.02831C8.03951 40.5874 8.04721 40.5727 8.05771 40.5601C8.20051 40.397 8.33071 40.2227 8.44691 40.0386C8.46581 40.0092 8.48331 39.9798 8.50151 39.949C8.61491 39.76 8.71501 39.5626 8.79761 39.3554C8.80881 39.3267 8.81861 39.298 8.82911 39.2693C8.90961 39.0551 8.97541 38.8339 9.02021 38.605C9.02441 38.584 9.02581 38.5623 9.03001 38.542C9.07341 38.3012 9.10001 38.0534 9.10001 37.8V21V9.8H39.893V37.807C39.893 39.347 38.64 40.6 37.1 40.6Z" fill="#F7941D"/>
        <path d="M32.9 2.8H16.1V7H32.9V2.8ZM31.5 5.6H17.5V4.2H31.5V5.6Z" fill="#F7941D"/>

</symbol>



    <symbol viewBox="0 0 120 119" id="insta-color"  style="enable-background:new 0 0 120 119;" >
        <path fill="url(#SVGID_1_)" d="M117.7,36.1c-0.3-6.2-1.3-10.4-2.7-14.1c-1.5-3.9-3.7-7.4-6.7-10.3c-2.9-3-6.4-5.2-10.3-6.7
	c-3.7-1.4-7.9-2.4-14.1-2.7C77.7,2.1,75.8,2,60,2S42.3,2.1,36.1,2.3C29.9,2.6,25.7,3.6,22,5c-3.9,1.5-7.4,3.7-10.3,6.7
	C8.8,14.6,6.5,18.1,5,22c-1.4,3.7-2.4,7.9-2.7,14.1C2.1,42.3,2,44.2,2,60c0,15.8,0.1,17.7,0.4,23.9C2.6,90.1,3.6,94.3,5,98
	c1.5,3.9,3.7,7.4,6.7,10.3c2.9,3,6.4,5.2,10.3,6.7c3.7,1.4,7.9,2.4,14.1,2.7c6.2,0.3,8.2,0.3,23.9,0.3s17.7-0.1,23.9-0.3
	c6.2-0.3,10.4-1.3,14.1-2.7c7.8-3,13.9-9.2,17-17c1.4-3.7,2.4-7.9,2.7-14.1c0.3-6.2,0.3-8.2,0.3-23.9
	C118,44.2,117.9,42.3,117.7,36.1z M107.2,83.4c-0.3,5.7-1.2,8.7-2,10.8c-2,5.1-5.9,9.1-11,11c-2,0.8-5.1,1.7-10.8,2
	c-6.1,0.3-7.9,0.3-23.4,0.3c-15.5,0-17.3-0.1-23.4-0.3c-5.7-0.3-8.7-1.2-10.8-2c-2.5-0.9-4.8-2.4-6.7-4.3c-1.9-1.9-3.4-4.1-4.3-6.7
	c-0.8-2-1.7-5.1-2-10.8c-0.3-6.1-0.3-8-0.3-23.4c0-15.5,0.1-17.3,0.3-23.4c0.3-5.7,1.2-8.7,2-10.8c0.9-2.5,2.4-4.8,4.3-6.7
	c1.9-1.9,4.1-3.4,6.7-4.3c2-0.8,5.1-1.7,10.8-2c6.1-0.3,8-0.3,23.4-0.3h0c15.5,0,17.3,0.1,23.4,0.3c5.7,0.3,8.7,1.2,10.8,2
	c2.5,0.9,4.8,2.4,6.7,4.3c1.9,1.9,3.4,4.1,4.3,6.7c0.8,2,1.7,5.1,2,10.8c0.3,6.1,0.3,8,0.3,23.4C107.5,75.5,107.5,77.3,107.2,83.4z"
        />
        <path  fill="url(#SVGID_2_)" d="M60,30.2c-16.4,0-29.8,13.3-29.8,29.8S43.6,89.8,60,89.8c16.4,0,29.8-13.3,29.8-29.8S76.4,30.2,60,30.2z
	 M60,79.3c-10.7,0-19.3-8.7-19.3-19.3c0-10.7,8.7-19.3,19.3-19.3c10.7,0,19.3,8.7,19.3,19.3C79.3,70.7,70.7,79.3,60,79.3z"/>
        <path fill="url(#SVGID_3_)" d="M97.9,29c0,3.8-3.1,7-7,7c-3.8,0-7-3.1-7-7c0-3.8,3.1-7,7-7C94.8,22.1,97.9,25.2,97.9,29z"/>
    </symbol>
         <linearGradient id="SVGID_1_" gradientUnits="userSpaceOnUse" x1="11.7348" y1="691.9747" x2="108.2662" y2="788.506" gradientTransform="matrix(1 0 0 -1 0 800.24)">
            <stop  offset="0" style="stop-color:#FFD600"/>
            <stop  offset="0.5" style="stop-color:#FF0100"/>
            <stop  offset="1" style="stop-color:#D800B9"/>
        </linearGradient>
    <defs>
        <linearGradient id="SVGID_2_" gradientUnits="userSpaceOnUse" x1="38.9396" y1="719.1794" x2="81.0603" y2="761.3002" gradientTransform="matrix(1 0 0 -1 0 800.24)">
            <stop  offset="0" style="stop-color:#FF6400"/>
            <stop  offset="0.5" style="stop-color:#FF0100"/>
            <stop  offset="1" style="stop-color:#FD0056"/>
        </linearGradient></defs>
    <defs><linearGradient id="SVGID_3_" gradientUnits="userSpaceOnUse" x1="86.039" y1="766.2789" x2="95.8822" y2="776.1221" gradientTransform="matrix(1 0 0 -1 0 800.24)">
        <stop  offset="0" style="stop-color:#F30072"/>
        <stop  offset="1" style="stop-color:#E50097"/>
    </linearGradient>
    </defs>


    <symbol id="question-orange"  viewBox="0 0 512 512">
		<path fill="#f7941d" d="M256,0C114.5,0,0,114.5,0,256s114.5,256,256,256s256-114.5,256-256S397.5,0,256,0z M256,472c-119.4,0-216-96.6-216-216
			S136.6,40,256,40s216,96.6,216,216S375.4,472,256,472z"/>

	<path fill="#f7941d" d="M238.9,328.8l-0.9-11.7c-2.7-24.4,5.4-51,28-78.1c20.3-23.9,31.6-41.6,31.6-61.9c0-23-14.5-38.4-42.9-38.8
		c-16.3,0-34.3,5.4-45.6,14l-10.8-28.5c14.9-10.8,40.7-18.1,64.6-18.1c51.9,0,75.4,32.1,75.4,66.4c0,30.7-17.2,52.8-38.8,78.6
		c-19.9,23.5-27.1,43.4-25.7,66.4l0.5,11.7H238.9z M228.9,392c0-16.7,11.3-28.5,27.1-28.5s26.7,11.7,26.7,28.5
		c0,15.8-10.4,28-27.1,28C239.8,420.1,228.9,407.9,228.9,392z"/>
    </symbol>



    <symbol id="icon-3d" viewBox="58.406 43.72 31 31">
                 <g>
            <circle fill="#0000FF" cx="73.907" cy="59.22" r="15.5"/>
            <g>
                <path fill="#FFFFFF" d="M68.77,68.796c-3.51-1.881-5.73-5.533-5.73-9.575c0-0.45-0.365-0.815-0.814-0.815
			s-0.816,0.365-0.816,0.815c0,4.825,2.752,9.165,7.059,11.248l-1.475,1.579l6.916-1.143l-5.736-4.026L68.77,68.796z"/>
                <path fill="#FFFFFF" d="M79.351,47.973l1.471-1.579l-6.913,1.141l5.735,4.027l-0.598-1.919c3.512,1.882,5.73,5.533,5.73,9.575
			c0,0.451,0.365,0.814,0.816,0.814c0.449,0,0.813-0.363,0.813-0.814C86.407,54.395,83.657,50.056,79.351,47.973z"/>
                <path fill="#FFFFFF" d="M69.813,62.175c-0.359,0-0.66-0.104-0.906-0.312c-0.244-0.207-0.367-0.474-0.367-0.8h-1.725
			c0,0.753,0.277,1.358,0.828,1.814c0.551,0.46,1.26,0.688,2.127,0.688c0.928,0,1.674-0.232,2.236-0.697
			c0.563-0.467,0.844-1.085,0.844-1.856c0-0.479-0.119-0.893-0.359-1.241s-0.605-0.613-1.096-0.789
			c0.393-0.179,0.711-0.435,0.955-0.769c0.242-0.334,0.363-0.701,0.363-1.101c0-0.771-0.26-1.378-0.781-1.816
			c-0.521-0.44-1.24-0.661-2.16-0.661c-0.529,0-1.014,0.101-1.453,0.305c-0.439,0.202-0.783,0.485-1.027,0.844
			c-0.244,0.36-0.367,0.768-0.367,1.221h1.725c0-0.289,0.113-0.526,0.334-0.707c0.223-0.183,0.5-0.272,0.83-0.272
			c0.367,0,0.654,0.099,0.863,0.293c0.209,0.195,0.313,0.468,0.313,0.818c0,0.362-0.104,0.653-0.314,0.871
			c-0.211,0.219-0.537,0.328-0.975,0.328h-0.918v1.349h0.914c0.955,0,1.434,0.434,1.434,1.302c0,0.358-0.117,0.646-0.35,0.863
			C70.543,62.065,70.223,62.175,69.813,62.175z"/>
                <path fill="#FFFFFF" d="M78.95,55.27c-0.604-0.345-1.287-0.517-2.053-0.517h-2.675v8.692h2.692
			c0.762-0.004,1.443-0.18,2.049-0.525c0.604-0.348,1.072-0.833,1.406-1.463c0.332-0.628,0.498-1.348,0.498-2.155v-0.399
			c0-0.808-0.17-1.529-0.508-2.165C80.022,56.103,79.552,55.614,78.95,55.27z M79.054,59.356c-0.008,0.853-0.197,1.507-0.566,1.963
			c-0.371,0.459-0.906,0.688-1.605,0.688h-0.865v-5.802h0.883c0.703,0,1.24,0.227,1.605,0.683s0.549,1.125,0.549,2.009V59.356
			L79.054,59.356z"/>
            </g>
        </g>
	<path
            d="M10.196,25.31c-3.51-1.881-5.73-5.533-5.73-9.575c0-0.45-0.366-0.815-0.815-0.815s-0.815,0.365-0.815,0.815   c0,4.825,2.751,9.165,7.057,11.248L8.42,28.562l6.915-1.142l-5.736-4.027L10.196,25.31z"
             />
            <path
                    d="M20.778,4.488l1.471-1.579l-6.914,1.141l5.736,4.027l-0.598-1.919c3.511,1.882,5.731,5.533,5.731,9.575   c0,0.451,0.364,0.815,0.815,0.815c0.45,0,0.814-0.364,0.814-0.815C27.835,10.91,25.084,6.571,20.778,4.488z"
                     />
            <path
                    d="M11.239,18.689c-0.358,0-0.66-0.104-0.905-0.311c-0.245-0.207-0.367-0.474-0.367-0.8H8.242   c0,0.753,0.276,1.358,0.827,1.814c0.551,0.46,1.261,0.688,2.128,0.688c0.928,0,1.673-0.233,2.236-0.697   c0.563-0.467,0.845-1.085,0.845-1.857c0-0.478-0.121-0.892-0.361-1.241s-0.605-0.613-1.096-0.789   c0.394-0.179,0.712-0.435,0.956-0.769c0.243-0.334,0.364-0.701,0.364-1.1c0-0.771-0.261-1.378-0.782-1.817   c-0.521-0.44-1.241-0.661-2.161-0.661c-0.529,0-1.014,0.101-1.453,0.305c-0.44,0.202-0.782,0.485-1.027,0.844   c-0.245,0.36-0.368,0.767-0.368,1.22h1.726c0-0.289,0.112-0.526,0.334-0.707c0.223-0.182,0.5-0.272,0.83-0.272   c0.366,0,0.653,0.098,0.862,0.293c0.209,0.195,0.314,0.468,0.314,0.818c0,0.362-0.105,0.653-0.316,0.871   c-0.211,0.219-0.536,0.328-0.973,0.328h-0.919v1.349h0.914c0.955,0,1.433,0.434,1.433,1.302c0,0.358-0.117,0.646-0.349,0.863   C11.97,18.58,11.649,18.689,11.239,18.689z"
                     />
            <path
                    d="M20.377,11.785c-0.604-0.345-1.286-0.517-2.052-0.517h-2.674v8.693h2.692c0.761-0.004,1.442-0.18,2.048-0.526   c0.604-0.347,1.073-0.833,1.406-1.463c0.332-0.628,0.498-1.347,0.498-2.155v-0.399c0-0.808-0.169-1.53-0.507-2.165   C21.449,12.618,20.979,12.129,20.377,11.785z M20.48,15.871c-0.008,0.852-0.196,1.507-0.566,1.963   c-0.37,0.459-0.905,0.688-1.606,0.688h-0.865v-5.802h0.883c0.704,0,1.24,0.227,1.606,0.683c0.365,0.456,0.549,1.125,0.549,2.009   V15.871z"
                     />

    </symbol>>



    <use xlink:href="#broom" height="17" width="15" transform="translate(0)" />
    <use xlink:href="#zoom" height="15" width="15" transform="translate(0 20)" />
    <use xlink:href="#odn" height="23" width="23" transform="translate(0 40)" />
    <use xlink:href="#insta" height="25" width="23" transform="translate(0 70)" />
    <use xlink:href="#vk" height="25" width="23" transform="translate(0 100)" />
    <use xlink:href="#tw" height="25" width="23" transform="translate(0 125)" />
    <use xlink:href="#facebook" height="25" width="23" transform="translate(0 150)" />
    <use xlink:href="#youtube" height="25" width="23" transform="translate(0 175)" />
    <use xlink:href="#dzen-mono" height="25" width="23" transform="translate(0 200)" />
    <use xlink:href="#heart" height="30" width="32" transform="translate(0 225)" />
    <use xlink:href="#heart-red" height="30" width="32" transform="translate(0 255)" />
    <use xlink:href="#message" height="20" width="25" transform="translate(0 290)" />
    <use xlink:href="#toggle-list" height="20" width="16" transform="translate(0 310)" />
    <use xlink:href="#toggle-list-orange" height="20" width="16" transform="translate(0 330)" />
    <use xlink:href="#toggle-table" height="20" width="16" transform="translate(0 350)" />
    <use xlink:href="#toggle-table-orange" height="20" width="16" transform="translate(0 370)" />
    <use xlink:href="#message-gray" height="22" width="23" transform="translate(0 390)" />
    <use xlink:href="#telegram" height="22" width="23" transform="translate(0 420)" />
    <use xlink:href="#magnifier" height="17" width="17" transform="translate(0 450)" />
    <use xlink:href="#earch" height="17" width="18" transform="translate(0 500)" />
    <use xlink:href="#user-white" height="16" width="18" transform="translate(0 520)" />
    <use xlink:href="#map-black" height="20" width="16" transform="translate(0 550)" />
    <use xlink:href="#map" height="20" width="16" transform="translate(0 570)" />
    <use xlink:href="#user-blue" height="17" width="18" transform="translate(0 600)" />
    <use xlink:href="#message-white" height="17" width="19" transform="translate(0 630)" />
    <use xlink:href="#map-white" height="17" width="17" transform="translate(0 650)" />
    <use xlink:href="#calendar-white" height="17" width="17" transform="translate(0 670)" />
    <use xlink:href="#play-white" height="17" width="17" transform="translate(0 700)" />
    <use xlink:href="#home-white" height="17" width="17" transform="translate(0 730)" />
    <use xlink:href="#invest-white" height="23" width="23" transform="translate(0 760)" />
    <use xlink:href="#kommerc-white" height="23" width="23" transform="translate(0 790)" />
    <use xlink:href="#question-orange" height="19" width="19" transform="translate(0 800)" />
    <use xlink:href="#med-white" height="23" width="23" transform="translate(0 820)" />
    <use xlink:href="#life-white" height="23" width="23" transform="translate(0 850)" />
    <use xlink:href="#bell-red" height="21" width="21" transform="translate(0 875)" />
    <use xlink:href="#map-blue" height="22" width="22" transform="translate(-4 900)" />
    <use xlink:href="#earch-blue" height="18" width="18" transform="translate(0 933)" />
    <use xlink:href="#phone-blue" height="18" width="18" transform="translate(0 955)" />
    <use xlink:href="#magnifier-orange" height="42" width="43" transform="translate(0 1000)" />
    <use xlink:href="#home-orange" height="42" width="39" transform="translate(0 1050)" />
    <use xlink:href="#paper-orange" height="42" width="42" transform="translate(0 1100)" />
    <use xlink:href="#insta-color" height="30" width="30" transform="translate(0 1150)" />
    <use xlink:href="#icon-3d" height="25" width="25" transform="translate(0 1180)" />
    <use xlink:href="#earch-green" height="18" width="18" transform="translate(0 1210)" />
    <use xlink:href="#heart-green" height="30" width="32" transform="translate(0 1250)" />
    <use xlink:href="#heart-green-act" height="30" width="32" transform="translate(0 1280)" />
    <use xlink:href="#toggle-list-green" height="20" width="16" transform="translate(0 1310)" />
    <use xlink:href="#toggle-table-green" height="20" width="16" transform="translate(0 1340)" />
    <use xlink:href="#message-black" height="20" width="25" transform="translate(0 1370)" />
    <use xlink:href="#bell-green" height="21" width="21" transform="translate(0 1400)" />


</svg>
