<?xml version="1.0" encoding="utf-8"?><svg xmlns="http://www.w3.org/2000/svg" xmlns:xlink="http://www.w3.org/1999/xlink"><symbol viewBox="0 0 16 16" id="3d" xmlns="http://www.w3.org/2000/svg"><path d="M8.3.7l5.8 3.4c.2.1.3.3.3.6v6.7c0 .2-.1.5-.3.6l-5.8 3.4c-.2.1-.5.1-.7 0L1.8 12c-.2-.1-.3-.3-.3-.6V4.7c0-.2.1-.5.3-.6L7.6.7c.3-.1.5-.1.7 0zM8 .4v8.2M8 8l6.3 3.7M8 8l-6.3 3.6"/></symbol><symbol viewBox="0 0 15 15" id="_box"><path d="M14.4 4c-.2 0-.4.2-.4.4v8.1c0 .9-.7 1.6-1.6 1.6H2.7c-.9 0-1.6-.7-1.6-1.6V2.8c0-.9.7-1.6 1.6-1.6h9.7c.2 0 .4-.2.4-.4s-.2-.4-.4-.4H2.7C1.4.4.3 1.5.3 2.8v9.7c0 1.3 1.1 2.4 2.4 2.4h9.7c1.3 0 2.4-1.1 2.4-2.4V4.4c.1-.2-.1-.4-.4-.4zM.2 4.4v8.1c0 1.3 1.1 2.4 2.4 2.4h9.7c1.3 0 2.4-1.1 2.4-2.4V2.8c0-1.3-1.1-2.4-2.4-2.4H2.7c-.2 0-.4.2-.4.4s.2.4.4.4h9.7c.9 0 1.6.7 1.6 1.6v9.7c0 .9-.7 1.6-1.6 1.6H2.7c-.9 0-1.6-.7-1.6-1.6V4.4c0-.2-.2-.4-.4-.4-.3 0-.5.2-.5.4z"/></symbol><symbol viewBox="0 0 58.2 58.2" id="alarm-clock" xmlns="http://www.w3.org/2000/svg"><path d="M40.1 29.2H33c-.4-1.4-1.5-2.5-2.9-2.9V16.2c0-.6-.4-1-1-1s-1 .4-1 1v10.1c-1.7.4-3 2-3 3.9 0 2.2 1.8 4 4 4 1.9 0 3.4-1.3 3.9-3h7.1c.6 0 1-.4 1-1s-.5-1-1-1zm-11 3c-1.1 0-2-.9-2-2s.9-2 2-2 2 .9 2 2-.9 2-2 2z"/><path d="M50.2 9.8l4.1 4.1c.2.2.4.3.7.3s.5-.1.7-.3c3.2-3.2 3.2-8.3 0-11.5s-8.3-3.2-11.5 0c-.2.2-.3.4-.3.7s.1.5.3.7l4.6 4.6-1.7 1.6c-4.8-4.3-11.1-6.9-18-6.9s-13.2 2.6-18 6.9L9.4 8.3 14 3.7c.2-.2.3-.4.3-.7s-.1-.5-.3-.7C10.8-.9 5.7-.9 2.5 2.3s-3.2 8.3 0 11.5c.2.2.4.3.7.3s.5-.1.7-.3l4.1-4 1.7 1.7C5 16.3 2.1 22.9 2.1 30.2c0 9.9 5.4 18.6 13.3 23.3l-3 3c-.4.4-.4 1 0 1.4.2.2.5.3.7.3s.5-.1.7-.3l3.5-3.5c3.6 1.8 7.6 2.7 11.8 2.7s8.3-1 11.8-2.7l3.5 3.5c.2.2.5.3.7.3s.5-.1.7-.3c.4-.4.4-1 0-1.4l-3-3c8-4.7 13.3-13.4 13.3-23.3 0-7.3-2.9-13.9-7.6-18.7l1.7-1.7zm4.1-6c2.1 2.1 2.4 5.5.6 7.9l-8.5-8.5c2.4-1.8 5.7-1.6 7.9.6zM3.2 11.7c-1.7-2.4-1.5-5.8.7-7.9s5.5-2.4 7.9-.6l-8.6 8.5zm25.9 43.5c-13.8 0-25-11.2-25-25s11.2-25 25-25 25 11.2 25 25-11.2 25-25 25z"/><path d="M29.1 10c.6 0 1-.4 1-1V8c0-.6-.4-1-1-1s-1 .4-1 1v1c0 .6.4 1 1 1zm0 40c-.6 0-1 .4-1 1v1c0 .6.4 1 1 1s1-.4 1-1v-1c0-.5-.5-1-1-1zm21-19h1c.6 0 1-.4 1-1s-.4-1-1-1h-1c-.6 0-1 .4-1 1s.4 1 1 1zm-42-2h-1c-.6 0-1 .4-1 1s.4 1 1 1h1c.6 0 1-.4 1-1s-.5-1-1-1zm35.8-15.2l-.7.7c-.4.4-.4 1 0 1.4.2.2.5.3.7.3s.5-.1.7-.3l.7-.7c.4-.4.4-1 0-1.4s-1-.4-1.4 0zM13.5 44.2l-.7.7c-.4.4-.4 1 0 1.4.2.2.5.3.7.3s.5-.1.7-.3l.7-.7c.4-.4.4-1 0-1.4s-1-.4-1.4 0zm31.1 0c-.4-.4-1-.4-1.4 0s-.4 1 0 1.4l.7.7c.2.2.5.3.7.3s.5-.1.7-.3c.4-.4.4-1 0-1.4l-.7-.7zM14.2 13.8c-.4-.4-1-.4-1.4 0s-.4 1 0 1.4l.7.7c.2.2.5.3.7.3s.5-.1.7-.3c.4-.4.4-1 0-1.4l-.7-.7z"/></symbol><symbol viewBox="0 0 512.07 512.07" id="analytics" xmlns="http://www.w3.org/2000/svg"><path d="M76.834 367.003h-51.2c-14.132.015-25.585 11.468-25.6 25.6v110.933a8.533 8.533 0 008.533 8.533H93.9a8.533 8.533 0 008.533-8.533V392.603c-.015-14.132-11.467-25.584-25.599-25.6zm8.533 128H17.1v-102.4a8.544 8.544 0 018.533-8.533h51.2a8.544 8.544 0 018.533 8.533v102.4zm128-247.466h-51.2c-14.132.015-25.585 11.468-25.6 25.6v230.4a8.533 8.533 0 008.533 8.533h85.333a8.533 8.533 0 008.533-8.533v-230.4c-.015-14.133-11.467-25.585-25.599-25.6zm8.533 247.466h-68.267V273.137a8.544 8.544 0 018.533-8.533h51.2a8.544 8.544 0 018.533 8.533v221.866zm128-196.266h-51.2c-14.132.015-25.585 11.468-25.6 25.6v179.2a8.533 8.533 0 008.533 8.533h85.333a8.533 8.533 0 008.533-8.533v-179.2c-.014-14.133-11.467-25.585-25.599-25.6zm8.534 196.266h-68.267V324.337a8.544 8.544 0 018.533-8.533h51.2a8.544 8.544 0 018.533 8.533v170.666zm128-264.533h-51.2c-14.132.015-25.585 11.468-25.6 25.6v247.467a8.533 8.533 0 008.533 8.533H503.5a8.533 8.533 0 008.533-8.533V256.07c-.015-14.132-11.467-25.585-25.599-25.6zm8.533 264.533H426.7V256.07a8.544 8.544 0 018.533-8.533h51.2a8.544 8.544 0 018.533 8.533v238.933zm-72.354-392.715c15.633 17.596 41.254 22.258 62.083 11.296s31.493-34.72 25.84-57.569c-5.653-22.849-26.165-38.893-49.702-38.879a51.158 51.158 0 00-47.318 70.706l-50.994 31.875a50.964 50.964 0 00-73.432-3.124l-55.852-41.889c11.808-22.839 4.844-50.893-16.274-65.559-21.118-14.666-49.838-11.394-67.115 7.647-17.277 19.041-17.751 47.943-1.108 67.54L77.199 169.35c-22.94-13.498-52.397-7.167-67.766 14.564s-11.525 51.614 8.845 68.747c20.37 17.133 50.469 15.801 69.246-3.064 18.777-18.865 19.967-48.971 2.738-69.26l71.542-85.018c19.643 11.685 44.669 8.831 61.177-6.977l55.852 41.889c-10.87 21.055-5.868 46.819 12.091 62.277s44.181 16.568 63.383 2.684c19.202-13.884 26.365-39.132 17.314-61.031l50.992-31.873zm38.221-68.085c18.851 0 34.133 15.282 34.133 34.133-.022 18.842-15.291 34.112-34.133 34.133-18.851 0-34.133-15.282-34.133-34.133s15.281-34.133 34.133-34.133zm-409.6 213.334c-18.851 0-34.133-15.282-34.133-34.133 0-18.851 15.282-34.133 34.133-34.133s34.133 15.282 34.133 34.133c-.022 18.842-15.291 34.111-34.133 34.133zM187.767 85.403c-18.851 0-34.133-15.282-34.133-34.133s15.282-34.133 34.133-34.133S221.9 32.419 221.9 51.27c-.021 18.842-15.291 34.112-34.133 34.133zm136.533 102.4c-18.851 0-34.133-15.282-34.133-34.133s15.282-34.133 34.133-34.133c18.851 0 34.133 15.282 34.133 34.133-.021 18.842-15.29 34.112-34.133 34.133z"/></symbol><symbol viewBox="9 0 21 44" id="apple" xmlns="http://www.w3.org/2000/svg"><path fill="#fff" d="M19.82 13.138c1.083 0 2.44-.732 3.25-1.708.732-.885 1.266-2.121 1.266-3.357 0-.168-.015-.336-.046-.473-1.205.046-2.655.809-3.524 1.83-.687.779-1.313 2-1.313 3.25 0 .184.031.367.046.428.077.015.199.03.32.03zM16.005 31.6c1.48 0 2.136-.992 3.983-.992 1.876 0 2.288.961 3.936.961 1.617 0 2.7-1.495 3.723-2.96 1.144-1.678 1.617-3.326 1.648-3.402-.107-.03-3.205-1.297-3.205-4.852 0-3.082 2.442-4.47 2.579-4.577-1.617-2.32-4.074-2.38-4.745-2.38-1.816 0-3.296 1.098-4.226 1.098-1.007 0-2.335-1.037-3.906-1.037-2.99 0-6.027 2.472-6.027 7.14 0 2.9 1.13 5.966 2.517 7.95 1.19 1.678 2.228 3.051 3.723 3.051z"/></symbol><symbol viewBox="0 0 15 15" id="arrow"><path d="M14.7 5.3c.1-.1.1-.2.1-.4s0-.3-.1-.4c-.2-.2-.6-.2-.7 0L7.5 11 .9 4.6c-.2-.2-.6-.2-.7 0-.2.2-.2.6 0 .7l6.9 6.9c.2.2.6.2.7 0l6.9-6.9z"/><path d="M7.4 12.6c-.2 0-.4-.1-.5-.2L0 5.5c-.1-.1-.2-.3-.2-.5s.1-.4.2-.5c.3-.3.8-.3 1.1 0l6.3 6.3 6.3-6.3c.3-.3.8-.3 1.1 0 .2.1.2.2.2.5 0 .2-.1.4-.2.5L8 12.4c-.2.2-.4.2-.6.2zM.6 4.7c-.1 0-.2 0-.2.1-.1.1-.1.3 0 .4l6.9 6.9c.1.1.3.1.4 0l6.9-6.9c.1-.1.1-.1.1-.2s0-.1-.1-.2-.3-.1-.4 0l-6.7 6.7L.8 4.8c-.1-.1-.2-.1-.2-.1z"/></symbol><symbol viewBox="0 0 15 15" id="arrow_down"><path d="M12.6 10.1c.2-.2.2-.5 0-.8-.2-.2-.5-.2-.7 0l-3.8 3.8V.5c0-.3-.3-.5-.6-.5S7 .2 7 .5v12.6L3.2 9.3c-.2-.2-.6-.2-.8 0-.2.2-.2.6 0 .8l4.7 4.7c.2.2.5.2.8 0l4.7-4.7z"/></symbol><symbol viewBox="0 0 15 15" id="arrow_in_the_round"><g stroke-width=".25" stroke-miterlimit="10"><path d="M7.892 14.216A7.116 7.116 0 01.784 7.108C.783 3.189 3.973 0 7.892 0A7.115 7.115 0 0115 7.107c0 3.92-3.187 7.109-7.108 7.109zm0-13.734a6.632 6.632 0 00-6.626 6.625c0 3.654 2.972 6.626 6.626 6.626s6.626-2.972 6.626-6.626A6.633 6.633 0 007.892.482z"/><path d="M6.705 10.546a.33.33 0 01-.233-.566l3.005-3.008-3.005-3.006a.331.331 0 01.468-.469l3.238 3.241c.131.13.131.34 0 .472L6.94 10.449a.325.325 0 01-.235.097z"/></g></symbol><symbol fill="none" viewBox="0 0 15 12" id="arrow_right" xmlns="http://www.w3.org/2000/svg"><path d="M13.833 6.545a.75.75 0 000-1.06L9.06.712A.75.75 0 108 1.772l4.242 4.243L8 10.258a.75.75 0 101.06 1.06l4.773-4.773zm-13.136.22h12.606v-1.5H.697v1.5z" fill="#FF8B00"/></symbol><symbol viewBox="0 0 15 15" preserveAspectRatio="none" id="back"><path d="M.6 14.5c.3 0 .4-.2.4-.4s.5-4.3 7-4.3v2.7c0 .2.1.3.3.4.2.1.4.1.5-.1l6-5c.1-.1.2-.3.2-.4 0-.1-.1-.3-.2-.4l-6-4.9C8.7 2 8.5 2 8.3 2c-.1.1-.3.3-.3.5v2.6c-2.7.1-4.8.9-6.1 2.5C-.3 10.2.2 13.9.2 14.1c0 .2.2.4.4.4zm7.9-5.7c-4.6 0-6.4 1.6-7.4 3 .1-1.1.6-2.4 1.5-3.5C3.8 6.8 5.9 6 8.5 6c.3 0 .5-.2.5-.5V3.4l4.8 4-4.8 4V9.3c0-.1 0-.2-.1-.3-.1-.2-.3-.2-.4-.2z"/></symbol><symbol viewBox="0 0 15 15" id="book"><g stroke-width=".25" stroke-miterlimit="10"><path d="M10.748 5.903V2.375h-6.07v3.528h6.07zM5.154 2.852h5.117v2.574H5.154V2.852z"/><path d="M5.663 3.355h4.1v.477h-4.1zm0 .954h4.1v.477h-4.1z"/><path d="M12.5.511H3.385c-.689 0-1.25.56-1.25 1.249v10.566a1.25 1.25 0 001.25 1.249h.728V15h1.776v-1.425H12.5V.511zm-.478 10.566H3.623V.987h8.399v10.09zM3.146 1.025V11.1c-.195.036-.377.12-.534.244V1.76c0-.343.224-.635.534-.735zM3.385 13.1a.774.774 0 010-1.547h.728V13.1h-.728zm1.204 1.422v-2.97h.823v2.97h-.823zm7.433-1.422H5.889v-1.547h6.134V13.1h-.001z"/></g></symbol><symbol viewBox="0 0 15 15" id="calendar"><path d="M13.7 1.4h-2V.5c0-.3-.2-.5-.5-.5s-.5.2-.5.5v.9H7.9V.5c0-.3-.2-.5-.5-.5s-.5.2-.5.5v.9H4.1V.5c0-.3-.2-.5-.4-.5s-.5.2-.5.5v.9h-2C.5 1.4-.1 2-.1 2.7v11.1c0 .7.6 1.3 1.3 1.3h12.5c.7 0 1.2-.6 1.2-1.3V2.7c0-.7-.6-1.3-1.2-1.3zm.3 12.3c0 .2-.1.3-.3.3H1.2c-.2 0-.3-.1-.3-.3v-11c0-.2.1-.3.3-.3h2v.9c0 .3.2.5.5.5s.5-.2.5-.5v-1H7v.9c0 .3.2.5.5.5s.5-.2.5-.5v-.9h2.8v.9c0 .3.2.5.5.5s.5-.2.5-.5v-.9h2c.2 0 .3.1.3.3v11.1z"/><path d="M3.2 5.6h1.9V7H3.2zm0 2.4h1.9v1.4H3.2zm0 2.3h1.9v1.4H3.2zm3.3 0h1.9v1.4H6.5zm0-2.3h1.9v1.4H6.5zm0-2.4h1.9V7H6.5zm3.2 4.7h1.9v1.4H9.7zm0-2.3h1.9v1.4H9.7zm0-2.4h1.9V7H9.7z"/></symbol><symbol viewBox="0 0 25 25" id="calendar-check" xmlns="http://www.w3.org/2000/svg"><path d="M22 2.7h-2.2V1c0-.6-.4-1-1-1s-1 .4-1 1v1.7H7.2V1c0-.6-.4-1-1-1s-1 .4-1 1v1.7H3c-1.7 0-3 1.4-3 3V22c0 1.7 1.3 3 3 3h19c1.6 0 3-1.3 3-3V5.7c0-1.6-1.4-3-3-3zm-19 2h2.2v1.4c0 .6.4 1 1 1s1-.4 1-1V4.7h10.7v1.4c0 .6.4 1 1 1s1-.4 1-1V4.7H22c.5 0 1 .5 1 1v3.1H2V5.7c0-.5.5-1 1-1zM22 23H3c-.5 0-1-.5-1-1V10.8h21V22c0 .5-.5 1-1 1z"/><path d="M17 13.1L10.7 19 8 16.5c-.4-.4-1-.4-1.4.1-.4.4-.4 1 .1 1.4l3.4 3.2c.2.2.4.3.7.3.2 0 .5-.1.7-.3l6.9-6.5c.4-.4.4-1 0-1.4-.4-.5-1-.5-1.4-.2z"/></symbol><symbol viewBox="0 0 16 16" id="camera" xmlns="http://www.w3.org/2000/svg"><g fill="none" stroke-miterlimit="10"><path d="M8 6.1c-1.5 0-2.8 1.3-2.8 2.8s1.3 2.8 2.8 2.8 2.8-1.3 2.8-2.8c0-1.5-1.2-2.8-2.8-2.8z"/><path d="M13.5 14.6h-11c-1.1 0-2-.9-2-2V5.3c0-1.1.9-2 2-2h11c1.1 0 2 .9 2 2v7.3c0 1.1-.9 2-2 2zM5.5 3.3L6 1.9c.1-.3.4-.5.7-.5h2.7c.3 0 .6.2.7.5l.5 1.4" clip-rule="evenodd"/></g></symbol><symbol viewBox="0 0 40 28" id="car" xmlns="http://www.w3.org/2000/svg"><path d="M37 9c-2-4-4.9-4-7-4h-2V3.6c0-2-1.6-3.6-3.6-3.6H3.6C1.6 0 0 1.6 0 3.6v16.9c0 2 1.6 3.6 3.6 3.6h.7c.7 2.3 2.8 4 5.3 4s4.6-1.7 5.3-4h12.4c.7 2.3 2.8 4 5.3 4s4.7-1.7 5.3-4.1c2.2-.4 2.2-2.4 2.2-2.4v-5.2C40 14 37 9 37 9zM12.7 24c-.6 1.2-1.8 2-3.1 2s-2.6-.8-3.1-2c-.2-.5-.4-1-.4-1.5 0-.2 0-.4.1-.6.2-1.6 1.6-2.9 3.3-2.9s3.2 1.3 3.4 2.9c0 .2.1.4.1.6 0 .6-.1 1.1-.3 1.5zM26 20.5c0 .8-.7 1.5-1.5 1.5H15c-.3-2.8-2.6-4.9-5.5-4.9-2.8 0-5.2 2.2-5.5 4.9h-.4c-.8 0-1.5-.7-1.5-1.5V3.6c0-.8.7-1.5 1.5-1.5h20.9c.8 0 1.5.7 1.5 1.5v16.9zm6.5 5.5c-1.4 0-2.6-.8-3.1-2-.2-.5-.4-1-.4-1.5v-.4c.2-1.7 1.7-3.1 3.5-3.1s3.2 1.3 3.5 3.1v.4c0 .5-.1 1-.4 1.5-.5 1.2-1.7 2-3.1 2zm5.6-4.4c0 .1 0 .1-.1.2-.4-2.7-2.7-4.8-5.4-4.8-1.9 0-3.6 1-4.6 2.4V7h2c2 0 3.8 0 5.3 2.9 0 0 0 .1.1.1 1.1 1.8 2.7 5.1 2.7 6.4v5.2z"/></symbol><symbol viewBox="0 0 15 15" id="chat"><path d="M12.2.6H2.8C1.2.6 0 1.9 0 3.4v5.8C0 10.7 1.2 12 2.8 12h6.5l2.4 2.4c.1.1.2.1.3.1h.1c.1-.1.2-.2.2-.3v-2.1c1.5 0 2.7-1.3 2.7-2.8V3.4C15 1.9 13.8.6 12.2.6zm2.1 8.5c0 1.1-.9 2-2 2H12c-.2 0-.4.2-.4.4v1.6l-1.8-1.8c-.1-.1-.2-.1-.3-.1H2.8c-1.1 0-2-.9-2-2V3.4c0-1.1.9-2 2-2h9.5c1.1 0 2 .9 2 2v5.7z"/><path d="M4 5.5c-.5 0-.8.4-.8.8 0 .5.4.8.8.8.5 0 .8-.4.8-.8.1-.5-.3-.8-.8-.8zm3.5 0c-.5 0-.8.3-.8.8s.4.8.8.8c.5 0 .8-.4.8-.8 0-.5-.3-.8-.8-.8zm3.5 0c-.5 0-.8.4-.8.8 0 .5.4.8.8.8.5 0 .8-.4.8-.8 0-.5-.4-.8-.8-.8z"/></symbol><symbol viewBox="0 0 15 15" preserveAspectRatio="none" id="check"><path d="M13.8 4.4c-.2-.2-.6-.2-.9 0l-7.3 7.3-2.7-2.8c-.3-.2-.6-.2-.9 0-.2.3-.2.7 0 .9L5.3 13c.2.2.6.2.9 0l7.7-7.7c.2-.2.2-.6-.1-.9z"/></symbol><symbol viewBox="0 0 15 15" id="check_box"><path d="M13.7 3.8c-.2 0-.4.2-.4.4v7.7c0 .8-.7 1.5-1.5 1.5H2.5c-.8 0-1.5-.7-1.5-1.5V2.7c0-.8.7-1.5 1.5-1.5h9.2c.2 0 .4-.2.4-.4s-.2-.4-.4-.4H2.5C1.2.4.2 1.4.2 2.7v9.2c0 1.3 1 2.3 2.3 2.3h9.2c1.3 0 2.3-1 2.3-2.3V4.2c.1-.2-.1-.4-.3-.4z"/><path d="M14.6.9c-.2-.2-.6-.2-.9 0L6.5 7.6 3.9 5.1c-.3-.2-.6-.2-1 0-.2.2-.2.6 0 .8l3.3 2.9c.2.2.6.2.9 0l7.6-7.1c.3-.1.3-.5-.1-.8z"/></symbol><symbol fill="none" viewBox="0 0 19 19" id="clock" xmlns="http://www.w3.org/2000/svg"><path d="M9.486 1.368c4.469 0 8.117 3.648 8.117 8.117 0 4.469-3.648 8.117-8.117 8.117a8.106 8.106 0 01-8.118-8.117 8.106 8.106 0 018.118-8.117zm0-1.368A9.478 9.478 0 000 9.485a9.478 9.478 0 009.486 9.485 9.478 9.478 0 009.485-9.485C19.017 4.241 14.775 0 9.486 0z" fill="#fff"/><path d="M9.622 10.306a.701.701 0 01-.684-.684V5.107c0-.364.32-.684.684-.684.365 0 .684.32.684.684v4.515a.701.701 0 01-.684.684z" fill="#fff"/><path d="M13.043 13.361a.653.653 0 01-.456-.182l-3.42-2.964a.661.661 0 01-.046-.958.661.661 0 01.957-.046l3.42 2.964a.66.66 0 01.046.958c-.136.183-.319.228-.501.228z" fill="#fff"/></symbol><symbol viewBox="0 0 1000 1000" id="close"><path d="M990 928.8L561.3 500 990 71.3 928.8 10 500 438.8 71.3 10 10 71.3 438.8 500 10 928.8 71.3 990 500 561.3 928.8 990l61.2-61.2z"/></symbol><symbol viewBox="0 0 15 15" id="commertical"><path d="M3.1 6.9H1.9c-.2 0-.3.1-.3.2s.1.2.2.2H3c.1 0 .2-.1.2-.2.1-.1 0-.2-.1-.2zm0 1H1.9c-.2 0-.3.1-.3.2s.1.2.2.2H3c.1 0 .2-.1.2-.2.1-.1 0-.2-.1-.2zm0 .9H1.9c-.1 0-.2.1-.2.2s.1.2.2.2h1.2c.1 0 .2-.1.2-.2s-.1-.2-.2-.2zm0 1H1.9c-.1 0-.2.1-.2.2s.1.2.2.2h1.2c.1 0 .2-.1.2-.2s-.1-.2-.2-.2zm0 1H1.9c-.1 0-.2.1-.2.2s.1.2.2.2h1.2c.1 0 .2-.1.2-.2s-.1-.2-.2-.2zm0 1H1.9c-.1 0-.2.1-.2.2s.1.2.2.2h1.2c.1 0 .2-.1.2-.2s-.1-.2-.2-.2zm0 1H1.9c-.1 0-.2.1-.2.2s.1.2.2.2h1.2c.1 0 .2-.1.2-.2s-.1-.2-.2-.2zm0 .9H1.9c-.1 0-.2.1-.2.2s.1.2.2.2h1.2c.1 0 .2-.1.2-.2s-.1-.2-.2-.2z"/><path d="M14.1 5.9h-2.9V3.4c0-.1-.1-.2-.2-.2H9.7V2c0-.1-.1-.2-.2-.2H7.7V.2h-.4v1.5H5.5c-.1 0-.2.1-.2.3v1.2H4.1c-.1 0-.2.1-.2.2v2.5h-3c-.2 0-.3.1-.3.2v8.6c0 .1.1.2.2.2h13.3c.1 0 .2-.1.2-.2V6.1c.1-.1 0-.2-.2-.2zM3.8 14.5H1.1V6.4h2.7v8.1zm2-12.3h3.4v1H5.8v-1zm4.9 3.9v8.3H4.3V3.7h6.3l.1 2.4zm3.2 8.4h-2.7V6.4h2.7v8.1z"/><path d="M13.1 7.1c-.1 0-.2.1-.2.2v6.4c0 .1.1.2.2.2s.2-.1.2-.2V7.4c.1-.2 0-.3-.2-.3zm-1.2 0c-.1 0-.2.1-.2.2v6.4c0 .1.1.2.2.2s.2-.1.2-.2V7.4c.1-.2 0-.3-.2-.3zM6.8 12H5c-.1 0-.2.1-.2.2v1.5c0 .2.1.3.2.3h1.7c.2 0 .3-.1.3-.3v-1.5c0-.1-.1-.2-.2-.2zm-.3 1.5H5.3v-1h1.2v1zm.3-3.9H5c-.1 0-.2.1-.2.2v1.5c0 .1.1.2.2.2h1.7c.1 0 .2-.1.2-.2V9.8c.1-.1 0-.2-.1-.2zM6.5 11H5.3v-1h1.2v1zm.3-3.9H5c-.1 0-.2.1-.2.2v1.5c0 .2.1.3.2.3h1.7c.2 0 .3-.1.3-.3V7.4c0-.2-.1-.3-.2-.3zm-.3 1.5H5.3v-1h1.2v1zm.3-3.9H5c-.1 0-.2.1-.2.2v1.5c0 .1.1.2.2.2h1.7c.2 0 .3-.1.3-.2V4.9c0-.1-.1-.2-.2-.2zm-.3 1.4H5.3v-1h1.2v1zM10 12H8.2c-.1 0-.2.1-.2.3v1.5c0 .1.1.2.2.2H10c.1 0 .2-.1.2-.2v-1.5c0-.2-.1-.3-.2-.3zm-.3 1.5H8.5v-1h1.2v1zm.3-3.9H8.2c-.1 0-.2.1-.2.2v1.5c0 .1.1.2.2.2H10c.1 0 .2-.1.2-.2V9.8c0-.1-.1-.2-.2-.2zM9.7 11H8.5v-1h1.2v1zm.3-3.9H8.2c-.1 0-.2.1-.2.3v1.5c0 .1.1.2.2.2H10c.1 0 .2-.1.2-.2V7.4c0-.2-.1-.3-.2-.3zm-.3 1.5H8.5v-1h1.2v1zm.3-3.9H8.2c-.1 0-.2.1-.2.2v1.5c0 .1.1.2.2.2H10c.1 0 .2-.1.2-.2V4.9c0-.1-.1-.2-.2-.2zm-.3 1.4H8.5v-1h1.2v1z"/></symbol><symbol viewBox="0 0 15 15" id="d" xmlns="http://www.w3.org/2000/svg"><path fill="#FFF" d="M4.9 3.4L9.5 5v1.5L4.9 4.9V3.4zm0 5.2l4.6 1.6v1.5l-4.6-1.6V8.6z"/><path fill="#CCC" d="M9.5 6.5L5.8 9.7l-.9-1.1 3.7-3.3.9 1.2z"/><path fill="#FFF" d="M7.5 14.8c-4 0-7.3-3.3-7.3-7.3S3.5.2 7.5.2s7.3 3.3 7.3 7.3-3.3 7.3-7.3 7.3zm0-13.6C4 1.2 1.2 4 1.2 7.5s2.8 6.2 6.2 6.2 6.2-2.8 6.2-6.2-2.7-6.3-6.1-6.3z"/></symbol><symbol viewBox="0 0 15 15" id="delete" xmlns="http://www.w3.org/2000/svg"><path d="M9.8 5.6c-.2 0-.3.2-.3.3v6.5c0 .2.2.3.3.3.2 0 .3-.2.3-.3V5.9c.1-.2-.1-.3-.3-.3zm-4.1 0c-.2 0-.3.2-.3.3v6.5c0 .2.2.3.3.3.2 0 .3-.2.3-.3V5.9c0-.2-.1-.3-.3-.3z"/><path d="M2.8 4.6v8.5c0 .5.2 1 .5 1.3.3.3.8.5 1.2.5H11c.5 0 .9-.2 1.2-.5.3-.3.5-.8.5-1.3V4.6c.6-.2 1.1-.8 1-1.4 0-.7-.6-1.2-1.3-1.2h-1.8v-.4c0-.4-.1-.7-.4-1-.3-.3-.6-.4-1-.4H6.3c-.4 0-.7.1-1 .4-.3.3-.4.6-.4 1V2H3.1c-.6 0-1.2.5-1.3 1.2 0 .6.4 1.2 1 1.4zm8.2 9.6H4.5c-.6 0-1-.5-1-1.2V4.6h8.6V13c0 .7-.5 1.2-1.1 1.2zM5.6 1.6c0-.2.1-.4.2-.5.1-.1.3-.2.5-.2h3.1c.2 0 .4.1.5.2 0 .1.1.3.1.5V2H5.6v-.4zM3.1 2.7h9.3c.3 0 .6.3.6.6s-.3.6-.6.6H3.1c-.3 0-.6-.3-.6-.6s.3-.6.6-.6z"/><path d="M7.7 5.6c-.2 0-.3.2-.3.3v6.5c0 .2.2.3.3.3.2 0 .3-.2.3-.3V5.9c0-.2-.1-.3-.3-.3z"/></symbol><symbol viewBox="0 0 480.006 480.006" id="diagram" xmlns="http://www.w3.org/2000/svg"><path fill="#f7941d" d="M40.003 48.006h104v16h-104zm0 32h104v16h-104zm0 32h72v16h-72zm0 32h72v16h-72zm-40 320h480v16h-480zM463.163 68.43l-32-64a8 8 0 00-10.73-3.587l-.006.003-64 32a8.004 8.004 0 007.152 14.32l46.352-23.16-12.648 36.112C341.69 218.446 198.501 329.522 31.323 344.006l1.36 16C206.16 344.978 354.737 229.701 412.395 65.398l12.912-36.896 23.536 47.08a8.004 8.004 0 0014.32-7.152zM96.003 384.006h-56a8 8 0 00-8 8v48a8 8 0 008 8h56a8 8 0 008-8v-48a8 8 0 00-8-8zm-8 48h-40v-32h40v32zm96-72h-56a8 8 0 00-8 8v72a8 8 0 008 8h56a8 8 0 008-8v-72a8 8 0 00-8-8zm-8 72h-40v-56h40v56zm96-112h-56a8 8 0 00-8 8v112a8 8 0 008 8h56a8 8 0 008-8v-112a8 8 0 00-8-8zm-8 112h-40v-96h40v96z"/><path d="M360.003 264.006h-56a8 8 0 00-8 8v168a8 8 0 008 8h56a8 8 0 008-8v-168a8 8 0 00-8-8zm-8 168h-40v-152h40v152zm96-280h-56a8 8 0 00-8 8v280a8 8 0 008 8h56a8 8 0 008-8v-280a8 8 0 00-8-8zm-8 280h-40v-264h40v264z" fill="#f7941d"/></symbol><symbol viewBox="0 0 465 465" id="doc-2" xmlns="http://www.w3.org/2000/svg"><path d="M405.437 0h-10c-4.143 0-7.5 3.358-7.5 7.5s3.357 7.5 7.5 7.5h2.5v435h-2.5c-4.143 0-7.5 3.358-7.5 7.5s3.357 7.5 7.5 7.5h10a7.5 7.5 0 007.5-7.5V7.5a7.5 7.5 0 00-7.5-7.5zm-90 140H109.563c-4.143 0-7.5 3.358-7.5 7.5s3.357 7.5 7.5 7.5h205.873c4.143 0 7.5-3.358 7.5-7.5s-3.357-7.5-7.499-7.5zm0 120H109.563c-4.143 0-7.5 3.358-7.5 7.5s3.357 7.5 7.5 7.5h205.873c4.143 0 7.5-3.358 7.5-7.5s-3.357-7.5-7.499-7.5zm0 40H232.5c-4.143 0-7.5 3.358-7.5 7.5s3.357 7.5 7.5 7.5h82.937a7.5 7.5 0 000-15z"/><path d="M365.437 0H129.563c-.251 0-.501.013-.749.038a7.53 7.53 0 00-.545.082c-.06.011-.122.016-.182.028a7.298 7.298 0 00-.632.159c-.025.008-.052.012-.077.02a7.434 7.434 0 00-.623.223l-.066.024a7.214 7.214 0 00-.569.269c-.031.016-.064.029-.094.045a7.977 7.977 0 00-.504.301c-.042.027-.086.049-.127.077-.154.103-.3.216-.446.33-.048.038-.098.07-.145.109a7.313 7.313 0 00-.498.451l-.046.042-70 70c-.018.018-.033.039-.051.057a7.503 7.503 0 00-.44.486c-.044.054-.082.112-.125.167a7.215 7.215 0 00-.313.423c-.033.049-.06.101-.092.151a7.24 7.24 0 00-.287.48c-.02.037-.035.075-.054.112a7.733 7.733 0 00-.261.552c-.011.026-.019.054-.03.081-.08.2-.155.402-.218.61-.008.026-.013.053-.021.08a6.989 6.989 0 00-.158.63c-.012.059-.017.119-.027.178-.032.182-.064.363-.082.549a7.468 7.468 0 00-.038.749v380a7.5 7.5 0 007.5 7.5h305.873a7.5 7.5 0 007.5-7.5V7.5a7.499 7.499 0 00-7.499-7.5zM122.063 25.606V70H77.67l44.393-44.394zM357.937 450H67.063V85h62.5a7.5 7.5 0 007.5-7.5V15h220.873v435z"/><path d="M159.563 85h155.873c4.143 0 7.5-3.358 7.5-7.5s-3.357-7.5-7.5-7.5H159.563a7.5 7.5 0 000 15zm155.874 95H232.5c-4.143 0-7.5 3.358-7.5 7.5s3.357 7.5 7.5 7.5h82.937a7.5 7.5 0 000-15zm0 40H232.5c-4.143 0-7.5 3.358-7.5 7.5s3.357 7.5 7.5 7.5h82.937a7.5 7.5 0 000-15zM192.5 315c4.143 0 7.5-3.358 7.5-7.5s-3.357-7.5-7.5-7.5h-82.937a7.5 7.5 0 00-7.5 7.5v80a7.5 7.5 0 007.5 7.5H192.5a7.5 7.5 0 007.5-7.5v-50c0-4.142-3.357-7.5-7.5-7.5s-7.5 3.358-7.5 7.5V380h-67.937v-65H192.5zm-82.937-80H192.5c4.143 0 7.5-3.358 7.5-7.5s-3.357-7.5-7.5-7.5h-82.937a7.5 7.5 0 000 15zm155.874 145H232.5c-4.143 0-7.5 3.358-7.5 7.5s3.357 7.5 7.5 7.5h32.937a7.5 7.5 0 000-15zm50-40H232.5c-4.143 0-7.5 3.358-7.5 7.5s3.357 7.5 7.5 7.5h82.937a7.5 7.5 0 000-15zM109.563 195H192.5c4.143 0 7.5-3.358 7.5-7.5s-3.357-7.5-7.5-7.5h-82.937a7.5 7.5 0 000 15z"/></symbol><symbol viewBox="0 0 42.5 42.5" id="dzen" xmlns="http://www.w3.org/2000/svg"><path fill="#191c28" d="M21.6.1s-.1 13.2 3.5 16.9c4.8 4.9 17 3.8 17 3.8s.3-6.3-.4-11.5c-.2-1.4-.9-6.3-4.4-7.7C33.1 0 21.6.1 21.6.1z"/><path fill="#191C28" d="M20.9.1s.7 12.8-3.5 16.9c-4.9 4.7-17 3.8-17 3.8S.1 14.5.8 9.3C1 7.9 1.6 3 5.2 1.6 9.4-.1 20.9.1 20.9.1zm.6 42.2s-.1-13.2 3.5-16.9c4.8-4.9 17-3.8 17-3.8s.3 6.3-.4 11.5c-.2 1.4-.9 6.3-4.4 7.7-4.1 1.6-15.7 1.5-15.7 1.5z"/><path fill="#191C28" d="M20.8 42.3s.7-12.8-3.5-16.9c-4.9-4.7-17-3.8-17-3.8S0 27.9.7 33.1c.2 1.4.9 6.3 4.4 7.7 4.2 1.7 15.7 1.5 15.7 1.5z"/></symbol><symbol viewBox="0 0 15 15" id="dzen-mono" xmlns="http://www.w3.org/2000/svg"><path fill="#FFF" d="M4.9 3.4L9.5 5v1.5L4.9 4.9V3.4zm0 5.2l4.6 1.6v1.5l-4.6-1.6V8.6z"/><path fill="#CCC" d="M9.5 6.5L5.8 9.7l-.9-1.1 3.7-3.3.9 1.2z"/><path fill="#FFF" d="M7.5 14.8c-4 0-7.3-3.3-7.3-7.3S3.5.2 7.5.2s7.3 3.3 7.3 7.3-3.3 7.3-7.3 7.3zm0-13.6C4 1.2 1.2 4 1.2 7.5s2.8 6.2 6.2 6.2 6.2-2.8 6.2-6.2-2.7-6.3-6.1-6.3z"/></symbol><symbol viewBox="0 0 217 167.5" preserveAspectRatio="none" id="envelope"><path d="M172.5 36.2H43.8c-1.7 0-3.1 1.4-3.1 3.1v92c0 1.7 1.4 3.1 3.1 3.1h128.8c1.7 0 3.1-1.4 3.1-3.1v-92c-.1-1.7-1.5-3.1-3.2-3.1zm-3 84.5l-38-38-4.3 4.3 41.1 41.1H48.1L89.2 87l-4.3-4.3-38 38V42.3h122.6v78.4z"/><path d="M163.3 42.3l-55.1 55.1L53 42.3h-6.2v2.5l59.1 59.1c1.2 1.2 3.1 1.2 4.3 0l59.1-59.1v-2.5h-6z"/></symbol><symbol viewBox="0 0 15 15" id="eye"><path d="M14.8 6.8c-.8-1.1-1.9-2-3.2-2.6-1.2-.6-2.6-.9-4-1h-.2c-1.4 0-2.7.3-4 1-1.2.6-2.3 1.5-3.2 2.6-.3.4-.3 1 0 1.4.8 1.1 1.9 2 3.2 2.6 1.2.6 2.6.9 4 1h.2c1.4 0 2.7-.3 4-1 1.2-.6 2.3-1.5 3.2-2.6.3-.4.3-1 0-1.4zM3.7 10.2c-1.2-.5-2.2-1.4-3-2.4-.2-.2-.2-.5 0-.7.8-1 1.8-1.8 2.9-2.4.3-.2.7-.3 1-.4-.8.8-1.4 1.9-1.4 3.2s.5 2.4 1.4 3.2c-.3-.2-.6-.3-.9-.5zm3.8.9c-2 0-3.6-1.6-3.6-3.6s1.6-3.6 3.6-3.6 3.6 1.6 3.6 3.6-1.6 3.6-3.6 3.6zm6.8-3.3c-.8 1-1.8 1.8-2.9 2.4-.3.2-.7.3-1 .4.9-.8 1.4-1.9 1.4-3.2s-.5-2.4-1.4-3.2c.3.1.7.3 1 .4 1.1.6 2.2 1.4 2.9 2.4.1.4.1.6 0 .8z"/><path d="M7.5 5.9c-.9 0-1.6.7-1.6 1.6s.7 1.6 1.6 1.6 1.6-.7 1.6-1.6-.7-1.6-1.6-1.6zm0 2.5c-.5 0-.9-.4-.9-.9s.4-.9.9-.9.9.4.9.9-.4.9-.9.9z"/></symbol><symbol viewBox="0 0 98.48 98.48" id="eye-views" xmlns="http://www.w3.org/2000/svg"><path d="M97.204 45.788c-.865-1.02-21.537-24.945-47.963-24.945-26.427 0-47.098 23.925-47.965 24.946a5.307 5.307 0 00.001 6.904c.866 1.02 21.537 24.944 47.964 24.944 26.426 0 47.098-23.926 47.964-24.946a5.306 5.306 0 00-.001-6.903zM57.313 35.215c1.777-.97 4.255.143 5.534 2.485 1.279 2.343.875 5.029-.902 5.999-1.776.971-4.255-.143-5.535-2.485-1.278-2.343-.875-5.029.903-5.999zm-8.072 33.754c-18.46 0-33.995-14.177-39.372-19.729 3.631-3.75 11.898-11.429 22.567-16.021a19.995 19.995 0 00-3.301 11.021c0 11.104 9.001 20.105 20.105 20.105s20.106-9.001 20.106-20.105c0-4.072-1.219-7.855-3.3-11.021C76.715 37.812 84.981 45.49 88.612 49.24 83.235 54.795 67.7 68.969 49.241 68.969z" fill="#999"/></symbol><symbol viewBox="0 0 15 15" id="facebook"><path d="M8.5 15V8.2h2.3l.3-2.7H8.5V3.9c0-.8.2-1.3 1.3-1.3h1.4V.2c-.2 0-1.1-.1-2-.1-2 0-3.4 1.2-3.4 3.5v2H3.5v2.7h2.3V15h2.7z"/></symbol><symbol viewBox="0 0 15 15" id="file"><path d="M10.653 5.748H4.722a.237.237 0 100 .474h5.931a.237.237 0 100-.474z"/><path d="M10.653 6.459H4.722a.475.475 0 110-.949h5.931a.475.475 0 010 .949zm-5.931-.474h5.931-5.931zm0-1.661h2.372a.237.237 0 100-.474H4.722a.237.237 0 100 .474z"/><path d="M7.094 4.561H4.722a.475.475 0 110-.949h2.372a.475.475 0 110 .949zm-2.372-.474h2.372-2.372zm5.931 3.559H4.722a.237.237 0 100 .474h5.931a.237.237 0 100-.474z"/><path d="M10.653 8.357H4.722a.476.476 0 010-.95h5.931a.475.475 0 010 .95zm-5.931-.474h5.931-5.931zM10.653 9.543H4.722a.237.237 0 100 .474h5.931a.236.236 0 00.237-.237.236.236 0 00-.237-.237z"/><path d="M10.653 10.255H4.722a.475.475 0 010-.95h5.931a.476.476 0 010 .95zm.001-.475H4.722h5.932l-.001.237.001-.237zM10.653 11.441H4.722c-.131 0-.237.105-.237.237s.106.237.237.237h5.931c.131 0 .237-.105.237-.237s-.106-.237-.237-.237z"/><path d="M10.653 12.153H4.722a.476.476 0 010-.95h5.931a.476.476 0 010 .95zm.001-.474H4.722h5.932l-.001.237.001-.237z"/><g><path d="M9.803.528h-7.69v14.235h11.15V3.988L9.803.528zm.138.81l2.512 2.512H9.941V1.338zm-7.354 12.95V1.002h6.88v3.322h3.321v9.964H2.587z"/><path d="M13.5 15H1.875V.291H9.9l3.6 3.599V15zm-11.15-.475V.765h7.354H2.35v13.76zm.474-.474h9.727v-9.49H9.229V1.24H2.824v12.811zm6.88-9.964V.765v3.322zm.475-.475h1.701L10.179 1.91v1.702z"/></g></symbol><symbol viewBox="0 0 511.269 511.269" id="flame" xmlns="http://www.w3.org/2000/svg"><path d="M140.367 465.067C116.9 438.4 93.434 410.667 78.5 377.6c-14.933-35.2-19.2-75.733-11.733-114.133s24.533-74.667 49.067-105.6c-2.133 26.667 7.467 54.4 25.6 74.667-10.667-51.2 6.4-106.667 40.533-147.2S263.034 18.133 312.1 0c-24.533 25.6-27.733 66.133-18.133 100.267 9.6 34.133 29.867 64 48 94.933 18.133 30.933 35.2 62.933 36.267 98.133 9.6-18.133 20.267-36.267 26.667-56.533 6.4-20.267 9.6-41.6 4.267-61.867 19.2 23.467 29.867 46.933 35.2 76.8 5.333 29.867 4.267 60.8 1.067 90.667-4.267 33.067-12.8 67.2-30.933 94.933-21.333 33.067-55.467 56.533-92.8 69.333C255.567 518.4 190.5 508.8 140.367 465.067z" fill="#f3705a"/><path d="M221.434 504.533C308.9 538.667 395.3 435.2 347.3 355.2c0-1.067-1.067-1.067-1.067-2.133 4.267 43.733-6.4 75.733-26.667 93.867 10.667-25.6 3.2-55.467-9.6-81.067-12.8-24.533-30.933-46.933-44.8-70.4-13.867-24.533-24.533-52.267-18.133-80-25.6 19.2-43.733 48-51.2 78.933-7.467 30.933-3.2 65.067 10.667 93.867-16-11.733-27.733-30.933-28.8-51.2-17.067 20.267-27.733 46.933-26.667 73.6.001 41.6 33.067 78.933 70.401 93.866z" fill="#ffd15c"/></symbol><symbol viewBox="0 0 15 15" id="folder"><path d="M14.402 6.25h-.834V4.755a.653.653 0 00-.652-.652H7.011l-1.193-1.67H1.335a.653.653 0 00-.652.652v10.424h.001a.608.608 0 00.611.616h10.681a.607.607 0 00.584-.433L15 7.002V6.96c0-.411-.252-.71-.598-.71zM1.161 3.085c0-.097.079-.175.175-.175h4.236l1.193 1.67h6.151c.098 0 .176.078.176.175V6.25H3.721a.602.602 0 00-.584.433l-1.976 5.389V3.085zm10.944 10.463a.134.134 0 01-.129.1H1.295a.128.128 0 01-.106-.053c-.015-.02-.039-.061-.029-.098l2.432-6.669a.134.134 0 01.13-.1h10.681c.09 0 .113.13.119.195l-2.417 6.625z"/><path d="M11.977 14.375H1.295a.854.854 0 01-.826-.616H.435l-.001-.25V3.085c0-.497.405-.902.902-.902h4.61l1.193 1.67h5.777c.497 0 .902.405.902.902V6h.584c.483 0 .848.413.848.959l-.015.127-2.439 6.691c-.091.338-.438.598-.819.598zm-10.515-.978h10.434l2.34-6.419H3.801l-2.339 6.419zM1.411 3.16v7.504l1.491-4.067c.078-.291.346-.529.676-.584A.836.836 0 013.721 6h9.121V4.83H6.636L5.443 3.16H1.411z"/></symbol><symbol viewBox="0 0 15 15" id="forward"><path d="M.6 14.5c.3 0 .4-.2.4-.4s.5-4.3 7-4.3v2.7c0 .2.1.3.3.4.2.1.4.1.5-.1l6-5c.1-.1.2-.3.2-.4 0-.1-.1-.3-.2-.4l-6-4.9C8.7 2 8.5 2 8.3 2c-.1.1-.3.3-.3.5v2.6c-2.7.1-4.8.9-6.1 2.5C-.3 10.2.2 13.9.2 14.1c0 .2.2.4.4.4zm7.9-5.7c-4.6 0-6.4 1.6-7.4 3 .1-1.1.6-2.4 1.5-3.5C3.8 6.8 5.9 6 8.5 6c.3 0 .5-.2.5-.5V3.4l4.8 4-4.8 4V9.3c0-.1 0-.2-.1-.3-.1-.2-.3-.2-.4-.2z"/></symbol><symbol viewBox="0 0 15 15" id="garden"><path d="M15 10.4l-2.4-9.1c-.1-.4-.4-.7-.9-.7-.4 0-.7.3-.9.7l-2 7.4c-.1 0-.3-.1-.4-.1.2-.5.4-1.1.4-1.7 0-2.4-2-4.4-4.4-4.4C2 2.5 0 4.5 0 6.9c0 2.3 1.8 4.2 4 4.3V14H2.9c-.2 0-.3.2-.3.3 0 .2.2.3.3.3h9.4c.2 0 .3-.2.3-.3 0-.2-.2-.3-.3-.3h-.4v-2.5h2.2c.3 0 .5-.1.7-.3.2-.2.2-.5.2-.8zM4.4 5.7c-.2 0-.4.1-.4.3v2.5l-.8-.8c-.1-.1-.3-.1-.5 0-.1.1-.1.3 0 .5L4 9.5v1C2.1 10.3.7 8.8.7 6.8s1.6-3.7 3.7-3.7c2 0 3.7 1.6 3.7 3.7-.1.6-.2 1.2-.5 1.7-1 .1-1.9.8-2 1.8-.3.1-.6.2-.9.2V8.1l1-1c.1-.1.1-.3 0-.5-.1-.1-.3-.1-.5 0l-.5.5V6c0-.2-.2-.3-.3-.3zM7.5 14H4.7v-2.8c.3 0 .6-.1.9-.2.2.9.9 1.7 1.9 1.8V14zm.3-4c-.2 0-.3.1-.3.3v.5l-.1-.1c-.1-.1-.3-.1-.4 0-.1.1-.1.3 0 .4l.6.6v.5c-.7-.1-1.2-.7-1.2-1.5s.7-1.5 1.5-1.5H8c.8 0 1.4.7 1.4 1.5 0 .7-.5 1.3-1.2 1.5v-1.9c-.1-.2-.3-.3-.4-.3zm3.4 4H8.1v-1.2c.8-.1 1.4-.6 1.7-1.3h1.4V14zm3.1-3.2s-.1.1-.2.1h-2.2V9l.8-.8c.1-.1.1-.3 0-.5-.1-.1-.3-.1-.5 0l-.3.3v-.9c0-.2-.2-.3-.3-.3-.2 0-.3.2-.3.3v2.2l-.6-.6c-.1-.1-.3-.1-.5 0s-.2.3 0 .4l1 1v.7H9.9v-.2c0-.5-.2-1-.5-1.4l2.1-7.7c0-.1.1-.2.2-.2 0 0 .2 0 .2.1l2.4 9.1v.3z"/></symbol><symbol viewBox="0 0 42.5 42.5" id="global" xmlns="http://www.w3.org/2000/svg"><path d="M40.1 12C36.6 5.2 29.6.5 21.4.5 13.3.5 6.2 5.2 2.7 12v.1C1.3 14.9.4 18.2.4 21.6s.8 6.6 2.3 9.5v.1C6.2 38 13.3 42.7 21.4 42.7S36.6 38 40.1 31.2v-.1c1.4-2.8 2.3-6.1 2.3-9.5s-.8-6.7-2.3-9.6c.1 0 0 0 0 0zm-1.4 17.7h-8c.4-2.3.7-4.7.8-7.3h9.1c-.2 2.6-.8 5.1-1.9 7.3zm-17.3 11c-2.9 0-5.5-3.7-6.9-9.1h13.9c-1.5 5.4-4.1 9.1-7 9.1zm-7.4-11c-.5-2.2-.8-4.7-.8-7.3h16.4c-.1 2.6-.3 5.1-.8 7.3H14zM2.3 22.4h9.1c.1 2.6.3 5.1.8 7.3h-8c-1.1-2.2-1.8-4.7-1.9-7.3zm1.8-9.1h8c-.4 2.3-.7 4.7-.8 7.3h-9c.1-2.6.8-5.1 1.8-7.3zm17.3-11c2.9 0 5.5 3.7 6.9 9.1H14.5c1.4-5.4 4-9.1 6.9-9.1zm7.4 11c.5 2.2.8 4.7.8 7.3H13.2c.1-2.6.3-5.1.8-7.3h14.8zm2.7 7.3c-.1-2.6-.3-5.1-.8-7.3h8c1.1 2.2 1.7 4.7 1.8 7.3h-9zm6.2-9.1h-7.4C29.4 7.9 28 4.9 26.2 3c4.9 1.2 9 4.3 11.5 8.5zM16.6 3c-1.7 1.9-3.2 4.9-4.1 8.5H5.1C7.7 7.3 11.8 4.2 16.6 3zM5.1 31.6h7.4c.9 3.6 2.3 6.6 4.1 8.5-4.8-1.3-8.9-4.4-11.5-8.5zm21.1 8.5c1.7-1.9 3.2-4.9 4.1-8.5h7.4c-2.5 4.1-6.6 7.2-11.5 8.5z"/></symbol><symbol viewBox="0 0 15 15" id="gmail"><path d="M7.7 6v3h4c-.1.6-.4 1.2-.8 1.7-1.6 1.7-4.6 1.7-6.3 0-1.8-1.8-1.8-4.7 0-6.4 1.6-1.7 4.3-1.7 5.9-.2L12.7 2c-3-2.7-7.5-2.6-10.3.2-2.9 2.9-3 7.6-.1 10.6 2.9 2.9 7.9 3 10.6 0C14.5 11 15 8.5 14.6 6H7.7z" fill-rule="evenodd" clip-rule="evenodd" fill="#050000"/></symbol><symbol viewBox="0 0 15 15" id="google"><path d="M7.8 6v3h4c-.1.6-.4 1.2-.8 1.7-1.6 1.8-4.6 1.7-6.3 0-1.8-1.8-1.8-4.7 0-6.4 1.6-1.7 4.3-1.7 5.9-.2L12.8 2C9.9-.7 5.4-.7 2.5 2.2c-3 2.9-3 7.7-.1 10.6 2.9 3 8 3 10.7 0 1.6-1.8 2.1-4.3 1.7-6.8h-7z" fill-rule="evenodd" clip-rule="evenodd"/></symbol><symbol viewBox="0 0 15 15" id="hands" xmlns="http://www.w3.org/2000/svg"><path d="M9.6 5.2L5.9 3.9c-.4-.1-.8-.1-1.1.1l-.2.1c-.3.1-.5.1-.8 0L3.5 4l-1.9-.6h-.1s-.1 0-.2.1L-.3 8.1c0 .1 0 .2.1.2l2 .7H2l.1-.1 1.5-4.4.2.1c.4.1.7.1 1.1-.1l.1-.2c.2-.1.5-.1.8-.1l3.5 1.2c0 .3-.1.5-.3.6-.2.1-.4.1-.7 0l-1.6-.5h-.1l-.1.1s-.2.9-.9 1.2c-.5.2-1 .3-1.7 0-.1 0-.2 0-.2.1s0 .2.1.2c.3.1.7.2 1 .2.4 0 .7-.1 1-.2.6-.3.9-1 1.1-1.3l1.4.5c.4.1.8.1 1.1-.1.4-.3.5-.9.5-1-.2.1-.3 0-.3 0zM1.7 8.6L.2 8l1.5-4.3 1.5.5-1.5 4.4z"/><path d="M14.3 7.8l-2.1-4.4-.1-.1H12l-1.8.9c-.2.1-.2.2-.2.3l2.1 4.3-.7.6c-.6.5-1.3 1-2 1.4L6 12.4c-.1 0-.2.1-.3 0-.1 0-.2-.1-.2-.2s-.1-.2 0-.3c0-.1.1-.2.2-.2l1.9-.9c.1 0 .1-.1.1-.2s-.2-.1-.2-.1l-1.9.9-.9.5c-.2.1-.4 0-.5-.2-.1-.2 0-.4.2-.5L7 9.8c.1 0 .1-.1.1-.2s-.2-.1-.2-.1l-2 1-.7.3-.5.2c-.2.1-.4 0-.5-.2-.1-.2 0-.4.2-.5l.3-.2 2.5-1.2c.1 0 .1-.1.1-.2s-.2-.1-.2-.1l-1.6.7-.9.5c-.1 0-.2.1-.3 0-.1 0-.2-.1-.3-.2v-.3c0-.1.1-.2.2-.2l1.3-.6c.1 0 .1-.1.1-.2s-.2-.1-.2-.1l-1.3.5c-.2.1-.3.3-.4.5-.1.2-.1.4 0 .6l.3.3c-.2.2-.3.6-.1.9.1.3.4.4.7.4h.1c0 .1 0 .3.1.5.1.3.4.4.7.4.1 0 .2 0 .3-.1l.3-.2c0 .1 0 .3.1.4.1.2.2.3.4.4h.2c.1 0 .2 0 .3-.1L9.5 11c.8-.4 1.4-.8 2.1-1.4l.8-.6 1.8-.9c.1-.1.1-.2.1-.3zm-1.9.8l-2-4.1 1.5-.7 2 4.1-1.5.7z"/></symbol><symbol viewBox="0 0 59 59" id="heart"><path d="M51.911 16.242c-.759-8.354-6.672-14.415-14.072-14.415-4.93 0-9.444 2.653-11.984 6.905-2.517-4.307-6.846-6.906-11.697-6.906C6.759 1.826.845 7.887.087 16.241c-.06.369-.306 2.311.442 5.478 1.078 4.568 3.568 8.723 7.199 12.013l18.115 16.439 18.426-16.438c3.631-3.291 6.121-7.445 7.199-12.014.748-3.166.502-5.108.443-5.477zm-2.39 5.019c-.984 4.172-3.265 7.973-6.59 10.985L25.855 47.481 9.072 32.25c-3.331-3.018-5.611-6.818-6.596-10.99-.708-2.997-.417-4.69-.416-4.701l.015-.101c.65-7.319 5.731-12.632 12.083-12.632 4.687 0 8.813 2.88 10.771 7.515l.921 2.183.921-2.183c1.927-4.564 6.271-7.514 11.069-7.514 6.351 0 11.433 5.313 12.096 12.727.002.016.293 1.71-.415 4.707z"/></symbol><symbol viewBox="0 0 59 59" id="heart-red"><path d="M24.85 10.126c2.018-4.783 6.628-8.125 11.99-8.125 7.223 0 12.425 6.179 13.079 13.543 0 0 .353 1.828-.424 5.119-1.058 4.482-3.545 8.464-6.898 11.503L24.85 48 7.402 32.165c-3.353-3.038-5.84-7.021-6.898-11.503-.777-3.291-.424-5.119-.424-5.119C.734 8.179 5.936 2 13.159 2c5.363 0 9.673 3.343 11.691 8.126z"/></symbol><symbol viewBox="0 0 15 15" id="home"><path d="M12.2 7.2c-.2 0-.4.2-.4.4v5.7h-3V11c0-.2-.2-.4-.4-.4H6.3c-.2 0-.4.2-.4.4v2.3h-3V7.9c0-.2-.2-.4-.4-.4s-.4.2-.4.4v5.9c0 .2.2.4.4.4h3.8c.2 0 .4-.2.4-.4v-2.3H8v2.3c0 .2.2.4.4.4h3.8c.2 0 .4-.2.4-.4V7.7c0-.3-.2-.5-.4-.5z"/><path d="M12.2 14.3H8.4c-.3 0-.5-.2-.5-.5v-2.2H6.8v2.2c0 .3-.2.5-.5.5H2.5c-.3 0-.5-.2-.5-.5V7.9c0-.3.2-.5.5-.5.3-.1.5.2.5.5v5.4h2.7V11c0-.3.3-.5.5-.5h2.1c.3 0 .5.2.5.5v2.2h2.7V7.7c0-.3.2-.5.5-.5s.5.2.5.5v6.1c.2.3 0 .5-.3.5zm-5.7-3h1.6v2.5c0 .2.1.3.3.3h3.8c.1 0 .3-.1.3-.3V7.7c0-.2-.1-.3-.3-.3-.2 0-.3.1-.3.3v5.8H8.7V11c0-.2-.1-.3-.3-.3H6.3c-.2.1-.3.2-.3.3v2.5H2.8V7.9c0-.2-.1-.3-.3-.3-.1 0-.3.1-.3.3v5.9c0 .2.1.3.3.3h3.8c.1 0 .3-.1.3-.3v-2.5z"/><path d="M14.4 7.6l-3.3-3.3V2c0-.2-.2-.4-.4-.4s-.4.2-.4.4v1.4L7.6.7C7.5.6 7.4.6 7.3.6c-.1 0-.2 0-.3.1L.2 7.5c-.1.2-.2.5 0 .6.2.2.4.2.6 0l6.5-6.5 6.5 6.6c.1.1.2.1.3.1.1 0 .2 0 .3-.1.2-.2.2-.5 0-.6z"/><path d="M14.1 8.4c-.2 0-.3 0-.4-.1L7.3 1.8.9 8.2c-.1.1-.3.2-.4.2-.1 0-.3-.1-.4-.2C0 8.1 0 8 0 7.8c0-.1 0-.3.1-.4L6.9.6c.2-.2.5-.2.8 0l2.5 2.5V2c0-.3.2-.5.5-.5s.5.2.5.5v2.2l3.3 3.3c.2.2.2.6 0 .8-.1 0-.2.1-.4.1zm-6.8-7l6.6 6.7c.1.1.3.1.4 0 .1-.1.1-.3 0-.4L11 4.3V2c0-.2-.1-.3-.3-.3-.2 0-.3.1-.3.3v1.7L7.5.8c-.1-.1-.3-.1-.4 0L.3 7.6c0 .1-.1.2-.1.2s0 .1.1.2.1.1.2.1.2 0 .2-.1l6.6-6.6z"/></symbol><symbol viewBox="0 0 528 562" id="icon-finger" xmlns="http://www.w3.org/2000/svg"><path d="M343.1 211.9l-.6.3c-7.9 4.6-13.7 12-16.5 20.7-12.5-10.3-30-12.6-44.1-4.2a37.27 37.27 0 00-17 23.3c-12.1-7.9-27.5-8.9-40.2-1.4l-.6.4c-6.8 3.9-12.2 10-15.1 17.4l-46.9-79.2c-11.3-19.1-35.4-25.9-53.6-15.1-18.1 10.7-23.7 35-12.4 54.2L189 385.5l-15.3-5.5c-13.5-5.1-28.6-4.3-41.5 2.1-12.7 6.4-22.1 17.7-26.1 31.3l-3.9 11c-1.3 3.5.1 7.5 3.3 9.5l160.8 100c29.4 18.3 65.3 19.3 93.7 2.5l84.7-50.2v-.1c43-25.4 55.7-83.4 28.7-129.2-12.1-20.5-21.2-35.7-28.5-48.1-19.6-33.1-26.8-45.3-48.5-81.8-11.4-19.2-35.2-25.8-53.3-15.1zM431 316.8c7.3 12.4 16.4 27.7 28.5 48.2 22.6 38.2 12.2 86.5-23.2 107.5l-84.3 50c-23.2 13.8-52.8 12.8-77.1-2.3l-155.3-96.6 1.8-5.1c0-.1.1-.3.1-.4 2.7-9.5 9.3-17.4 18-21.8 9-4.5 19.5-5 28.9-1.4l36.2 13.1c3.2 1.2 6.7.2 8.9-2.4s2.4-6.3.7-9.2L110 220.1c-6.8-11.5-3.7-26.1 6.9-32.3 10.5-6.2 24.8-2 31.7 9.5l62.9 106.3c.2.4.4.8.6 1.1.1.2.2.3.3.5l26.9 45.4c2.2 3.8 7.2 5.1 10.9 2.8 3.8-2.2 5.1-7.2 2.8-10.9l-27.7-46.8c-6.6-11.1-3.2-24.9 7-30.9l.6-.4c10.5-6.2 24.7-2.2 31.6 9.3l24.6 41.6c2.2 3.8 7.2 5.1 10.9 2.8s5.1-7.2 2.8-10.9l-19.3-32.6c-6.8-11.6-4.1-25.9 6.5-32.2 10.5-6.2 24.4-1.8 31.3 9.8l18.2 30.8c2.2 3.8 7.2 5.1 10.9 2.8 3.8-2.2 5.1-7.2 2.8-10.9l-9.9-16.7c-6.8-11.6-3.4-25.8 7.1-32l.6-.3c10.5-6.2 24.5-2.1 31.4 9.4 21.9 36.2 29.1 48.4 48.6 81.5z"/><path d="M131.3 135.4c24.2-81.8 151.1-109.7 220.9-60.7" fill="none"/></symbol><symbol viewBox="0 0 15 15" id="image"><path d="M13.4 1.5H1.6C.7 1.5 0 2.2 0 3.1v9.1c0 .9.7 1.6 1.6 1.6h11.7c.9 0 1.6-.7 1.6-1.6V3.1c.1-.9-.6-1.6-1.5-1.6zm.9 6.2l-1.5-1.5c-.3-.3-.7-.3-.9 0L8.2 9.9 6.2 8c-.2-.3-.6-.3-.9 0L3.7 9.6c-.1.1-.1.3 0 .5.1.1.3.1.5 0l1.6-1.6 1.9 1.9-1.3 1.3c-.1.1-.1.3 0 .5.1.1.1.1.2.1s.2 0 .2-.1l5.5-5.5 1.9 1.9h.1v3.6c0 .5-.4 1-1 1H1.6c-.5 0-1-.4-1-1V3.1c0-.5.4-1 1-1h11.7c.5 0 1 .4 1 1v4.6z"/><path d="M3 10.4l-.3.3c-.1.1-.1.3 0 .5.1.1.1.1.2.1s.2 0 .2-.1l.3-.3c.1-.1.1-.3 0-.5s-.3-.2-.4 0zm.6-7C2.7 3.4 2 4.1 2 5s.7 1.6 1.6 1.6S5.2 5.9 5.2 5s-.7-1.6-1.6-1.6zm0 2.6c-.5 0-1-.4-1-1s.4-1 1-1 1 .4 1 1-.5 1-1 1z"/></symbol><symbol viewBox="0 0 15 15" id="insta"><path d="M7.5 1.4h3c.7 0 1.1.2 1.4.3.4.1.6.3.9.6.3.3.4.5.6.9.1.3.2.7.3 1.4v6c0 .7-.2 1.1-.3 1.4-.1.4-.3.6-.6.9-.3.3-.5.4-.9.6-.3.1-.7.2-1.4.3h-6c-.7 0-1.1-.2-1.4-.3-.4-.1-.6-.3-.9-.6-.3-.3-.4-.5-.6-.9-.1-.3-.2-.7-.3-1.4v-6c0-.7.2-1.1.3-1.4.2-.5.4-.7.6-1 .3-.2.5-.4.9-.5.3-.1.7-.2 1.4-.3h3m0-1.4H4.4c-.8 0-1.3.2-1.8.3-.5.3-.9.5-1.3 1s-.7.8-.9 1.3c-.2.5-.3 1-.3 1.8v6.2c0 .8.2 1.3.3 1.8.2.5.4.9.9 1.3s.8.7 1.3.9c.5.2 1 .3 1.8.3h6.2c.8 0 1.3-.2 1.8-.3.5-.2.9-.4 1.3-.9.4-.4.7-.8.9-1.3.2-.5.3-1 .3-1.8V4.4c0-.8-.2-1.3-.3-1.8-.2-.5-.4-.9-.9-1.3-.4-.4-.8-.7-1.3-.9-.5-.2-1-.3-1.8-.3C9.8 0 9.5 0 7.5 0z"/><path d="M7.5 3.6c-2.1 0-3.9 1.7-3.9 3.9s1.7 3.9 3.9 3.9 3.9-1.7 3.9-3.9-1.8-3.9-3.9-3.9zm0 6.4C6.1 10 5 8.9 5 7.5S6.1 5 7.5 5 10 6.1 10 7.5 8.9 10 7.5 10z"/><circle cx="11.5" cy="3.5" r=".9"/></symbol><symbol viewBox="0 0 42.5 42.5" id="linkedin" xmlns="http://www.w3.org/2000/svg"><path d="M42.5 25.9v15.7h-9.1V27c0-3.7-1.3-6.2-4.6-6.2-2.5 0-4 1.7-4.7 3.3-.2.6-.3 1.4-.3 2.2v15.3h-9.1s.1-24.8 0-27.4h9.1v3.9s0 .1-.1.1h.1v-.1c1.2-1.9 3.4-4.5 8.2-4.5 6 0 10.5 3.9 10.5 12.3zM5.2 1C2 1 0 3 0 5.7c0 2.6 2 4.7 5 4.7h.1c3.2 0 5.2-2.1 5.2-4.7C10.2 3 8.3 1 5.2 1zM.5 41.6h9.1V14.2H.5v27.4z"/></symbol><symbol viewBox="0 0 157 30" id="logo"><path d="M140.6 16.5V6.1h4.6v10.2c0 2.1 1.2 3.6 3.7 3.6 2.4 0 3.7-1.5 3.7-3.6V6.1h4.5v10.4c0 4.3-2.6 7.4-8.2 7.4-5.7 0-8.3-3.1-8.3-7.4m-8.2-4.6c0-1.2-1-1.9-2.2-1.9h-3.5v3.7h3.5c1.2.1 2.2-.6 2.2-1.8m-.5 11.7l-2.9-5.9h-2.3v5.9h-4.5V6.1h8.7c3.9 0 6.1 2.6 6.1 5.8 0 3-1.9 4.7-3.5 5.2l3.6 6.4h-5.2zm-54.6 0l-7.4-10.1v10.1h-4.5V6.1H70l7 9.6V6.1h4.5v17.5h-4.2zM53.5 10.5l-2.2 6.6h4.4l-2.2-6.6zm4.3 13.1l-.9-2.6H50l-.9 2.5H44L50.5 6h5.6l6.6 17.5h-4.9zM37 6.1h4.5v17.5H37V6.1zm-8.4 5.8c0-1.2-1-1.9-2.2-1.9h-3.5v3.7h3.5c1.2.1 2.2-.6 2.2-1.8m-.5 11.7l-2.9-5.9h-2.3v5.9h-4.5V6.1h8.7c3.9 0 6.1 2.6 6.1 5.8 0 3-1.9 4.7-3.5 5.2l3.5 6.4h-5.1zM10.6 11.9c0-1.2-.9-1.9-2.1-1.9H4.9v3.7h3.6c1.2.1 2.1-.6 2.1-1.8M.4 23.6V6.1h8.7c3.9 0 6 2.6 6 5.8 0 3.1-2.1 5.8-6 5.8H4.9v5.9H.4zM101.9.3c-8 0-14.5 6.5-14.5 14.5s6.5 14.6 14.5 14.6 14.5-6.5 14.5-14.6c0-8-6.5-14.5-14.5-14.5"/></symbol><symbol viewBox="0 0 183 30" id="logo-info" xmlns="http://www.w3.org/2000/svg"><path d="M77.3 23.6l-7.4-10.1v10.1h-4.5V6.1H70l7 9.6V6.1h4.5v17.5h-4.2zM53.5 10.5l-2.2 6.6h4.4l-2.2-6.6zm4.3 13.1l-.9-2.6H50l-.9 2.5H44L50.5 6h5.6l6.6 17.5h-4.9v.1zM37 6.1h4.5v17.5H37V6.1zm-8.4 5.8c0-1.2-1-1.9-2.2-1.9h-3.5v3.7h3.5c1.2.1 2.2-.6 2.2-1.8m-.5 11.7l-2.9-5.9h-2.3v5.9h-4.5V6.1h8.7c3.9 0 6.1 2.6 6.1 5.8 0 3-1.9 4.7-3.5 5.2l3.5 6.4h-5.1v.1zM10.6 11.9c0-1.2-.9-1.9-2.1-1.9H4.9v3.7h3.6c1.2.1 2.1-.6 2.1-1.8M.4 23.6V6.1h8.7c3.9 0 6 2.6 6 5.8 0 3.1-2.1 5.8-6 5.8H4.9v5.9H.4zM150.6 6.1h11.2v3.4H155v3.8h6.3v3.4H155v6.8h-4.4V6.1zm30.2 8.6c0 5.7-3.5 9.2-8.6 9.2-5.2 0-8.2-3.9-8.2-8.9 0-5.3 3.4-9.2 8.5-9.2 5.3 0 8.3 4.1 8.3 8.9zm-12.7.2c0 3.4 1.6 5.8 4.3 5.8 2.7 0 4.2-2.5 4.2-6 0-3.1-1.5-5.8-4.2-5.8-2.7.1-4.3 2.6-4.3 6zm-45.8-8.6h4.4v17.3h-4.4V6.3zm20.2 17.3l-7.4-10.1v10.1h-4.5V6.2h4.6l7 9.6V6.2h4.5v17.4h-4.2zM101.9.3c-8 0-14.5 6.5-14.5 14.5s6.5 14.6 14.5 14.6 14.5-6.5 14.5-14.6c0-8-6.5-14.5-14.5-14.5"/></symbol><symbol viewBox="0 0 114 44" id="logo-kz" xmlns="http://www.w3.org/2000/svg"><path d="M24.2 21.3c-.4.7-1 1.2-1.7 1.5l2.7 5.6h-4.4l-2.2-4.9h-1.5v4.9h-3.9V15h7.5c.9 0 1.6.2 2.2.6.6.4 1.1.9 1.4 1.5.3.6.5 1.3.5 2.1s-.2 1.5-.6 2.1zm-3.7-2.9c-.2-.2-.5-.4-.8-.4h-2.6v2.5h2.6c.3 0 .6-.1.8-.4.2-.2.3-.5.3-.9 0-.3-.1-.5-.3-.8zM11 21.3c-1.4 2.2-3 2.1-5 2.2H3.9v4.9H0V15h7.5c.9 0 1.6.2 2.2.6.6.4 1.1.9 1.4 1.5.3.6.5 1.3.5 2.1s-.2 1.5-.6 2.1zm-3.7-2.9c-.2-.2-.5-.4-.8-.4H3.9v2.5h2.6c.3 0 .6-.1.8-.4s.3-.5.3-.9c0-.3-.1-.5-.3-.8zm19.9 10V15h3.9v13.4h-3.9zm14.9 0l-.5-1.9h-4.3l-.5 1.9h-4L37.3 15h4.6l4.5 13.4h-4.3zm-4-4.9h2.6l-1.3-4.8-1.3 4.8zm18.4 4.9l-5.1-6.5v6.5h-3.6V15h3.4l5.1 6.6V15h3.6v13.4h-3.4zm29-6.6c0 6-4.9 10.9-10.9 10.9s-10.9-4.9-10.9-10.9 5-10.8 11-10.8 10.8 4.8 10.8 10.8zm8.6 1.6l-1.5 1.5v3.5H89V15h3.6v5.5L97 15h4.4l-5 5.9 5 7.5h-4.2l-3.1-5zm13.3 2h6.6v3h-11.5v-3l6.6-7.3h-6.6V15H114v3l-6.6 7.4z" fill="#fff"/></symbol><symbol viewBox="150 0 1000 890" id="magnifier"><path d="M749.14 515.701c50.504-54.674 82.012-127.883 82.012-208.505C831.151 138.076 693.538 0 523.955 0 354.371 0 216.758 138.076 216.758 307.196c0 169.121 137.613 307.197 307.197 307.197 69.038 0 132.516-22.703 183.946-61.161L936.329 781.66c5.561 5.56 12.511 8.34 19.461 8.34 6.949 0 14.363-2.78 19.46-8.34 10.657-10.658 10.657-28.264 0-39.384L749.14 515.701zM272.359 307.196c0-138.54 112.592-251.595 251.596-251.595 138.54 0 251.595 112.593 251.595 251.595 0 139.004-112.592 251.596-251.595 251.596S272.359 445.737 272.359 307.196z"/></symbol><symbol viewBox="0 0 32 28" id="mail" xmlns="http://www.w3.org/2000/svg"><path d="M28.4 2H3.7C1.7 2 0 3.7 0 5.7v16.5C0 24.3 1.7 26 3.7 26h24.6c2.1 0 3.7-1.7 3.7-3.7V5.7c.1-2-1.6-3.7-3.6-3.7zM3.7 4h24.6c.6 0 1.1.3 1.4.8l-11.6 9.3c-1.2.9-2.8.9-4 0L2.3 4.8c.3-.5.8-.8 1.4-.8zm24.7 20H3.7c-1 0-1.7-.8-1.7-1.7V7.1l10.7 8.6c1 .8 2.1 1.1 3.3 1.1s2.3-.4 3.3-1.1L30 7.1v15.2c.1.9-.7 1.7-1.6 1.7z"/></symbol><symbol viewBox="0 0 16 16" id="map" xmlns="http://www.w3.org/2000/svg"><path d="M8.1.5C5 .5 2.5 3 2.5 6.2c0 1.3.9 3.2 2.6 5.7 1.2 1.7 2.4 3.1 2.5 3.2l.4.4.4-.4c.2-.3 1.4-1.6 2.5-3.2 1.7-2.5 2.6-4.3 2.6-5.7C13.6 3 11.1.5 8.1.5z" fill="none"/><circle cx="8" cy="6.1" r="2.5" fill="none"/></symbol><symbol viewBox="0 0 15 15" id="medical"><path d="M12.5 1.8c-.6-.3-1.3-.5-2-.5-1.1 0-2.1.4-2.9 1.2-.9-.8-1.9-1.2-3-1.2-.7 0-1.4.2-2 .5C1.2 2.5.4 4 .4 5.5c0 .4.1.9.2 1.3.7 3.1 6.5 6.7 6.7 6.9.1 0 .1.1.2.1s.2 0 .2-.1c.2-.2 6-3.8 6.7-6.9.1-.4.2-.9.2-1.3 0-1.5-.8-3-2.1-3.7zm1.1 4.8c-.5 2.4-5.1 5.5-6.1 6.2-1.1-.7-5.6-3.8-6.1-6.3-.1-.3-.2-.7-.2-1 0-1.2.7-2.4 1.8-3 .4-.2 1-.4 1.6-.4 1 0 2 .4 2.6 1.2.1.1.2.2.3.2.1 0 .2-.1.3-.2.6-.8 1.6-1.2 2.6-1.2.6 0 1.1.1 1.6.4 1.1.6 1.8 1.7 1.8 3 0 .4 0 .7-.2 1.1zm-3.6.9c0 .2-.2.4-.4.4H7.9v1.7c0 .2-.2.4-.4.4s-.4-.2-.4-.4V7.9H5.4c-.2 0-.4-.2-.4-.4s.2-.4.4-.4h1.7V5.4c0-.2.2-.4.4-.4s.4.2.4.4v1.7h1.7c.2 0 .4.2.4.4z"/></symbol><symbol viewBox="0 0 32 28" id="message" xmlns="http://www.w3.org/2000/svg"><path d="M28.4 2H3.7C1.7 2 0 3.7 0 5.7v16.5C0 24.3 1.7 26 3.7 26h24.6c2.1 0 3.7-1.7 3.7-3.7V5.7c.1-2-1.6-3.7-3.6-3.7zM3.7 4h24.6c.6 0 1.1.3 1.4.8l-11.6 9.3c-1.2.9-2.8.9-4 0L2.3 4.8c.3-.5.8-.8 1.4-.8zm24.7 20H3.7c-1 0-1.7-.8-1.7-1.7V7.1l10.7 8.6c1 .8 2.1 1.1 3.3 1.1s2.3-.4 3.3-1.1L30 7.1v15.2c.1.9-.7 1.7-1.6 1.7z"/></symbol><symbol viewBox="0 0 512 512" id="mouse" xmlns="http://www.w3.org/2000/svg"><path d="M268.3 212.6v-1.5c0-7.9 6.4-14.3 14.3-14.3h.4l30.5-1.3c17.8-.1 32.2-14.6 32.2-32.5s-14.6-32.5-32.5-32.5h-68.1c-6.9 0-12.5-5.6-12.5-12.5 0-3.3 1.3-6.4 3.7-8.8 2.3-2.2 5.3-3.5 8.4-3.5h59.9c22.2 0 40.3-18.1 40.3-40.3s-18.1-40.3-40.3-40.3H237c-5.5 0-10 4.5-10 10s4.5 10 10 10h67.7c11.2 0 20.3 9.1 20.3 20.3s-9.1 20.3-20.3 20.3h-59.5c-8.6-.1-16.7 3.2-22.9 9.2-6.2 6.1-9.7 14.3-9.7 23 0 17.9 14.6 32.5 32.5 32.5h68.1c6.9 0 12.5 5.6 12.5 12.5s-5.6 12.5-12.5 12.5h-.4l-30.5 1.3c-18.8.1-34.1 15.5-34.1 34.3v1.5c-43.4 5-77.3 42-77.3 86.7v80.1c0 48.1 39.2 87.3 87.3 87.3s87.3-39.2 87.3-87.3v-80.1c.1-44.7-33.8-81.7-77.2-86.6zM191 299.3c0-33.7 24.9-61.7 57.3-66.5v81.6H191v-15.1zm134.6 80.1c0 37.1-30.2 67.3-67.3 67.3S191 416.5 191 379.4v-45.1h134.6v45.1zm0-65.1h-57.3v-81.6c32.4 4.8 57.3 32.8 57.3 66.5v15.1zm-117.3-281c-.1-.6-.3-1.3-.6-1.9-.2-.6-.6-1.2-.9-1.7-.4-.5-.8-1.1-1.2-1.5-1.9-1.9-4.4-2.9-7.1-2.9-2.6 0-5.2 1.1-7.1 2.9-.5.5-.9 1-1.2 1.5-.4.5-.7 1.1-.9 1.7-.3.6-.4 1.2-.6 1.9-.1.7-.2 1.3-.2 2s.1 1.3.2 2c.1.6.3 1.3.6 1.9.2.6.6 1.2.9 1.7.4.5.8 1.1 1.2 1.5.5.5 1 .9 1.5 1.2.5.4 1.1.7 1.7.9.6.2 1.2.4 1.9.6.6.1 1.3.2 1.9.2 2.6 0 5.2-1.1 7.1-2.9.5-.5.9-1 1.2-1.5.4-.5.7-1.1.9-1.7.2-.6.4-1.2.6-1.9s.2-1.3.2-2 0-1.3-.1-2z"/></symbol><symbol viewBox="0 0 15 15" id="news"><path d="M6 10.8H2.8c-.2 0-.3.1-.3.3s.1.3.3.3H6c.2 0 .3-.1.3-.3 0-.1-.1-.3-.3-.3zm4.9 0H7.6c-.2 0-.3.1-.3.3s.1.3.3.3h3.3c.2 0 .3-.1.3-.3 0-.1-.2-.3-.3-.3zm0-8H2.8c-.2 0-.3.1-.3.3s.1.3.3.3h8.1c.2 0 .3-.1.3-.3s-.2-.3-.3-.3z"/><path d="M2.8 3c-.1 0-.1.1 0 0-.1.1 0 .1 0 0l8.1.1s.1 0 .1-.1c0 0 0-.1-.1-.1L2.8 3zm8.1 1.4H7.6c-.2 0-.3.1-.3.3 0 .2.1.3.3.3h3.3c.2 0 .3-.1.3-.3 0-.2-.2-.3-.3-.3zm0 1.6H7.6c-.2 0-.3.1-.3.3 0 .2.1.3.3.3h3.3c.2 0 .3-.1.3-.3 0-.2-.2-.3-.3-.3zm0 1.6H7.6c-.2 0-.3.1-.3.3s.1.3.3.3h3.3c.2 0 .3-.1.3-.3 0-.1-.2-.3-.3-.3zm0 1.6H7.6c-.2 0-.3.1-.3.3s.1.3.3.3h3.3c.2 0 .3-.1.3-.3 0-.1-.2-.3-.3-.3zM6 9.2H2.8c-.2 0-.3.1-.3.3s.1.3.3.3H6c.2 0 .3-.1.3-.3 0-.1-.1-.3-.3-.3zM6 4.4H2.8c-.2 0-.3.1-.3.3V8c0 .2.1.3.3.3H6c.2 0 .3-.1.3-.3V4.7c0-.2-.1-.3-.3-.3zm-.3 3.2H3.1V5h2.6v2.6z"/><path d="M14.1 2.5h-1v-1c0-.4-.3-.6-.6-.6H1.1c-.4 0-.6.3-.6.6v10.3c0 .9.7 1.6 1.6 1.6h11c.9 0 1.6-.7 1.6-1.6V3.1c0-.3-.3-.6-.6-.6zm0 9.3c0 .5-.4 1-1 1h-11c-.5 0-1-.4-1-1V1.5h11.3v9.8c0 .4.4.8.8.8.2 0 .3-.1.3-.3s-.1-.3-.3-.3c-.1 0-.2-.1-.2-.2V3.1h1l.1 8.7z"/><path d="M13.1 13.5h-11c-1 0-1.7-.8-1.7-1.7V1.5c0-.4.2-.7.7-.7h11.4c.4 0 .7.2.7.7v.9h.9c.4 0 .7.4.7.7v8.7c0 1-.7 1.7-1.7 1.7zM1.1 1c-.3 0-.5.3-.5.5v10.3c0 .8.6 1.5 1.5 1.5h11c.8 0 1.5-.6 1.5-1.5V3.1c0-.2-.2-.5-.5-.5H13V1.5c0-.3-.3-.5-.5-.5H1.1zm12 11.9h-11c-.5 0-1.1-.4-1.1-1.1V1.4h11.6v9.9c0 .3.3.7.7.7.1 0 .2 0 .2-.2s0-.2-.2-.2-.3-.2-.3-.3V3h1.3v8.7h.1v.1c-.2.5-.6 1.1-1.3 1.1zM1.2 1.6v10.2c0 .5.5.9.9.9h11c.5 0 .8-.4.9-.8h-.1V3.2h-.8v8.1s0 .1.1.1c.3 0 .4.2.4.4s-.2.4-.4.4c-.5 0-.9-.5-.9-.9V1.6H1.2z"/></symbol><symbol viewBox="0 0 60 60" id="newspaper" xmlns="http://www.w3.org/2000/svg"><path d="M31 16H17v14h14V16zm-2 12H19V18h10v10zm23-12H36c-.6 0-1 .4-1 1s.4 1 1 1h16c.6 0 1-.4 1-1s-.4-1-1-1zm0 6H36c-.6 0-1 .4-1 1s.4 1 1 1h16c.6 0 1-.4 1-1s-.4-1-1-1zm0 6H36c-.6 0-1 .4-1 1s.4 1 1 1h16c.6 0 1-.4 1-1s-.4-1-1-1zm0 6H19c-.6 0-1 .4-1 1s.4 1 1 1h33c.6 0 1-.4 1-1s-.4-1-1-1zm-18 6H19c-.6 0-1 .4-1 1s.4 1 1 1h15c.6 0 1-.4 1-1s-.4-1-1-1zm0 6H19c-.6 0-1 .4-1 1s.4 1 1 1h15c.6 0 1-.4 1-1s-.4-1-1-1zm0 6H19c-.6 0-1 .4-1 1s.4 1 1 1h15c.6 0 1-.4 1-1s-.4-1-1-1zm5 2h14V40H39v14zm2-12h10v10H41V42z"/><path d="M59 13V0H11v30H1v24c0 3.3 2.7 6 6 6h46c3.3 0 6-2.7 6-6V13zM57 2v10H13V2h44zM3 54V32h8v22c0 2.2-1.8 4-4 4s-4-1.8-4-4zm50 4H11.5v-.1c.2-.2.4-.5.6-.7l.1-.1c.2-.3.3-.6.4-.8v-.1l.3-.9v-.1c.1-.5.1-.8.1-1.2V14h44v40c0 2.2-1.8 4-4 4z"/><path d="M47 4H23v6h24V4zm-2 4H25V6h20v2z"/></symbol><symbol viewBox="0 0 15 15" id="ok"><path d="M7.4 7.7c2.1 0 3.9-1.7 3.9-3.9C11.3 1.7 9.6 0 7.4 0 5.3 0 3.6 1.7 3.6 3.9c0 2.1 1.7 3.8 3.8 3.8zm0-5.4C8.3 2.3 9 3 9 3.9c0 .9-.7 1.6-1.6 1.6-.9 0-1.6-.7-1.6-1.6 0-.9.8-1.6 1.6-1.6zM9 10.9c.8-.2 1.5-.5 2.2-.9.5-.3.7-1 .4-1.6-.3-.5-1-.7-1.6-.4-1.5 1-3.6 1-5.2 0-.5-.3-1.2-.1-1.5.4-.4.5-.2 1.2.3 1.6.7.4 1.5.8 2.2.9l-2.2 2.2c-.4.4-.4 1.2 0 1.6.3.2.6.3.9.3.3 0 .6-.1.8-.3l2.1-2.1 2.1 2.1c.4.4 1.2.4 1.6 0 .4-.4.4-1.2 0-1.6L9 10.9z"/></symbol><symbol viewBox="0 0 42.5 42.5" id="phone"><path d="M33.1 41.5c-1.7 0-3.7-.4-5.9-1.2-4.9-1.8-10.2-5.5-14.9-10.2C7.6 25.3 4 20 2.1 15.1c-1.7-4.4-1.7-8 0-9.7l.8-.8C4.4 3 6.1 1.3 8.4 1.4c1.6 0 3.1 1 4.6 3 4.6 5.7 2.5 7.7.1 10.1l-.4.4c-.4.4-1.1 2.2 5.8 9.1 2.3 2.3 4.2 3.9 5.7 4.9 1 .6 2.7 1.6 3.4.9l.4-.4c2.4-2.4 4.4-4.4 10.1.1 2 1.6 2.9 3.1 3 4.6.1 2.3-1.7 4-3.3 5.5-.3.3-.5.5-.8.7-.9.8-2.2 1.2-3.9 1.2zM8.2 2.7c-1.6 0-3.1 1.6-4.4 2.9-.2.3-.4.6-.7.8-1.2 1.3-1.1 4.5.3 8.3 1.8 4.7 5.3 9.8 9.9 14.4 4.6 4.6 9.7 8.1 14.4 9.9 3.8 1.4 7.1 1.6 8.3.3l.8-.8c1.4-1.3 3-2.8 2.9-4.5 0-1.2-.9-2.4-2.4-3.6-4.8-3.8-6.1-2.5-8.3-.2l-.4.4c-1.1 1.1-2.8.8-5.1-.7-1.6-1.1-3.6-2.8-5.9-5.1-5.7-5.7-7.5-9.2-5.8-11l.4-.4c2.2-2.2 3.6-3.6-.2-8.3-1.3-1.6-2.5-2.4-3.8-2.4.1 0 .1 0 0 0z" fill="#1a171b"/></symbol><symbol fill="none" viewBox="0 0 17 17" id="phone-black" xmlns="http://www.w3.org/2000/svg"><path d="M12.043 9.89c-1.067 1.065-1.067 2.134-2.137 2.134S7.77 10.958 6.702 9.89c-1.067-1.066-2.138-2.135-2.138-3.2 0-1.066 1.067-1.066 2.138-2.135C7.772 3.486 4.564.29 3.497.29 2.43.29.293 3.49.293 3.49c0 2.134 2.195 6.457 4.271 8.534 2.077 2.077 6.41 4.266 8.546 4.266 0 0 3.205-2.135 3.205-3.2 0-1.066-3.205-4.266-4.272-3.2z" fill="#333"/></symbol><symbol viewBox="0 0 40 40" id="play" xmlns="http://www.w3.org/2000/svg"><path d="M15.1 30.5c-.3 0-.7-.1-1-.2-.7-.4-1.1-1.1-1.1-1.9V10.8c0-.8.4-1.5 1.1-1.9.7-.4 1.5-.3 2.2.1l3.6 2.5c.5.3.6.9.3 1.4-.3.5-.9.6-1.4.3l-3.6-2.5h-.1c-.1 0-.1.1-.1.1v17.6s0 .1.1.1h.1L28 19.7v-.2l-4.5-3.1c-.5-.3-.6-.9-.3-1.4.3-.5.9-.6 1.4-.3l4.5 3.1c.6.4.9 1 .9 1.7s-.3 1.3-.9 1.7L16.3 30c-.3.4-.7.5-1.2.5z"/><path d="M19.7 40c-11 0-20-9-20-20s9-20 20-20 20 9 20 20-9 20-20 20zm0-38c-9.9 0-18 8.1-18 18s8.1 18 18 18 18-8.1 18-18-8.1-18-18-18z"/></symbol><symbol viewBox="0 0 32 28" id="print" xmlns="http://www.w3.org/2000/svg"><path d="M28.3 7H26V4.2C26 3 24.9 2 23.6 2H8.4C7.1 2 6 3 6 4.2V7H3.7C1.7 7 0 8.6 0 10.7v7.6c0 2 1.7 3.7 3.7 3.7H6v2c0 1.1.9 2 2 2h16c1.1 0 2-.9 2-2v-2h2.3c2.1 0 3.7-1.7 3.7-3.7v-7.6C32 8.6 30.3 7 28.3 7zM8 4.2c0-.1.1-.2.4-.2h15.2c.3 0 .4.1.4.2V7H8V4.2zM24 20v4H8v-7h16v3zm6-1.7c0 1-.8 1.7-1.7 1.7H26v-3c0-1.1-.9-2-2-2H8c-1.1 0-2 .9-2 2v3H3.7c-1 0-1.7-.8-1.7-1.7v-7.6C2 9.7 2.8 9 3.7 9h24.5c1 0 1.7.8 1.7 1.7v7.6z"/><path d="M20 18h-8c-.6 0-1 .4-1 1s.4 1 1 1h8c.6 0 1-.4 1-1s-.5-1-1-1zm0 3h-8c-.6 0-1 .4-1 1s.4 1 1 1h8c.6 0 1-.4 1-1s-.5-1-1-1z"/></symbol><symbol viewBox="0 0 64 64" id="profit" xmlns="http://www.w3.org/2000/svg"><path d="M53.42 20a3.94 3.94 0 00.58-2 4 4 0 00-8 0 3.91 3.91 0 00.56 2h-3a12.33 12.33 0 00.44-3 12 12 0 00-24 0 12.33 12.33 0 00.39 3H9a3 3 0 00-3 3v26a3 3 0 003 3h12.13l-2.67 4H16a3 3 0 00-3 3v2a1 1 0 001 1h34a1 1 0 001-1v-2a3 3 0 00-3-3h-2.46l-2.67-4H53a3 3 0 003-3V23a3 3 0 00-2.58-3zM48 18a2 2 0 112 2 2 2 0 01-2-2zM32 7a10 10 0 11-10 10A10 10 0 0132 7zm-2.42 29a2 2 0 01-2.31 1.62l-6.85-1.21a1 1 0 00-.35 2l6.85 1.21a4.14 4.14 0 00.7.06 4 4 0 003.52-2.13l2.33.2a3 3 0 002.29-.75l5.92-5.44a2 2 0 012.9.21 2.12 2.12 0 01-.32 2.86l-8.8 8.07a5 5 0 01-3.38 1.3H14.25V32h3.95l9.8 1.72A2 2 0 0129.58 36zM12.25 46H8V30h4.25zM47 59v1H15v-1a1 1 0 011-1h30a1 1 0 011 1zm-5.87-3H20.87l2.67-4h14.92zM54 49a1 1 0 01-1 1H9a1 1 0 01-1-1v-1h5.25a1 1 0 001-1v-1h17.83a7 7 0 004.73-1.84l8.8-8.07a4.07 4.07 0 00.51-5.6A3.91 3.91 0 0043.31 29a4 4 0 00-3 1l-5.92 5.43a1 1 0 01-.77.26l-2-.18a4 4 0 00-3.3-3.84L18.46 30a.5.5 0 00-.17 0h-4v-1a1 1 0 00-1-1H8v-5a1 1 0 011-1h12.11a12 12 0 0021.78 0H53a1 1 0 011 1z"/><path d="M14 16a4 4 0 10-4-4 4 4 0 004 4zm0-6a2 2 0 11-2 2 2 2 0 012-2zm36 2a1 1 0 001-1V3a1 1 0 00-2 0v8a1 1 0 001 1zm-6-3a1 1 0 001-1V3a1 1 0 00-2 0v5a1 1 0 001 1zM21 8a1 1 0 001-1V3a1 1 0 00-2 0v4a1 1 0 001 1zm-7-2a1 1 0 001-1V3a1 1 0 00-2 0v2a1 1 0 001 1zm18 15a1.5 1.5 0 01-1.5-1.5 1 1 0 00-2 0 3.5 3.5 0 002.5 3.34V24a1 1 0 002 0v-1.16A3.49 3.49 0 0032 16a1.5 1.5 0 111.5-1.5 1 1 0 002 0 3.5 3.5 0 00-2.5-3.34V10a1 1 0 00-2 0v1.16A3.49 3.49 0 0032 18a1.5 1.5 0 010 3z"/></symbol><symbol viewBox="0 0 15 15" id="project"><path d="M13.367 1.202a.634.634 0 00-.634-.635H1.643a.633.633 0 00-.316 1.18v7.302l.633-.579V1.834h10.455v6.972H4.25c-.212.232-.406.442-.579.633h.558l-1.138 4.275a.634.634 0 00.448.776.638.638 0 00.776-.45l1.142-4.282h3.462l1.142 4.282a.637.637 0 00.776.45.637.637 0 00.449-.775l-1.14-4.275h2.587a.316.316 0 00.317-.317V1.747a.631.631 0 00.317-.545z"/><path d="M7.665 7.62V5.241a.633.633 0 00-1.267 0V7.62c0 .351.284.635.633.635a.638.638 0 00.634-.635zm2.058 0V3.023a.635.635 0 10-1.267 0V7.62a.633.633 0 001.267 0zm2.059 0V4.292a.634.634 0 10-1.268 0V7.62a.635.635 0 101.268 0zM5.454 6.333a.153.153 0 00-.218 0S.994 10.209.973 10.232a.413.413 0 000 .584.418.418 0 00.583 0l3.899-4.265a.155.155 0 00-.001-.218z"/></symbol><symbol viewBox="0 0 15 15" id="questions"><g stroke-width=".25" stroke-miterlimit="10"><path d="M6.278 4.146l-.117.125.117-.125zm2.43.449c.183.224.272.488.272.793 0 .218-.063.427-.187.629a1.477 1.477 0 01-.27.331l-.372.368c-.357.351-.588.663-.694.935-.105.271-.158.63-.158 1.074h.83c0-.392.044-.688.133-.888.088-.201.281-.445.58-.734.41-.398.683-.7.817-.904.136-.205.203-.473.203-.803 0-.543-.184-.989-.552-1.34-.369-.349-.858-.524-1.47-.524-.662 0-1.183.204-1.562.613-.38.408-.569.948-.569 1.619h.83c.015-.404.079-.713.19-.928.199-.385.558-.578 1.077-.578.42.001.721.113.902.337z"/><path d="M15 7A7 7 0 101 7a7 7 0 0014 0zM1.637 7a6.363 6.363 0 1112.726 0c0 3.515-2.848 6.363-6.363 6.363S1.637 10.515 1.637 7z"/><path d="M7.279 9.498h.928v.97h-.928z"/></g></symbol><symbol viewBox="0 0 15 15" id="refresh" xmlns="http://www.w3.org/2000/svg"><path d="M14.5 6.6c0-.3-.3-.5-.6-.5s-.5.3-.5.6c.6 3.3-1.7 6.5-5 7s-6.5-1.7-7-5 1.7-6.5 5-7c2-.3 4.1.4 5.5 1.9l-2.4.9c-.3.1-.5.4-.4.7.1.3.4.4.7.4l3.3-1.1c.2-.1.4-.3.4-.5V.6c0-.3-.2-.6-.6-.6-.3 0-.6.2-.6.6v2C9.6-.1 5.1.1 2.4 2.9s-2.6 7.3.2 10.1 7.3 2.6 10.1-.3c1.5-1.6 2.2-3.9 1.8-6.1z"/></symbol><symbol viewBox="0 0 396.821 396.821" id="rocket-ship" xmlns="http://www.w3.org/2000/svg"><g fill="#f7941d"><path d="M394.583 8.054a7.5 7.5 0 00-6.522-6.523c-30.748-3.803-62.477-.488-91.767 9.583-29.293 10.072-56.355 26.973-78.258 48.876l-49.983 49.983-72.149 9.305a7.504 7.504 0 00-4.345 2.135l-69.563 69.563a7.498 7.498 0 00-1.858 7.528 7.498 7.498 0 005.796 5.15l52.597 9.742 10.335 10.335-22.003 11.915a7.5 7.5 0 00-1.733 11.898l83.438 83.438a7.5 7.5 0 0011.899-1.732l11.916-22.003 10.335 10.335 9.742 52.597a7.5 7.5 0 0012.679 3.937l69.563-69.563a7.5 7.5 0 002.135-4.344l9.306-72.15 49.983-49.984c21.903-21.903 38.804-48.964 48.876-78.257 10.07-29.29 13.383-61.023 9.581-91.764zM79.674 198.355l-36.989-6.851 57.673-57.675 50.332-6.491-71.016 71.017zm72.391 114.913L82.846 244.05l17.085-9.252 61.385 61.386-9.251 17.084zm110.22-17.512l-57.674 57.674-6.852-36.988 71.017-71.017-6.491 50.331zm63.232-128.285l-135.85 135.85-96.874-96.874 135.85-135.851c19.738-19.739 44.002-35.076 70.287-44.49 3.395 17.492 11.948 33.719 24.654 46.424 12.705 12.706 28.931 21.259 46.424 24.655-9.415 26.283-24.753 50.547-44.491 70.286zm49.006-84.697a74.923 74.923 0 01-40.333-20.85 74.913 74.913 0 01-20.85-40.333c21.741-5.859 44.579-7.857 66.99-5.807 2.051 22.411.052 45.249-5.807 66.99z"/><path d="M221.325 110.443c-17.74 17.741-17.74 46.606 0 64.347 8.871 8.871 20.521 13.305 32.174 13.305 11.649 0 23.304-4.436 32.173-13.305h.001c17.74-17.74 17.74-46.606-.001-64.347-17.741-17.74-46.607-17.739-64.347 0zm53.741 53.74c-11.894 11.893-31.244 11.891-43.134 0-11.893-11.892-11.893-31.242 0-43.134 5.945-5.946 13.756-8.918 21.566-8.918 7.811 0 15.621 2.973 21.566 8.918 11.893 11.892 11.893 31.242.002 43.134zM98.365 299.165a7.5 7.5 0 00-10.607 0L23.41 363.512a7.5 7.5 0 005.304 12.803 7.478 7.478 0 005.304-2.197l64.347-64.347a7.501 7.501 0 000-10.606zm9.898 20.506l-28.991 28.991a7.5 7.5 0 005.304 12.803 7.478 7.478 0 005.304-2.197l28.991-28.991a7.5 7.5 0 000-10.606 7.502 7.502 0 00-10.608 0zm-39.14 42.248c-3.138 0-6.002 2.024-7.062 4.973-1.078 2.998-.075 6.441 2.416 8.416 2.547 2.02 6.266 2.13 8.928.265 2.84-1.99 3.992-5.81 2.639-9.024-1.113-2.775-3.945-4.63-6.921-4.63z"/><path d="M76.044 366.549c.19.451-.18-.45 0 0zM47.91 380.025l-3.992 3.992a7.5 7.5 0 005.303 12.804 7.477 7.477 0 005.303-2.196l3.992-3.992a7.498 7.498 0 00.001-10.606c-2.929-2.928-7.679-2.931-10.607-.002zm-5.408-66.011a7.5 7.5 0 00-10.607 0L2.904 343.005a7.5 7.5 0 005.304 12.803 7.478 7.478 0 005.304-2.197l28.991-28.991a7.5 7.5 0 00-.001-10.606zm11.97-2.878c3.043-.765 5.327-3.417 5.644-6.537.311-3.055-1.369-6.049-4.096-7.427-2.895-1.464-6.523-.853-8.769 1.494-2.405 2.513-2.752 6.426-.852 9.335-.06-.09-.106-.156.015.029.126.185.083.118.023.029 1.767 2.567 4.992 3.842 8.035 3.077zm19.395-17.879l3.991-3.992a7.498 7.498 0 00-.001-10.606c-2.932-2.93-7.681-2.929-10.606.001l-3.991 3.992a7.498 7.498 0 005.304 12.802 7.474 7.474 0 005.303-2.197z"/></g></symbol><symbol viewBox="0 0 15 15" id="room"><path d="M13.997.564H.839a.275.275 0 00-.275.275v13.156c0 .151.123.275.275.275h8.023a.276.276 0 000-.552H1.115V7.3h3.841v2.639a.276.276 0 10.551 0V4.174a.276.276 0 10-.551 0V6.75H1.115V1.115h7.472v3.447c0 .152.124.276.275.276h2.913a.276.276 0 000-.551H9.138V1.115h4.581v8.551H8.862a.274.274 0 100 .55h4.856v3.503h-1.943a.275.275 0 100 .55h2.222c.15 0 .273-.124.273-.275V.839a.274.274 0 00-.273-.275z"/></symbol><symbol viewBox="0 0 15 15" id="round"><circle cx="7.6" cy="7.4" r="7" fill="none"/></symbol><symbol viewBox="0 0 15 15" id="service"><path d="M8.4 14.8H6.5c-.4 0-.7-.3-.8-.7l-.2-1.3c-.1 0-.2-.1-.3-.1l-1.1.8c-.3.2-.7.2-1-.1l-1.3-1.3c-.3-.3-.3-.7-.1-1l.8-1.1-.3-.6-1.4-.3C.5 9 .2 8.7.2 8.4V6.6c0-.4.3-.7.7-.8l1.4-.2c.1-.1.1-.3.2-.4l-.8-1.4c-.2-.3-.1-.7.1-1l1.3-1.3c.3-.3.7-.3 1-.1l1.2.9c.1 0 .1 0 .2-.1L5.7.7c.1-.4.4-.7.8-.7h1.8c.4 0 .7.3.8.6l.3 1.5c.1 0 .1 0 .2.1l1.3-.9c.3-.2.7-.2 1 .1l1.3 1.3c.3.3.3.7.1 1l-.8 1.2c.1.1.1.3.2.4l1.4.2c.4.1.7.4.7.8v1.8c0 .4-.3.7-.6.8l-1.4.3c-.1.2-.1.3-.2.5l.8 1.1c.2.3.2.7-.1 1L12 13.1c-.3.2-.7.3-1 .1l-1.1-.8c-.1.1-.2.1-.4.1l-.3 1.4c-.2.6-.5.9-.8.9zm-1.8-.9h1.6l.3-1.5c0-.2.2-.3.3-.3.3-.1.5-.2.7-.3.1-.1.3-.1.5 0l1.3.9 1.2-1.1-.9-1.3c-.1-.1-.1-.3 0-.5.1-.3.3-.5.3-.8 0-.2.2-.3.3-.3l1.6-.3V6.8l-1.6-.3c-.2 0-.3-.1-.4-.3-.1-.3-.2-.5-.4-.8-.1-.1-.1-.3 0-.5l.9-1.3-1.2-1.1-1.1.7c-.2.2-.3.2-.5.1-.2 0-.4-.1-.6-.2-.2 0-.3-.2-.3-.4l-.3-1.6H6.6l-.2 1.6c0 .2-.1.4-.3.4l-.6.3c-.2 0-.4 0-.5-.1l-1.3-1-1.2 1.1.8 1.4c.1.1.1.3 0 .5 0 .3-.1.5-.2.8-.1.1-.2.3-.4.3l-1.6.2v1.6l1.6.3c.1.1.3.3.3.4.1.3.2.6.4.9.1.1.1.3 0 .4l-.8 1.4 1.2 1.1 1.2-.9c.1-.1.3-.1.5 0 .1.1.4.2.6.2.2.1.3.2.3.4l.2 1.5zm.9-3.7C6 10.2 4.8 9 4.8 7.5 4.8 6 6 4.8 7.5 4.8c1.5 0 2.7 1.2 2.7 2.7 0 1.5-1.2 2.7-2.7 2.7zm0-4.4c-1 0-1.8.8-1.8 1.8s.8 1.8 1.8 1.8 1.8-.8 1.8-1.8-.8-1.8-1.8-1.8z" fill="#231f20"/></symbol><symbol viewBox="0 0 32 28" id="share" xmlns="http://www.w3.org/2000/svg"><path d="M24 18c-1.6 0-3 .7-3.9 1.9l-7.3-4.6c.1-.4.2-.9.2-1.3 0-.5-.1-.9-.2-1.3l7.6-4.2c.9.9 2.2 1.5 3.6 1.5 2.8 0 5-2.2 5-5s-2.2-5-5-5-5 2.2-5 5c0 .6.1 1.2.3 1.8l-7.4 4.1C11 9.8 9.6 9 8 9c-2.8 0-5 2.2-5 5s2.2 5 5 5c1.6 0 3-.7 3.9-1.9l7.3 4.5c-.1.5-.2.9-.2 1.4 0 2.8 2.2 5 5 5s5-2.2 5-5-2.2-5-5-5zm0-16c1.7 0 3 1.3 3 3s-1.3 3-3 3-3-1.3-3-3 1.3-3 3-3zM8 17c-1.7 0-3-1.3-3-3s1.3-3 3-3 3 1.3 3 3-1.3 3-3 3zm16 9c-1.7 0-3-1.3-3-3s1.3-3 3-3 3 1.3 3 3-1.4 3-3 3z"/></symbol><symbol viewBox="0 0 40 32" id="sheme-bathroom" xmlns="http://www.w3.org/2000/svg"><path d="M39 16H4.9l-.1-7c0-2.7 2.3-5 5.2-5h.1c-.3.6-.4 1.2-.4 1.9 0 1.3.5 2.5 1.4 3.4l2.1 2.1L20 4.6l-2.1-2.1C16.2.8 13.6.7 11.7 2H10C6 2 2.8 5.1 2.8 9l.1 7H1c-.6 0-1 .4-1 1s.4 1 1 1h1.9l.1 4c0 2.3 1.2 4.4 3 5.7V30c0 .6.4 1 1 1s1-.4 1-1v-1.3c.7.2 1.4.3 2.2.3h19.7c.7 0 1.5-.1 2.1-.3V30c0 .6.4 1 1 1s1-.4 1-1v-2.3c1.8-1.3 3-3.3 3-5.7v-4h2c.6 0 1-.4 1-1s-.4-1-1-1zM16.5 3.9l.6.6-4 4-.6-.6c-.5-.5-.8-1.2-.8-2s.3-1.5.8-2 1.2-.8 2-.8 1.4.3 2 .8zM35 22c0 2.7-2.3 5-5.2 5H10.2C7.3 27 5 24.8 5 22l-.1-4H35v4z"/></symbol><symbol viewBox="0 0 40 32" id="sheme-bedroom" xmlns="http://www.w3.org/2000/svg"><path d="M34.2 13H34V6.3C34 3.4 31.8 1 29.1 1H10.9C8.2 1 6 3.4 6 6.3V13h-.2C2.6 13 0 15.6 0 18.8V30c0 .6.4 1 1 1s1-.4 1-1v-.6c0-.8.6-1.4 1.4-1.4h33.2c.8 0 1.4.6 1.4 1.4v.6c0 .6.4 1 1 1s1-.4 1-1V18.8c0-3.2-2.6-5.8-5.8-5.8zm-15.8 0H8.9v-1c0-1.1.9-2 2-2h5.5c1.1 0 2 .9 2 2v1zm12.5 0h-9.5v-1c0-1.1.9-2 2-2h5.5c1.1 0 2 .9 2 2v1zm-20-10h18.3C30.7 3 32 4.5 32 6.3v3.2c-.7-.9-1.8-1.5-3.1-1.5h-5.5c-1.5 0-2.8.9-3.5 2.1C19.3 8.9 18 8 16.4 8h-5.5C9.8 8 8.7 8.5 8 9.3v-3C8 4.5 9.3 3 10.9 3zm25.7 23H3.4c-.5 0-1 .1-1.4.3v-7.5C2 16.7 3.7 15 5.8 15h28.4c2.1 0 3.8 1.7 3.8 3.8v7.5c-.4-.2-.9-.3-1.4-.3z"/></symbol><symbol viewBox="0 0 40 32" id="sheme-etaj" xmlns="http://www.w3.org/2000/svg"><path d="M35 32H5c-.5 0-1-.4-1-1V1c0-.5.4-1 1-1h9.7c.5 0 1 .4 1 1v9.9H25c.5 0 1 .4 1 1v8.6h9c.5 0 1 .4 1 1V31c0 .5-.5 1-1 1zM6 30h28v-7.6h-9c-.5 0-1-.4-1-1v-8.6h-9.4c-.5 0-1-.4-1-1V2H6v28z"/></symbol><symbol viewBox="0 0 24 24" id="sheme-moshna" xmlns="http://www.w3.org/2000/svg"><path d="M14.4 8.5V7.2L16 4c.1-.2.1-.4 0-.5-.1-.2-.3-.3-.5-.3h-2.3c-.1 0-.3.1-.4.2l-.7.7-.7-.7c-.1-.1-.2-.2-.4-.2H7.7c-.2 0-.4.1-.5.3-.1.1-.1.3 0 .5l1.6 3.3v1.3c-2.5 1.8-4.5 5.5-4.5 8.4 0 4.2 3.7 4.2 7.3 4.2s7.3 0 7.3-4.2c0-2.9-2-6.6-4.5-8.5zM8.6 4.3h2.2l1 1c.2.2.6.2.8 0l1-1h1.1l-1.1 2.3H9.7L8.6 4.3zm4.7 3.4v.6H9.9v-.6h3.4zm-1.7 12.4c-4.4 0-6.2-.3-6.2-3.1 0-2.3 1.6-5.8 4.1-7.6h4.1c2.5 1.8 4.1 5.3 4.1 7.6.1 2.8-1.7 3.1-6.1 3.1zm-1-6.9c0 .4.6.7 1.3 1 .8.4 1.9 1 1.9 2.1 0 1-.7 1.8-1.6 2.1v.3c0 .3-.3.6-.6.6s-.6-.3-.6-.6v-.3c-.9-.3-1.6-1.1-1.6-2.1 0-.3.3-.6.6-.6s.6.3.6.6c0 .5.4 1 1 1s1-.4 1-1c0-.4-.6-.7-1.3-1-.8-.4-1.9-1-1.9-2.1 0-1 .7-1.8 1.6-2.1v-.3c0-.3.3-.6.6-.6s.6.3.6.6v.3c.9.3 1.6 1.1 1.6 2.1 0 .3-.3.6-.6.6s-.6-.3-.6-.6c0-.5-.4-1-1-1-.5.1-1 .5-1 1z"/></symbol><symbol viewBox="0 0 40 32" id="sheme-otdelka" xmlns="http://www.w3.org/2000/svg"><path d="M32.7 0H10.2C8.7 0 7.4 1.3 7.4 2.8v2.1C5.8 5 4.5 6.4 4.5 8v4.3c0 1.7 1.4 3.2 3.2 3.2h12.1c.6 0 1 .4 1.2 1h-.8c-1.2 0-2.2 1-2.2 2.2v11.1c0 1.2 1 2.2 2.2 2.2h3.3c1.2 0 2.2-1 2.2-2.2V18.7c0-1.2-1-2.2-2.2-2.2h-.6c-.1-1.6-1.5-2.9-3.1-2.9H7.7c-.7 0-1.2-.5-1.2-1.2V8c0-.6.4-1 .9-1.2v2c0 1.6 1.3 2.8 2.8 2.8h22.4c1.6 0 2.8-1.3 2.8-2.8v-6c.1-1.5-1.2-2.8-2.7-2.8zm-8.9 18.7v11.1c0 .2-.1.3-.3.3h-3.3c-.2 0-.3-.1-.3-.3V18.7c0-.2.1-.3.3-.3h3.3c.1 0 .3.1.3.3zm9.7-9.9c0 .5-.4.9-.9.9H10.2c-.5 0-.9-.4-.9-.9v-6c.1-.4.5-.8.9-.8h22.4c.5 0 .9.4.9.9v5.9z"/></symbol><symbol viewBox="0 0 40 32" id="sheme-room" xmlns="http://www.w3.org/2000/svg"><path d="M35.1 0h-30c-.6 0-1 .4-1 1v30c0 .6.4 1 1 1h30c.6 0 1-.4 1-1V1c0-.6-.5-1-1-1zm-29 2h13v13h-13V2zm0 15h14c.6 0 1-.4 1-1V2h13v13h-8c-.6 0-1 .4-1 1s.4 1 1 1h8v7h-10c-.6 0-1 .4-1 1v5h-7v-9c0-.6-.4-1-1-1h-5c-.6 0-1 .4-1 1s.4 1 1 1h4v8h-8V17zm28 13h-9v-4h9v4z"/></symbol><symbol viewBox="0 0 40 32" id="sheme-square" xmlns="http://www.w3.org/2000/svg"><path d="M5 11c.6 0 1-.4 1-1V2h8c.6 0 1-.4 1-1s-.4-1-1-1H4v10c0 .6.4 1 1 1zM26 0c-.6 0-1 .4-1 1s.4 1 1 1h6.6L6 28.6V22c0-.6-.4-1-1-1s-1 .4-1 1v10h10c.6 0 1-.4 1-1s-.4-1-1-1H7.4L34 3.4V10c0 .6.4 1 1 1s1-.4 1-1V0H26zm9 21c-.6 0-1 .4-1 1v8h-8c-.6 0-1 .4-1 1s.4 1 1 1h10V22c0-.6-.4-1-1-1z"/></symbol><symbol viewBox="0 0 40 32" id="sheme-star" xmlns="http://www.w3.org/2000/svg"><path d="M29.6 31.8c-.2 0-.3 0-.5-.1L20 26.9l-9.1 4.8c-.4.2-.8.2-1.1-.1-.3-.2-.5-.6-.4-1l1.7-10.1-7.4-7.2c-.3-.3-.4-.7-.3-1.1.1-.4.5-.7.9-.7L14.5 10 19 .8c.2-.4.5-.6.9-.6s.8.2.9.6l4.5 9.2 10.2 1.5c.4.1.7.3.9.7.1.4 0 .8-.3 1.1l-7.4 7.2 1.7 10.1c.1.4-.1.8-.4 1 0 .1-.2.2-.4.2zM20 24.6c.2 0 .3 0 .5.1l7.7 4-1.5-8.6c-.1-.3.1-.7.3-.9l6.2-6.1-8.6-1.1c-.3 0-.6-.3-.8-.6L20 3.7l-3.8 7.8c-.2.2-.5.5-.8.5l-8.6 1.2 6.2 6.1c.2.2.4.6.3.9l-1.5 8.6 7.7-4c.2-.1.3-.2.5-.2z"/></symbol><symbol viewBox="0 0 40 32" id="sheme-tip" xmlns="http://www.w3.org/2000/svg"><path d="M21 6h-1.5c-.2 0-.5.2-.5.5V8c0 .3.3.5.5.5H21c.3 0 .5-.3.5-.5V6.5c0-.3-.3-.5-.5-.5zm-8.5 0H11c-.2 0-.5.2-.5.5V8c0 .3.3.5.5.5h1.5c.3 0 .5-.3.5-.5V6.5c0-.3-.3-.5-.5-.5zm0 14.5H11c-.2 0-.5.2-.5.5v1.5c0 .3.3.5.5.5h1.5c.3 0 .5-.3.5-.5V21c0-.3-.3-.5-.5-.5zm0-7.3H11c-.2 0-.5.2-.5.5v1.5c0 .3.3.5.5.5h1.5c.3 0 .5-.3.5-.5v-1.5c0-.2-.3-.5-.5-.5zm15.1 9.7h-1.5c-.3 0-.5.3-.5.5v1.5c0 .3.3.5.5.5h1.5c.3 0 .5-.3.5-.5v-1.5c0-.3-.3-.5-.5-.5z"/><path d="M35.5 20.4L28 14.2V2.4C28 1.1 26.9 0 25.5 0h-19C5.2 0 4.1 1.1 4.1 2.5v27.1c0 1.4 1.1 2.5 2.5 2.5h28.2c.6 0 1-.5 1-1.1v-9.6c.1-.5-.1-.8-.3-1zm-17.2-.1c-.3.2-.4.5-.4.9V30H6.5c-.3 0-.5-.2-.5-.5v-27c.1-.3.3-.5.5-.5h19c.3 0 .5.2.5.5V14l-.5.4-7.2 5.9zM33.9 30H19.8v-8.4l6.2-5 .7-.6.1-.1 1.2 1 5.9 4.8V30z"/></symbol><symbol viewBox="0 0 1200 790" preserveAspectRatio="none" id="shevron-down"><path d="M1187.765 161.253c-16.479-16.481-43.264-16.481-59.744 0L602.693 687.61 76.336 161.253c-16.48-16.481-43.262-16.481-59.744 0-16.481 16.482-16.481 43.262 0 59.743l555.2 555.199c8.241 8.24 18.541 12.36 29.872 12.36 10.3 0 21.631-4.12 29.872-12.36l555.198-555.199c17.512-16.481 17.512-43.261 1.031-59.743z"/></symbol><symbol viewBox="0 0 15 15" id="shopping"><path d="M12.225 13.155h-9.3a.841.841 0 01-.84-.762l-.61-6.113a.221.221 0 01.22-.241h11.763a.22.22 0 01.219.241l-.61 6.113a.844.844 0 01-.842.762zM1.938 6.479l.584 5.87a.404.404 0 00.403.364h9.3a.402.402 0 00.402-.364l.586-5.87H1.938z"/><path d="M12.225 13.405h-9.3a1.092 1.092 0 01-1.089-.987l-.61-6.113a.469.469 0 01.468-.516h11.763c.132 0 .258.056.348.153.091.1.135.233.119.366l-.609 6.11a1.091 1.091 0 01-1.09.987zM2.214 6.729l.557 5.596a.156.156 0 00.154.139h9.3c.08 0 .146-.06.153-.139l.559-5.596H2.214zm1.44-2.842a.216.216 0 01-.168-.079.218.218 0 01.026-.31l2.753-2.309a.22.22 0 01.31.027.219.219 0 01-.027.31l-2.753 2.31a.22.22 0 01-.141.051z"/><path d="M3.654 4.137a.464.464 0 01-.363-.172.47.47 0 01.061-.658L6.105.998a.481.481 0 01.663.06.459.459 0 01.107.34.464.464 0 01-.167.32L3.956 4.027a.468.468 0 01-.302.11zM11.495 3.887a.22.22 0 01-.141-.051l-2.753-2.31a.22.22 0 11.284-.338l2.753 2.31a.22.22 0 01-.143.389z"/><path d="M11.495 4.137a.47.47 0 01-.302-.11L8.44 1.717a.47.47 0 01-.057-.663.484.484 0 01.662-.058l2.754 2.31a.472.472 0 01-.304.831z"/><path d="M14.087 6.479H1.063a.76.76 0 01-.76-.76V4.31a.76.76 0 01.76-.76h13.024a.76.76 0 01.76.76v1.41a.76.76 0 01-.76.759zM1.063 3.99a.32.32 0 00-.32.319v1.41a.32.32 0 00.32.319h13.024a.32.32 0 00.319-.319V4.31a.32.32 0 00-.319-.319H1.063z"/><path d="M14.087 6.729H1.063c-.557 0-1.01-.453-1.01-1.01V4.31c0-.557.453-1.01 1.01-1.01h13.024c.557 0 1.01.453 1.01 1.01v1.41a1.01 1.01 0 01-1.01 1.009zM1.063 4.24a.07.07 0 00-.07.069v1.41a.07.07 0 00.07.069h13.024a.07.07 0 00.069-.069V4.31a.07.07 0 00-.069-.069H1.063z"/><g><path d="M4.381 11.354a.221.221 0 01-.221-.221V7.938a.22.22 0 01.221-.22.22.22 0 01.221.22v3.195a.22.22 0 01-.221.221z"/><path d="M4.381 11.604a.471.471 0 01-.471-.471V7.938a.47.47 0 01.942 0v3.195a.47.47 0 01-.471.471zm2.129-.25a.22.22 0 01-.219-.221V7.938a.22.22 0 11.44 0v3.195a.22.22 0 01-.221.221z"/><path d="M6.51 11.604a.47.47 0 01-.469-.471V7.938a.47.47 0 11.94 0v3.195a.471.471 0 01-.471.471zM8.64 11.354a.222.222 0 01-.221-.221V7.938a.22.22 0 01.441 0v3.195a.22.22 0 01-.22.221z"/><path d="M8.64 11.604a.471.471 0 01-.471-.471V7.938a.47.47 0 01.941 0v3.195a.47.47 0 01-.47.471z"/><g><path d="M10.769 11.354a.221.221 0 01-.221-.221V7.938a.22.22 0 01.442 0v3.195a.222.222 0 01-.221.221z"/><path d="M10.769 11.604a.471.471 0 01-.471-.471V7.938a.47.47 0 01.942 0v3.195a.472.472 0 01-.471.471z"/></g></g></symbol><symbol viewBox="0 0 15 15" id="size_foto"><path d="M14.6-.2H9.9c-.3 0-.6.3-.6.6s.3.6.6.6h4v4c0 .3.3.6.6.6s.6-.3.6-.6V.4c.1-.3-.2-.6-.5-.6zm-9.3 14h-4v-4c0-.3-.3-.6-.6-.6-.4-.1-.7.2-.7.5v4.6c0 .4.3.7.6.7h4.6c.3 0 .6-.3.6-.6.1-.3-.2-.6-.5-.6z"/><path d="M15 0c-.2-.2-.6-.2-.9 0L8.7 5.4c-.2.2-.2.6 0 .9.1.1.3.2.4.2.2 0 .3-.1.4-.2L15 .9c.2-.3.2-.6 0-.9zM6.5 8.5c-.2-.2-.6-.2-.9 0L.2 14c-.2.2-.2.6 0 .9.1 0 .3.1.4.1.2 0 .3-.1.4-.2l5.4-5.4c.3-.2.3-.6.1-.9z"/></symbol><symbol viewBox="10.589 10.32 46.699 47.375" id="skype" xmlns="http://www.w3.org/2000/svg"><path fill="#FFF" d="M34.533 52.561c-9.387 0-20.053-11.307-19.2-20.694.853-8.96 12.8-17.28 21.653-16 7.787 1.066 14.721 10.88 14.293 18.667-.425 8.212-8.533 18.027-16.746 18.027z"/><path fill="#00AFF0" d="M41.254 57.359c-.641-.213-1.601-.426-2.134-.64-.64-.319-1.387-.319-3.733-.213-2.24.106-3.414 0-5.013-.214C21.84 54.8 15.013 48.613 12.56 40.08c-.427-1.6-.533-2.453-.533-6.293 0-4.161-.107-4.48-.64-6.187-3.093-8.427 3.2-17.28 12.16-17.28 1.813 0 4.053.534 5.333 1.173.854.427 1.387.533 4.693.533 2.987 0 4.16.107 5.653.534 6.721 1.707 12.16 6.08 15.04 12.16 1.813 3.733 2.454 7.574 2.026 11.946-.213 2.348-.213 2.561.32 3.947 1.707 5.014.107 10.773-4.053 14.187-1.281 1.067-3.84 2.24-5.44 2.667-1.601.32-4.16.32-5.761-.107h-.104zm-2.881-8.213c3.521-.746 6.613-2.88 7.787-5.439 1.493-3.094 1.066-6.721-.96-8.961-1.707-1.92-4.267-2.986-10.347-4.479-4.054-.96-5.014-1.387-5.867-2.347-.747-.854-.854-1.493-.213-2.453.64-1.067 2.24-1.707 4.373-1.813 3.094-.213 4.48.533 6.293 3.413 1.387 2.134 2.773 2.667 4.588 1.813 2.346-1.173 2.133-5.013-.428-7.253-2.453-2.026-5.119-2.88-9.6-2.88-4.693 0-7.894.96-10.027 3.093-1.707 1.707-2.026 2.667-2.026 5.333 0 2.773.32 3.626 2.133 5.227 1.92 1.813 3.52 2.454 9.279 3.84 4.054.96 5.121 1.493 6.08 2.56.428.534.641.96.641 1.92 0 1.067-.107 1.28-.96 2.134-1.28 1.279-3.2 1.812-5.653 1.707-2.88-.214-4.16-1.067-5.653-4.054-1.067-2.026-1.92-2.773-3.307-2.773-3.094 0-4.16 2.56-2.56 5.866 1.387 2.881 4.16 4.801 7.68 5.547 2.133.427 6.827.427 8.854 0h-.107z"/></symbol><symbol fill="none" viewBox="0 0 17 17" id="skype2" xmlns="http://www.w3.org/2000/svg"><path d="M15.4 9.778c.1-.4.1-.8.1-1.2 0-4.1-3.3-7.4-7.4-7.4-.4 0-.8 0-1.2.1-.7-.4-1.5-.7-2.3-.7-2.5 0-4.5 2-4.5 4.5 0 .9.2 1.7.7 2.3-.1.4-.1.8-.1 1.2 0 4.1 3.3 7.4 7.4 7.4.4 0 .8 0 1.2-.1.7.4 1.5.7 2.3.7 2.5 0 4.5-2 4.5-4.5 0-.8-.3-1.6-.7-2.3zm-3.8 2.2c-.3.4-.8.8-1.4 1.1-.6.3-1.3.4-2.1.4-1 0-1.8-.2-2.4-.5-.5-.2-.8-.6-1.1-1-.3-.4-.4-.8-.4-1.2 0-.2.1-.4.3-.6.2-.2.4-.3.7-.3.2 0 .4.1.6.2.2.1.3.3.4.6.1.3.3.5.4.7.1.2.3.4.6.5.3.1.6.2 1 .2.6 0 1.1-.1 1.4-.4.4-.3.5-.6.5-.9 0-.3-.1-.5-.3-.7-.2-.2-.5-.3-.8-.4-.3-.1-.7-.2-1.3-.3-.7-.2-1.3-.3-1.8-.5s-.9-.5-1.2-.9c-.3-.4-.4-.8-.4-1.4 0-.5.2-1 .5-1.4.3-.4.7-.7 1.3-.9.6-.2 1.2-.3 2-.3.6 0 1.1.1 1.6.2.4.1.8.3 1.1.6.3.2.5.5.7.7.1.3.2.5.2.8 0 .2-.1.4-.3.6-.2.2-.4.3-.7.3-.2 0-.4-.1-.5-.2-.1-.1-.3-.3-.4-.5-.2-.3-.4-.6-.6-.8-.2-.2-.6-.3-1.2-.3-.5 0-.9.1-1.2.3-.3.2-.5.5-.5.7 0 .2.1.3.2.5.1.1.2.2.4.3.2.1.4.2.6.2.2.1.5.1 1 .2.6.1 1.1.3 1.5.4.5.1.8.3 1.2.5.3.2.6.5.8.8.2.3.3.7.3 1.2-.2.5-.4 1-.7 1.5z" fill="#fff"/></symbol><symbol viewBox="0 0 49.94 49.94" id="star" xmlns="http://www.w3.org/2000/svg"><path d="M48.856 22.731a3.56 3.56 0 00.906-3.671 3.56 3.56 0 00-2.892-2.438l-12.092-1.757a1.58 1.58 0 01-1.19-.865L28.182 3.043a3.56 3.56 0 00-3.212-1.996 3.56 3.56 0 00-3.211 1.996L16.352 14c-.23.467-.676.79-1.191.865L3.069 16.623A3.557 3.557 0 00.178 19.06a3.56 3.56 0 00.906 3.671l8.749 8.528c.373.364.544.888.456 1.4L8.224 44.702a3.559 3.559 0 001.424 3.502 3.552 3.552 0 003.772.273l10.814-5.686a1.583 1.583 0 011.472 0l10.815 5.686a3.568 3.568 0 003.772-.273 3.559 3.559 0 001.424-3.502L39.651 32.66a1.582 1.582 0 01.456-1.4l8.749-8.529zM37.681 32.998l2.065 12.042a1.553 1.553 0 01-.629 1.547 1.558 1.558 0 01-1.665.121l-10.815-5.687a3.588 3.588 0 00-3.334.001L12.49 46.708a1.56 1.56 0 01-1.666-.121 1.554 1.554 0 01-.629-1.547l2.065-12.042a3.581 3.581 0 00-1.03-3.17l-8.75-8.529a1.55 1.55 0 01-.4-1.621c.19-.586.667-.988 1.276-1.077l12.091-1.757a3.576 3.576 0 002.697-1.959l5.407-10.957a1.551 1.551 0 011.418-.881c.616 0 1.146.329 1.419.881l5.407 10.957a3.575 3.575 0 002.696 1.959l12.092 1.757a1.552 1.552 0 011.276 1.077c.19.585.041 1.191-.4 1.621l-8.749 8.528a3.58 3.58 0 00-1.029 3.171z" fill="#f7941d"/></symbol><symbol viewBox="0 0 55.9 55.9" id="star_str" xmlns="http://www.w3.org/2000/svg"><path d="M11.3 54.5c-.2 0-.4-.1-.6-.2-.3-.2-.5-.6-.4-1l3.1-18L.3 22.6c-.3-.3-.4-.7-.3-1 .1-.4.4-.6.8-.7l18.1-2.6L27 1.9c.2-.3.5-.6.9-.6s.7.2.9.6l8.1 16.4L55 20.9c.4.1.7.3.8.7.1.4 0 .8-.3 1l-13 12.8 3.1 18c.1.4-.1.8-.4 1-.3.2-.7.3-1.1.1L27.9 46l-16.2 8.5h-.4zM3.1 22.6l12 11.7c.2.2.3.6.3.9l-2.8 16.5 14.9-7.8c.3-.2.6-.2.9 0l14.9 7.8-2.8-16.5c-.1-.3.1-.7.3-.9l12-11.7-16.6-2.4c-.3 0-.6-.3-.8-.5L28 4.7l-7.4 15c-.1.3-.4.5-.8.5L3.1 22.6z" fill="#f7941d"/></symbol><symbol viewBox="0 0 15 15" id="study"><path d="M15.2 4.4c0-.7-.5-1.3-1.1-1.4L7.9 1.6h-.6L1 3c-.7.2-1.1.8-1.1 1.4S.3 5.7 1 5.8l1.3.3v4.1c0 1.3 1.5 2.4 5.3 2.4s5.3-1.1 5.3-2.4V6.1l1.3-.3c.6-.1 1-.7 1-1.4zm-3.3 5.8c0 .5-1.4 1.4-4.3 1.4s-4.3-.9-4.3-1.4V6.4l4 .9h.6l4-.9v3.8zM7.6 6.3h-.2L1.2 4.9c-.2 0-.4-.2-.4-.5 0-.2.2-.4.4-.4l6.2-1.4h.2L13.9 4c.2.1.4.2.4.5s-.2.4-.4.5L7.6 6.3z"/><path d="M13.8 6.8v4.3c0 .3.2.5.5.5s.5-.2.5-.5V6.8c0-.3-.2-.5-.5-.5-.3.1-.5.3-.5.5zm.5 5.3c-.5 0-1 1.4-1 1.9s.4 1 1 1c.5 0 1-.4 1-1s-.5-1.9-1-1.9z"/></symbol><symbol viewBox="0 0 32 28" id="suitcase" xmlns="http://www.w3.org/2000/svg"><path d="M28.3 5H22V3.4C22 2.1 20.9 1 19.6 1h-7.2C11.1 1 10 2.1 10 3.4V5H3.8C1.7 5 0 6.7 0 8.7v14.6c0 2 1.7 3.7 3.8 3.7h24.5c2.1 0 3.7-1.7 3.7-3.7V8.7c0-2-1.7-3.7-3.7-3.7zM12 3.4c0-.2.2-.4.4-.4h7.2c.2 0 .4.2.4.4V5h-8V3.4zM3.8 7h24.5c1 0 1.7.8 1.7 1.7V13h-7v-1c0-.6-.4-1-1-1s-1 .4-1 1v1H11v-1c0-.6-.4-1-1-1s-1 .4-1 1v1H2V8.7C2 7.8 2.8 7 3.8 7zm24.5 18H3.8c-1 0-1.7-.8-1.7-1.7V15h7v1c0 .6.4 1 1 1s1-.4 1-1v-1h10v1c0 .6.4 1 1 1s1-.4 1-1v-1h7v8.3c-.1.9-.9 1.7-1.8 1.7z"/></symbol><symbol viewBox="0 0 512 512" id="team" xmlns="http://www.w3.org/2000/svg"><path d="M451.72 237.26c-17.422-8.71-50.087-8.811-51.469-8.811a7.5 7.5 0 000 15c8.429.001 32.902 1.299 44.761 7.228a7.502 7.502 0 006.708-13.417z"/><path d="M489.112 344.041l-30.975-8.85a3.145 3.145 0 01-2.271-3.011v-10.339a56.368 56.368 0 007.171-5.881c10.89-10.568 16.887-24.743 16.887-39.915v-14.267l2.995-5.989a47.846 47.846 0 005.024-21.286v-38.65a7.5 7.5 0 00-7.5-7.5H408.27c-26.244 0-47.596 21.352-47.596 47.596v.447a39.78 39.78 0 004.178 17.699l3.841 7.682v12.25c0 19.414 9.567 36.833 24.058 47.315l.002 10.836c0 1.671 0 2.363-6.193 4.133l-15.114 4.318-43.721-15.898a7.491 7.491 0 00-2.044-5.742l-13.971-14.678v-24.64a90.427 90.427 0 004.344-3.789c17.625-16.52 27.733-39.844 27.733-63.991v-19.678c5.322-11.581 8.019-23.836 8.019-36.457v-80.19a7.5 7.5 0 00-7.5-7.5H232.037c-39.51 0-71.653 32.144-71.653 71.653v16.039c0 12.621 2.697 24.876 8.019 36.457v16.931c0 28.036 12.466 53.294 32.077 69.946v25.22l-13.971 14.678a7.491 7.491 0 00-2.044 5.742l-46.145 16.779a39.33 39.33 0 00-9.272 4.858l-7.246-3.623c21.57-9.389 28.403-22.594 28.731-23.25a7.498 7.498 0 000-6.708c-5.407-10.814-6.062-30.635-6.588-46.561-.175-5.302-.341-10.311-.658-14.771-2.557-35.974-29.905-63.103-63.615-63.103s-61.059 27.128-63.615 63.103c-.317 4.461-.483 9.47-.658 14.773-.526 15.925-1.182 35.744-6.588 46.558a7.498 7.498 0 000 6.708c.328.656 7.147 13.834 28.76 23.234l-20.127 10.063C6.684 358.176 0 368.991 0 381.02v55.409a7.5 7.5 0 0015 0V381.02c0-6.312 3.507-11.987 9.152-14.81l25.063-12.531 8.718 8.285a31.466 31.466 0 0021.739 8.688 31.475 31.475 0 0021.739-8.688l8.717-8.284 8.172 4.086c-3.848 6.157-6.032 13.377-6.032 20.94v57.725a7.5 7.5 0 0015 0v-57.725c0-10.296 6.501-19.578 16.178-23.097l48.652-17.691 20.253 30.381a15.462 15.462 0 0011.383 6.835 15.458 15.458 0 0012.504-4.47l12.356-12.356v78.124a7.5 7.5 0 0015 0v-78.124l12.356 12.356a15.452 15.452 0 0010.957 4.547c.513 0 1.029-.025 1.546-.076a15.462 15.462 0 0011.384-6.835l20.254-30.38 48.651 17.691c9.676 3.519 16.178 12.801 16.178 23.097v57.725a7.5 7.5 0 0015 0v-57.725c0-10.428-4.143-20.208-11.093-27.441l1.853-.529c1.869-.534 4.419-1.265 6.979-2.52l19.149 19.149v69.066a7.5 7.5 0 0015 0v-69.066l19.016-19.016c1.011.514 2.073.948 3.191 1.267l30.976 8.85c7.07 2.02 12.009 8.567 12.009 15.921v62.044a7.5 7.5 0 0015 0v-62.044c0-14.018-9.412-26.497-22.888-30.348zM48.115 330.794c-14.029-5.048-21.066-11.778-24.07-15.453 2.048-5.354 3.376-11.486 4.275-17.959 4.136 9.917 11.063 18.383 19.795 24.423v8.989zm42.965 20.298c-6.397 6.078-16.418 6.077-22.813-.001l-6.975-6.628a15.518 15.518 0 001.824-7.324v-7.994a55.427 55.427 0 0016.558 2.517c5.757 0 11.316-.886 16.557-2.512l-.001 7.988c0 2.62.646 5.121 1.824 7.327l-6.974 6.627zm-11.404-34.43c-22.396 0-40.615-18.22-40.615-40.615a7.5 7.5 0 00-7.5-7.5c-.42 0-.83.043-1.231.11l.065-1.93c.167-5.157.328-10.028.625-14.206.958-13.476 6.343-25.894 15.163-34.968 8.899-9.156 20.793-14.198 33.491-14.198s24.591 5.042 33.491 14.198c8.82 9.074 14.205 21.492 15.163 34.968.296 4.177.458 9.047.628 14.203l.045 1.338c-8.16-12.572-20.762-21.837-37.045-27.069-15.043-4.833-27.981-4.534-28.527-4.52a7.5 7.5 0 00-5.191 2.291l-13.532 14.034a7.5 7.5 0 1010.798 10.412l11.26-11.677c9.697.474 40.894 4.102 53.027 30.819-3.053 19.688-19.975 34.31-40.115 34.31zm31.553 14.157l.001-8.945a55.477 55.477 0 0019.801-24.449c.899 6.458 2.226 12.576 4.27 17.918-2.987 3.64-10.057 10.43-24.072 15.476zm72.174-121.674v-18.608a7.501 7.501 0 00-.746-3.261c-4.826-9.994-7.273-20.598-7.273-31.518V139.72c0-31.239 25.415-56.653 56.653-56.653h104.769v72.692c0 10.92-2.447 21.524-7.273 31.518a7.501 7.501 0 00-.746 3.261v21.355c0 20.311-8.165 39.15-22.991 53.047a74.636 74.636 0 01-5.758 4.875c-.044.03-.086.063-.129.094-13.889 10.545-30.901 15.67-48.667 14.519-38.041-2.463-67.839-35.531-67.839-75.283zm42.229 150.911c-.052.052-.173.175-.418.149a.477.477 0 01-.381-.229l-23.325-34.988 7.506-7.887 35.385 24.187-18.767 18.768zm30.463-28.943l-40.615-27.762v-14c10.509 5.681 22.276 9.234 34.791 10.044 1.977.128 3.942.191 5.901.191 14.341 0 28.143-3.428 40.538-9.935v13.7l-40.615 27.762zm31.262 28.865a.477.477 0 01-.381.229c-.245.031-.365-.098-.418-.149l-18.767-18.767 35.385-24.188 7.507 7.887-23.326 34.988zm136.951-6.328l-17.02-17.019c.297-1.349.465-2.826.464-4.455l-.001-3.165a52.589 52.589 0 0016.579 2.65 55.71 55.71 0 0016.536-2.501v3.02c0 1.496.188 2.962.542 4.371l-17.1 17.099zm28.283-48.454c-7.949 7.714-18.45 11.788-29.537 11.446-21.704-.651-39.361-19.768-39.361-42.613v-14.021a7.493 7.493 0 00-.792-3.354l-4.633-9.266a24.706 24.706 0 01-2.594-10.991v-.447c0-17.974 14.623-32.596 32.596-32.596h64.673v31.15a32.77 32.77 0 01-3.441 14.578l-3.786 7.572a7.496 7.496 0 00-.792 3.354v16.038c0 11.08-4.38 21.432-12.333 29.15z"/><path d="M472.423 380.814a7.5 7.5 0 00-7.5 7.5v48.115a7.5 7.5 0 0015 0v-48.115a7.5 7.5 0 00-7.5-7.5zm-432.846 9.914a7.5 7.5 0 00-7.5 7.5v38.201a7.5 7.5 0 0015 0v-38.201a7.5 7.5 0 00-7.5-7.5zm277.955-232.253c-28.366-28.366-87.715-22.943-111.917-19.295-7.623 1.149-13.155 7.6-13.155 15.339v17.278a7.5 7.5 0 0015 0v-17.279c0-.255.168-.473.392-.507 9.667-1.457 28.85-3.705 48.725-2.38 23.388 1.557 40.328 7.428 50.349 17.45a7.5 7.5 0 0010.606 0 7.5 7.5 0 000-10.606zM167.884 396.853a7.5 7.5 0 00-7.5 7.5v32.077a7.5 7.5 0 0015 0v-32.077a7.5 7.5 0 00-7.5-7.5zm176.422 0a7.5 7.5 0 00-7.5 7.5v32.077a7.5 7.5 0 0015 0v-32.077a7.5 7.5 0 00-7.5-7.5z"/></symbol><symbol viewBox="0 0 15 15" id="telegram"><path d="M13.8 1.5L.8 6.4c-.7.2-.7.9-.2 1.1l3.3 1 1.2 3.8c.2.4.3.6.5.6.3 0 .4-.1.7-.3.4-.4.9-.9 1.7-1.6l3.4 2.5c.6.3 1.1.2 1.2-.6l2.1-10.5c.2-.9-.3-1.2-.9-.9zM4.4 8.2l7.4-4.7c.4-.2.5 0 .3.2L6 9.3l-.3 2.8-1.3-3.9z"/></symbol><symbol viewBox="0 0 50 50" id="toggle-list" xmlns="http://www.w3.org/2000/svg"><path d="M0 2h50v4H0zm0 14h50v4H0zm0 14h50v4H0zm0 14h50v4H0z"/></symbol><symbol viewBox="0 0 290 290" id="toggle-table" xmlns="http://www.w3.org/2000/svg"><path d="M0 220h70v70H0zm0-110h70v70H0zM0 0h70v70H0zm110 220h70v70h-70zm0-110h70v70h-70zm0-110h70v70h-70zm110 220h70v70h-70zm0-110h70v70h-70zm0-110h70v70h-70z"/></symbol><symbol viewBox="0 0 40 28" id="tower" xmlns="http://www.w3.org/2000/svg"><path d="M39 5h-2V1c0-.6-.4-1-1-1s-1 .4-1 1v4h-2c-.6 0-1 .5-1 1v5H18V6.5c0-.2-.8-5.2-.8-5.2-.1-.8-.8-1.3-1.5-1.3H2.3C1.6 0 1 .5.8 1.3c0 0-.8 4.9-.8 5.2v20.1c0 .7.7 1.4 1.5 1.4H39c.6 0 1-.5 1-1V6c0-.5-.5-1-1-1zm-7 8v13h-2v-5.5c0-.8-.7-1.5-1.5-1.5h-7.1c-.8 0-1.5.7-1.5 1.5V26h-2V13H32zM22 26v-5h6v5h-6zM2.7 2h12.6l.4 3H2.3l.4-3zM2 7h14v19H2V7zm36 19h-4V7h4v19z"/></symbol><symbol viewBox="0 0 15 15" id="tw"><path d="M14.8 3.3c-.6.2-1.1.4-1.8.5.6-.4 1.1-1 1.4-1.7-.6.4-1.3.6-2 .7-.6-.6-1.4-1-2.2-1-1.7 0-3.1 1.4-3.1 3.1 0 .2 0 .5.1.7C4.7 5.5 2.4 4.2.9 2.4c-.3.5-.4 1-.4 1.5 0 1.1.5 2 1.4 2.6-.5 0-1-.2-1.4-.4 0 1.5 1.1 2.7 2.5 3-.4.1-.6.2-.9.2-.2 0-.4 0-.6-.1.4 1.2 1.5 2.1 2.9 2.1-1.1.8-2.4 1.3-3.8 1.3h-.7c1.4.9 3 1.4 4.7 1.4 5.7 0 8.7-4.7 8.7-8.7v-.4c.6-.5 1.1-1 1.5-1.6z"/></symbol><symbol viewBox="0 0 16 16" id="user" xmlns="http://www.w3.org/2000/svg"><path d="M7.998 8.545c2.348 0 4.29-1.87 4.29-4.254A4.295 4.295 0 007.998 0c-2.347 0-4.29 1.871-4.29 4.255a4.295 4.295 0 004.29 4.29zm0-7.216c1.633 0 2.961 1.329 2.961 2.929 0 1.6-1.328 2.926-2.96 2.926-1.633 0-2.962-1.33-2.962-2.93S6.366 1.33 7.998 1.33zm2.892 7.624c-.27-.068-.544 0-.714.206l-2.178 2.485L5.821 9.16c-.17-.206-.477-.27-.715-.206C2.008 9.976 0 12.493 0 15.318c0 .375.307.682.682.682h14.636a.684.684 0 00.682-.682c-.003-2.825-2.011-5.342-5.11-6.365zm-9.496 5.718C1.668 12.8 3.03 11.2 5.139 10.384l2.383 2.723c.238.307.747.307.986 0l2.383-2.723c2.076.816 3.473 2.449 3.744 4.287H1.394z"/></symbol><symbol viewBox="592.5 387.5 15 15" id="viber" xmlns="http://www.w3.org/2000/svg"><path fill="#665CAC" d="M601.284 387.781h-2.943a5.158 5.158 0 00-5.151 5.153v2.208a5.153 5.153 0 002.943 4.655v2.459c0 .214.268.326.419.174l2.136-2.136h2.596a5.158 5.158 0 005.151-5.152v-2.208a5.157 5.157 0 00-5.151-5.153z"/><path fill="#FFF" d="M603.515 396.926l-.221-1.195a.244.244 0 00-.192-.196l-1.735-.347a.244.244 0 00-.221.067l-.703.705c-1.188-.532-1.846-1.192-2.426-2.43l.703-.703a.244.244 0 00.066-.223l-.346-1.734a.25.25 0 00-.197-.194l-1.194-.22a.28.28 0 00-.1.001 1.725 1.725 0 00-.832.46c-.396.397-.548.977-.438 1.675.185 1.173.759 2.806 1.82 3.871l.014.013c1.064 1.06 2.696 1.636 3.867 1.819.147.023.29.035.427.035.509 0 .936-.16 1.247-.474a1.7 1.7 0 00.46-.832.249.249 0 00.001-.098zm-3.211-4.974a.246.246 0 100 .491c.54 0 .98.44.98.981 0 .134.11.246.244.246s.246-.112.246-.246c0-.812-.66-1.472-1.47-1.472z"/><path fill="#FFF" d="M600.304 390.97c-.091 0-.183.005-.272.016a.246.246 0 00.053.488 1.964 1.964 0 012.166 2.169.245.245 0 00.488.054 2.454 2.454 0 00-2.435-2.727z"/><path fill="#FFF" d="M600.304 389.989a3.31 3.31 0 00-.264.01.245.245 0 10.037.489 2.946 2.946 0 013.09 3.615.246.246 0 00.478.113 3.44 3.44 0 00-3.341-4.227z"/></symbol><symbol fill="none" viewBox="0 0 16 17" id="viber2" xmlns="http://www.w3.org/2000/svg"><path d="M15.4 4.178c-.4-1.5-2.1-3.2-3.6-3.5-2.5-.5-5-.5-7.5 0-1.6.4-3.3 2-3.7 3.5-.5 2.1-.5 4.3 0 6.4.4 1.4 1.9 3 3.4 3.4v1.7c0 .6.7.9 1.2.5l1.7-1.8H8c1.3 0 2.5-.1 3.8-.4 1.5-.3 3.2-2 3.6-3.5.5-2 .5-4.1 0-6.3zm-1.3 6.1c-.2 1-1.5 2.2-2.5 2.4-1.3.3-2.7.4-4 .3h-.1c-.2.2-1.2 1.3-1.2 1.3l-1.3 1.4c-.1.1-.3 0-.3-.1v-2.8s0-.1-.1-.1c-1-.2-2.3-1.5-2.5-2.4-.4-1.9-.4-3.8 0-5.8.3-1 1.5-2.2 2.5-2.4 2.3-.4 4.7-.4 7 0 1 .2 2.3 1.5 2.5 2.4.4 2 .4 3.9 0 5.8z" fill="#fff"/><path d="M10.2 11.578c-.2 0-.3-.1-.4-.1-1.4-.6-2.8-1.4-3.8-2.5-.6-.7-1.1-1.4-1.5-2.2-.2-.4-.3-.8-.5-1.2-.1-.4.1-.7.3-1 .2-.3.5-.4.8-.6.2-.1.5 0 .6.1.4.4.7.9 1 1.4.2.3.1.7-.2.9-.1 0-.1.1-.2.2-.1 0-.1.1-.2.2s-.1.3 0 .4c.4 1 1 1.8 2 2.3.2.1.3.1.5.1.3 0 .4-.4.6-.6.2-.2.5-.2.7 0 .2.1.5.3.7.5.2.2.4.3.6.5.2.2.3.4.2.6-.2.4-.5.8-.9 1 0-.1-.2-.1-.3 0-.1-.1.1-.1 0 0zM8 3.378c1.9.1 3.4 1.3 3.7 3.2.1.3.1.6.1 1 0 .1-.1.3-.2.3-.2 0-.2-.1-.2-.3 0-.3 0-.5-.1-.8-.2-1.4-1.3-2.6-2.7-2.8-.2 0-.4 0-.6-.1-.1 0-.3 0-.3-.2 0-.1.1-.3.2-.3H8c1.9.1 0 0 0 0z" fill="#fff"/><path d="M10.9 7.078v.1c0 .2-.3.2-.4 0v-.2c0-.4-.1-.8-.3-1.1-.2-.4-.5-.7-.9-.8-.2-.1-.5-.2-.7-.2h-.3c-.1 0-.2-.1-.2-.2s.1-.2.2-.2c.4 0 .8.1 1.2.3.8.4 1.2 1.1 1.4 1.9v.1c-.1.1-.1.2 0 .3 0 .1-.1-.1 0 0z" fill="#fff"/><path d="M9.7 7.078c-.2 0-.2-.1-.3-.2v-.3c0-.2-.1-.4-.3-.5-.1-.1-.2-.1-.3-.1-.1 0-.2 0-.3-.1-.1 0-.2-.1-.2-.2s.1-.2.2-.2c.7.1 1.2.4 1.3 1.3v.2s0 .1-.1.1c-.2 0 .1 0 0 0z" fill="#fff"/></symbol><symbol viewBox="0 0 16 16" id="video" xmlns="http://www.w3.org/2000/svg"><path d="M11.2 7.6L6.1 4.8h-.4c-.2.1-.3.2-.3.4v5.6c0 .2.1.3.2.4H6l5.2-2.8c.1-.1.2-.2.2-.4.1-.1 0-.3-.2-.4z"/><path d="M8 .5C3.9.5.5 3.9.5 8s3.4 7.5 7.5 7.5 7.5-3.4 7.5-7.5S12.1.5 8 .5z"/></symbol><symbol viewBox="0 0 512 512" id="visibility" xmlns="http://www.w3.org/2000/svg"><path d="M487.5 232.1c-4.1-5.3-11.8-6.3-17.1-2.1-5.3 4.1-6.3 11.8-2.1 17.1 4.1 5.2 4.1 12.5 0 17.8-29.9 38.3-68.6 67.1-112.1 84.5C379 324.9 393 292 393 256c0-35.9-13.9-68.6-36.6-93.1 25.2 10.1 48.8 24 70 41.4l7.8 6.6c5.1 4.5 12.8 4 17.2-1 4.5-5.1 4-12.8-1-17.2-2.8-2.5-5.6-4.9-8.5-7.2C389.7 142.6 323.6 119 256 119c-91 0-175.4 41.2-231.5 113.1-11 14.1-11 33.7 0 47.8C80.6 351.8 165 393 256 393s175.4-41.2 231.5-113.1c10.9-14.1 10.9-33.7 0-47.8zM43.8 264.9c-4.1-5.2-4.1-12.5 0-17.8 29.9-38.3 68.5-67.1 112.1-84.5C133 187.1 119 219.9 119 256c0 36.1 14 68.9 36.9 93.4-43.6-17.4-82.2-46.2-112.1-84.5zm212.3 103.7h-.2c-62-.1-112.4-50.5-112.4-112.6s50.4-112.5 112.4-112.6h.2c62 .1 112.5 50.5 112.5 112.6 0 62-50.4 112.5-112.5 112.6z"/><path d="M256 204.2c-28.6 0-51.8 23.3-51.8 51.8s23.3 51.8 51.8 51.8 51.8-23.3 51.8-51.8-23.2-51.8-51.8-51.8zm0 79.2c-15.1 0-27.4-12.3-27.4-27.4s12.3-27.4 27.4-27.4 27.4 12.3 27.4 27.4-12.3 27.4-27.4 27.4zM256 0c-6.7 0-12.2 5.5-12.2 12.2V58c0 6.7 5.5 12.2 12.2 12.2 6.7 0 12.2-5.5 12.2-12.2V12.2C268.2 5.5 262.7 0 256 0zm0 441.8c-6.7 0-12.2 5.5-12.2 12.2v45.8c0 6.7 5.5 12.2 12.2 12.2 6.7 0 12.2-5.5 12.2-12.2V454c0-6.8-5.5-12.2-12.2-12.2zM437 75c-4.8-4.8-12.5-4.8-17.3 0l-22.8 22.8c-4.8 4.8-4.8 12.5 0 17.3 2.4 2.4 5.5 3.6 8.6 3.6 3.1 0 6.3-1.2 8.6-3.6L437 92.3c4.8-4.8 4.8-12.5 0-17.3zM115.1 396.9c-4.8-4.8-12.5-4.8-17.3 0L75 419.7c-4.8 4.8-4.8 12.5 0 17.3 2.4 2.4 5.5 3.6 8.6 3.6s6.3-1.2 8.6-3.6l22.8-22.8c4.8-4.7 4.8-12.5.1-17.3zm0-299.1L92.3 75c-4.8-4.8-12.5-4.8-17.3 0-4.8 4.8-4.8 12.5 0 17.3l22.8 22.8c2.4 2.4 5.5 3.6 8.6 3.6s6.3-1.2 8.6-3.6c4.8-4.8 4.8-12.6.1-17.3zM437 419.7l-22.8-22.8c-4.8-4.8-12.5-4.8-17.3 0-4.8 4.8-4.8 12.5 0 17.3l22.8 22.8c2.4 2.4 5.5 3.6 8.6 3.6s6.3-1.2 8.6-3.6c4.9-4.8 4.9-12.5.1-17.3z"/></symbol><symbol viewBox="0 0 15 15" id="vk"><path d="M7.4 11.8h.9s.3 0 .4-.2c.1-.1.1-.4.1-.4s0-1.2.5-1.4c.6-.2 1.3 1.2 2 1.7.6.4 1 .3 1 .3h2s1.1-.1.6-.9c0-.1-.3-.6-1.5-1.7-1.3-1.2-1.1-1 .4-3 .9-1.2 1.3-2 1.2-2.3-.1-.3-.8-.2-.8-.2h-2.3s-.2 0-.3.1l-.1.2s-.4 1-.8 1.8c-1 1.7-1.4 1.8-1.6 1.7-.4-.2-.3-1-.3-1.5 0-1.7.3-2.3-.5-2.5-.3-.2-.4-.2-1.1-.2-.8 0-1.5 0-1.9.2-.2.1-.4.4-.3.4.1 0 .5.1.7.3.2.3.2 1 .2 1s.1 2-.3 2.2c-.3.2-.7-.1-1.6-1.7-.5-.8-.8-1.7-.8-1.7L3 3.8l-.4-.2H.5s-.3 0-.4.1c-.1.1 0 .4 0 .4S1.8 8 3.7 10c1.7 1.9 3.7 1.8 3.7 1.8z" fill-rule="evenodd" clip-rule="evenodd"/></symbol><symbol viewBox="0 0 41 28" id="wallet" xmlns="http://www.w3.org/2000/svg"><path d="M35.5 9.2v-3c0-3.3-2.7-6.1-6-6.1h-20c-3.3 0-6 2.8-6 6.1v16c0 3.3 2.7 5.8 6 5.8h20c3.3 0 6-2.5 6-5.8v-3.3c1.2-.4 2-1.5 2-2.8V12c0-1.4-.8-2.5-2-2.8zm-2 12.7c0 2.3-1.8 4.1-4 4.1h-20c-2.2 0-4-1.8-4-4.1V6.1c0-2.3 1.8-4.2 4-4.2h20c2.2 0 4 1.9 4 4.2V9h-10c-1.7 0-3 1.3-3 2.9V16c0 1.7 1.3 3 3 3h10v2.9zm2-5.8c0 .5-.4.9-1 .9h-11c-.5 0-1-.4-1-.9v-4.2c0-.5.5-.9 1-.9h11c.6 0 1 .4 1 .9v4.2z"/><circle cx="24.9" cy="14.1" r="1"/></symbol><symbol viewBox="0 0 32 28" id="warning" xmlns="http://www.w3.org/2000/svg"><path d="M16 1C8.8 1 3 6.8 3 14s5.8 13 13 13 13-5.8 13-13S23.2 1 16 1zm0 24C9.9 25 5 20.1 5 14S9.9 3 16 3s11 4.9 11 11-4.9 11-11 11z"/><path d="M16 19c.6 0 1-.4 1-1V6c0-.6-.4-1-1-1s-1 .4-1 1v12c0 .5.4 1 1 1z"/><circle cx="16" cy="21.6" r="1.5"/></symbol><symbol viewBox="0 0 512 512" id="warning-triangle" xmlns="http://www.w3.org/2000/svg"><path d="M507.113 428.415L287.215 47.541C280.7 36.256 269.031 29.519 256 29.519c-13.031 0-24.7 6.737-31.215 18.022L4.887 428.415c-6.516 11.285-6.516 24.76 0 36.044 6.515 11.285 18.184 18.022 31.215 18.022h439.796c13.031 0 24.7-6.737 31.215-18.022 6.516-11.284 6.516-24.759 0-36.044zm-26.012 21.026c-.647 1.122-2.186 3.004-5.202 3.004H36.102c-3.018 0-4.556-1.881-5.202-3.004-.647-1.121-1.509-3.394 0-6.007L250.797 62.559c1.509-2.613 3.907-3.004 5.202-3.004 1.296 0 3.694.39 5.202 3.004L481.1 443.434c1.51 2.613.648 4.886.001 6.007z"/><path d="M240.987 166.095h30.037v160.197h-30.037z"/><circle cx="256.005" cy="376.354" r="20.025"/></symbol><symbol viewBox="592.5 387.5 15 15" id="whatsapp" xmlns="http://www.w3.org/2000/svg"><path fill="#4CAF50" d="M600.19 387.873h-.004c-4.032 0-7.311 3.279-7.311 7.313 0 1.599.515 3.082 1.391 4.287l-.912 2.717 2.811-.898a7.25 7.25 0 004.023 1.209c4.031 0 7.31-3.281 7.312-7.313 0-4.034-3.279-7.315-7.31-7.315z"/><path fill="#FAFAFA" d="M604.443 398.199c-.178.5-.877.912-1.436 1.033-.381.082-.881.146-2.561-.551-2.148-.891-3.532-3.074-3.64-3.216-.103-.142-.868-1.156-.868-2.206 0-1.049.534-1.561.749-1.78.176-.18.467-.262.748-.262.09 0 .171.004.245.008.215.009.323.022.465.361.176.425.605 1.474.657 1.583.052.107.104.253.032.395-.07.146-.129.211-.238.336-.107.125-.209.219-.318.353-.099.116-.211.241-.086.456.124.21.553.912 1.186 1.475.816.727 1.479.959 1.713 1.059.178.072.387.055.518-.082.162-.176.363-.469.57-.758.148-.207.33-.23.525-.158.197.068 1.24.584 1.457.691.215.109.357.16.406.25.054.089.054.515-.124 1.013z"/></symbol><symbol fill="none" viewBox="0 0 17 17" id="whatsapp2" xmlns="http://www.w3.org/2000/svg"><path d="M8.627.351C4.333.538.973 4.085.973 8.378c0 1.307.28 2.52.84 3.64l-.84 4.107c0 .186.187.373.374.373l4.013-.933c1.027.56 2.24.84 3.453.84 4.387.093 8.027-3.36 8.12-7.747.187-4.76-3.64-8.587-8.306-8.307zm4.853 12.414A6.286 6.286 0 019 14.63c-1.027 0-1.96-.186-2.8-.653l-.56-.28-2.52.56.56-2.52-.28-.56c-.467-.84-.653-1.867-.653-2.893 0-1.68.653-3.267 1.866-4.48a6.286 6.286 0 014.48-1.867c1.68 0 3.267.653 4.48 1.867a6.286 6.286 0 011.867 4.48c-.187 1.68-.84 3.266-1.96 4.48z" fill="#fff"/><path d="M12.92 10.058l-1.587-.467a.449.449 0 00-.56.187l-.373.373c-.187.187-.373.187-.653.094C9 9.965 7.507 8.565 7.04 7.91a.797.797 0 010-.653l.373-.467c.094-.186.187-.373.094-.56l-.654-1.493c-.186-.373-.653-.467-.933-.187-.467.374-.933.934-1.027 1.494-.093 1.12.374 2.426 2.147 4.107 2.053 1.866 3.64 2.146 4.76 1.866.56-.187 1.12-.747 1.4-1.213.187-.187.093-.653-.28-.747z" fill="#fff"/></symbol><symbol viewBox="0 0 15 15" id="workshop"><path d="M7.938 9.543a1.724 1.724 0 00-1.374-.728A1.325 1.325 0 015.25 7.644c.195-.142.375-.322.535-.538.322-.438.531-.982.609-1.573a.34.34 0 00.059-.091c.137-.325.205-.671.205-1.032 0-1.384-1.045-2.509-2.331-2.509-.333 0-.655.076-.96.225-.113.01-.226.03-.333.061-1.075.31-1.682 1.611-1.354 2.897.033.13.076.257.125.378a.319.319 0 00.055.088c.124.909.554 1.666 1.142 2.094a1.324 1.324 0 01-1.344 1.173A1.72 1.72 0 000 10.534v1.85c0 .173.14.313.313.313h5.521a.313.313 0 000-.626H.625v-1.537c0-.603.49-1.094 1.094-1.094l.031-.001c.225-.008.439-.053.64-.131l1.479 2.136a.313.313 0 00.514 0l1.479-2.136c.2.078.415.123.641.131l.03.001c.355 0 .689.173.895.464a.311.311 0 00.256.131.313.313 0 00.254-.492zm-4.73-6.755c.081-.024.169-.039.257-.043a.312.312 0 00.132-.035c.232-.122.478-.184.73-.184.922 0 1.675.811 1.705 1.821a1.112 1.112 0 00-.675-.226H3.724a.376.376 0 01-.347-.235.367.367 0 00-.695.047c-.08.305-.229.59-.432.833-.162-.907.246-1.773.958-1.978zm-.733 2.646c.273-.25.494-.554.648-.888l.003.002c.174.129.38.197.598.197h1.634c.196 0 .365.115.446.281-.002.649-.187 1.256-.522 1.709-.315.427-.725.662-1.156.662-.397 0-.785-.206-1.091-.579-.297-.362-.492-.849-.56-1.384zm1.651 5.284L2.93 8.992c.321-.267.555-.634.654-1.053a1.79 1.79 0 001.084.001c.1.419.334.786.654 1.052l-1.196 1.726z"/><path d="M13.343 10.555c-.01-.002-.021-.002-.03-.002-.68 0-1.24-.514-1.314-1.172.382-.279.697-.697.906-1.205a.308.308 0 00.298.221.313.313 0 00.247-.12c.436-.561.662-1.29.638-2.053-.024-.749-.287-1.452-.741-1.98-.465-.539-1.078-.84-1.729-.846a1.811 1.811 0 00-.135.002 2.328 2.328 0 00-1.05-.211c-.751.023-1.442.398-1.945 1.053-.489.637-.743 1.468-.715 2.339.004.148.016.284.035.414.051.371.152.727.304 1.058a.31.31 0 00.266.182.31.31 0 00.285-.148c.025-.041.058-.092.093-.143.14.424.353.804.623 1.104.115.129.24.24.371.334a1.326 1.326 0 01-1.314 1.172c-.01 0-.021 0-.031.002a1.719 1.719 0 00-1.656 1.717v1.85c0 .172.14.313.313.313h7.627a.314.314 0 00.313-.313v-1.85a1.723 1.723 0 00-1.659-1.718zM8.5 7.277a2.987 2.987 0 01-.072-.37 3.034 3.034 0 01-.03-.346c-.023-.727.184-1.415.586-1.939.387-.504.908-.791 1.468-.809.019-.001.422-.023.833.184a.324.324 0 00.15.032c.006 0 .166-.008.171-.007.47.002.919.227 1.266.629.361.42.571.985.591 1.592.01.33-.036.65-.135.944a3.136 3.136 0 00-.098-.231 2.789 2.789 0 00-1.431-1.4.311.311 0 00-.414.18 2.514 2.514 0 01-.149.325c-.164.292-.494.466-.86.454a2.449 2.449 0 00-.95.152c-.248.094-.665.328-.926.61zm.768.17a1.794 1.794 0 01.962-.308h.124c.604.021 1.149-.275 1.428-.773.018-.03.033-.062.05-.093.285.176.528.423.712.723l-.004.029c-.048.592-.252 1.138-.576 1.532-.305.373-.692.579-1.09.579-.737 0-1.392-.7-1.606-1.689zm1.064 2.23a1.807 1.807 0 001.084 0c.125.532.47.98.932 1.245a1.532 1.532 0 01-2.949 0c.463-.265.807-.713.933-1.245zm4.043 4.132H7.373v-1.537c0-.604.49-1.094 1.094-1.094.01 0 .021 0 .03-.002.108-.003.214-.015.315-.035.271.891 1.103 1.527 2.062 1.527s1.789-.637 2.062-1.527a1.807 1.807 0 00.345.037c.604 0 1.094.49 1.094 1.094v1.537z"/></symbol><symbol viewBox="0 0 489.032 489.032" id="worldwide" xmlns="http://www.w3.org/2000/svg"><path d="M433.866 40.823c0-3.3-2.7-5.9-6-5.9h-.1c-3.3 0-6 2.8-5.9 6.1l.4 35.4-6.9-6.7c-46.7-45.6-108.4-70.3-173.7-69.6-65.3.7-126.4 26.9-172 73.6-32.7 33.4-55 75.2-64.5 120.8-9.2 44.4-6.1 90.3 9.2 132.9.9 2.3 3.2 3.8 5.7 3.8.7 0 1.4-.1 2-.4 3.1-1.1 4.7-4.6 3.6-7.7-30.3-84.5-10.2-176.9 52.5-241.1 89.6-91.7 237.1-93.4 328.7-3.8l6.9 6.7-35.3.5c-3.3 0-6 2.8-5.9 6.1 0 3.3 2.7 5.9 6 5.9h.1l49.9-.6c1.6 0 3.1-.7 4.2-1.8s1.7-2.7 1.7-4.3l-.6-49.9zm40.8 120.8c-1.2-3-4.7-4.6-7.8-3.5-3.1 1.1-4.7 4.6-3.6 7.7 30.3 84.6 10.2 177-52.5 241.2-45.5 46.5-105.9 69.9-166.3 69.9-58.6 0-117.3-22-162.5-66.1l-6.9-6.7 35.4-.4c3.3 0 6-2.8 5.9-6.1 0-3.3-2.8-6-6.1-5.9l-49.8.5c-3.3 0-6 2.8-5.9 6.1l.6 49.9c0 3.3 2.7 5.9 6 5.9h.1c3.3 0 6-2.8 5.9-6.1l-.4-35.4 6.9 6.7c46 45 106.6 69.6 170.8 69.6h2.9c65.3-.7 126.4-26.9 172-73.6 32.7-33.4 55-75.2 64.5-120.8 9.2-44.4 6.1-90.3-9.2-132.9z" fill="#f7941d"/><path d="M379.566 188.523c-21.6-52-70.5-86.6-126.1-90-1.8-.2-3.5-.3-5.3-.3h-.5c-1.1 0-2.1-.1-3.2-.1-19.2 0-38 3.8-55.9 11.2-74.6 30.9-110.1 116.6-79.2 191.1 22.7 54.9 75.8 90.4 135.2 90.4h4.3c1.3 0 2.5-.1 3.8-.2 16.4-.9 32.4-4.6 47.8-10.9 36.1-14.9 64.2-43.1 79.2-79.1s14.9-75.9-.1-112.1zm-186.5-68.1c4.3-1.8 8.8-3.4 13.2-4.7-7.3 6.7-14 15.2-19.9 25.3-7.3 12.7-13.1 27.5-17.2 43.8h-45c14-28 37.7-51.4 68.9-64.4zm-14.3 76.5h63.3v95.2h-62.8c-3.3-15.2-5.1-31.4-5.1-47.6 0-16.8 1.6-32.9 4.6-47.6zm-60 95.3c-11.9-31.8-11.1-65.6.2-95.4.3 0 .5.1.8.1h46.7c-2.9 15-4.4 31.1-4.4 47.6 0 16.4 1.6 32.4 4.7 47.6h-47.1c-.3 0-.6 0-.9.1zm5.4 11.9h45.6c4 15.2 9.6 29.3 16.6 41.7 6.4 11.4 13.7 20.8 21.6 28-36.2-10.2-66.8-35.2-83.8-69.7zm118 74.2c-16.8-2.6-32.7-16-45.3-38.4-5.9-10.6-10.8-22.7-14.5-35.8h59.8v74.2zm0-193.4h-60.5c11-41.5 33.5-70.5 60.5-74.2v74.2zm122.6 0h-37.7c-4.1-16.3-9.9-31.1-17.2-43.8-4.8-8.3-10.2-15.5-16-21.5 30.5 12 55.9 35 70.9 65.3zm-110.6-74.2c27 3.8 49.4 32.7 60.5 74.2h-60.5v-74.2zm0 86.2h63.3c3 14.7 4.6 30.7 4.6 47.6 0 16.2-1.8 32.4-5.1 47.6h-62.8v-95.2zm0 181.4v-74.2h59.8c-3.7 13.1-8.6 25.2-14.5 35.8-12.7 22.4-28.6 35.8-45.3 38.4zm41.7-9.7c-1.2.5-2.5 1-3.7 1.5 6.4-6.6 12.4-14.7 17.8-24.3 7-12.4 12.6-26.5 16.6-41.7h38.3c-14.5 29.2-38.7 51.9-69 64.5zm74.1-76.5h-40.7c3.1-15.2 4.7-31.3 4.7-47.6 0-16.6-1.5-32.6-4.4-47.6h40.3c11.9 30.8 11.9 64.3.1 95.2z" fill="#f7941d"/></symbol><symbol viewBox="0 0 15 15" id="youtube"><path d="M11.4 9.8c-.3 0-.4.2-.4.6v.4h.7v-.4c.1-.4 0-.6-.3-.6z"/><path d="M13.2 7.7c-.2-.7-.7-1.1-1.3-1.2-1.5-.2-3.1-.2-4.6-.2-1.5 0-3.1 0-4.6.2-.7.1-1.3.6-1.4 1.2-.2.9-.2 2-.2 2.9 0 1 0 2 .2 2.9.2.7.7 1.1 1.3 1.2 1.5.3 3.1.3 4.7.3 1.5 0 3.1 0 4.6-.2.6-.1 1.2-.6 1.3-1.2.2-.9.2-2 .2-2.9.1-1 .1-2-.2-3zm-8.6.9h-.9v4.8h-.8V8.6H2v-.8h2.6v.8zm2.3 4.8h-.8v-.5c-.3.3-.6.5-.9.5-.2 0-.4-.1-.5-.3 0-.1-.1-.3-.1-.6V9.2h.7v3.3c0 .1.1.2.2.2.2 0 .3-.1.5-.4V9.2h.7v4.2zm2.8-1.3c0 .4 0 .7-.1.8-.1.3-.3.5-.6.5s-.5-.1-.8-.5v.4h-.7V7.8h.7v1.8c.3-.3.6-.4.8-.4.3 0 .5.2.6.5 0 .2.1.4.1.8v1.6zm2.8-.7H11v.7c0 .4.1.6.4.6.2 0 .3-.1.3-.3v-.5h.8v.6c0 .2-.1.3-.2.4-.2.3-.5.4-.9.4s-.7-.1-.9-.4c-.2-.2-.2-.5-.2-1v-1.4c0-.4.1-.8.2-1 .2-.3.5-.4.9-.4s.7.1.9.4c.2.2.2.5.2 1v.9z"/><path d="M8.6 9.8c-.1 0-.2.1-.4.2v2.5c.1.1.3.2.4.2.2 0 .3-.2.3-.6v-1.8c.1-.3-.1-.5-.3-.5z"/><path d="M6 0h-.9l-.6 2.2L3.9 0h-.8c.2.5.4 1 .5 1.6.3.7.4 1.3.5 1.7v2.3h.8V3.3L6 0zm2.2 4.3V2.8c0-.4-.1-.8-.2-1-.2-.3-.5-.4-.9-.4s-.7.1-.9.4c-.2.2-.2.5-.2 1v1.5c0 .4 0 .7.2.9.2.3.5.4.9.4s.7-.1.9-.4c.1-.2.2-.5.2-.9zm-.8.1c0 .4-.1.6-.3.6-.3 0-.4-.2-.4-.6V2.6c0-.4.1-.6.4-.6.2 0 .4.2.4.6v1.8zM11 5.6V1.4h-.8v3.2c-.1.3-.3.4-.4.4-.1 0-.2-.1-.2-.2V1.4h-.8v3.3c0 .3 0 .5.1.6.1.3.2.4.5.4s.6-.2.9-.5v.5h.7z" fill-rule="evenodd" clip-rule="evenodd" fill="#050000"/></symbol><symbol viewBox="30 30 120 119" id="youtube-play" xmlns="http://www.w3.org/2000/svg"><path d="M138.75 68.85s-.9-7.2-3.9-10.35c-3.75-4.2-8.1-4.2-9.9-4.35C110.85 53.1 90 53.1 90 53.1s-20.85 0-34.8 1.05c-1.95.3-6.15.3-9.9 4.35-3 3.15-3.9 10.35-3.9 10.35s-1.05 8.4-1.05 16.8v7.95c0 8.4 1.05 16.8 1.05 16.8s.9 7.2 3.9 10.35c3.75 4.2 8.7 4.05 10.95 4.5 7.95.75 33.9 1.05 33.9 1.05s20.85 0 34.8-1.05c1.95-.3 6.15-.3 9.9-4.35 3-3.15 3.9-10.35 3.9-10.35s1.05-8.4 1.05-16.8V85.8c0-8.55-1.05-16.95-1.05-16.95zm-32.1 19.65L79.8 103.05v-29.1l12.15 6.6 14.7 7.95z"/></symbol><symbol viewBox="0 0 129 129" id="zoom" xmlns="http://www.w3.org/2000/svg"><g fill="#D80027"><path d="M51.6 96.7c11 0 21-3.9 28.8-10.5l35 35c.8.8 1.8 1.2 2.9 1.2 1 0 2.1-.4 2.9-1.2 1.6-1.6 1.6-4.2 0-5.8l-35-35c6.5-7.8 10.5-17.9 10.5-28.8 0-24.9-20.2-45.1-45.1-45.1-24.8 0-45.1 20.3-45.1 45.1 0 24.9 20.3 45.1 45.1 45.1zm0-82c20.4 0 36.9 16.6 36.9 36.9C88.5 72 72 88.5 51.6 88.5S14.7 71.9 14.7 51.6c0-20.3 16.6-36.9 36.9-36.9z"/><path d="M47.5 78.3c0 2.3 1.8 4.1 4.1 4.1s4.1-1.8 4.1-4.1V55.7h22.6c2.3 0 4.1-1.8 4.1-4.1s-1.8-4.1-4.1-4.1H55.7V24.9c0-2.3-1.8-4.1-4.1-4.1s-4.1 1.8-4.1 4.1v22.6H24.9c-2.3 0-4.1 1.8-4.1 4.1s1.8 4.1 4.1 4.1h22.6v22.6z"/></g></symbol></svg>