<svg xmlns="http://www.w3.org/2000/svg" width="32" height="32" fill="none"><g fill="#003073" clip-path="url(#a)"><path d="M30.93 20.36V4.8a.53.53 0 0 0-.53-.53A3.74 3.74 0 0 1 26.67.53a.53.53 0 0 0-.54-.53H5.87a.53.53 0 0 0-.54.53A3.74 3.74 0 0 1 1.6 4.27a.53.53 0 0 0-.53.53v15.56A1.6 1.6 0 0 0 0 21.86v4.27a1.6 1.6 0 0 0 1.07 1.5v3.84a.53.53 0 0 0 .53.53h2.13a.53.53 0 0 0 .54-.53v-3.74h23.46v3.74a.53.53 0 0 0 .54.53h2.13a.53.53 0 0 0 .53-.53v-3.83a1.6 1.6 0 0 0 1.07-1.5v-4.27a1.6 1.6 0 0 0-1.07-1.5ZM2.13 5.3a4.8 4.8 0 0 0 4.24-4.23h19.26a4.8 4.8 0 0 0 4.24 4.23V16a2.65 2.65 0 0 0-1.6-.53v-1.6a2.67 2.67 0 0 0-2.67-2.67h-7.47A2.66 2.66 0 0 0 16 12.28a2.66 2.66 0 0 0-2.13-1.08H6.4a2.67 2.67 0 0 0-2.67 2.67v1.6c-.57 0-1.14.18-1.6.53V5.3Zm25.07 8.57v1.6H16.53v-1.6a1.6 1.6 0 0 1 1.6-1.6h7.47a1.6 1.6 0 0 1 1.6 1.6Zm-11.73 0v1.6H4.8v-1.6a1.6 1.6 0 0 1 1.6-1.6h7.47a1.6 1.6 0 0 1 1.6 1.6ZM2.13 18.13a1.6 1.6 0 0 1 1.6-1.6h24.54a1.6 1.6 0 0 1 1.6 1.6v2.14h-.13a1 1 0 0 1-.76-.32c-1.41-1.62-7.44-2.35-12.45-2.35-5 0-11.03.73-12.45 2.34a1 1 0 0 1-.76.33H2.13v-2.14Zm1.07 12.8H2.13v-3.2H3.2v3.2Zm26.67 0H28.8v-3.2h1.07v3.2Zm1.06-4.8a.53.53 0 0 1-.53.54H1.6a.53.53 0 0 1-.53-.54v-4.26a.53.53 0 0 1 .53-.54h1.72a2.07 2.07 0 0 0 1.57-.68c.85-.97 5.44-1.98 11.64-1.98s10.8 1 11.65 1.98a2.07 2.07 0 0 0 1.56.68h.66a.53.53 0 0 1 .53.54v4.26Z"/><path d="M16 19.73c-3.69 0-10.67.62-10.67 2.94S12.31 25.6 16 25.6c3.69 0 10.67-.61 10.67-2.93 0-2.32-6.98-2.94-10.67-2.94Zm0 4.8c-6.33 0-9.6-1.3-9.6-1.86S9.67 20.8 16 20.8s9.6 1.3 9.6 1.87c0 .56-3.27 1.86-9.6 1.86Zm-11.73-16v-1.6A7.03 7.03 0 0 0 8 3.2h16a7.03 7.03 0 0 0 3.73 3.73v1.6a.53.53 0 1 0 1.07 0V6.57a.53.53 0 0 0-.36-.5 5.93 5.93 0 0 1-3.57-3.58.53.53 0 0 0-.5-.36H7.63a.53.53 0 0 0-.5.36 5.93 5.93 0 0 1-3.57 3.57.53.53 0 0 0-.36.5v1.97a.53.53 0 0 0 1.07 0Z"/></g><defs><clipPath id="a"><path fill="#fff" d="M0 0h32v32H0z"/></clipPath></defs></svg>