<svg width="320" height="680" viewBox="0 0 320 680" fill="none" xmlns="http://www.w3.org/2000/svg">
<g clip-path="url(#clip0_224_2)">
<path d="M1 61C1 27.8629 27.8629 1 61 1H75H245H259C292.137 1 319 27.8629 319 61V619C319 652.137 292.137 679 259 679H61C27.8629 679 1 652.137 1 619V61Z" fill="white"/>
<path d="M75 1H61C27.8629 1 1 27.8629 1 61V619C1 652.137 27.8629 679 61 679H259C292.137 679 319 652.137 319 619V61C319 27.8629 292.137 1 259 1H245M75 1H245M75 1C75 12.0457 83.9543 21 95 21H225C236.046 21 245 12.0457 245 1M126 11H194" stroke="#1A1A1A" stroke-width="2" stroke-linecap="round" stroke-linejoin="round"/>
</g>
<defs>
<clipPath id="clip0_224_2">
<rect width="320" height="680" fill="white"/>
</clipPath>
</defs>
</svg>
