<?xml version="1.0" encoding="utf-8"?>
<!-- Generator: Adobe Illustrator 16.0.0, SVG Export Plug-In . SVG Version: 6.00 Build 0)  -->
<!DOCTYPE svg PUBLIC "-//W3C//DTD SVG 1.1//EN" "http://www.w3.org/Graphics/SVG/1.1/DTD/svg11.dtd">
<svg version="1.1" id="Layer_1" xmlns="http://www.w3.org/2000/svg" xmlns:xlink="http://www.w3.org/1999/xlink" x="0px" y="0px"
	 width="106px" height="69px" viewBox="0 0 106 69" enable-background="new 0 0 106 69" xml:space="preserve">
<path fill="#FF4B55" d="M98.061,69H7.938C3.554,69,0,65.47,0,61.111V7.887C0,3.531,3.554,0,7.938,0h90.123
	C102.446,0,106,3.531,106,7.887v53.224C106,65.47,102.446,69,98.061,69z"/>
<path fill="#73AF00" d="M7.938,0C3.554,0,0,3.531,0,7.887v53.224C0,65.47,3.554,69,7.938,69h30.441V0H7.938z"/>
<ellipse fill="#FFE15A" cx="38.394" cy="34.5" rx="16.434" ry="16.328"/>
<path fill="#FF4B55" d="M43.876,29.052v7.264c0,3.004-2.459,5.446-5.483,5.446c-3.022,0-5.482-2.442-5.482-5.446v-7.264H43.876
	 M45.704,25.421H31.083c-1.008,0-1.827,0.813-1.827,1.815v9.079c0,5.015,4.091,9.078,9.138,9.078c5.046,0,9.138-4.063,9.138-9.078
	v-9.079C47.531,26.234,46.713,25.421,45.704,25.421L45.704,25.421z"/>
<path fill="#F5F5F5" d="M43.876,29.052v7.264c0,3.004-2.459,5.446-5.483,5.446c-3.022,0-5.482-2.442-5.482-5.446v-7.264H43.876"/>
<g>
	<ellipse fill="#FFE15A" cx="31.069" cy="27.237" rx="0.915" ry="0.908"/>
	<ellipse fill="#FFE15A" cx="45.689" cy="27.237" rx="0.915" ry="0.908"/>
	<ellipse fill="#FFE15A" cx="31.069" cy="34.5" rx="0.915" ry="0.908"/>
	<ellipse fill="#FFE15A" cx="45.689" cy="34.5" rx="0.915" ry="0.908"/>
	<ellipse fill="#FFE15A" cx="38.379" cy="27.237" rx="0.914" ry="0.908"/>
	<ellipse fill="#FFE15A" cx="43.866" cy="41.195" rx="0.914" ry="0.909"/>
	<ellipse fill="#FFE15A" cx="33" cy="41.195" rx="0.915" ry="0.909"/>
</g>
<g>
	<path fill="#41479B" d="M39.574,34.039v1.563c0,0.647-0.529,1.174-1.181,1.174c-0.65,0-1.18-0.526-1.18-1.174v-1.563H39.574"/>
	<path fill="#41479B" d="M39.574,30.332v1.564c0,0.646-0.529,1.173-1.181,1.173c-0.65,0-1.18-0.526-1.18-1.173v-1.564H39.574"/>
	<path fill="#41479B" d="M39.574,37.785v1.563c0,0.646-0.529,1.173-1.181,1.173c-0.65,0-1.18-0.527-1.18-1.173v-1.563H39.574"/>
	<path fill="#41479B" d="M42.754,34.039v1.563c0,0.647-0.53,1.174-1.181,1.174c-0.651,0-1.182-0.526-1.182-1.174v-1.563H42.754"/>
	<path fill="#41479B" d="M36.395,34.039v1.563c0,0.647-0.53,1.174-1.181,1.174c-0.651,0-1.18-0.526-1.18-1.174v-1.563H36.395"/>
</g>
</svg>
