<svg xmlns="http://www.w3.org/2000/svg" width="800" height="270" fill="none"><g fill="#EEF3FA" clip-path="url(#a)"><path d="m569.06 121.8 2.7-.01 1.2 1.59 3.07.01c-.53-3.03-1.7-4.12-4.3-4.87l-.47-8.88c.74-.67.21-1.55-.5-1.55-.63 0-1.26.72-.63 1.48l-.77 8.98a5.58 5.58 0 0 0-4.1 4.7l2.84.01.96-1.46Zm-54.04 55.08-.46 1.23-.16 2.29-2.14 1.53.15 7.95 87.3 2.75-14.86-12.38.61-1.07-17-5.97-9.8-1.83-22.62-1 .16 1.7-1.91 1.86-4.46-.02-6.9-4.1-16.64-.74 6.74 6.42 69.67 3.37 1.23.46-.61.6-68.3-3.05Zm67.17 7.67v5.28l-2.9-.14v-5.27l2.9.13Zm21.76-16.1-1.97-.22-.16-7.82-.68.15-.38 7.97-.76.16v.76l4.1.3-.15-1.3Zm-.76 7.68.3-1.9 2.58.07.6 2.5.84.54-.23-4.86-1.28-.23-.23-1.59-5.39-.15 2.8 5.62h.01Z"/><path d="m586.12 180.45.28.2v-.72l-.28.52Z"/><path d="M586.4 178.57v-.4h2.5v3.24h-1.36l3.43 2.3 10.7-5.23.99-1.52-4.32-7.82-16.93-.83c-3.34 2.97-6.23 4.44-11.3 4.7l16.29 5.56Zm5.5-.33h2.5v3.24h-2.5v-3.24Z"/><path d="m606.26 177.63-.46-2.29h-1.52l-.47 2.14-1.22 1.68-11 5.19 7.12 5.62-.13-3.43h1.51l.18 4.66 1.56 1.23-1.38 1.83 24.76-.15 2.42-2.29 6.6-10.83-1.23-.92.77-.91h-25.98l-.77-1.37-.76-.16Zm-2.34 14.2-.21-5.3h1.51l.2 5.3h-1.5Zm19.87-5.3.2 5.3h-1.5l-.21-5.3h1.51Zm-5.28 0 .2 5.3h-1.5l-.22-5.3h1.52Zm-8.08 0 .2 5.3h-1.5l-.21-5.3h1.51Zm73.75-35.12 1.23-4.7 1.68 5.24 1.22.69.31 2.75-.77 1.15-.01 4.42c0 .6.18 1 .93.78l.88-3.1 1.5 5.85 1.22 1.08v3.59l1.07.9.07 1.17h15.45l15.07-9.8 1.22-3.37 5.35-.15 1.84 2.38 7.05-.14-19.21-17.77h-2.37v2.65c0 2.95-2.85 3.5-5.52 2.48-3.08-1.17-5.09-3.26-7.63-5.9l-21.57-.1v1.68l-.76 1.63.21 6.29 1.54.3Zm25.95 8.4h3.19l.01 7.47h-3.18l-.02-7.47Zm-10.1 0h3.32l.02 7.47h-3.33l-.02-7.47h.01ZM732.76 125.78l.03 1.41c.05 2.18.8 3.12 2.38 3.4l-.1-2.57 20.25-2.88 10.56.42.7-2.43-.2-.01-10.42-.36c-.44-.8-.96-1.08-1.5-1.01-.53.06-1.08.46-1.58 1.01l-15.16 2.55.72-.69 14.4-2.62c.25-.4.64-.69 1.08-.87a3.03 3.03 0 0 1 3.22.64l9.86.4 7.73.52.73.95-5.18-.29v-.04l-3.69-.18.85 2.5 2.72.11v-.01l7.95.3-.1 2.62c1.57-.42 2.33-1.52 2.38-3.65l.02-1.38-3.96-1.08-.28-7.38 1.13-1.35v-1.1l-10.5-.92v.01l-12.12-1.16-18.81 3.54v1.13l1.13 1.27-.28 8.06-3.96 1.14Zm21.75-12.86 19.23 1.73 1.84.17-.42.63-3-.12v4.77l-.87.09v-4.93l-4.5-.44v.17h-.06v4.8h-.91v-4.89l-6.5-.56v4.78h-.92v-4.86l-4.04-.36-2.96.52v5h-.9v-4.84l-5.15.9v5.08h-.9v-4.91l-3.98.7v5.04h-.87v-4.9l-1.58.28-.42-.6 16.9-3.25h.01Z"/><path d="m738.01 116.77-.4-.6 16.9-3.25-16.91 3.25.41.6Zm30.42 4.6v3.69-3.7.01Zm-11.29.4 9.86.4 7.73.52-7.73-.53-9.86-.4v.01Zm11.66 8.35 1.23 1.7.88 2.9 6.2.46.05-7.96-9.23-.3.88 3.2h-.01Zm-12.28 19.22 5.95-13.6.34-2.35 1.94-2.94.83-3.58-10.05-.39-19.51 2.55.14 24.2-.85.28-.29.99 5.5 5.08 8.9-.12 4.25-4.05 1.58-3.47.07-20.76c-1.2-1.4-1.75-3.03.35-3.83 2.1.47 1.9 2.26.85 3.8v18.2-.01Zm-7.53 5.93h-.83v-1.51l-6.8.08.3-.99 5.31-.04v-9.44l-2.25-.76-.71 4.8v-6.78l2.5-3.32.5.67 2 2.65v12.07h.06l-.08 2.57Zm-133.21 22.22a49.5 49.5 0 0 1 5.2-6.99h-4.82l-.23 1.3-7.73.15.15 5.57 7.43-.03Z"/><path d="m746.97 152.81-5.3.04-.3.99.3-.98 5.3-.05ZM658.37 169.85v-.92h-2.9l-2.3.92-.12-1.68h-2.85l-.08 2.9-5.96 3.66-9.17 4.73 23.38-.6v-3.82c-1.75-.78-1.74-1.4-1.84-3.05l.76-2.09 1.08-.05Zm31.33 15.26 59.09-1.75.84-1.14v-16.94l-.31-2.2v-2.06l-17.58.3-1.67-2.42-3.72.1-1.15 2.93-32.91 21.96-2.59 1.22Zm56.84-9 .2 5.28h-1.5l-.2-5.28h1.5Zm-8.46.21.2 5.29h-1.5l-.21-5.29h1.51Zm-8.46.21.2 5.29h-1.5l-.21-5.29h1.51Zm-8.46.22.2 5.28h-1.5l-.21-5.28h1.51Zm-9.97.2h1.5l.21 5.3h-1.5l-.21-5.3Zm-8.46.22h1.5l.21 5.29h-1.5l-.22-5.29h.01Z"/><path d="m753.52 104.92.46-1.81 1.58-.16-1.58.15-.46 1.82Zm-629.86 15.75L73.3 124.4l-14.7 26.06 51.1-2.82-.07-2.44 3.96-4.27 10.06-20.27.01.01Zm-37.87 10.85-5.63 11.86-2.75.3 6.09-11.85 2.29-.31Zm11-.95-5.64 11.86-2.96.16 6.09-11.85 2.5-.17h.01Zm5.36 10.9-3.18.32 4.1-8.14 1.99-3.94 2.72-.32-5.63 12.08Zm556.37 41.2v-2.44l-22.62.15-7.48 12.66-1.99 1.68 29.34-.61 2.75-2.75v-4.58l-1.83-1.67v-2.14l1.83-.3ZM200.66 166.7l1.23-.7.07-7.33-1-1.22-14.54-.3 14.24 9.55Zm505.09-34.86v9.62c2.37 2.38 4.25 4.05 7.18 5.06 2.1.72 4.12.59 4.12-1.76v-5.59l.46-.6v-3.67l-.46-.61V132l1.5-1-.1-1.34-1.24-.1c.06-4.3-.1-6.66-3.37-9.45l-.02-7.07c1.27-1.16-.07-2.83-1.39-3.13l-.11-2.62-.03-2.39-.15-1.06-1.83.3-.15.61.91.3-.13 4.84c-1.85.47-2.39 1.94-1.52 3.05l-.16 7.02c-3.22 2.63-3.91 4.9-4.12 9.46l-1.88.08.03 1.62 2.46.73v-.01Zm8.09 1.07h1.43v5.36h-1.43v-5.36Zm-3.85 0h1.88v5.36H710v-5.36h-.01Zm-3.32 0h1.43v5.36h-1.43v-5.36Zm-347.5 36.39 10.34-.37.06-.53-.76-.31-.3-.76v-5.47l-.5-.1-.61-4-1.06.02-.48 4-3.34.23v1.5l-2.43.16v4l-.9.63-.02 1Zm348.8 2.98-14.55.3-1 1.23.08 7.34 1.23.69 14.24-9.56Zm-87.69 5.38 2.22-4.64 2.2 4.68 9.9.08 14.34-7.51.07-3.19 1.67-.08.69-5.16.6 5.01 1.98.08.23 1.21 1.67-.6 2.8-.15-.07-2.05.98-.53-.07-3.11-13.5.22-.54-1.06-4.1.07-.3.77h-6.15c-9 4.94-12.18 7.68-18.28 15.93l3.66.03Z"/><path d="m88.19 142.6 2.96-.17-2.96.16v.01Zm116.5 27.37-2.6-1.22-32.9-21.96-1.15-2.92-3.72-.12-1.68 2.43-17.58-.3v2.05l-.3 2.2v16.94l.84 1.14 59.09 1.75v.01Zm-14.74-2.66.2-5.28h1.51l-.2 5.28h-1.51Zm-8.26-5.5h1.51l-.2 5.3h-1.51l.2-5.3Zm-8.67 5.08.21-5.28h1.51l-.2 5.28h-1.52Zm-8.25-5.5h1.5l-.2 5.29h-1.5l.2-5.29Zm-8.67 5.08.2-5.3h1.52l-.2 5.3h-1.52Zm-8.25-5.5h1.5l-.2 5.28h-1.5l.2-5.28ZM17.9 144.02l18.97 10.6-1.27.13v4.87l3.1.07.15-1.4.7-1.35 5.02-.07 4.24 2.56h6.58l-.07-3.4-1.9-3.04.13-6-1.88-1v-3.64l-2.84-.53-2.8.53v1.6l-8.15.04v-2.36l-2.88-.46-2.76.46v2.38l-2.37.01-2.27.85-5.13-.15v-3.69l-2.33-.4-2.23.4-.01 2.99Z"/><path d="m174.74 161.6-.2 5.29h-1.52 1.51l.21-5.28v-.01Zm16.92.43-.2 5.28h-1.51 1.5l.21-5.28Zm-42.3-1.06-.21 5.28.2-5.28h.01Zm8.46.2-.21 5.3.2-5.3h.01Zm78.22 2.36 5.78.01.6 3.33.59-4.91-7.2.03.23 1.54Zm6.98-1.68-.01.1h.02l-.01-.1Zm.68 5.17 1.67.07.08 3.2 14.34 7.5 9.9-.08 2.2-4.68 2.22 4.65 3.66-.04c-6.1-8.25-9.28-11-18.29-15.93h-6.14l-.3-.77-4.1-.07-.53 1.06-5.38.03.67 5.06Zm-79.9-24.25 5.34.16 1.23 3.36 15.06 9.8h15.45l.08-1.18 1.07-.9v-3.59l1.22-1.07 1.49-5.85.88 3.1c.75.21.93-.19.93-.78l-.01-4.42-.77-1.15.31-2.75 1.22-.7 1.69-5.23 1.22 4.7 1.54-.3.22-6.3-.76-1.62v-1.69l-37.1.88-19.2 17.77 7.05.14 1.83-2.38h.01Zm27.23 1.9h3.34l-.02 7.47h-3.33l.01-7.47Zm-9.96 0h3.2l-.03 7.47h-3.19l.02-7.47ZM13.9 152.85l4.24-2.75h8.91l-14.28-7.2-12.77.06v9.83l13.9.06Zm73.18 23.4L66.57 159.7l-3.18 1.45-14.96-.04-4.05-2.78-4.02-.07-.6 2.82L0 160.96v13.82l87.08 1.47Zm-48.14-8.55h3.62l-.28 6.07h-3.62l.28-6.07Zm-25.27-.31h3.63l-.28 6.08h-3.63l.28-6.08Z"/><path d="m418.13 161.43-.08-3.9h-5.8v2.32l2.1 1.55 3.78.03Zm64.01 1.81v-3.86h-5.8l-.1 2.42 2.1 1.48 3.8-.04Zm56.25 6.66 20.34.84 2.96.38-4.18-2.89-15.7-.6-3.42 2.27Zm-85.73-11.39h2.73l-.38-1.06-.69-.08-.37-13.5.45-.77-1.22-.15.46.84-.15 13.5-.83.08c.07.38-.08.76 0 1.14Zm6.6.93h-7.21l-.76.91 9.4.38-1.44-1.29h.01Zm36.5 3.95v-3.86h-4.92l-.1 2.42 1.74 1.48 3.27-.04h.01ZM4.63 135.6l-.46.6v3.67l.46.61.03 1.32 8.51.15 2.77 1v-9.8l2.46-.73.03-1.62-1.88-.09c-.21-4.55-.9-6.82-4.13-9.45l-.15-7.02c.86-1.11.33-2.58-1.53-3.05l-.13-4.83.92-.3-.16-.62-1.83-.3-.15 1.06-.02 2.39-.12 2.62c-1.31.3-2.66 1.97-1.38 3.13l-.03 7.07c-3.27 2.8-3.42 5.14-3.36 9.46l-1.24.1-.1 1.33 1.5 1v2.3h-.01Zm8.95-1.38h.6v5.37h-.6v-5.37Zm-3.77 0h.83v5.37h-.83v-5.37Zm-3.4 0h.66v5.37h-.66v-5.37Zm286.3 44.27 10.7 5.24 3.43-2.31h-1.35v-3.24h2.49v.4l16.3-5.56 8.07-3.87h-36.3l-4.33 7.82.99 1.52Zm7.27-.24h2.49v3.24h-2.5v-3.24h.01Zm-266-18.43v-5.38l-6-3.32h-9.2l-4.24 2.55H.34v6.22h21.19v-3.11h3.98v3.11l8.49-.07h-.02Zm252.05 17.71.15-5.57-7.74-.15-.23-1.3h-4.8a49.54 49.54 0 0 1 5.18 7l7.44.02Z"/><path d="m536.2 169.3 1.28.07 3.11-2.5 16.09.53-.08-1-6.14-.22-.05-2.2-1.44-1.44-1.32 1.02-3.95-.03-.15 2.73-5.16-.08-.6-2.28-2.59-.07-.07 3.03 1.06.76v1.67l.01.01Zm-155.3 7.89 23.45-3.84-5.67-12.01 7.67 12.01 36.19.71.01-.06 21.47-9.66L485 176.27l28.49.92-1.69-.92-13.48-13.76-1.82.06.01 1.74-4.47-.12-2.14-1.99-7.05-.12.04 1.86-5.4-.06-2.44-1.83-31.55-.92-24.57-.78.07 1.7-5.4.04-2.56-1.86-12.83-.01-15.62 16.05-1.69.92Zm143.92-8.78v1.46l5.3 3.3 3.65.05 1.51-1.88-.08-3.03-.9-.63v-6.44l-3.95-.6.02-1.92 1.5-.3v-1.5l-3.34-.23-.48-4-1.06-.02-.61 3.99-.5.11v10.57l-.3.76-.76.3v.01Zm-236.5 5.9 2.57-.08.3 1.9 2.82-5.62-5.39.15-.23 1.6-1.29.22-.23 4.86.84-.53.6-2.5h.01Zm82.07-6.67.02 1.24 12.16-.51.08-1.13 1.32-.15.19-1.7 1.17.04.19 1.62.94.08v1.07l2.54-.04 4.4-4.56h-6.07l-.91.69h-4.83v-7.62l.68-.3-.03-.45-.57-.04.04-1.25h-.42v1.17l-.53.12v.53l.45.14-.6 6.61-.5.15-.13.94h-.84v-4.79h-5.31l-.08 2.43-4.55.15v4.71l.31.66.88.2v-.01Z"/><path d="M507.93 168.2v-1.07l.94-.08.19-1.62 1.17-.04.19 1.7 1.32.15.08 1.13 12.16.5.02-1.23.88-.19.31-.66v-4.7l-4.55-.16-.08-2.43h-5.3v4.78h-.85l-.14-.93-.5-.15-.6-6.6.45-.16v-.52l-.52-.12v-1.17h-.42l.04 1.25-.57.04-.03.45.67.3v7.62h-4.82l-.91-.7h-6.07l4.4 4.57 2.54.04Zm-213.54.49-.76-.16-.38-7.96-.69-.16-.15 7.82-1.97.23-.15 1.29 4.1-.3v-.76Zm-58.27 10.83 23.28-.06-9.17-4.73-5.96-3.66-.08-2.9h-2.85l-.13 1.68-.73-5.15-4.44.02.01 2.44 1.56.2.52 2.9-2.05 2.31.04 6.95Zm328.75-7.8c6.48.43 10.09-.23 15.33-4.1l.15-1.74-1-.86-.06-2.56 1.29-1.06.22-1.44-1.51-.08-.38-13.51 1.29-.84.07-1.21v-.76l-1.44-.3c-.3-3.7.24-5.67-2.5-8.2l.15-.84-.76-.98.08-6.83.98-1.37.15-.99-4.34.01-1.12-1.15h-1.9l-1.19 1.16-4.16-.01.3 1.06 1.26 1.06.15 7.21-1.14.91v1.06c-2.52 2.13-2.06 3.47-2.35 6.76l-1.37.46.08 1.67 1.14 1.6-.46 13.13-2.04.12.5 1.77 1.23.68-.06 2.36-2.88.38-.77 1.06-.07 2.12.9.38 6.23 3.87Zm4.5-44.65c0-1.03.64-1.56 1.28-1.58.64-.02 1.28.47 1.28 1.5v5.29l-2.56-.08v-5.13Zm-3.66 8.49 10.11-.07a3.78 3.78 0 0 0-2.22 2.9l-.04.23-.13 3.63-1.44-5.44-2.75-.04-1.3 4.34-.06-2.07v-.1c-.1-2.06-1.06-2.76-2.17-3.38Zm-257.72 45.08.28-.19-.28-.52v.71Zm-71.82 11.22 2.44 2.85h29.35l-1.99-1.67-7.49-12.66-22.51.52.2 10.96Zm25.22-11.79-1.23.92 6.6 10.83 2.42 2.29 24.76.15-1.38-1.83 1.56-1.23.18-4.66h1.5l-.13 3.43 7.13-5.63-11-5.18-1.23-1.68-.45-2.14h-1.53l-.46 2.29-.76.16-.77 1.37h-25.98l.77.91Zm94.6-10.17-3.4-2.28-15.71.61-5.98 3.02 25.1-1.35h-.01Z"/><path d="m567.94 141.12 1.3-4.35-1.3 4.34v.01Zm-.07-2.18c-.08-2.06-1.04-2.76-2.16-3.38 1.11.62 2.08 1.32 2.16 3.38Zm5.69-.32c0-.08.03-.15.05-.23l-.05.23ZM571.93 127c0-1.04-.64-1.53-1.28-1.51.64-.02 1.28.47 1.28 1.5v.01Zm-189.95 62.88.15-7.95-2.15-1.53-.15-2.3-.46-1.22-68.3 3.06-.61-.62 1.23-.45 69.67-3.37 6.74-6.42-59.27 3.02-19.9 7.07.61 1.07-14.85 12.4 87.29-2.76Zm388.95-54.68 10.06 20.27 3.96 4.27-.08 2.44L800 163v-13.27l-2.2-4.63 2.2.14v-7.89l-29.07-2.16v.01Zm21.5 20.81-5.63-12.08 2.72.31 6.1 12.09-3.18-.32h-.01Zm-435.52 13.36 1.29-.08v-1.67l1.06-.75-.08-3.04-2.58.07-.6 2.28-5.17.08-.14-2.73-3.95.03-1.33-1.02-1.44 1.44-.04 2.2-6.14.23-.08.99 16.09-.53 3.1 2.5h.01Z"/><path d="m784.3 165.28-1.03 40.37-.42-10.35v-29.85l.76-2.58v-2.72l-3.8-4.32-9.81-20.3-.46-2.6-1.74-2.55-1.03-4.98-.85 4.87-2 3.35-.25 2.14-8.8 19.6-4.18 3.8v3.03l.3 2.12v25.68l-1.78 43.38-.05.81.32-49.3-57.83 1.21.3 1.45 1.75.6-.78 59.88c-.25 5.53-.92 9.3-1.66 15.2l.03 6.78H800v-92.22l-12.5-.2-1.3-.83 13.8.26v-12.66l-14.71-.9-.99 1.83Zm-86 31.75-.02-5.3h2.07v5.3h-2.06.01Zm8.52.15v-5.28h2.05l.01 5.28h-2.06Zm8.54 18.21-.01-5.28h2.06v4.38l-2.05.9Zm0-18.2-.01-5.3h2.06v5.3h-2.05Zm9.92 15.41-2.06 2.3-.01-4.79h2.06v2.5l.01-.01Zm-2.06-15.42-.01-5.28h2.06v5.28h-2.05Zm6.68 18.21v-5.28h2.05l-2.05 5.28Zm1.09-18.2h-1.09v-5.3h2.05l.01 3.54-.97 1.75v.01Zm7.43 14.15-.97 4.05v-5.28h2.05l-1.08 1.23Zm1.1-16.12-2.07 1.96-.01-5.28h2.06l.01 3.32h.01Zm5.24 18.36v-3.47h1.29l-1.29 3.47Zm.89-19.31-.89 2.91v-5.28h2.05l.01 1.1-1.17 1.27Zm14.68-46.31 1.44-.76 1.93-.02 3.73-.05v-3.64l-2.14-.87v-1.65h4.34v6.13l4.32-.06.68.69-14.3.23Zm-6.02 11.47 1.45-.76 6.77-.11v-5.45l-2.13-.87v-1.65h4.34v7.93l7.66-.13v-5.67l-2.13-.87v-1.66h4.34v8.17l4.2-.07.62.61-25.12.53Zm6.4 31.99h-4.57v-.87l2.37-.55v-4.42l-2.14-.86v-1.66h4.35v8.36h-.01Zm8.85-8.6v8.36h-4.58v-.87l2.37-.55v-4.41l-2.13-.87v-1.66h4.34Zm9.32 4.43-2.67 3.77h-1.91v-.86l2.36-.56v-4.41l-2.13-.87v-1.65h4.35v4.58Zm2.6-7.6-1.06.52-28.16.3-.68-.75 28.15-.23 2.13-1.22-.37 1.37-.01.01Zm-25.19-10.7v-1.65h4.35v8.35h-4.58v-.87l2.37-.55v-4.41l-2.14-.87Zm8.85-.23v-1.66h4.34v8.36h-4.58v-.87l2.37-.55v-4.41l-2.13-.87Zm9.31-.16v-1.66h4.34v8.36h-4.57v-.87l2.36-.55v-4.41l-2.13-.87Zm7.57-4.57-1.07.53-28.16.3-.68-.75 28.15-.23 2.13-1.22-.37 1.37Zm7.83 27v-8.36l4.34-.06v1.65l-2.13.9-2.2 5.87h-.01Z"/><path d="m767.43 143.5-2.13-.88 2.13.87v.01Zm11.39 14.79.6.61-.6-.6-4.2.06 4.2-.07Zm-15.12-11.11-1.93.02 1.94-.02h-.01Zm-33.8 68.22 2.05-5.29-2.05 5.28v.01Zm2.05-23.5.01 3.53v-3.53h-.01Zm14.86 0 .01 1.1v-1.1h-.01Zm-9.37 18.21.01 5.28v-5.28h-.01Zm-37.1-18.37.01 5.29v-5.3l-.01.01Zm89.51-.75 2.21-5.87-2.2 5.87h-.01Zm-13.18-1.38v-4.42l-2.14-.87 2.13.87v4.42l-2.36.55 2.37-.55Zm-85.41 73.62-.17-34.34v-9.83l-.04.09v-.2l-.05.2-20.53.08-6.14-.55 11.06-.14 1.36-2.48.01-17.99c0-4.37-5.98-5.9-6.48 1.36l-1.03 14.76v-16.88a5.5 5.5 0 0 1 3.97-5.55l.85-4.54 1.07 4.66c1.56.4 3.74 2.5 3.74 5.43v21.1l12.2-.2-.03-32.04-3.68-.03-.27-1.2.1-.03-27.03.36-.4-.55 3.68-.1.57-1.1v-5.41l-.7-.63v-2.19h2.44v9.27l4.06-.1h-.03l.7-1.38v-5.4l-.7-.63v-2.2h2.45v9.54l11.6-.3.67-1.29v-5.4l-.7-.62v-2.2h2.44v9.44l3-.08 2.75-1.29-.42-.26-.16-7.5v-1.98l.77-.92v-1.84l-.77-.6v-3.68l-.76-.61-1.07-4.43-.46 1.83c-1.4.4-2.18-.19-2.2-1.64l-.1-4.93.77-.77-.15-1.83-1.23-1.23-.77-3.2-.6 3.51-.77.3-2.25-.68-.31-7.7.57-1.4-.16-1.99-.91-.91c-.5-3.92-1.89-6.13-5.05-7.68l-.93-2.06-.65-5.25-.88 5.35-.76 1.84c-2.47 1.75-4.35 3.49-4.75 7.18l-.61.77-.47 1.68.47 1.68-.31 9.48-1.38.46-1.07-.3-.77-3.37-.3 3.21-.77.92v1.68l.76.3-.15 4.9a4.07 4.07 0 0 1-1.68 1.99l-1.37-1.42.06 4.06-.68.57v4.48l-1.64.11-.35 1.06c.06 1.18.33 1.77 1.68 2.3l.15 9.48-1.68.15-.15 1.07 1.68 1.38-.15 5.35-1.88 2.44-.04 1.53 1.61.46-.76 41.9-2.92 3.66v5.3l-.88-6.66-.05-.04 2.64-3.01.61-40.29-1.53-.15.3-1.52-29.02.6.6.92 1.07.3v24.14l-.94-11.86.18-11.5-1.07-.31-1.53-1.53-26.13-.3-.3 2.6-.62 1.51-.15 38.46 1.53.76.15 2.9-1.07.91-.07 1.34-.85.72-.46-2.43.01-.4 1.08-.6.15-1.7-1.68-.6v-40.36l.6-.62-.15-2.3.77-.6.77-1.68-11.33-.34-.04 1-1.12 1.12-.3 44.24-1.44.17.63-44.83 1.25-.98.04-.75-58.36-1.75-.13 1.94-2.1 1.54-.36 51.8-1.5.18.74-52.4 2.24-1.4.13-1.69-15.34-.45-.91 55.04 1.22 1.99.52 1.42-1.28 7.33v-4.43l.07-2.44-.34-.44-.04-.22-1.23-1.83.62-65.75 2.14-1.84v-1.38l-1.38-.15-27.41-.91-19.9-11.16-21.04 9.49-38.09-.88v1.62l.96 2.7-.05 32.1-.95 16.54-.5-48.5-1.35-1.86-.1-2.43-20.47 3.29-1.38.15v1.38l2.14 1.83.61 65.75-1.22 1.83-.04.23-.35.44.08 2.43v4.43l-1.29-7.32.52-1.43 1.23-1.99-.92-55.04-15.33.46-.98.03-58.36 1.74.03.75 1.26.99.14 15.14-.82-.9-.44-13.82-1.11-1.13-.04-1-11.33.34.77 1.68.76.61-.15 2.3.61.61v40.37l-1.68.6.15 1.69 1.07.61.02.4-.46 2.43-.85-.72-.07-1.34-1.07-.92.15-2.9 1.53-.76-.15-38.45-.62-1.52-.3-2.6-26.13.3-1.53 1.53-1.07.3.18 11.51-.94 11.86V197l1.06-.3.62-.92H238l.3 1.52-1.52.15.61 24.54 2.64 3.02-.05.03-.88 6.66v-5.29l-2.91-3.67-.77-26.15 1.6-.46-.02-1.53-1.89-2.45-.15-21.09 1.69-1.38-.16-1.06-1.68-.16.15-9.48c1.35-.53 1.61-1.11 1.69-2.3l-.36-1.05-1.64-.12v-4.48l-.68-.57.06-4.05-1.37 1.4a4.06 4.06 0 0 1-1.68-1.98l-.16-4.89.77-.3v-1.69l-.77-.91-.3-3.22-.77 3.37-1.07.3-1.38-.45-.3-9.48.45-1.69-.46-1.68-.6-.76c-.4-3.7-2.3-5.43-4.76-7.19l-.76-1.84-.89-5.35-.64 5.25-.93 2.07c-3.17 1.54-4.55 3.76-5.05 7.67l-.92.91-.15 2 .57 1.4-.32 7.7-2.24.68-.76-.3-.62-3.53-.76 3.22-1.23 1.22-.15 1.83.76.77-.08 4.94c-.03 1.44-.81 2.03-2.21 1.63l-.46-1.83-1.07 4.43-.77.61v3.67l-.77.62v1.83l.77.92v1.99l-.15 7.49-.42.27 2.75 1.29 3 .07v-9.44h2.44v2.2l-.7.62v5.4l.66 1.29 5.02.13v-9.6H218v2.2l-.71.62v5.4l.7 1.38h-2.4l6.55.18v-9.54h2.45v2.2l-.71.62v5.4l.7 1.38h-.03l4.07.1v-9.27h2.44v2.2l-.7.62v5.4l.56 1.11 3.68.1-.4.55-27.01-.36.09.04-.27 1.2-3.68.03v7.29l23.25.18-2.82.63-20.44-.18-.02 16.08 4.68.08V183.1H211v3.14l-.82 1.45v5.84l.67 1.64 4.43.08V183.1h3.01v3.15l-.81 1.44v5.85l.71 1.76 4.12.08V183.1h3.02v3.15l-.82 1.44v5.85l.77 1.89 3.76.06V183.1h3.02v3.15l-.82 1.44v5.85l.81 2.01h-2.43l-5.7.51-20.53-.08-.05-.2v.2l-.04-.1v17.88l-.2 41.7c-1.44-7.47-2.08-15-2.41-22.57V173l1.75-.6.3-1.45-57.83-1.21.47 49.1-1.78-43.39v-25.67l.3-2.13v-3.02l-4.17-3.8-8.81-19.6-.24-2.14-2.02-3.35-.84-4.87-1.03 4.97-1.74 2.56-.46 2.6-9.81 20.3-3.8 4.3v2.74l.76 2.57v29.85l-.42 10.36-1.03-40.37-.99-1.83-51.13 3.12-.38-2.2 14.91-26.07 1.52-.23-1.67-2.13-.53-2.04-.92 2.5-13.54 24.01-1.9 2.13-.31 4.86 1.6 2.96.07 3.61h6.22l3.04-1.53 6.2 4.98 35.9-.68-1.28.84-33.79.52 16.7 12.65.92.02 1.33-.36v-4.41l-2.13-.8v-1.65l4.34-.16v8.36l-6.6.1-1.23 4.54-2.4 1.1-2.05 16.92-.12-1.4-.22-18.16 1.6-.58.43-1.89L0 176.33v8.38l2.37 2.2-.69.68-1.68.52V270h691.29-.78c.24-2.6.5-4.8.75-6.77Zm-10.56-46.96 4.31-1.8-.02-14.79c0-3-2.04-3.7-2.96-1.93l-.06.16-.13.3c-.09.29-.15.6-.19.9 0 .09-.02.17-.03.26l-.92 3.06v-3.17c0-5.46 6.4-4.7 6.4 0V216l-6.4.27Zm-1.87-41.65v9.6h-2.44l.7-1.38v-5.4l-.7-.63v-2.2h2.44v.01Zm1.91-33.3-.4.94-11.05-.08-.4-.56 11.85-.3Zm-16.93 13.34 10.26-.33.54-.96v-3.87l-.71-1.66v-2.01h2.45v8.43l9.88-.3-.4.94-21.63.31-.4-.55h.01Zm16.05 6.28v-2.2h2.45v9.6h-2.45l.71-1.38v-5.4l-.71-.63v.01Zm-6.6 7.64.72-1.38v-5.4l-.71-.63v-2.2h2.45v9.6h-2.45l-.01.01Zm-6.47-6.97v-2.2h2.45v9.6h-2.45l.71-1.38v-5.4l-.7-.62h-.01Zm23 10.15-.4.95-29.21.4-.4-.56 30-.79h.01Zm-585.05-3.66v8.35l-2.21-5.86-2.14-.9v-1.66l4.34.06.01.01Zm15.22-34.9.68-.7 4.31.06v-6.13h4.34v1.66l-2.13.87v3.63l5.66.07 1.44.76-14.3-.23v.01Zm-4.8 11.16.6-.6 4.21.06v-8.17h4.35v1.66l-2.13.87v5.68l7.65.12v-7.93h4.35v1.65l-2.14.87v5.45l6.77.11 1.45.76-25.11-.53Zm-2.97 3.72 2.13 1.22 28.16.23-.69.76-28.15-.3-1.07-.53-.38-1.38Zm26.34 12.17v.87h-4.58v-8.36h4.34v1.65l-2.13.87v4.42l2.37.55Zm-8.84-.24v.87h-4.58v-8.36h4.34v1.66l-2.13.87v4.41l2.37.55Zm-9.32-.16v.87h-4.58v-8.35h4.34v1.65l-2.13.87v4.42l2.37.54Zm-.08 16.64h-1.92l-2.66-3.78v-4.58h4.35v1.66l-2.14.87v4.4l2.37.56v.87Zm9.32.15h-4.58v-8.35h4.34v1.65l-2.13.87v4.41l2.37.56v.86Zm8.84.24h-4.58v-8.36h4.34v1.66l-2.13.87v4.41l2.37.55v.87Zm3.88-10.94-28.16-.3-1.07-.53-.38-1.38 2.14 1.22 28.15.23-.69.76h.01Zm7.3 16.1-.89-2.91-1.18-1.28.01-1.1h2.06v5.29Zm7.3 0-2.05-1.96v-3.33h2.07l-.01 5.29h-.01Zm7.56-5.29v5.29h-1.1l-.96-1.75v-3.54h2.06Zm6.69 0-.01 5.29h-2.06v-5.29h2.07Zm7.85 5.29h-2.06l.01-5.29h2.06v5.29h-.01Zm8.54-5.29v5.29h-2.07l.01-5.29h2.06Zm8.53 5.13h-2.07l.01-5.28h2.06v5.28Zm17.55-55.71 11.84.31-.4.56-11.05.07-.4-.94h.01Zm-5.5 12.64 9.9.31v-8.44h2.44v2.02l-.71 1.66v3.87l.54.96 10.26.33-.4.55-21.63-.31-.4-.95Zm19.44 15.06h-2.44v-9.6h2.44v2.2l-.7.62v5.4l.7 1.38Zm-6.47-.44h-2.45v-9.6h2.45v2.2l-.7.63v5.4l.7 1.37Zm-6.6-.23h-2.44v-9.6h2.45v2.2l-.71.62v5.4l.7 1.38Zm20.09 4.21-.4.55-29.2-.4-.4-.94 30 .79Zm48.37 59.2-.01 4.3-.78-2.4-1.35-.98v-.04l.08-5.18h2.06v4.3Zm0-18.03v3.25l-.01 3.26h-2.06v-6.5l1.38-.01h.69Zm4.18 13.73v8.6h-2.07l.01-8.6h2.06Zm0-12.81v5.57h-2.07l.01-6.5 2.06-.01v.94Zm4.66 17.1v4.32h-2.07l.01-8.6h2.06v4.28Zm0-17.12v5.57h-2.07l.01-6.5 2.06-.02v.95Zm12.7.04v3.99l-3.52.1v-3.99l3.51-.1h.01Zm11.76-.16v8.88l-3.52.1v-8.88l1.17-.03 2.35-.07Zm9.31 14.46v7.77l-3.5-1.24v-6.43l3.5-.1Zm0-14.46v8.88l-3.5.1v-8.88l1.2-.03 2.3-.07Zm9.95 14.46v7.77l-3.51.1v-7.77l1.75-.05 1.76-.05Zm.16-15.01v8.87l-3.51.1v-8.87l3.5-.1h.01Zm5.17.1 3.51-.1v8.87l-3.51.1v-8.87Zm4.07 14.91v7.77l-3.52.1v-7.77l1.76-.05 1.76-.05Zm6.03-14.91 3.52-.1v8.87l-3.52.1v-8.87Zm3.83 14.91v6.36l-3.51 1.51v-7.77l1.76-.05 1.75-.05Zm9.4-15.01v8.87l-3.51.1v-8.87l3.5-.1h.01Zm10.26 8.75-3.5.1v-8.87l3.5-.1v8.88-.01ZM391.23 227v9.5l-3.87.16 2.1-1.1V230l-2.1-.87v-1.98l1.03-.04 2.84-.12v.01Zm0-7.84-3.87.16 1.98-1.72v-4.5l-1.98-.91v-2.38l3.87-.16v9.51Zm0-26.85v9.5l-3.87.16 1.42-1.1v-5.77l-1.42-.87v-1.76l3.87-.16Zm7.93 16.77v9.5l-3.24-.03 1.22-5.84-.6-.62-.62-.64v-2.4h.02l3.22.03Zm0-7.83-3.24-.03.99-6.1-.99-1.26v-2.15l3.24.03v9.51Zm15.08-1.09v-9.5l4.74-.35v9.5l-4.74.35Zm0 16.85V208l4.74-.13v3.08l-2.3 5-2.44 1.06Zm4.96 9.42-2.25 2.06-2.18 2.84v-6.87l4.43-.16v2.13Zm9.02-2.5-1 2.28-2.34 2.92v-4.99l3.34-.21Zm1.25-7.42-1.89 1.16-2.7.2v-9.68h4.59v8.32Zm.01-25.79v7.09l-2.18 2.5-2.4.07v-9.5l4.59-.16h-.01Zm11.27 34.22v6.58l-2.5-.47-2.09-1.64v-4.47h4.6-.01Zm0-7.07h-4.59v-9.68h4.6v9.68h-.01Zm0-26.67v9.68h-4.59v-9.68h4.6-.01Zm22.98-19.54c.77.03 1.53.22 2.22.58a8.35 8.35 0 0 1 2.64 2.53l-10.24-.46c1.1-1.41 3.38-2.73 5.38-2.65Zm-11.4 53.04v7.07l-4.6 2.6v-9.68h4.6v.01Zm0-7.07h-4.6v-9.69h4.6v9.69Zm0-17h-4.6v-9.68h4.6v9.68Zm11.57 24.56v7.2l-1.94 2.48h-2.65v-9.68h4.59Zm-4.7-24.4v-9.52l4.43.16v9.5h-.05l-4.38-.14Zm4.7 17.33h-4.59v-9.68h4.59v9.68Zm11.58 17h-4.6v-9.68h4.6v9.68Zm0-16.75h-4.6v-9.68h4.6v9.68Zm.07-17.1-4.58-.15v-9.5l4.58.15v9.5Zm2.27-23.27c-.38 0-.8-.03-1.24-.05l-27.4-.94-3.08-1.34 2.6-.4 29.3 1.1 2.37.08c-.6 1.38-1.42 1.57-2.55 1.55Zm3.66 23.28v-9.5l4.73.34v9.5l-4.73-.34Zm.07 7.41h4.59v9.68h-4.59v-9.68Zm4.96 27.05h-4.59v-9.68h4.6v9.68h-.01Zm10-8.4v9l-2.44-1.07-2.3-4.99v-3.08l4.74.13v.01Zm.68-17.57v2.4l-1.22 1.25 1.22 5.85-4.74.03v-9.5l2.37-.02 2.37-.01Zm0-15.2-.98 1.26.98 6.1-4.74.03v-9.5l4.74-.04v2.16-.01Zm10.4 32.58v1.98l-2.09.87v5.57l2.1 1.09-4.44-.16V227l3.29.11 1.15.04h-.01Zm0-14.96-1.97.9v4.51l1.98 1.72-4.44-.16v-9.5l4.44.15v2.38h-.01Zm0-19.72v1.76l-1.41.87v5.76l1.42 1.11-4.44-.15v-9.51l4.44.16h-.01Zm12.06 9.1-3.51-.1v-4l3.51.11v3.99Zm14.05-2.65v3.99l-3.51-.1v-4l3.51.11Zm9.4 12.69v7.77l-3.51-1.51v-6.36l3.5.1h.01Zm.31-12.69v3.99l-3.5-.1v-4l3.5.11Zm9.56 12.69v7.77l-3.52-.1v-7.77l3.52.1Zm.55-12.69v3.99l-3.51-.1v-4l3.5.11h.01Zm5.17-.1 3.51.1v3.99l-3.51-.1v-4 .01Zm3.67 12.79v7.77l-3.51-.1v-7.77l3.51.1Zm.14 22.6-3.52-3.66-.13-1.86 3.51.1.14 5.42Zm9.8 2.36-3.5-.1v-7.78l3.5.1v7.78Zm0-24.96v7.77l-3.5-.1v-7.77l3.5.1Zm0-12.14v3.99l-3.5-.1v-4l3.5.11Zm9.32 0v3.99l-3.51-.1v-4l.13.01 3.38.1Zm11.77 4.15-3.52-.1v-4l3.52.11v3.99Zm18.02-5.03h2.06v6.52l-2.05-.01-.01-3.27 1.3-1.46v-.77l-1.3-.07v-.94Zm-8.83 22.34-.01-4.32 1.3-1.93v-1.03l-.83-.05-.47-.03v-1.25h2.06v8.6h-2.05v.01Zm0-15.88-.01-3.26 1.3-1.46v-.78l-1.3-.06v-.95l2.03.01h.03v6.51h-2.05v-.01Zm6.72 15.88h-2.06l-.01-4.32 1.3-1.93v-1.03l-.87-.05-.43-.03v-1.25h2.05l.02 8.6v.01Zm0-15.84-2.06-.01-.01-3.27 1.3-1.46v-.77l-1.3-.07v-.94h2.05l.02 6.52Zm4.25 12.45-1.35.98-.78 2.4v-4.3l1.3-1.94v-1.03l-1.31-.08v-1.25h2.06l.08 5.22Zm47.5-1.13 4.64-2 .06-14.25-.01-.18c-.06-1.97-1.13-2.8-2.13-2.63-.8.13-1.55.9-1.67 2.22l-.9 8.45v-8.75c0-4.8 6-4.7 6 0v17l-6 .14h.01Z"/><path d="m673.3 168.56.71-1.38-.7 1.38h-.01ZM679.86 160.94l.71.62-.71-.63v.01Zm-72.2 52.64.87.06-.87-.05v-.01Zm59.38 2.68-6 .14 6-.13v-.01Zm19.19-62.31-9.88.31 9.88-.3v-.01Zm-20.5 46.02.02.18-.01-.18h-.01Zm-58.5-1.41h2.05l.02 6.52-.02-6.51-2.05-.01Zm74.8-.81c.92-1.76 2.95-1.07 2.96 1.93-.01-3-2.04-3.7-2.96-1.93Zm-103.92 1.61v3.99l3.51.1-3.5-.1v-3.99h-.01Zm98.63-22.7v.94-.95.01Zm-86.86 22.86v3.99-4 .01Zm-17.57-.06-3.51-.1 3.5.1h.01Zm109.31-.09c0-.1.02-.17.03-.26 0 .09-.02.17-.03.26Zm-189.85 30.9 2.3 5 2.44 1.05-2.44-1.06-2.3-4.99Zm11.4-37.97v9.5l4.43.16-4.44-.15v-9.5l.01-.01Zm-211.35 6.23-2.06.01v6.51-6.5l2.06-.02Zm267.02 12.97v7.77l3.52.1-3.51-.1v-7.77h-.01Zm-438.7-57.48-2.13.87 2.14-.87h-.01Zm201.95 66.33v-6.43l3.51-.1-3.5.1v6.43h-.01Zm-9.31-20.89 1.17-.03-1.18.03h.01Zm230.63-.55-3.51-.1 3.5.1h.01Zm-63.03-22.46c-.6 1.37-1.42 1.56-2.55 1.54 1.13.02 1.94-.17 2.55-1.54Zm-264.81-7.38h.02-.03.01Zm-10.96-12.45 30 .8v-.01l-30-.79Zm-57.03 21.23 1.17 1.28-1.18-1.28h.01ZM143 165.18l-.69.76.7-.76-28.16-.23 28.15.23Zm139.97 51.42v-4.29 4.3-.01Zm-128.1-36.52v-3.33h2.07l-.01 5.29v-5.29h-2.05l-.01 3.33Zm348.28 39.07v-9.5l4.44.15-4.44-.16v9.51Zm-334.04-37.12v-5.29h2.07-2.06l-.01 5.29Zm-6.68-1.75v-3.54h2.06-2.05l-.01 3.54Zm65.17-33.82-.72.62v5.4l.72 1.38-.71-1.38v-5.4l.7-.62h.01Zm-42.1 35.57.01-5.29v5.29h-.01Zm320.12 31.05 1.98-.91-1.98.9v.01Zm-311.57-36.49-.02 5.28.01-5.28h.01Zm230.85 23.78 2.4-.09 2.19-2.49-2.2 2.5-2.39.07v.01Zm-143.99 4.72 2.06-.01h-2.06v.01Zm-153.67-34.28 2.13-.88-2.13.87v.01Zm268.68 30.38 3.24.04-3.24-.03v-.01Zm28.96 22.93 3.34-.2v-.01l-3.34.21Zm133.97 4.55 3.5.1.15 5.42-.14-5.42-3.51-.1ZM364.2 198.8l-3.51.1 3.5-.1h.01Zm-250.56-48.83 28.15.3.69-.75-.69.76-28.15-.3v-.01Zm26.63-5.09-25.1-.53h-.01l25.11.53Zm230.68 62.77v-8.87l3.51-.1-3.5.1v8.88l-.01-.01Zm-243.79-75.07v-3.63l2.13-.87-2.13.86v3.64Zm217.78 81.24-1.76.04 1.76-.05v.01Zm71.73 2.1-2.44 1.07 2.45-1.07h-.01Zm0 0 2.3-4.99-2.3 5v-.01Zm-80.98-17.12-3.51.1 3.5-.1h.01Zm116.62 18.81h-4.58 4.59v-9.68 9.67l-.01.01ZM690.5 270h.78l-.03-6.77c-.29 2.25-.54 4.5-.75 6.77Z"/></g><defs><clipPath id="a"><path fill="#fff" d="M0 0h800v270H0z"/></clipPath></defs></svg>