<?xml version="1.0" encoding="utf-8"?>
<!-- Generator: Adobe Illustrator 21.0.0, SVG Export Plug-In . SVG Version: 6.00 Build 0)  -->
<svg version="1.1" id="Слой_1" xmlns="http://www.w3.org/2000/svg" xmlns:xlink="http://www.w3.org/1999/xlink" x="0px" y="0px"
	 viewBox="0 0 454.1 141.7" style="enable-background:new 0 0 454.1 141.7;" xml:space="preserve">
<style type="text/css">
	.st0{fill:#FFFFFF;}
	.st1{clip-path:url(#SVGID_2_);}
	.st2{clip-path:url(#SVGID_2_);fill:#FFFFFF;}
	.st3{fill:none;}
</style>
<g>
	<path id="snowflake_3_" class="st0" d="M38.8,68.7l-4,1.1l-1.2-0.7l3.1-0.8l-0.2-0.9l-3.9,1.1l-1-0.6l2.3-0.6l-0.2-0.9l-3.1,0.8
		l-1.2-0.7l0.6-1l0,0v-0.4l-0.6-1l1.2-0.7l3.1,0.8l0.2-0.9l-2.3-0.6l1-0.6l3.9,1.1l0.2-0.9l-3.1-0.8l1.2-0.7l4,1.1l0.2-0.9l-3.2-0.9
		l2.1-1.2l0,0l-0.4-0.8l-2.1,1.2l0.8-3.2l0,0l-0.9-0.2l-1.1,4l-1.2,0.7l0.8-3l0,0L33,57.6L32,61.5l-1,0.6l0.6-2.2l0,0l-0.9-0.2
		l-0.8,3.1l-1.2,0.7l-0.6-1l0,0l-0.4-0.2h-1.1v-1.3l2.3-2.3l-0.6-0.6l-1.7,1.7v-1.2l2.9-2.9l-0.6-0.6l-2.2,2.2v-1.4l3-3l-0.6-0.6
		l-2.3,2.3V52h-0.9v2.4l-2.3-2.3l-0.6,0.6l3,3v1.4l-2.2-2.2l-0.6,0.6l2.9,2.9v1.2L24,57.9l-0.6,0.6l2.3,2.3v1.3h-1.2l-0.4,0.2
		l-0.6,1l-1.1-0.7l-0.8-3.1l-0.9,0.2l0.6,2.3l-1-0.6l-1.1-3.9l-0.9,0.2l0.8,3.1L18,60.1l-1.1-4l0,0l-0.9,0.2l0.9,3.2l-2.1-1.2l0,0
		l-0.4,0.8l2.1,1.2l-3.2,0.9l0.2,0.9l4-1.1l1.2,0.7l-3.1,0.8l0.2,0.9l3.9-1.1l1,0.6l-2.3,0.6l0.2,0.9l3.1-0.8l1.1,0.7l-0.6,1l0,0
		v0.4l0.6,1L22,67.2l-3.1-0.8l-0.2,0.9l2.3,0.6l-1,0.6l-3.9-1.1l-0.2,0.9l3.1,0.8l-1.2,0.7l-4-1.1l-0.2,0.9l3.2,0.9l-2.1,1.2l0,0
		l0.4,0.8l2.1-1.2l-0.8,3.2l0,0l0.9,0.2l1.1-4l1.2-0.7l-0.8,3l0,0l0.9,0.2l1.1-3.9l1-0.6l-0.6,2.2l0,0l0.9,0.2l0.8-3.1l1.1-0.7
		l0.6,1l0,0l0.4,0.2h1.2v1.3l-2.3,2.3l0.6,0.6l1.7-1.7v1.2l-2.9,2.9l0.6,0.6l2.2-2.2V75l-3,3l0.6,0.6l2.3-2.3v2.4h0.9v-2.4l2.3,2.3
		l0.6-0.6l-3-3v-1.4l2.2,2.2l0.6-0.6l-2.9-2.9v-1.2l1.7,1.7l0.6-0.6l-2.3-2.3v-1.3h1.2l0.4-0.2l0.6-1l1.2,0.7l0.8,3.1l0.9-0.2
		l-0.6-2.3l1,0.6l1.1,3.9l0.9-0.2L33,69.9l1.2,0.7l1.1,4l0,0l0.9-0.2l-0.9-3.2l2.1,1.2l0,0l0.4-0.8l-2.1-1.2l3.2-0.9L38.8,68.7z
		 M28.8,65.4l-1.3,2.3h-2.7l-1.3-2.3l1.3-2.3h2.7L28.8,65.4z"/>
	<path id="snowflake_2_" class="st0" d="M352.3,77.9l-3.7,1l-1.1-0.6l2.8-0.8l-0.2-0.8l-3.6,1l-1-0.5l2.1-0.6l-0.2-0.8l-2.9,0.8
		l-1.1-0.6l0.5-0.9l0,0v-0.4l-0.5-0.9l1.1-0.6l2.9,0.8l0.2-0.8l-2.1-0.6l1-0.5l3.6,1l0.2-0.8l-2.8-0.8l1.1-0.6l3.7,1l0.2-0.8
		l-2.9-0.8l1.9-1.1l0,0l-0.4-0.7l-2,1.1l0.8-2.9l0,0l-0.8-0.2l-1,3.7l-1.1,0.6l0.7-2.8l0,0l-0.8-0.2l-1,3.6l-1,0.5l0.6-2.1l0,0
		l-0.8-0.2l-0.8,2.9l-1.1,0.6l-0.5-0.9l0,0l-0.3-0.2h-1.1v-1.2l2.1-2.1l-0.6-0.6l-1.5,1.5v-1.1l2.6-2.6l-0.6-0.6l-2.1,2.1v-1.3
		l2.7-2.7l-0.6-0.6l-2.2,2.2v-2.3h-0.8v2.3l-2.2-2.2l-0.6,0.6l2.7,2.7v1.3l-2.1-2.1l-0.6,0.6l2.6,2.6v1.1l-1.5-1.5l-0.6,0.6l2.1,2.1
		v1.2h-1.1l-0.3,0.2l-0.5,0.9l-1.1-0.6l-0.8-2.9l-0.8,0.2l0.6,2.1l-1-0.5l-1-3.6l-0.8,0.2l0.8,2.8l-1.1-0.6l-1-3.7l0,0l-0.8,0.2
		l0.8,2.9l-1.9-1.1l0,0l-0.4,0.7l2,1.1l-2.9,0.8l0.2,0.8l3.7-1l1.1,0.6l-2.8,0.8l0.2,0.8l3.6-1l1,0.5l-2.1,0.6l0.2,0.8l2.9-0.8
		l1.1,0.6l-0.5,0.9l0,0V75l0.5,0.9l-1,0.6l-2.9-0.8l-0.2,0.8l2.1,0.6l-1,0.5l-3.6-1l-0.2,0.8l2.8,0.8l-1.1,0.6l-3.7-1l-0.2,0.8
		l2.9,0.8l-1.9,1.1l0,0l0.4,0.7l2-1.1l-0.8,2.9l0,0l0.8,0.2l1-3.7l1.1-0.6l-0.7,2.8l0,0l0.8,0.2l1-3.6l1-0.5l-0.6,2.1l0,0l0.8,0.2
		l0.8-2.9l1-0.6l0.5,0.9l0,0l0.3,0.2h1.1v1.2l-2.1,2.1l0.6,0.6l1.5-1.5v1.1l-2.6,2.6l0.6,0.6l2.1-2.1v1.3l-2.7,2.7l0.6,0.6l2.2-2.2
		v2.3h0.8v-2.3l2.2,2.2l0.6-0.6l-2.7-2.7v-1.3l2.1,2.1l0.6-0.6l-2.6-2.6v-1.1l1.5,1.5l0.6-0.6l-2.1-2.1v-1.2h1.1l0.3-0.2l0.5-0.9
		l1.1,0.6l0.8,2.9l0.8-0.2l-0.6-2.1l1,0.5l1,3.6l0.8-0.2l-0.8-2.8l1.1,0.6l1,3.7l0,0l0.8-0.2l-0.8-2.9l1.9,1.1l0,0l0.4-0.7l-2-1.1
		l2.9-0.8L352.3,77.9z M343.1,74.8l-1.2,2.1h-2.5l-1.2-2.1l1.2-2.1h2.5L343.1,74.8z"/>
	<path class="st0" d="M440.9,67.1l-2.8,1.7c0,0,0,0,0,0l-1-0.4l1.9-1.2c0.1-0.1,0.2-0.2,0.1-0.4c-0.1-0.1-0.2-0.2-0.4-0.1l-2.2,1.4
		l-0.8-0.3l1-0.6c0.1-0.1,0.2-0.2,0.1-0.4c-0.1-0.1-0.2-0.2-0.4-0.1l-1.3,0.8l-2.7-1l2.7-1l1.3,0.8c0,0,0.1,0,0.1,0
		c0.1,0,0.2,0,0.2-0.1c0.1-0.1,0-0.3-0.1-0.4l-1-0.6l0.8-0.3l2.2,1.4c0,0,0.1,0,0.1,0c0.1,0,0.2,0,0.2-0.1c0.1-0.1,0-0.3-0.1-0.4
		l-1.9-1.2l1-0.4c0,0,0,0,0,0l2.8,1.7c0,0,0.1,0,0.1,0c0.1,0,0.2,0,0.2-0.1c0.1-0.1,0-0.3-0.1-0.4l-2.8-1.7l0.8-3.4
		c0-0.1-0.1-0.3-0.2-0.3c-0.1,0-0.3,0.1-0.3,0.2l-0.8,3.5l-0.9,0.3l0.5-2.2c0-0.1-0.1-0.3-0.2-0.3c-0.1,0-0.3,0.1-0.3,0.2l-0.6,2.6
		l-0.9,0.3l0.2-1.2c0-0.1-0.1-0.3-0.2-0.3c-0.1,0-0.3,0.1-0.3,0.2l-0.3,1.6l-2.9,1.1l1.1-2.9l1.6-0.3c0.1,0,0.2-0.2,0.2-0.3
		c0-0.1-0.2-0.2-0.3-0.2l-1.2,0.2l0.3-0.9l2.6-0.6c0.1,0,0.2-0.2,0.2-0.3c0-0.1-0.2-0.2-0.3-0.2l-2.2,0.5l0.3-0.9l3.5-0.8
		c0.1,0,0.2-0.2,0.2-0.3c0-0.1-0.2-0.2-0.3-0.2l-3.4,0.8l-1.7-2.8c-0.1-0.1-0.2-0.2-0.4-0.1c-0.1,0.1-0.2,0.2-0.1,0.4l1.7,2.8
		c0,0,0,0,0,0l-0.4,1l-1.2-1.9c-0.1-0.1-0.2-0.2-0.4-0.1c-0.1,0.1-0.2,0.2-0.1,0.4l1.4,2.2l-0.3,0.8l-0.6-1
		c-0.1-0.1-0.2-0.2-0.4-0.1c-0.1,0.1-0.2,0.2-0.1,0.4l0.8,1.3l-1,2.7l-1-2.7l0.8-1.3c0.1-0.1,0-0.3-0.1-0.4c-0.1-0.1-0.3,0-0.4,0.1
		l-0.6,1l-0.3-0.8l1.4-2.2c0.1-0.1,0-0.3-0.1-0.4c-0.1-0.1-0.3,0-0.4,0.1l-1.2,1.9l-0.4-1c0,0,0,0,0,0l1.7-2.8
		c0.1-0.1,0-0.3-0.1-0.4c-0.1-0.1-0.3,0-0.4,0.1l-1.7,2.8l-3.4-0.8c-0.1,0-0.3,0.1-0.3,0.2c0,0.1,0.1,0.3,0.2,0.3l3.5,0.8l0.3,0.9
		l-2.2-0.5c-0.1,0-0.3,0.1-0.3,0.2c0,0.1,0.1,0.3,0.2,0.3l2.6,0.6l0.3,0.9l-1.2-0.2c-0.1,0-0.3,0.1-0.3,0.2c0,0.1,0.1,0.3,0.2,0.3
		l1.6,0.3l1.1,2.9l-2.9-1.1l-0.3-1.6c0-0.1-0.2-0.2-0.3-0.2c-0.1,0-0.2,0.2-0.2,0.3l0.2,1.2l-0.9-0.3l-0.6-2.6
		c0-0.1-0.2-0.2-0.3-0.2c-0.1,0-0.2,0.2-0.2,0.3l0.5,2.2l-0.9-0.3l-0.8-3.5c0-0.1-0.2-0.2-0.3-0.2c-0.1,0-0.2,0.2-0.2,0.3l0.8,3.4
		l-2.8,1.7c-0.1,0.1-0.2,0.2-0.1,0.4c0,0.1,0.1,0.1,0.2,0.1c0,0,0.1,0,0.1,0l2.8-1.7c0,0,0,0,0,0l1,0.4l-1.9,1.2
		c-0.1,0.1-0.2,0.2-0.1,0.4c0.1,0.1,0.1,0.1,0.2,0.1c0,0,0.1,0,0.1,0l2.2-1.4l0.8,0.3l-1,0.6c-0.1,0.1-0.2,0.2-0.1,0.4
		c0.1,0.1,0.1,0.1,0.2,0.1c0,0,0.1,0,0.1,0l1.3-0.8l2.7,1l-2.7,1l-1.3-0.8c-0.1-0.1-0.3,0-0.4,0.1c-0.1,0.1,0,0.3,0.1,0.4l1,0.6
		l-0.8,0.3l-2.2-1.4c-0.1-0.1-0.3,0-0.4,0.1c-0.1,0.1,0,0.3,0.1,0.4l1.9,1.2l-1,0.4c0,0,0,0,0,0l-2.8-1.7c-0.1-0.1-0.3,0-0.4,0.1
		c-0.1,0.1,0,0.3,0.1,0.4l2.8,1.7l-0.8,3.4c0,0.1,0.1,0.3,0.2,0.3c0,0,0,0,0.1,0c0.1,0,0.2-0.1,0.3-0.2l0.8-3.5l0.9-0.3l-0.5,2.2
		c0,0.1,0.1,0.3,0.2,0.3c0,0,0,0,0.1,0c0.1,0,0.2-0.1,0.3-0.2l0.6-2.6l0.9-0.3l-0.2,1.2c0,0.1,0.1,0.3,0.2,0.3c0,0,0,0,0,0
		c0.1,0,0.2-0.1,0.3-0.2l0.3-1.6l2.9-1.1l-1.1,2.9l-1.6,0.3c-0.1,0-0.2,0.2-0.2,0.3c0,0.1,0.2,0.2,0.3,0.2l1.2-0.2l-0.3,0.9
		l-2.6,0.6c-0.1,0-0.2,0.2-0.2,0.3c0,0.1,0.2,0.2,0.3,0.2l2.2-0.5l-0.3,0.9l-3.5,0.8c-0.1,0-0.2,0.2-0.2,0.3c0,0.1,0.2,0.2,0.3,0.2
		l3.4-0.8l1.7,2.8c0,0.1,0.1,0.1,0.2,0.1c0,0,0.1,0,0.1,0c0.1-0.1,0.2-0.2,0.1-0.4l-1.7-2.8c0,0,0,0,0,0l0.4-1L431,74
		c0.1,0.1,0.1,0.1,0.2,0.1c0,0,0.1,0,0.1,0c0.1-0.1,0.2-0.2,0.1-0.4l-1.4-2.2l0.3-0.8l0.6,1c0.1,0.1,0.1,0.1,0.2,0.1
		c0,0,0.1,0,0.1,0c0.1-0.1,0.2-0.2,0.1-0.4l-0.8-1.3l1-2.7l1,2.7l-0.8,1.3c-0.1,0.1,0,0.3,0.1,0.4c0,0,0.1,0,0.1,0
		c0.1,0,0.2,0,0.2-0.1l0.6-1l0.3,0.8l-1.4,2.2c-0.1,0.1,0,0.3,0.1,0.4c0,0,0.1,0,0.1,0c0.1,0,0.2,0,0.2-0.1l1.2-1.9l0.4,1
		c0,0,0,0,0,0l-1.7,2.8c-0.1,0.1,0,0.3,0.1,0.4c0,0,0.1,0,0.1,0c0.1,0,0.2,0,0.2-0.1l1.7-2.8l3.4,0.8c0.1,0,0.3-0.1,0.3-0.2
		c0-0.1-0.1-0.3-0.2-0.3l-3.5-0.8l-0.3-0.9l2.2,0.5c0.1,0,0.3-0.1,0.3-0.2c0-0.1-0.1-0.3-0.2-0.3l-2.6-0.6l-0.3-0.9l1.2,0.2
		c0.1,0,0.3-0.1,0.3-0.2c0-0.1-0.1-0.3-0.2-0.3l-1.6-0.3l-1.1-2.9l2.9,1.1l0.3,1.6c0,0.1,0.1,0.2,0.3,0.2c0,0,0,0,0,0
		c0.1,0,0.2-0.2,0.2-0.3l-0.2-1.2l0.9,0.3l0.6,2.6c0,0.1,0.1,0.2,0.3,0.2c0,0,0,0,0.1,0c0.1,0,0.2-0.2,0.2-0.3l-0.5-2.2l0.9,0.3
		l0.8,3.5c0,0.1,0.1,0.2,0.3,0.2c0,0,0,0,0.1,0c0.1,0,0.2-0.2,0.2-0.3l-0.8-3.4l2.8-1.7c0.1-0.1,0.2-0.2,0.1-0.4
		C441.2,67,441,67,440.9,67.1z"/>
	<path id="snowflake_4_" class="st0" d="M404.5,89.8h-2.3l1.3-1.3l-0.6-0.6l-1.9,1.9h-2.1l2.7-2.7l-0.6-0.6l-3.3,3.3h-1.6l1.1-1.1h0
		v0l1.8-1.8h0.1v-0.1l0.2-0.2l-0.2-0.2V86h-0.3l-0.1-0.1l-0.1,0.1h-2.6l0,0l0,0h-1.6l1.1-1.1h4.7V84h-3.9l1.5-1.5h2.6v-0.8h-1.8
		l1.7-1.7l-0.6-0.6l-1.7,1.7v-1.8h-0.8V82l-1.5,1.5v-3.9h-0.8v4.7l-1.1,1.1v-1.6l0,0l0,0v-2.6l0.1-0.1l-0.1-0.1v-0.3h-0.3l-0.2-0.2
		l-0.2,0.2h-0.1v0.1l-1.8,1.8h0v0l-1.1,1.1v-1.6l3.3-3.3l-0.6-0.6l-2.7,2.7V79l1.9-1.9l-0.6-0.6l-1.3,1.3v-2.3h-0.8v2.3l-1.3-1.3
		l-0.6,0.6l1.9,1.9v2.1l-2.7-2.7l-0.6,0.6l3.3,3.3v1.6l-1.1-1.1v0h0l-1.8-1.8v-0.1h-0.1l-0.2-0.2l-0.2,0.2h-0.3v0.3l-0.1,0.1
		l0.1,0.1v2.6l0,0l0,0v1.6l-1.1-1.1v-4.7h-0.8v3.9l-1.5-1.5v-2.6h-0.8v1.8l-1.7-1.7l-0.6,0.6l1.7,1.7h-1.8v0.8h2.6l1.5,1.5h-3.9v0.8
		h4.7l1.1,1.1h-1.6l0,0l0,0h-2.6l-0.1-0.1l-0.1,0.1h-0.3v0.3l-0.2,0.2l0.2,0.2v0.1h0.1l1.8,1.8v0h0l1.1,1.1h-1.6l-3.3-3.3l-0.6,0.6
		l2.7,2.7h-2.1l-1.9-1.9l-0.6,0.6l1.3,1.3H375v0.8h2.3l-1.3,1.3l0.6,0.6l1.9-1.9h2.1l-2.7,2.7l0.6,0.6l3.3-3.3h1.6l-1.1,1.1h0v0
		l-1.8,1.8h-0.1v0.1l-0.2,0.2l0.2,0.2v0.3h0.3l0.1,0.1l0.1-0.1h2.6l0,0l0,0h1.6l-1.1,1.1h-4.7v0.8h3.9l-1.5,1.5h-2.6v0.8h1.8
		l-1.7,1.7l0.6,0.6l1.7-1.7v1.8h0.8v-2.6l1.5-1.5v3.9h0.8v-4.7l1.1-1.1v1.6l0,0l0,0v2.6l-0.1,0.1l0.1,0.1v0.3h0.3l0.2,0.2l0.2-0.2
		h0.1v-0.1l1.8-1.8h0v0l1.1-1.1v1.6l-3.3,3.3l0.6,0.6l2.7-2.7v2.1l-1.9,1.9l0.6,0.6l1.3-1.3v2.3h0.8v-2.3l1.3,1.3l0.6-0.6l-1.9-1.9
		v-2.1l2.7,2.7l0.6-0.6l-3.3-3.3v-1.6l1.1,1.1v0h0l1.8,1.8v0.1h0.1l0.2,0.2l0.2-0.2h0.3v-0.3l0.1-0.1l-0.1-0.1v-2.6l0,0l0,0V95
		l1.1,1.1v4.7h0.8v-3.9l1.5,1.5v2.6h0.8v-1.8l1.7,1.7l0.6-0.6l-1.7-1.7h1.8v-0.8H398l-1.5-1.5h3.9v-0.8h-4.7l-1.1-1.1h1.6l0,0l0,0
		h2.6l0.1,0.1l0.1-0.1h0.3v-0.3l0.2-0.2l-0.2-0.2v-0.1h-0.1l-1.8-1.8v0h0l-1.1-1.1h1.6l3.3,3.3l0.6-0.6l-2.7-2.7h2.1l1.9,1.9
		l0.6-0.6l-1.3-1.3h2.3V89.8z M391.3,91.2l-0.6,0.6l0.5,0.5v1.6l-1.1-1.1V92h-0.8v0.8l-1.1,1.1v-1.6l0.5-0.5l-0.6-0.6l-0.5,0.5h-1.6
		l1.1-1.1h0.8v-0.8h-0.8l-1.1-1.1h1.6l0.5,0.5l0.6-0.6l-0.5-0.5v-1.6l1.1,1.1v0.8h0.8v-0.8l1.1-1.1v1.6l-0.5,0.5l0.6,0.6l0.5-0.5
		h1.6l-1.1,1.1h-0.8v0.8h0.8l1.1,1.1h-1.6L391.3,91.2z M393.5,89.8l1.1-1.1h1.5l-1.1,1.1H393.5z M395.4,87.8l1-1h1.5l-1,1H395.4z
		 M394.2,87.8h-1.6l1-1h1.6L394.2,87.8z M392.1,87.3v-1.6l1-1v1.6L392.1,87.3z M392.1,84.5v-1.5l1-1v1.5L392.1,84.5z M391.3,85.4
		l-1.1,1.1V85l1.1-1.1V85.4z M389.3,86.5l-1.1-1.1v-1.5l1.1,1.1V86.5z M387.4,84.5l-1-1V82l1,1V84.5z M387.4,85.7v1.6l-1-1v-1.6
		L387.4,85.7z M386.8,87.9h-1.6l-1-1h1.6L386.8,87.9z M384.1,87.9h-1.5l-1-1h1.5L384.1,87.9z M384.9,88.7l1.1,1.1h-1.5l-1.1-1.1
		H384.9z M386,90.6l-1.1,1.1h-1.5l1.1-1.1H386z M384.1,92.6l-1,1h-1.5l1-1H384.1z M385.3,92.6h1.6l-1,1h-1.6L385.3,92.6z
		 M387.4,93.2v1.6l-1,1v-1.6L387.4,93.2z M387.4,95.9v1.5l-1,1v-1.5L387.4,95.9z M388.2,95.1l1.1-1.1v1.5l-1.1,1.1V95.1z
		 M390.2,93.9l1.1,1.1v1.5l-1.1-1.1V93.9z M392.1,95.9l1,1v1.5l-1-1V95.9z M392.1,94.7v-1.6l1,1v1.6L392.1,94.7z M392.7,92.5h1.6
		l1,1h-1.6L392.7,92.5z M395.4,92.5h1.5l1,1h-1.5L395.4,92.5z M394.6,91.7l-1.1-1.1h1.5l1.1,1.1H394.6z"/>
	<g>
		<defs>
			<rect id="SVGID_1_" x="9.5" y="46.7" width="440" height="59.5"/>
		</defs>
		<clipPath id="SVGID_2_">
			<use xlink:href="#SVGID_1_"  style="overflow:visible;"/>
		</clipPath>
		<g class="st1">
			<path class="st0" d="M164.9,110.2l-3.3,1.4l-0.5-0.2l1.2-0.8c0.1-0.1,0.2-0.2,0.1-0.4c-0.1-0.1-0.2-0.2-0.4-0.1l-1.5,1l-3.5-1.4
				l1.6-1.1c0.1,0,0.1-0.1,0.1-0.2c0-0.1,0-0.2-0.1-0.2l-1.6-1.1l3.5-1.4l1.5,1c0,0,0.1,0,0.1,0c0.1,0,0.2,0,0.2-0.1
				c0.1-0.1,0-0.3-0.1-0.4l-1.2-0.8l0.5-0.2l3.3,1.4c0,0,0.1,0,0.1,0c0.1,0,0.2-0.1,0.2-0.2c0.1-0.1,0-0.3-0.1-0.3l-3.1-1.4
				c0,0,0,0,0-0.1c0,0,0,0-0.1-0.1l0.5-3.5c0-0.1-0.1-0.3-0.2-0.3c-0.1,0-0.3,0.1-0.3,0.2l-0.5,3.6l-0.6,0.2l0-1.3
				c0-0.1-0.1-0.3-0.2-0.3c-0.1,0-0.3,0.1-0.3,0.2l0,1.6l-3.4,1.4l0.4-2.1c0-0.1,0-0.2-0.1-0.2c-0.1-0.1-0.1-0.1-0.2-0.1l-2.1,0.4
				l1.4-3.4l1.6,0c0.1,0,0.3-0.1,0.2-0.3c0-0.1-0.1-0.3-0.3-0.2l-1.3,0l0.2-0.6l3.6-0.5c0.1,0,0.2-0.1,0.2-0.3
				c0-0.1-0.1-0.2-0.3-0.2l-3.5,0.5c0,0,0-0.1-0.1-0.1c0,0,0,0-0.1,0l-1.4-3.1c-0.1-0.1-0.2-0.2-0.3-0.1c-0.1,0.1-0.2,0.2-0.1,0.3
				l1.4,3.3l-0.2,0.5l-0.8-1.2c-0.1-0.1-0.2-0.1-0.4-0.1c-0.1,0.1-0.2,0.2-0.1,0.4l1,1.5l-1.4,3.5l-1.1-1.6c-0.1-0.1-0.3-0.1-0.4,0
				l-1.1,1.6l-1.4-3.5l1-1.5c0.1-0.1,0-0.3-0.1-0.4c-0.1-0.1-0.3,0-0.4,0.1l-0.8,1.2L150,100l1.4-3.3c0.1-0.1,0-0.3-0.1-0.3
				c-0.1-0.1-0.3,0-0.3,0.1l-1.4,3.1c0,0,0,0-0.1,0c0,0,0,0-0.1,0.1l-3.5-0.5c-0.1,0-0.3,0.1-0.3,0.2c0,0.1,0.1,0.3,0.2,0.3l3.6,0.5
				l0.2,0.6l-1.3,0c-0.1,0-0.3,0.1-0.3,0.2c0,0.1,0.1,0.3,0.2,0.3l1.6,0l1.4,3.4l-2.1-0.4c-0.1,0-0.2,0-0.2,0.1
				c-0.1,0.1-0.1,0.1-0.1,0.2l0.4,2.1l-3.4-1.4l0-1.6c0-0.1-0.1-0.2-0.3-0.2c0,0,0,0,0,0c-0.1,0-0.3,0.1-0.2,0.3l0,1.3l-0.6-0.2
				l-0.5-3.6c0-0.1-0.1-0.2-0.3-0.2c-0.1,0-0.2,0.1-0.2,0.3l0.5,3.5c0,0-0.1,0-0.1,0.1c0,0,0,0,0,0.1l-3.1,1.4
				c-0.1,0.1-0.2,0.2-0.1,0.3c0,0.1,0.1,0.2,0.2,0.2c0,0,0.1,0,0.1,0l3.3-1.4l0.5,0.2l-1.2,0.8c-0.1,0.1-0.2,0.2-0.1,0.4
				c0,0.1,0.1,0.1,0.2,0.1c0,0,0.1,0,0.1,0l1.5-1l3.5,1.4l-1.6,1.1c-0.1,0-0.1,0.1-0.1,0.2c0,0.1,0,0.2,0.1,0.2l1.6,1.1l-3.5,1.4
				l-1.5-1c-0.1-0.1-0.3,0-0.4,0.1c-0.1,0.1,0,0.3,0.1,0.4l1.2,0.8l-0.5,0.2l-3.3-1.4c-0.1-0.1-0.3,0-0.3,0.1
				c-0.1,0.1,0,0.3,0.1,0.3l3.1,1.4c0,0,0,0,0,0.1c0,0,0,0.1,0.1,0.1l-0.5,3.5c0,0.1,0.1,0.3,0.2,0.3c0,0,0,0,0,0
				c0.1,0,0.2-0.1,0.3-0.2l0.5-3.6l0.6-0.2l0,1.3c0,0.1,0.1,0.3,0.2,0.3c0,0,0,0,0,0c0.1,0,0.3-0.1,0.3-0.2l0-1.6l3.4-1.4l-0.4,2.1
				c0,0.1,0,0.2,0.1,0.2c0.1,0.1,0.1,0.1,0.2,0.1l2.1-0.4l-1.4,3.4l-1.6,0c-0.1,0-0.3,0.1-0.2,0.3c0,0.1,0.1,0.3,0.3,0.2l1.3,0
				l-0.2,0.6l-3.6,0.5c-0.1,0-0.2,0.1-0.2,0.3c0,0.1,0.1,0.2,0.3,0.2l3.5-0.5c0,0,0,0.1,0.1,0.1c0,0,0,0,0.1,0l1.4,3.1
				c0,0.1,0.1,0.2,0.2,0.2c0,0,0.1,0,0.1,0c0.1-0.1,0.2-0.2,0.1-0.3l-1.4-3.3l0.2-0.5l0.8,1.2c0,0.1,0.1,0.1,0.2,0.1
				c0,0,0.1,0,0.1,0c0.1-0.1,0.2-0.2,0.1-0.4l-1-1.5l1.4-3.5l1.1,1.6c0,0.1,0.1,0.1,0.2,0.1c0.1,0,0.2,0,0.2-0.1l1.1-1.6l1.4,3.5
				l-1,1.5c-0.1,0.1,0,0.3,0.1,0.4c0,0,0.1,0,0.1,0c0.1,0,0.2,0,0.2-0.1l0.8-1.2l0.2,0.5l-1.4,3.3c-0.1,0.1,0,0.3,0.1,0.3
				c0,0,0.1,0,0.1,0c0.1,0,0.2-0.1,0.2-0.2l1.3-3c0,0,0.1,0,0.1,0c0,0,0,0,0.1-0.1l3.5,0.5c0.1,0,0.3-0.1,0.3-0.2
				c0-0.1-0.1-0.3-0.2-0.3l-3.6-0.5l-0.2-0.6l1.3,0c0.2,0,0.3-0.1,0.3-0.2c0-0.1-0.1-0.3-0.2-0.3l-1.6,0l-1.4-3.4l2.1,0.4
				c0.1,0,0.2,0,0.2-0.1c0.1-0.1,0.1-0.1,0.1-0.2l-0.4-2.1l3.4,1.4l0,1.6c0,0.1,0.1,0.2,0.3,0.2c0,0,0,0,0,0c0.1,0,0.3-0.1,0.2-0.3
				l0-1.3l0.6,0.2l0.5,3.6c0,0.1,0.1,0.2,0.3,0.2c0,0,0,0,0,0c0.1,0,0.2-0.1,0.2-0.3l-0.5-3.5c0,0,0.1,0,0.1-0.1c0,0,0,0,0-0.1
				l3.1-1.4c0.1-0.1,0.2-0.2,0.1-0.3C165.2,110.2,165,110.2,164.9,110.2z M158,108.6l-1.6,1.1l-2.7-1.1l2.7-1.1L158,108.6z
				 M156.7,104.9l-0.4,2.1l-2.8,1.1l1.1-2.8L156.7,104.9z M153.1,103.6l1.1,1.6l-1.1,2.7l-1.1-2.7L153.1,103.6z M149.5,104.9
				l2.1,0.4l1.1,2.8l-2.8-1.1L149.5,104.9z M148.2,108.6l1.6-1.1l2.7,1.1l-2.7,1.1L148.2,108.6z M149.5,112.2l0.4-2.1l2.8-1.1
				l-1.1,2.8L149.5,112.2z M153.1,113.5l-1.1-1.6l1.1-2.7l1.1,2.7L153.1,113.5z M156.7,112.2l-2.1-0.4l-1.1-2.8l2.8,1.1L156.7,112.2
				z"/>
			<path class="st0" d="M162.9,104.8l1.1,0.5c0,0,0.1,0,0.1,0c0.1,0,0.2-0.1,0.2-0.2c0.1-0.1,0-0.3-0.1-0.3l-1-0.4l0.3-1.3
				c0-0.1-0.1-0.3-0.2-0.3c-0.1,0-0.3,0.1-0.3,0.2l-0.3,1.5C162.7,104.7,162.8,104.8,162.9,104.8z"/>
			<path class="st0" d="M147.6,98.6l1.5,0.3c0,0,0,0,0,0c0.1,0,0.2-0.1,0.2-0.2l0.5-1.1c0.1-0.1,0-0.3-0.1-0.3
				c-0.1-0.1-0.3,0-0.3,0.1l-0.4,1l-1.3-0.3c-0.1,0-0.3,0.1-0.3,0.2C147.3,98.4,147.4,98.6,147.6,98.6z"/>
			<path class="st0" d="M143.3,112.3l-1.1-0.5c-0.1-0.1-0.3,0-0.3,0.1c-0.1,0.1,0,0.3,0.1,0.3l1,0.4l-0.3,1.3c0,0.1,0.1,0.3,0.2,0.3
				c0,0,0,0,0,0c0.1,0,0.2-0.1,0.3-0.2l0.3-1.5C143.4,112.5,143.4,112.3,143.3,112.3z"/>
			<path class="st0" d="M158.6,118.5l-1.5-0.3c-0.1,0-0.2,0-0.3,0.2l-0.5,1.1c-0.1,0.1,0,0.3,0.1,0.3c0,0,0.1,0,0.1,0
				c0.1,0,0.2-0.1,0.2-0.2l0.4-1l1.3,0.3c0.1,0,0.3-0.1,0.3-0.2C158.9,118.7,158.8,118.6,158.6,118.5z"/>
			<path class="st0" d="M164.1,111.8l-1.1,0.5c-0.1,0-0.2,0.2-0.2,0.3l0.3,1.5c0,0.1,0.1,0.2,0.3,0.2c0,0,0,0,0,0
				c0.1,0,0.2-0.2,0.2-0.3l-0.3-1.3l1-0.4c0.1-0.1,0.2-0.2,0.1-0.3C164.3,111.8,164.2,111.8,164.1,111.8z"/>
			<path class="st0" d="M157.1,98.9C157.1,98.9,157.1,98.9,157.1,98.9l1.6-0.3c0.1,0,0.2-0.2,0.2-0.3c0-0.1-0.2-0.2-0.3-0.2
				l-1.3,0.3l-0.4-1c-0.1-0.1-0.2-0.2-0.3-0.1c-0.1,0.1-0.2,0.2-0.1,0.3l0.5,1.1C156.9,98.8,157,98.9,157.1,98.9z"/>
			<path class="st0" d="M142,105.3C142.1,105.3,142.1,105.3,142,105.3l1.2-0.5c0.1,0,0.2-0.2,0.2-0.3l-0.3-1.5
				c0-0.1-0.2-0.2-0.3-0.2c-0.1,0-0.2,0.2-0.2,0.3l0.3,1.3l-1,0.4c-0.1,0.1-0.2,0.2-0.1,0.3C141.8,105.3,141.9,105.3,142,105.3z"/>
			<path class="st0" d="M149.1,118.2l-1.5,0.3c-0.1,0-0.2,0.2-0.2,0.3c0,0.1,0.2,0.2,0.3,0.2l1.3-0.3l0.4,1c0,0.1,0.1,0.2,0.2,0.2
				c0,0,0.1,0,0.1,0c0.1-0.1,0.2-0.2,0.1-0.3l-0.5-1.1C149.3,118.3,149.2,118.2,149.1,118.2z"/>
			<path class="st0" d="M157.6,102c-0.1,0-0.2,0.1-0.2,0.2l0,1.9c0,0.1,0,0.1,0.1,0.2c0,0,0.1,0.1,0.2,0.1c0,0,0,0,0,0l1.9,0
				c0.1,0,0.2-0.1,0.2-0.2l0.3-2.1c0-0.1,0-0.2-0.1-0.2c-0.1-0.1-0.1-0.1-0.2-0.1L157.6,102z M159.2,103.8l-1.4,0l0-1.4l1.6-0.2
				L159.2,103.8z"/>
			<path class="st0" d="M159.4,112.8l-1.9,0c-0.1,0-0.1,0-0.2,0.1c0,0-0.1,0.1-0.1,0.2l0,1.9c0,0.1,0.1,0.2,0.2,0.2l2.1,0.3
				c0,0,0,0,0,0c0,0,0,0,0,0c0.1,0,0.3-0.1,0.3-0.3c0,0,0-0.1,0-0.1l-0.3-2.1C159.7,112.9,159.6,112.8,159.4,112.8z M157.9,114.7
				l0-1.4l1.4,0l0.2,1.6L157.9,114.7z"/>
			<path class="st0" d="M146.5,115.5l2.1-0.3c0.1,0,0.2-0.1,0.2-0.2l0-1.9c0-0.1,0-0.1-0.1-0.2c0,0-0.1-0.1-0.2-0.1l-1.9,0
				c-0.1,0-0.2,0.1-0.2,0.2l-0.3,2.1c0,0.1,0,0.2,0.1,0.2C146.3,115.4,146.4,115.5,146.5,115.5C146.5,115.5,146.5,115.5,146.5,115.5
				z M147,113.3l1.4,0l0,1.4l-1.6,0.2L147,113.3z"/>
			<path class="st0" d="M146.7,104.3l1.9,0c0,0,0,0,0,0c0,0,0,0,0,0c0.1,0,0.3-0.1,0.3-0.3c0,0,0-0.1,0-0.1l0-1.8
				c0-0.1-0.1-0.2-0.2-0.2l-2.1-0.3c-0.1,0-0.2,0-0.2,0.1c-0.1,0.1-0.1,0.1-0.1,0.2l0.3,2.1C146.5,104.2,146.6,104.3,146.7,104.3z
				 M148.3,102.4l0,1.4l-1.4,0l-0.2-1.6L148.3,102.4z"/>
			<path class="st0" d="M160.7,107.2c-0.1-0.1-0.2-0.1-0.3,0l-1.4,1.2c-0.1,0-0.1,0.1-0.1,0.2c0,0.1,0,0.1,0.1,0.2l1.4,1.2
				c0,0,0.1,0.1,0.2,0.1c0.1,0,0.1,0,0.2,0l1.6-1.2c0.1,0,0.1-0.1,0.1-0.2c0-0.1,0-0.2-0.1-0.2L160.7,107.2z M160.6,109.4l-1.1-0.9
				l1.1-0.9l1.2,0.9L160.6,109.4z"/>
			<path class="st0" d="M153.3,114.4c-0.1-0.1-0.3-0.1-0.4,0l-1.2,1.4c-0.1,0.1-0.1,0.2,0,0.3l1.2,1.6c0,0.1,0.1,0.1,0.2,0.1
				c0.1,0,0.2,0,0.2-0.1l1.2-1.6c0.1-0.1,0.1-0.2,0-0.3L153.3,114.4z M153.1,117.2l-0.9-1.2l0.9-1.1l0.9,1.1L153.1,117.2z"/>
			<path class="st0" d="M145.4,110c0,0,0.1,0,0.2,0c0.1,0,0.1,0,0.2-0.1l1.4-1.2c0.1,0,0.1-0.1,0.1-0.2c0-0.1,0-0.1-0.1-0.2
				l-1.4-1.2c-0.1-0.1-0.2-0.1-0.3,0l-1.6,1.2c-0.1,0-0.1,0.1-0.1,0.2c0,0.1,0,0.2,0.1,0.2L145.4,110z M145.6,107.7l1.1,0.9
				l-1.1,0.9l-1.2-0.9L145.6,107.7z"/>
			<path class="st0" d="M152.9,102.7c0,0.1,0.1,0.1,0.2,0.1c0.1,0,0.1,0,0.2-0.1l1.2-1.4c0.1-0.1,0.1-0.2,0-0.3l-1.2-1.6
				c-0.1-0.1-0.3-0.1-0.4,0l-1.2,1.6c-0.1,0.1-0.1,0.2,0,0.3L152.9,102.7z M153.1,99.9l0.9,1.2l-0.9,1.1l-0.9-1.1L153.1,99.9z"/>
		</g>
		<g id="snowflake_10_" class="st1">
			<polygon class="st0" points="55.6,86.3 55.6,86.3 55.3,87.3 61.4,89 63.8,93.2 64.7,92.6 62.3,88.4 63.9,82.4 64,82.3 62.9,82 
				61.5,87.1 60,84.5 61.1,80.7 60,80.4 59.3,83.1 57.4,79.8 56.4,80.4 58.3,83.7 55.6,82.9 55.3,84 59.1,85 60.6,87.6 			"/>
			<polygon class="st0" points="63.3,95.2 63.3,94 58.4,94 54,89.6 53.2,90.4 56.9,94 53.9,94 51.1,91.3 50.3,92.1 52.3,94 48.5,94 
				48.5,95.2 52.3,95.2 50.3,97.1 51.1,97.9 53.9,95.2 56.9,95.2 53.2,98.8 54,99.6 58.4,95.2 			"/>
			<polygon class="st0" points="64.7,96.6 64.7,96.6 63.8,96 61.4,100.2 55.3,101.9 55.6,102.9 60.6,101.6 59.1,104.2 55.3,105.2 
				55.6,106.3 58.3,105.5 56.4,108.8 56.4,108.8 57.4,109.4 59.3,106.1 60,108.8 61.1,108.5 60,104.7 61.5,102.1 62.9,107.2 
				64,106.9 62.3,100.8 			"/>
			<polygon class="st0" points="74.9,102.9 74.9,102.9 75.2,101.9 69.1,100.2 66.8,96.1 66.7,96 65.8,96.6 68.2,100.8 66.5,106.9 
				67.6,107.2 69,102.1 70.5,104.7 69.4,108.5 70.5,108.8 71.2,106.1 73.1,109.3 73.1,109.4 74.1,108.8 72.2,105.5 74.9,106.2 
				74.9,106.3 75.2,105.2 71.4,104.2 69.9,101.6 			"/>
			<polygon class="st0" points="82,94 78.2,94 80.2,92.1 79.4,91.3 76.6,94 73.6,94 77.3,90.4 76.5,89.6 72.1,94 67.2,94 67.2,95.2 
				72.1,95.2 76.5,99.6 77.3,98.8 73.6,95.2 76.6,95.2 79.4,97.9 80.2,97.1 78.2,95.2 82,95.2 			"/>
			<polygon class="st0" points="65.8,92.6 66.7,93.2 69.1,89 75.2,87.4 75.2,87.3 74.9,86.3 69.9,87.6 71.4,85 75.2,84 74.9,82.9 
				72.2,83.7 74.1,80.4 73.1,79.8 71.2,83.1 70.5,80.4 69.4,80.7 70.5,84.5 69,87.1 67.6,82.1 67.6,82 66.5,82.3 68.2,88.4 			"/>
			<path class="st0" d="M65.2,92.9c-0.3,0-0.6,0.1-0.9,0.2c-0.4,0.2-0.7,0.6-0.8,1c-0.1,0.4-0.1,0.9,0.2,1.3
				c0.3,0.5,0.9,0.9,1.5,0.9c0.3,0,0.6-0.1,0.9-0.2c0.4-0.2,0.7-0.6,0.8-1c0.1-0.4,0.1-0.9-0.2-1.3C66.4,93.2,65.9,92.9,65.2,92.9z
				 M64.7,94.4c0-0.2,0.1-0.3,0.3-0.4C65,94,65.1,94,65.2,94c0.2,0,0.4,0.1,0.5,0.3c0.1,0.1,0.1,0.3,0.1,0.5c0,0.2-0.1,0.3-0.3,0.4
				c-0.1,0.1-0.2,0.1-0.3,0.1c-0.2,0-0.4-0.1-0.5-0.3C64.7,94.8,64.6,94.6,64.7,94.4z"/>
			<path class="st0" d="M65.2,92.4l2.4-4l-2.4-4l-2.4,4L65.2,92.4z M65.2,90.3l-1.1-1.8l1.1-1.8l1.1,1.8L65.2,90.3z"/>
			<path class="st0" d="M58.7,93.6l4.6-0.1l-2.2-4.1l-4.6,0.1L58.7,93.6z M59.4,92.5l-1-1.8l2.1,0l1,1.8L59.4,92.5z"/>
			<path class="st0" d="M58.7,95.6l-2.2,4.1l4.6,0.1l0,0l2.2-4.1L58.7,95.6L58.7,95.6z M58.4,98.6l1-1.8l2.1,0l-1,1.8L58.4,98.6z"/>
			<path class="st0" d="M65.2,96.8l-2.4,4l2.4,4l2.4-4L65.2,96.8z M65.2,98.9l1.1,1.8l-1.1,1.8l-1.1-1.8L65.2,98.9z"/>
			<path class="st0" d="M69.4,99.7l4.6-0.1l-2.2-4l0,0l-4.6,0.1L69.4,99.7L69.4,99.7z M71.1,96.7l1,1.8l-2.1,0l-1-1.8L71.1,96.7z"/>
			<path class="st0" d="M71.8,93.6l2.2-4.1l-4.6-0.1l-2.2,4.1L71.8,93.6z M72.1,90.6l-1,1.8l-2.1,0l1-1.8L72.1,90.6z"/>
		</g>
		<path id="snowflake_36_" class="st2" d="M311.1,101.9h-2.8l1.5-1.5l-0.7-0.7l-2.3,2.3h-2.6l3.3-3.3l-0.7-0.7l-4,4h-1.9l1.3-1.3h0
			v0l2.2-2.2h0.1v-0.1l0.3-0.3l-0.3-0.3v-0.3h-0.3l-0.1-0.1l-0.1,0.1h-3.2l0,0l0,0H299l1.4-1.4h5.7v-1h-4.7l1.8-1.8h3.2v-1h-2.2l2-2
			l-0.7-0.7l-2,2v-2.2h-1v3.2l-1.8,1.8v-4.7h-1v5.7l-1.4,1.4v-1.9l0,0l0,0v-3.2l0.1-0.1l-0.1-0.1v-0.4h-0.4l-0.2-0.2l-0.2,0.2h-0.1
			V91l-2.2,2.2h0v0l-1.4,1.4v-1.9l4-4L297,88l-3.3,3.3v-2.6l2.3-2.3l-0.7-0.7l-1.5,1.5v-2.8h-1v2.8l-1.5-1.5l-0.7,0.7l2.3,2.3v2.6
			l-3.3-3.3l-0.7,0.7l4,4v1.9l-1.3-1.3v0h0l-2.2-2.2v-0.1h-0.1l-0.3-0.3l-0.3,0.3H288v0.3l-0.1,0.1l0.1,0.1v3.2l0,0l0,0v1.9
			l-1.4-1.4v-5.7h-1v4.7l-1.8-1.8v-3.2h-1v2.2l-2-2l-0.7,0.7l2,2h-2.2v1h3.2l1.8,1.8h-4.7v1h5.7l1.4,1.4h-1.9l0,0l0,0h-3.2l-0.1-0.1
			l-0.1,0.1h-0.4v0.4l-0.2,0.2l0.2,0.2v0.1h0.1l2.2,2.2v0h0l1.4,1.4h-1.9l-4-4l-0.7,0.7l3.3,3.3h-2.6l-2.3-2.3l-0.7,0.7l1.5,1.5
			h-2.8v1h2.8l-1.5,1.5l0.7,0.7l2.3-2.3h2.6l-3.3,3.3l0.7,0.7l4-4h1.9l-1.3,1.3h0v0l-2.2,2.2h-0.1v0.1l-0.3,0.3l0.3,0.3v0.3h0.3
			l0.1,0.1l0.1-0.1h3.2l0,0l0,0h1.9l-1.4,1.4h-5.7v1h4.7l-1.8,1.8H280v1h2.2l-2,2l0.7,0.7l2-2v2.2h1v-3.2l1.8-1.8v4.7h1v-5.7
			l1.4-1.4v1.9l0,0l0,0v3.2l-0.1,0.1l0.1,0.1v0.4h0.4l0.2,0.2l0.2-0.2h0.1v-0.1l2.2-2.2h0v0l1.4-1.4v1.9l-4,4l0.7,0.7l3.3-3.3v2.6
			l-2.3,2.3l0.7,0.7l1.5-1.5v2.8h1v-2.8l1.5,1.5l0.7-0.7l-2.3-2.3v-2.6l3.3,3.3l0.7-0.7l-4-4v-1.9l1.3,1.3v0h0l2.2,2.2v0.1h0.1
			l0.3,0.3l0.3-0.3h0.3v-0.3l0.1-0.1l-0.1-0.1v-3.2l0,0l0,0v-1.9l1.4,1.4v5.7h1v-4.7l1.8,1.8v3.2h1v-2.2l2,2l0.7-0.7l-2-2h2.2v-1
			h-3.2l-1.8-1.8h4.7v-1h-5.7l-1.4-1.4h1.9l0,0l0,0h3.2l0.1,0.1l0.1-0.1h0.4v-0.4l0.2-0.2l-0.2-0.2v-0.1h-0.1l-2.2-2.2v0h0l-1.4-1.4
			h1.9l4,4l0.7-0.7l-3.3-3.3h2.6l2.3,2.3l0.7-0.7l-1.5-1.5h2.8V101.9z M295.1,103.6l-0.7,0.7l0.7,0.7v1.9l-1.3-1.3v-0.9h-1v0.9
			l-1.4,1.4V105l0.7-0.7l-0.7-0.7l-0.7,0.7h-1.9l1.3-1.3h0.9v-1H290l-1.4-1.4h1.9l0.7,0.7l0.7-0.7l-0.7-0.7v-1.9l1.3,1.3v0.9h1v-0.9
			l1.4-1.4v1.9l-0.7,0.7l0.7,0.7l0.7-0.7h1.9l-1.3,1.3h-0.9v1h0.9l1.4,1.4h-1.9L295.1,103.6z M297.7,101.9l1.3-1.3h1.8l-1.3,1.3
			H297.7z M300.1,99.5l1.3-1.3h1.8l-1.3,1.3H300.1z M298.6,99.5h-1.9l1.3-1.3h1.9L298.6,99.5z M296,98.8v-1.9l1.3-1.3v1.9L296,98.8z
			 M296,95.5v-1.8l1.3-1.3v1.8L296,95.5z M295,96.5l-1.4,1.4v-1.8l1.4-1.4V96.5z M292.6,97.9l-1.3-1.3v-1.8l1.3,1.3V97.9z
			 M290.3,95.5l-1.3-1.3v-1.8l1.3,1.3V95.5z M290.3,96.9v1.9l-1.3-1.3v-1.9L290.3,96.9z M289.6,99.6h-1.9l-1.3-1.3h1.9L289.6,99.6z
			 M286.3,99.6h-1.8l-1.3-1.3h1.8L286.3,99.6z M287.3,100.6l1.4,1.4h-1.8l-1.4-1.4H287.3z M288.6,102.9l-1.3,1.3h-1.8l1.3-1.3H288.6
			z M286.3,105.3l-1.3,1.3h-1.8l1.3-1.3H286.3z M287.7,105.3h1.9l-1.3,1.3h-1.9L287.7,105.3z M290.3,106v1.9l-1.3,1.3v-1.9
			L290.3,106z M290.3,109.3v1.8l-1.3,1.3v-1.8L290.3,109.3z M291.3,108.3l1.4-1.4v1.8l-1.4,1.4V108.3z M293.7,106.9l1.3,1.3v1.8
			l-1.3-1.3V106.9z M296,109.3l1.3,1.3v1.8l-1.3-1.3V109.3z M296,107.9V106l1.3,1.3v1.9L296,107.9z M296.7,105.2h1.9l1.3,1.3H298
			L296.7,105.2z M300.1,105.2h1.8l1.3,1.3h-1.8L300.1,105.2z M299.1,104.2l-1.4-1.4h1.8l1.4,1.4H299.1z"/>
		<g id="snowflake_1_" class="st1">
			<polygon class="st3" points="267.7,42.6 267.7,42.6 267.4,43.7 273.7,45.4 276.2,49.8 277.2,49.2 274.7,44.9 276.4,38.6 
				276.4,38.5 275.3,38.2 273.9,43.4 272.3,40.8 273.4,36.8 272.3,36.5 271.5,39.3 269.5,35.9 268.5,36.5 270.5,39.9 267.7,39.2 
				267.4,40.3 271.3,41.3 272.9,44 			"/>
			<polygon class="st3" points="275.7,51.9 275.7,50.7 270.7,50.7 266,46.1 265.2,46.9 269,50.7 265.9,50.7 263,47.8 262.2,48.6 
				264.3,50.7 260.3,50.7 260.3,51.9 264.3,51.9 262.2,53.9 263,54.7 265.9,51.9 269,51.9 265.2,55.7 266,56.5 270.7,51.9 			"/>
			<polygon class="st3" points="277.2,53.4 277.2,53.4 276.2,52.8 273.7,57.1 267.4,58.8 267.7,59.9 272.9,58.5 271.3,61.2 
				267.4,62.3 267.7,63.4 270.5,62.6 268.6,66 268.5,66.1 269.5,66.6 271.5,63.2 272.3,66 273.4,65.7 272.3,61.8 273.9,59.1 
				275.3,64.3 276.4,64 274.7,57.7 			"/>
			<polygon class="st3" points="287.8,59.9 287.8,59.9 288.1,58.8 281.8,57.1 279.3,52.8 279.3,52.8 278.3,53.4 280.8,57.7 
				279.1,64 280.2,64.3 281.6,59.1 283.1,61.8 282.1,65.7 283.2,66 284,63.2 285.9,66.6 285.9,66.6 286.9,66.1 285,62.6 287.7,63.4 
				287.8,63.4 288.1,62.3 284.1,61.2 282.6,58.5 			"/>
			<polygon class="st3" points="295.1,50.7 291.2,50.7 293.2,48.6 292.4,47.8 289.5,50.7 286.4,50.7 290.3,46.9 289.4,46.1 
				284.8,50.7 279.8,50.7 279.8,51.9 284.8,51.9 289.4,56.5 290.3,55.7 286.4,51.9 289.5,51.9 292.4,54.7 293.2,53.9 291.2,51.9 
				295.1,51.9 			"/>
			<polygon class="st3" points="278.3,49.2 279.3,49.8 281.8,45.4 288.1,43.8 288.1,43.7 287.8,42.6 282.6,44 284.1,41.3 
				288.1,40.3 287.8,39.2 285,39.9 286.9,36.5 285.9,35.9 284,39.3 283.2,36.5 282.1,36.8 283.1,40.8 281.6,43.4 280.2,38.3 
				280.2,38.2 279.1,38.5 280.8,44.9 			"/>
			<path class="st3" d="M277.7,49.5c-0.3,0-0.6,0.1-0.9,0.2c-0.4,0.2-0.7,0.6-0.8,1.1c-0.1,0.5-0.1,0.9,0.2,1.4
				c0.3,0.5,0.9,0.9,1.5,0.9c0.3,0,0.6-0.1,0.9-0.2c0.4-0.2,0.7-0.6,0.8-1.1c0.1-0.5,0.1-0.9-0.2-1.4
				C279,49.8,278.4,49.5,277.7,49.5z M277.1,51.1c0-0.2,0.1-0.3,0.3-0.4c0.1-0.1,0.2-0.1,0.3-0.1c0.2,0,0.4,0.1,0.5,0.3
				c0.1,0.1,0.1,0.3,0.1,0.5c0,0.2-0.1,0.3-0.3,0.4c-0.1,0.1-0.2,0.1-0.3,0.1c-0.2,0-0.4-0.1-0.5-0.3
				C277.1,51.4,277.1,51.3,277.1,51.1z"/>
			<path class="st3" d="M277.7,49l2.5-4.1l-2.5-4.1l-2.5,4.1L277.7,49z M277.7,46.8l-1.1-1.9l1.1-1.9l1.1,1.9L277.7,46.8z"/>
			<path class="st3" d="M271,50.2l4.8-0.1l-2.3-4.2l-4.8,0.1L271,50.2z M271.6,49.1l-1.1-1.9l2.2,0l1.1,1.9L271.6,49.1z"/>
			<path class="st3" d="M271,52.3l-2.3,4.2l4.8,0.1l0,0l2.3-4.2L271,52.3L271,52.3z M270.6,55.4l1.1-1.9l2.2,0l-1.1,1.9L270.6,55.4z
				"/>
			<path class="st3" d="M277.7,53.5l-2.5,4.1l2.5,4.1l2.5-4.1L277.7,53.5z M277.7,55.8l1.1,1.9l-1.1,1.9l-1.1-1.9L277.7,55.8z"/>
			<path class="st3" d="M282,56.6l4.8-0.1l-2.3-4.2l0,0l-4.8,0.1L282,56.6L282,56.6z M283.8,53.5l1.1,1.9l-2.2,0l-1.1-1.9
				L283.8,53.5z"/>
			<path class="st3" d="M284.5,50.2l2.3-4.2l-4.8-0.1l-2.3,4.2L284.5,50.2z M284.9,47.1l-1.1,1.9l-2.2,0l1.1-1.9L284.9,47.1z"/>
		</g>
		<g id="snowflake_5_" class="st1">
			<polygon class="st0" points="118.9,37 118.8,37 118.5,38.1 124.6,39.7 127,43.9 128,43.4 125.6,39.2 127.2,33.1 127.2,33.1 
				126.1,32.8 124.8,37.8 123.3,35.2 124.3,31.4 123.2,31.2 122.5,33.9 120.6,30.6 119.6,31.1 121.5,34.4 118.8,33.7 118.6,34.8 
				122.3,35.8 123.8,38.4 			"/>
			<polygon class="st0" points="126.5,45.9 126.5,44.8 121.7,44.8 117.2,40.3 116.4,41.1 120.1,44.8 117.1,44.8 114.4,42 
				113.6,42.8 115.6,44.8 111.8,44.8 111.8,45.9 115.6,45.9 113.6,47.9 114.4,48.7 117.1,45.9 120.1,45.9 116.4,49.6 117.2,50.4 
				121.7,45.9 			"/>
			<polygon class="st0" points="128,47.4 128,47.3 127,46.8 124.6,51 118.5,52.6 118.8,53.7 123.8,52.3 122.3,54.9 118.6,55.9 
				118.8,57 121.5,56.3 119.7,59.5 119.6,59.6 120.6,60.1 122.5,56.8 123.2,59.5 124.3,59.3 123.3,55.5 124.8,52.9 126.1,57.9 
				127.2,57.6 125.6,51.5 			"/>
			<polygon class="st0" points="138.1,53.7 138.2,53.7 138.5,52.6 132.4,51 130,46.8 130,46.8 129,47.3 131.4,51.5 129.8,57.6 
				130.9,57.9 132.2,52.9 133.7,55.5 132.7,59.3 133.8,59.5 134.5,56.8 136.4,60.1 136.4,60.1 137.4,59.6 135.5,56.3 138.1,57 
				138.2,57 138.4,55.9 134.7,54.9 133.2,52.3 			"/>
			<polygon class="st0" points="145.2,44.8 141.4,44.8 143.4,42.8 142.6,42 139.9,44.8 136.9,44.8 140.6,41.1 139.8,40.3 
				135.3,44.8 130.5,44.8 130.5,45.9 135.3,45.9 139.8,50.4 140.6,49.6 136.9,45.9 139.9,45.9 142.6,48.7 143.4,47.9 141.4,45.9 
				145.2,45.9 			"/>
			<polygon class="st0" points="129,43.4 130,43.9 132.4,39.7 138.4,38.1 138.5,38.1 138.2,37 133.2,38.4 134.7,35.8 138.4,34.8 
				138.2,33.7 135.5,34.4 137.4,31.1 136.4,30.6 134.5,33.9 133.8,31.2 132.7,31.4 133.7,35.2 132.2,37.8 130.9,32.8 130.9,32.8 
				129.8,33.1 131.4,39.2 			"/>
			<path class="st0" d="M128.5,43.6c-0.3,0-0.6,0.1-0.9,0.2c-0.4,0.2-0.7,0.6-0.8,1c-0.1,0.4-0.1,0.9,0.2,1.3
				c0.3,0.5,0.9,0.9,1.5,0.9c0.3,0,0.6-0.1,0.9-0.2c0.4-0.2,0.7-0.6,0.8-1c0.1-0.4,0.1-0.9-0.2-1.3C129.7,44,129.1,43.6,128.5,43.6z
				 M127.9,45.2c0-0.2,0.1-0.3,0.3-0.4c0.1-0.1,0.2-0.1,0.3-0.1c0.2,0,0.4,0.1,0.5,0.3c0.1,0.1,0.1,0.3,0.1,0.5
				c0,0.2-0.1,0.3-0.3,0.4c-0.1,0.1-0.2,0.1-0.3,0.1c-0.2,0-0.4-0.1-0.5-0.3C127.9,45.5,127.9,45.3,127.9,45.2z"/>
			<path class="st0" d="M128.5,43.2l2.4-4l-2.4-4l-2.4,4L128.5,43.2z M128.5,41l-1.1-1.8l1.1-1.8l1.1,1.8L128.5,41z"/>
			<path class="st0" d="M122,44.3l4.6-0.1l-2.2-4.1l-4.6,0.1L122,44.3z M122.6,43.2l-1-1.8l2.1,0l1,1.8L122.6,43.2z"/>
			<path class="st0" d="M122,46.4l-2.2,4.1l4.6,0.1l0,0l2.2-4.1L122,46.4L122,46.4z M121.6,49.3l1-1.8l2.1,0l-1,1.8L121.6,49.3z"/>
			<path class="st0" d="M128.5,47.5l-2.4,4l2.4,4l2.4-4L128.5,47.5z M128.5,49.7l1.1,1.8l-1.1,1.8l-1.1-1.8L128.5,49.7z"/>
			<path class="st0" d="M132.6,50.5l4.6-0.1l-2.2-4l0,0l-4.6,0.1L132.6,50.5L132.6,50.5z M134.4,47.5l1,1.8l-2.1,0l-1-1.8
				L134.4,47.5z"/>
			<path class="st0" d="M135,44.3l2.2-4.1l-4.6-0.1l-2.2,4.1L135,44.3z M135.4,41.4l-1,1.8l-2.1,0l1-1.8L135.4,41.4z"/>
		</g>
	</g>
	<path class="st0" d="M390.5,54.2l-3.4,1.2l0,0l-0.7-0.3l0,0l0.5-0.3c0.2-0.1,0.2-0.3,0.1-0.5c-0.1-0.2-0.3-0.2-0.5-0.1l-1,0.6
		l-1.5-0.6l-0.6-1l0.6-1l1.5-0.6l1,0.6c0.1,0,0.1,0.1,0.2,0.1c0.1,0,0.2-0.1,0.3-0.2c0.1-0.2,0.1-0.4-0.1-0.5l-0.5-0.3l0,0l0.7-0.3
		l0,0l3.4,1.2c0,0,0.1,0,0.1,0c0.1,0,0.3-0.1,0.3-0.2c0.1-0.2,0-0.4-0.2-0.4l-2.7-1l2.3-0.9c0.2-0.1,0.3-0.3,0.2-0.4
		c-0.1-0.2-0.3-0.3-0.4-0.2l-2.2,0.9l0,0l0.9-2.6c0.1-0.2,0-0.4-0.2-0.4c-0.2-0.1-0.4,0-0.4,0.2l-1.2,3.2h0l-0.9,0.4l0,0l0.2-1
		c0-0.2-0.1-0.4-0.3-0.4c-0.2,0-0.4,0.1-0.4,0.3l-0.3,1.5l0,0l-1.4,0.6h0l-1.2-0.2l-0.2-1.2l0.6-1.5l0,0l1.5-0.3
		c0.2,0,0.3-0.2,0.3-0.4c0-0.2-0.2-0.3-0.4-0.3l-1,0.2l0,0l0.4-0.9v0l3.1-1.2c0.2-0.1,0.3-0.3,0.2-0.4c-0.1-0.2-0.3-0.3-0.4-0.2
		l-2.6,0.9l0,0l0.9-2.2c0.1-0.2,0-0.4-0.2-0.4c-0.2-0.1-0.4,0-0.4,0.2l-0.9,2.3l-1-2.7c-0.1-0.2-0.3-0.3-0.4-0.2
		c-0.2,0.1-0.3,0.3-0.2,0.4l1.2,3.4l0,0l-0.3,0.7l0,0l-0.3-0.5c-0.1-0.2-0.3-0.2-0.5-0.1c-0.2,0.1-0.2,0.3-0.1,0.5l0.6,1l-0.6,1.5
		l-1,0.6l-1-0.6l-0.6-1.5l0.6-1c0.1-0.2,0.1-0.4-0.1-0.5c-0.2-0.1-0.4-0.1-0.5,0.1l-0.3,0.5l0,0l-0.3-0.7l0,0l1.2-3.4
		c0.1-0.2,0-0.4-0.2-0.4c-0.2-0.1-0.4,0-0.4,0.2l-1,2.7l-0.9-2.3c-0.1-0.2-0.3-0.3-0.4-0.2c-0.2,0.1-0.3,0.3-0.2,0.4l0.9,2.2l0,0
		l-2.6-0.9c-0.2-0.1-0.4,0-0.4,0.2c-0.1,0.2,0,0.4,0.2,0.4l3.2,1.2v0l0.4,0.9l0,0l-1-0.2c-0.2,0-0.4,0.1-0.4,0.3
		c0,0.2,0.1,0.4,0.3,0.4l1.5,0.3l0,0l0.6,1.5l-0.2,1.2l-1.2,0.2l-1.5-0.6l0,0l-0.3-1.5c0-0.2-0.2-0.3-0.4-0.3
		c-0.2,0-0.3,0.2-0.3,0.4l0.2,1l0,0l-0.9-0.4h0l-1.2-3.2c-0.1-0.2-0.3-0.3-0.4-0.2c-0.2,0.1-0.3,0.3-0.2,0.4l0.9,2.6l0,0l-2.2-0.9
		c-0.2-0.1-0.4,0-0.4,0.2c-0.1,0.2,0,0.4,0.2,0.4l2.3,0.9l-2.7,1c-0.2,0.1-0.3,0.3-0.2,0.4c0.1,0.1,0.2,0.2,0.3,0.2c0,0,0.1,0,0.1,0
		l3.4-1.2l0,0l0.7,0.3l0,0l-0.5,0.3c-0.2,0.1-0.2,0.3-0.1,0.5c0.1,0.1,0.2,0.2,0.3,0.2c0.1,0,0.1,0,0.2-0.1l1-0.6l1.5,0.6l0.6,1
		l-0.6,1l-1.5,0.6l-1-0.6c-0.2-0.1-0.4,0-0.5,0.1c-0.1,0.2,0,0.4,0.1,0.5l0.5,0.3l0,0l-0.7,0.3l0,0l-3.4-1.2c-0.2-0.1-0.4,0-0.4,0.2
		c-0.1,0.2,0,0.4,0.2,0.4l2.7,1l-2.3,0.9c-0.2,0.1-0.3,0.3-0.2,0.4c0.1,0.1,0.2,0.2,0.3,0.2c0,0,0.1,0,0.1,0l2.2-0.9l0,0L373,59
		c-0.1,0.2,0,0.4,0.2,0.4c0,0,0.1,0,0.1,0c0.1,0,0.3-0.1,0.3-0.2l1.2-3.2h0l0.9-0.4l0,0l-0.2,1c0,0.2,0.1,0.4,0.3,0.4c0,0,0,0,0.1,0
		c0.2,0,0.3-0.1,0.3-0.3l0.3-1.5l0,0l1.5-0.6l1.2,0.2l0.2,1.2l-0.6,1.5l0,0l-1.5,0.3c-0.2,0-0.3,0.2-0.3,0.4c0,0.2,0.2,0.3,0.4,0.3
		l1-0.2l0,0l-0.4,0.9v0l-3.2,1.2c-0.2,0.1-0.3,0.3-0.2,0.4c0.1,0.2,0.3,0.3,0.4,0.2l2.6-0.9l0,0l-0.9,2.2c-0.1,0.2,0,0.4,0.2,0.4
		c0.2,0.1,0.4,0,0.4-0.2l0.9-2.3l1,2.7c0.1,0.1,0.2,0.2,0.3,0.2c0,0,0.1,0,0.1,0c0.2-0.1,0.3-0.3,0.2-0.4l-1.2-3.4l0,0l0.3-0.7l0,0
		l0.3,0.5c0.1,0.1,0.2,0.2,0.3,0.2c0.1,0,0.1,0,0.2-0.1c0.2-0.1,0.2-0.3,0.1-0.5l-0.6-1l0.6-1.5l1-0.6l1,0.6l0.6,1.5l-0.6,1
		c-0.1,0.2-0.1,0.4,0.1,0.5c0.1,0,0.1,0.1,0.2,0.1c0.1,0,0.2-0.1,0.3-0.2l0.3-0.5l0,0l0.3,0.7l0,0l-1.2,3.4c-0.1,0.2,0,0.4,0.2,0.4
		c0,0,0.1,0,0.1,0c0.1,0,0.3-0.1,0.3-0.2l1-2.7l0.9,2.3c0.1,0.1,0.2,0.2,0.3,0.2c0,0,0.1,0,0.1,0c0.2-0.1,0.3-0.3,0.2-0.4l-0.9-2.2
		l0,0l2.6,0.9c0.2,0.1,0.4,0,0.4-0.2c0.1-0.2,0-0.4-0.2-0.4l-3.1-1.2v0l-0.4-0.9l0,0l1,0.2c0.2,0,0.4-0.1,0.4-0.3
		c0-0.2-0.1-0.4-0.3-0.4l-1.5-0.3l0,0l-0.6-1.5l0.2-1.2l1.2-0.2h0l1.4,0.6l0,0l0.3,1.5c0,0.2,0.2,0.3,0.3,0.3c0,0,0,0,0.1,0
		c0.2,0,0.3-0.2,0.3-0.4l-0.2-1l0,0l0.9,0.4h0l1.2,3.2c0.1,0.1,0.2,0.2,0.3,0.2c0,0,0.1,0,0.1,0c0.2-0.1,0.3-0.3,0.2-0.4l-0.9-2.6
		l0,0l2.2,0.9c0,0,0.1,0,0.1,0c0.1,0,0.3-0.1,0.3-0.2c0.1-0.2,0-0.4-0.2-0.4l-2.3-0.9l2.7-1c0.2-0.1,0.3-0.3,0.2-0.4
		C390.9,54.2,390.7,54.1,390.5,54.2z M382.4,54.5c-0.1,0-0.2,0.1-0.3,0.3l-0.1,0.4l-0.1,0.6l-0.5-0.3l-0.4-0.2c0,0-0.1,0-0.2,0
		c-0.1,0-0.1,0-0.2,0l-0.4,0.2l-0.5,0.3l-0.1-0.6l-0.1-0.4c0-0.1-0.1-0.2-0.3-0.3l-0.4-0.1l-0.6-0.1l0.3-0.5l0.2-0.4
		c0.1-0.1,0.1-0.2,0-0.3l-0.2-0.4l-0.3-0.5l0.6-0.1l0.4-0.1c0.1,0,0.2-0.1,0.3-0.3l0.1-0.4l0.1-0.6l0.5,0.3l0.4,0.2
		c0.1,0.1,0.2,0.1,0.3,0l0.4-0.2l0.5-0.3l0.1,0.6l0.1,0.4c0,0.1,0.1,0.2,0.3,0.3l0.4,0.1l0.6,0.1l-0.3,0.5l-0.2,0.4
		c-0.1,0.1-0.1,0.2,0,0.3l0.2,0.4l0.3,0.5l-0.6,0.1L382.4,54.5z"/>
</g>
</svg>
