<svg width="16" height="16" fill="none" xmlns="http://www.w3.org/2000/svg"><g clip-path="url(#a)"><path fill-rule="evenodd" clip-rule="evenodd" d="M14.89 1.11c.47.47.77 1.09.84 1.75.36 3.42.36 6.86 0 10.28a2.91 2.91 0 0 1-2.6 2.59c-3.41.36-6.85.36-10.27 0a2.92 2.92 0 0 1-2.59-2.6 48.42 48.42 0 0 1 0-10.27A2.91 2.91 0 0 1 2.87.27c3.41-.36 6.85-.36 10.27 0 .66.07 1.28.37 1.75.84Zm-3.3 3.26L3.91 7.36c-.53.2-.52.5-.1.63l1.97.63 4.57-2.9c.21-.14.41-.06.25.08L6.9 9.17l-.14 2.04c.2 0 .3-.1.4-.2l.97-.93 1.99 1.48c.37.2.62.1.72-.34l1.3-6.23c.12-.53-.2-.75-.55-.62Z" fill="#98A3B2"/></g><defs><clipPath id="a"><path fill="#fff" d="M0 0h16v16H0z"/></clipPath></defs></svg>