<?xml version="1.0" encoding="utf-8"?>
<!-- Generator: Adobe Illustrator 16.0.0, SVG Export Plug-In . SVG Version: 6.00 Build 0)  -->
<!DOCTYPE svg PUBLIC "-//W3C//DTD SVG 1.1//EN" "http://www.w3.org/Graphics/SVG/1.1/DTD/svg11.dtd">
<svg version="1.1" id="Layer_1" xmlns="http://www.w3.org/2000/svg" xmlns:xlink="http://www.w3.org/1999/xlink" x="0px" y="0px"
	 width="106px" height="69px" viewBox="0 0 106 69" enable-background="new 0 0 106 69" xml:space="preserve">
<path fill="#FF4B55" d="M98.061,0H7.938C3.554,0,0,3.531,0,7.887v53.224C0,65.47,3.554,69,7.938,69h90.123
	c4.386,0,7.939-3.53,7.939-7.889V7.887C106,3.531,102.446,0,98.061,0z"/>
<g>
	<path fill="#F5F5F5" d="M52.477,28.278l2.865,3.724l4.473-1.488c0.25-0.083,0.463,0.198,0.314,0.414l-2.68,3.858l2.806,3.767
		c0.158,0.211-0.045,0.497-0.299,0.423l-4.52-1.339l-2.739,3.816c-0.153,0.213-0.492,0.11-0.498-0.152l-0.115-4.685l-4.499-1.409
		c-0.251-0.079-0.257-0.431-0.008-0.517l4.449-1.557l-0.042-4.687C51.982,28.184,52.317,28.07,52.477,28.278z"/>
	<path fill="#F5F5F5" d="M36.636,49.034c-8.074,0-14.623-6.507-14.623-14.535c0-8.014,6.549-14.534,14.623-14.534
		c3.003,0,5.773,0.917,8.081,2.471c0.354,0.238,0.757-0.224,0.461-0.53c-3.45-3.563-8.332-5.737-13.746-5.554
		c-9.301,0.315-17.001,7.725-17.595,16.952c-0.681,10.569,7.742,19.354,18.23,19.354c5.166,0,9.809-2.146,13.125-5.578
		c0.292-0.302-0.112-0.758-0.462-0.521C42.419,48.116,39.644,49.034,36.636,49.034z"/>
</g>
</svg>
