<svg xmlns="http://www.w3.org/2000/svg" width="16" height="16" fill="none"><g fill="#98A3B2" clip-path="url(#a)"><path d="M11.62 12.27 5.67 3.75h-1.3l5.96 8.52h1.29Z"/><path fill-rule="evenodd" d="M14.89 1.1c.47.48.77 1.1.84 1.76.36 3.42.36 6.87 0 10.27a2.9 2.9 0 0 1-2.6 2.6c-3.41.36-6.86.36-10.26 0a2.91 2.91 0 0 1-2.6-2.6 48.42 48.42 0 0 1 0-10.26 2.91 2.91 0 0 1 2.6-2.6c3.41-.36 6.85-.36 10.26 0 .66.07 1.29.36 1.76.83ZM7.33 9.1l2.6 3.78h2.84L8.91 7.25l3.55-4.13h-.84L8.53 6.71 6.07 3.12H3.23l3.72 5.42-3.72 4.33h.84L7.33 9.1Z" clip-rule="evenodd"/></g><defs><clipPath id="a"><path fill="#fff" d="M0 0h16v16H0z"/></clipPath></defs></svg>