<svg xmlns="http://www.w3.org/2000/svg" width="40" height="40" fill="none"><g clip-path="url(#a)"><mask id="b" width="40" height="40" x="0" y="0" maskUnits="userSpaceOnUse" style="mask-type:luminance"><path fill="#fff" d="M40 0H0v40h40V0Z"/></mask><g mask="url(#b)"><path stroke="#000" d="M33.79 33.79A19.5 19.5 0 1 1 6.2 6.2 19.5 19.5 0 0 1 33.8 33.8Z"/></g><path fill="#000" fill-rule="evenodd" d="m28.13 11.11-6.48 7.53 7.05 10.25h-5.18l-4.74-6.9-5.94 6.9H11.3l6.8-7.9-6.8-9.88h5.18l4.5 6.54 5.61-6.54h1.54Zm-12.38 1.16h-2.36l10.85 15.51h2.36L15.75 12.27Z" clip-rule="evenodd"/></g><defs><clipPath id="a"><path fill="#fff" d="M0 0h40v40H0z"/></clipPath></defs></svg>