<svg xmlns="http://www.w3.org/2000/svg" width="16" height="16" fill="none"><g clip-path="url(#a)"><path stroke="#98A3B2" stroke-linecap="round" stroke-linejoin="round" d="M13.5 8.5h1a1 1 0 0 1 1 1v0a1 1 0 0 1-1 1v2a3 3 0 0 1-3 3h-7a3 3 0 0 1-3-3v-2 0a1 1 0 0 1-1-1v0a1 1 0 0 1 1-1h12Zm0 0v-6a2 2 0 0 0-2-2v0a2 2 0 0 0-2 2v0m0 0v0a2 2 0 0 1 2 2v0h-4v0c0-1.1.9-2 2-2v0Zm0 4V7m-2-1v.5m4-.5v.5m-8 6v0a1 1 0 0 0 1 1h1"/></g><defs><clipPath id="a"><path fill="#fff" d="M0 0h16v16H0z"/></clipPath></defs></svg>