<svg width="16" height="16" fill="none" xmlns="http://www.w3.org/2000/svg"><g clip-path="url(#a)"><path d="M15.73 2.86a2.9 2.9 0 0 0-2.6-2.59 48.18 48.18 0 0 0-10.26 0 2.9 2.9 0 0 0-2.6 2.6 48.43 48.43 0 0 0 0 10.27 2.91 2.91 0 0 0 2.6 2.59c3.4.36 6.85.36 10.26 0a2.91 2.91 0 0 0 2.6-2.6c.36-3.4.36-6.85 0-10.27Zm-3.2 8c-.24.03-1.38 0-1.44 0-.3 0-.58-.1-.79-.31-.24-.24-.45-.5-.69-.73a1.84 1.84 0 0 0-.22-.2c-.2-.15-.38-.12-.46.1a4.3 4.3 0 0 0-.15.73c-.01.23-.16.37-.4.38l-.47.01c-.56 0-1.11-.14-1.6-.4-.55-.3-1.02-.7-1.38-1.2-.61-.77-1.1-1.62-1.53-2.5L2.92 5.7c-.04-.15 0-.3.13-.35.08-.03 1.54 0 1.56 0a.51.51 0 0 1 .5.36c.26.69.63 1.34 1.1 1.92.06.08.13.15.21.2.12.09.24.06.28-.08.06-.19.1-.39.1-.58.01-.4 0-.66-.02-1.05-.01-.26-.1-.48-.47-.55-.12-.02-.13-.11-.05-.2.15-.2.36-.24.6-.25.35-.02.7 0 1.05 0h.08c.15 0 .3.02.45.05a.42.42 0 0 1 .33.37l.03.3-.04 1.3c0 .17.01.34.05.5.05.23.2.29.36.12a5.66 5.66 0 0 0 1.28-2.1c.1-.25.19-.3.46-.3h1.55c.1 0 .18 0 .27.03a.23.23 0 0 1 .17.3 2.6 2.6 0 0 1-.46.91c-.31.45-.65.89-.97 1.33a1.7 1.7 0 0 0-.11.18c-.12.22-.11.34.06.52.28.3.58.56.86.86.2.22.38.45.53.7.2.31.08.6-.29.66Z" fill="#98A3B2"/></g><defs><clipPath id="a"><path fill="#fff" d="M0 0h16v16H0z"/></clipPath></defs></svg>