<svg width="40" height="40" viewBox="0 0 40 40" fill="none" xmlns="http://www.w3.org/2000/svg">
<g clip-path="url(#clip0_2456_2854)">
<path d="M39.5 20C39.5 30.7696 30.7696 39.5 20 39.5C9.23045 39.5 0.5 30.7696 0.5 20C0.5 9.23045 9.23045 0.5 20 0.5C30.7696 0.5 39.5 9.23045 39.5 20Z" stroke="#4CAF50"/>
<path fill-rule="evenodd" clip-rule="evenodd" d="M27.5501 12.4599C25.7149 10.651 23.2875 9.56652 20.7156 9.40659C18.1436 9.24666 15.6006 10.022 13.5554 11.5897C11.5102 13.1574 10.1008 15.4117 9.58711 17.9369C9.07338 20.462 9.48998 23.0878 10.7601 25.3299L9.33008 30.6699L14.9001 29.3699C17.1509 30.5688 19.7564 30.9227 22.2454 30.3676C24.7344 29.8125 26.9427 28.3851 28.4709 26.3436C29.999 24.302 30.7462 21.781 30.5774 19.2364C30.4085 16.6918 29.3347 14.2917 27.5501 12.4699V12.4599ZM20.0001 28.8599C18.4001 28.8599 16.8501 28.4399 15.4801 27.6299L15.1601 27.4299L11.8001 28.3199L12.7001 25.0499L12.4901 24.7099C11.7513 23.5445 11.2943 22.2229 11.1554 20.85C11.0164 19.4772 11.1993 18.0908 11.6896 16.801C12.1798 15.5111 12.9639 14.3532 13.9796 13.4192C14.9953 12.4852 16.2147 11.8008 17.5411 11.4202C18.8674 11.0396 20.2642 10.9734 21.6207 11.2268C22.9771 11.4801 24.2558 12.0461 25.3553 12.8798C26.4549 13.7135 27.345 14.7919 27.9551 16.0296C28.5652 17.2673 28.8785 18.6301 28.8701 20.0099C28.8621 22.3581 27.9244 24.6076 26.2621 26.2661C24.5998 27.9247 22.3483 28.8573 20.0001 28.8599V28.8599ZM24.8601 22.2299C24.6001 22.0899 23.2901 21.4499 23.0401 21.3599C22.8001 21.2699 22.6201 21.2299 22.4401 21.4899C22.2601 21.7599 21.7501 22.3599 21.6001 22.5399C21.4401 22.7199 21.2901 22.7399 21.0201 22.6099C20.7501 22.4699 19.9001 22.1899 18.8801 21.2799C18.2953 20.7435 17.7932 20.1234 17.3901 19.4399C17.2401 19.1699 17.3901 19.0399 17.5101 18.8899C17.8001 18.5399 18.0901 18.1599 18.1801 17.9899C18.2701 17.8099 18.2201 17.6499 18.1601 17.5199C18.0901 17.3799 17.5601 16.0699 17.3301 15.5399C17.1201 15.0199 16.9001 15.0899 16.7301 15.0799H16.2301C16.0945 15.0806 15.9604 15.1093 15.8365 15.1644C15.7126 15.2195 15.6014 15.2997 15.5101 15.3999C15.2701 15.6699 14.5801 16.3199 14.5801 17.6299C14.5801 18.9299 15.5401 20.2099 15.6701 20.3799C15.8001 20.5599 17.5501 23.2499 20.2201 24.4099C20.8601 24.6799 21.3501 24.8399 21.7401 24.9699C22.3801 25.1699 22.9601 25.1399 23.4201 25.0699C23.9301 24.9999 25.0001 24.4299 25.2201 23.8099C25.4401 23.1799 25.4401 22.6499 25.3701 22.5399C25.3101 22.4299 25.1301 22.3599 24.8701 22.2299H24.8601Z" fill="#4CAF50"/>
</g>
<defs>
<clipPath id="clip0_2456_2854">
<rect width="40" height="40" fill="white"/>
</clipPath>
</defs>
</svg>
