<svg width="106" height="106" fill="none" xmlns="http://www.w3.org/2000/svg"><path d="M53 106A53 53 0 1 0 53 0a53 53 0 0 0 0 106Z" fill="#65B1EF"/><path d="M27.24 97.47c0 .02-.02.03-.03.05l.23.07-.2-.12ZM23.9 22.78l-.1-.22c.89-.13.95-.76 1.62-.98.77-.26.5.02 1.26 0 .6-.03.98.41 1.68.09-.17.3-.45.5-.72.7-.58.41-1.16.83-1.85.99-.68.16-1.48 0-1.88-.58Z" fill="#E9EFF4"/><path d="M34.5 70.01c0 .47-.28.88-.52 1.27a12.89 12.89 0 0 0-1.85 5.8c-.15 1.95-.06 4.36-1.76 5.32-.97.54-2.34.45-2.99 1.36-.2.27-.3.62-.4.95-.4 1.52-.83 3.04-1.25 4.56-.54-.04-1.09-.1-1.63-.16.64.2 1.08 1.06.7 1.65-.61-.32-1.41.06-1.75.68a2.82 2.82 0 0 0-.1 2.02 5.92 5.92 0 0 0 4.26 4.08c-.35.66-1.41.37-2.06-.07a24.7 24.7 0 0 1-9.74-13.3c-.57-1.89-.93-3.9-2.03-5.53-.93-1.37-2.32-2.38-3.24-3.76-1.3-1.98-1.54-4.54-3.04-6.35-.84-1.03-2.13-2.3-1.4-3.4.3-.46.94-.89.7-1.37-.1-.15-.26-.25-.4-.38-.5-.54-.15-1.4.1-2.09.42-1.21.42-2.5.24-3.8a10.92 10.92 0 0 1-2.88-4.1c-.37-.96-.86-2.15-1.9-2.17L.77 49c-.1.27-.36.43-.64.47a52.7 52.7 0 0 1 13.3-31.7c.18-.08.34-.17.51-.27 1.81-1.05 3.25-2.64 5-3.79.36-.24.76-.46 1.2-.42.44.04.85.48.7.89-.07.17-.21.3-.36.4a36.97 36.97 0 0 1-6.67 4.53c-.29.14-.59.31-.72.6-.24.5.17 1.1.69 1.28.51.18 1.09.07 1.62-.04a2.62 2.62 0 0 0-.35 2.22c.49.05.64-.62.79-1.09.6-1.85 3.56-2.61 3.37-4.57.8.42 1.62-.52 2.1-1.28.5-.78 1.59-1.55 2.19-.86l.12 1.15 3.17-.8c-.6.41-.8 1.31-.45 1.96.34.64 1.2.97 1.89.7-.01.57-.51 1-.97 1.33-1.16.88-2.41 1.78-3.76 2.21l.3.65a.3.3 0 0 1-.1.02c-.86.09-1.77-.53-2.7-.41-.56.07-1.25.07-1.58.64-.04.08-.25 1.08-.1 1l1.5-.86c.15.4.18.86.1 1.3.61-.06 1.25.07 1.79.4a3.55 3.55 0 0 1-3.44 2.07l-.05-1.3c-1.17-.09-2.13.92-2.72 1.93-.6 1.02-1.05 2.18-2.04 2.83-.6.4-1.33.56-1.97.9-.64.34-1.22 1-1.1 1.71.07.34.28.65.27 1-.03.64-.79.95-1.29 1.36-.86.72-1.08 2.04-2 2.68-.67.46-1.56.45-2.34.7-.78.23-1.56 1.01-1.24 1.77-.39.13-.86-.16-.9-.57a26.3 26.3 0 0 0-2.65 8.69c.68.47 1.38-.62 1.51-1.44.14-.83.86-1.91 1.53-1.42l-.46 3.55c-.04.23-.06.47.05.67.13.25.42.36.63.54.62.52.53 1.46.57 2.26.04.98.36 1.94.87 2.78-.05-.17-.08-.33-.11-.5.93.12 1.9-.18 2.6-.8.38-.34.7-.77 1.16-.94.48-.18 1-.05 1.5.08 1.52.42 3.14.88 4.16 2.08.51.61.84 1.38 1.45 1.88 1.4 1.18 3.74.66 5.01 1.97 1.02 1.05.83 2.75.56 4.2-.7-.38-1.63.58-1.22 1.26.37-.4.8-.84 1.34-.84.55 0 1.03.75.63 1.1.95-1.23 3.3-.72 3.67.8 1.35.1 2.7.19 4.04.3-.25 1.97 3.87 2.08 3.79 4.06ZM26.34 14.55a1.07 1.07 0 0 1-1.42-.57c-.2-.55.17-1.22.73-1.35.36-.08.85-.04.96-.4.03-.1.01-.21.01-.32 0-.66.58-1.2 1.21-1.37.64-.16 1.3-.04 1.95.09.23.47.3 1.02.18 1.54l-1.32.05c.04.74-.03 1.66-.71 1.93-.61.24-1.4-.2-1.92.2M33.2 7.23c1.21-.58 2.23-1.48 3.42-2.1 2.04-1.04 4.43-1.14 6.72-1.2l15.68-.5-3.64 2c-.99.54-2.11 1.1-3.2.79a1.7 1.7 0 0 0 1.65 1.68c-2.15 1.32-5.13-.03-7.4 1.08-.94.47-1.7 1.35-2.75 1.52-.6.1-1.23-.07-1.83.06-1 .22-1.64 1.17-2.38 1.88-.86.82-2.12 1.38-3.24 1-1.11-.4-1.7-2.06-.8-2.84.44-.38 1.07-.44 1.6-.71.51-.27.92-.98.53-1.41-.17-.2-.45-.27-.6-.47-.17-.22-.16-.53-.3-.77-.53-.93-2 .32-3-.05M49.08 11.64c.7-.16 1.32-.58 1.98-.89.66-.3 1.44-.48 2.09-.16.2.48-.36.92-.85 1.1-.94.32-1.95.41-2.93.25M91.8 16.91c-.2.02-.4.01-.6-.04-.9-.19-1.6-.88-2.36-1.38a6.25 6.25 0 0 0-6.11-.37c.45-.66.68-1.48.63-2.28l-.28.1c-3.14-1.83-6.82-3.72-10.25-2.5-.79.3-1.5.73-2.3 1-.86.3-1.8.42-2.54.95s-1.13 1.7-.5 2.33c.54.54 1.4.39 2.16.46.75.08 1.6.82 1.19 1.45l-9.86 4.64c1.5.49 2.5 2.2 2.18 3.76-1.1.2-2.17-.48-3.28-.55a3.16 3.16 0 0 0-3.2 2.96 3.13 3.13 0 0 0 3.06 3.1c1.2-.02 2.4-.75 3.57-.44.05-1.1.8-2.04 1.58-2.83 1.5-1.51 3.66-2.88 5.68-2.14.66.24 1.23.69 1.78 1.13 1.2.95 2.42 1.92 3.63 2.9l1.15-1.18 2 2.1 1.01-.68c.24.63.5 1.24.73 1.86l.27-2.02c.79.02 1.63.04 2.35-.32.72-.35 1.24-1.2.94-1.95-.16-.4-.53-.7-.6-1.13-.16-.84 1.04-1.41 1.82-1.03.77.37 1.15 1.25 1.48 2.05.18-.82.34-1.62.53-2.43a19.26 19.26 0 0 0 3.17 5.43c-2.46-.47-5.05-.2-7.35.75a3.86 3.86 0 0 0 3.25 1.59c.57-.02 1.2-.15 1.62.21.33.28.41.72.47 1.13.2 1.15.38 2.29.56 3.43-1.3-1.07-3.16-.95-4.85-.98-1.7-.05-3.67-.52-4.3-2.08a3.39 3.39 0 0 0-.77 2.84c-1.75-.42-3.77-1.09-4.27-2.82a2.72 2.72 0 0 1-3.44-1.77c-.13-.49-.17-1.09-.6-1.35-.26-.16-.6-.14-.91-.1l-7.78.9c-1.42.16-2.88.33-4.13 1.03-1.24.68-2.24 2.02-2.1 3.44a16.16 16.16 0 0 0-5.77 5.88c-.43.74-.8 1.6-.63 2.43.12.65.55 1.2.68 1.84.23 1.09-.4 2.14-.66 3.22-.74 3.07 1.6 5.96 3.75 8.28 1.02 1.08 2.2 2.25 3.68 2.31.92.04 1.8-.37 2.66-.7a19.3 19.3 0 0 1 7.8-1.32c-.6.47.03 1.49.77 1.64.75.16 1.55-.08 2.27.17 1.64.59 1.42 3 .67 4.57l1.14-.22-.6 1.57c2.24.29 3.1 3.25 2.57 5.47-.51 2.21-1.83 4.25-1.87 6.53 0 1.25.38 2.46.76 3.64l2.88 9.04c2.69.32 4.23-3.1 6.73-4.16.93-.41 2.03-.5 2.77-1.2.7-.66.48-2.23-.43-2.23a2.69 2.69 0 0 0 2.32-2.51c.01-.35-.03-.7.01-1.04.08-.5.4-.93.7-1.35 1.9-2.73 3.13-5.86 4.37-8.95l.97-2.48 3.65-9.23c.48-1.2.96-2.4 1.43-3.62-.66 1.1-2.38.95-3.37.13-1-.81-1.5-2.05-2.29-3.07-.66-.87-1.55-1.65-1.86-2.72-.18-.6-.15-1.27-.25-1.9-.24-1.38-1.15-2.53-1.78-3.78-.62-1.25-.94-2.86-.07-3.96 2.52 4.4 4.81 8.93 6.89 13.57.23-.72.75-1.34 1.42-1.69.5-.27 1.05-.37 1.56-.59a3.96 3.96 0 0 0 2.32-3.53 3.95 3.95 0 0 0-2.34-3.53c-.69-.28-1.47-.38-2.11-.78-.65-.38-1.12-1.25-.71-1.89.38-.6 1.3-.59 1.94-.25.64.35 1.1.93 1.7 1.33.43.29.94.48 1.4.74 2.54 1.45 3.16 4.75 3.7 7.62.28 1.55.6 3.09.99 4.6l.01-.99a52.8 52.8 0 0 0-14.2-36.06Zm4.84 17.42c-.34-.03-.67-.25-.94-.47-.46-.36-.92-.78-1.05-1.34-.15-.67.17-1.44-.2-2.04-.16-.29-.46-.47-.71-.67a3.77 3.77 0 0 1-1.32-2.1c-.16-.72.07-1.68.8-1.8.35-.06.73.14.89.46l-.5.26c.83.1 1.22 1.35.58 1.89-.08.08-.19.15-.19.27 0 .07.05.14.11.2.51.56 1.28.76 1.95 1.12.67.35 1.33 1 1.23 1.74l-.64.23c-.22.23-.04.64.2.87.24.22.55.45.56.79 0 .36-.4.61-.77.59ZM96.99 71.2l-.87.62c.3 1.06-.3 2.3-1.32 2.72-.54.22-1.26.32-1.45.87-.15.47.22.95.27 1.44.08.82-.69 1.43-1.24 2.03-.55.61-.84 1.75-.1 2.12.16.08.36.1.55.12.8.07 1.67.09 2.32-.37 1.86-1.33.09-4.94 1.93-6.31.26-.2.59-.33.73-.62.44-.86-1.17-1.72-.82-2.61Z" fill="#E9EFF4"/></svg>