<svg xmlns="http://www.w3.org/2000/svg" width="48" height="48" fill="none"><path fill="#fff" d="M36.52 42.8a.65.65 0 0 1-.37-1.18c.51-.35 1-.72 1.48-1.1a.65.65 0 0 1 .82 1c-.56.45-1.08.84-1.57 1.17a.65.65 0 0 1-.36.11ZM24 46.7a22.68 22.68 0 1 1 21.17-14.49.65.65 0 1 1-1.2-.47A21.4 21.4 0 1 0 32.1 43.81a.65.65 0 1 1 .5 1.2 22.54 22.54 0 0 1-8.61 1.7Zm17.22-8.27a.65.65 0 0 1-.5-1.06c.4-.5.77-1 1.12-1.52a.65.65 0 1 1 1.07.72c-.37.56-.76 1.1-1.18 1.62a.65.65 0 0 1-.5.24Z"/><path fill="#fff" d="M24 41.27a17.27 17.27 0 1 1 0-34.54 17.27 17.27 0 0 1 0 34.54Zm0-33.24a15.97 15.97 0 1 0 0 31.94 15.97 15.97 0 0 0 0-31.94Z"/><path fill="#fff" d="M20.75 29.91a.65.65 0 0 1-.46-.19l-4.02-4.02a.65.65 0 1 1 .92-.92l3.56 3.57L30.8 18.28a.65.65 0 0 1 .92.92L21.2 29.72a.65.65 0 0 1-.46.19Z"/></svg>