<?xml version="1.0" encoding="utf-8"?>
<!-- Generator: Adobe Illustrator 16.0.0, SVG Export Plug-In . SVG Version: 6.00 Build 0)  -->
<!DOCTYPE svg PUBLIC "-//W3C//DTD SVG 1.1//EN" "http://www.w3.org/Graphics/SVG/1.1/DTD/svg11.dtd">
<svg version="1.1" id="Layer_1" xmlns="http://www.w3.org/2000/svg" xmlns:xlink="http://www.w3.org/1999/xlink" x="0px" y="0px"
	 width="106px" height="69px" viewBox="0 0 106 69" enable-background="new 0 0 106 69" xml:space="preserve">
<path fill="#41479B" d="M98.061,0H7.938C3.554,0,0,3.531,0,7.887v53.224C0,65.47,3.554,69,7.938,69h90.123
	c4.386,0,7.939-3.53,7.939-7.889V7.887C106,3.531,102.446,0,98.061,0z"/>
<path fill="#F5F5F5" d="M105.889,6.584C105.266,2.849,101.999,0,98.061,0h-2.064L62.138,22.04V0H43.862v22.04L10.004,0H7.938
	C4.001,0,0.736,2.849,0.11,6.584l28.938,18.837H0v18.158h29.048L0.11,62.417C0.736,66.151,4.001,69,7.938,69h2.066l33.858-22.039V69
	h18.275V46.961L95.996,69h2.064c3.938,0,7.205-2.849,7.828-6.583L76.953,43.579H106V25.421H76.953L105.889,6.584z"/>
<g>
	<polygon fill="#FF4B55" points="58.481,0 47.517,0 47.517,29.053 0,29.053 0,39.946 47.517,39.946 47.517,69 58.481,69 
		58.481,39.946 106,39.946 106,29.053 58.481,29.053 	"/>
	<path fill="#FF4B55" d="M5.133,68.491l38.628-24.912h-6.714L1.91,66.241C2.77,67.238,3.875,68.02,5.133,68.491z"/>
	<path fill="#FF4B55" d="M71.713,43.579h-6.715l37.416,24.129c1.046-0.684,1.92-1.606,2.544-2.689L71.713,43.579z"/>
	<path fill="#FF4B55" d="M0.839,4.361l32.655,21.06h6.713L3.204,1.556C2.21,2.291,1.397,3.251,0.839,4.361z"/>
	<path fill="#FF4B55" d="M68.852,25.421l35.202-22.704c-0.868-0.993-1.982-1.77-3.251-2.233L62.138,25.421H68.852z"/>
</g>
</svg>
