<?xml version="1.0" encoding="UTF-8" standalone="no"?>
<svg
   xmlns:dc="http://purl.org/dc/elements/1.1/"
   xmlns:cc="http://creativecommons.org/ns#"
   xmlns:rdf="http://www.w3.org/1999/02/22-rdf-syntax-ns#"
   xmlns:svg="http://www.w3.org/2000/svg"
   xmlns="http://www.w3.org/2000/svg"
   viewBox="0 0 855.56 640.66669"
   height="640.66669"
   width="855.56"
   xml:space="preserve"
   id="svg2"
   version="1.1"><metadata
     id="metadata8"><rdf:RDF><cc:Work
         rdf:about=""><dc:format>image/svg+xml</dc:format><dc:type
           rdf:resource="http://purl.org/dc/dcmitype/StillImage" /></cc:Work></rdf:RDF></metadata><defs
     id="defs6" /><g
     transform="matrix(1.3333333,0,0,-1.3333333,0,640.66667)"
     id="g10"><g
       transform="scale(0.1)"
       id="g12"><path
         id="path14"
         style="fill:#339f4b;fill-opacity:1;fill-rule:nonzero;stroke:none"
         d="M 0,4805 H 6416.66 V 0 H 0 v 4805" /><path
         id="path16"
         style="fill:#ffffff;fill-opacity:1;fill-rule:nonzero;stroke:none"
         d="M 10,4118.58 H 6406.66 V 3432.15 H 10 v 686.43" /><path
         id="path18"
         style="fill:#ffffff;fill-opacity:1;fill-rule:nonzero;stroke:none"
         d="M 10,2745.72 H 6406.66 V 2059.29 H 10 v 686.43" /><path
         id="path20"
         style="fill:#ffffff;fill-opacity:1;fill-rule:nonzero;stroke:none"
         d="M 10,1372.85 H 6406.66 V 686.422 H 10 v 686.428" /><path
         id="path22"
         style="fill:#be2e30;fill-opacity:1;fill-rule:nonzero;stroke:none"
         d="M 0,4805 H 3651.8 V 2745.72 H 0 V 4805" /><path
         id="path24"
         style="fill:#ffffff;fill-opacity:1;fill-rule:nonzero;stroke:none"
         d="m 1543.24,3654.66 c 0,0 -31.47,-13.17 -9.92,-264.41 17.61,-206.79 91.28,-274.16 91.28,-274.16 l 32.18,-128 305.22,-1.25 c 0,0 5.52,79.26 17.34,104.33 29.04,61.58 144.13,131.98 193.47,238.26 53.04,64.79 26.47,197.01 132.95,324.63 52.87,63.38 -61.94,36.55 -61.94,36.55 -62.96,-41.76 -93.73,-90.77 -109.6,-125.01 -10.68,-65.97 -60.06,-121.14 -64.72,-73.23 0,0 -17.94,82.84 -71.77,243.87 -5.34,47.73 -28.42,212.8 -33.35,338.79 -3.51,81.97 -75.26,86.9 -81.25,3.69 l -8.67,-329.86 -17.15,380.98 c -7.29,107.82 -88.86,91.83 -92.4,2.48 l -3.51,-396.69 -14.86,384.53 c -22.11,73.45 -80.18,29.92 -81.25,-49.65 l -9.91,-374.15 c 0,0 -12.5,204.9 -15.32,291.42 -2.66,52.04 -63.6,48.19 -69.35,-26.2 -8.3,-107.6 -21.36,-195.42 -27.47,-306.92 v 0" /><path
         id="path26"
         style="fill:#ffffff;fill-opacity:1;fill-rule:nonzero;stroke:none"
         d="m 1733.1,4357.01 92.8,285.62 92.8,-285.62 -242.95,176.51 h 300.29 L 1733.1,4357.01" /><path
         id="path28"
         style="fill:#ffffff;fill-opacity:1;fill-rule:nonzero;stroke:none"
         d="m 2454.76,4243.07 -242.96,176.52 h 300.3 l -242.96,-176.52 92.81,285.61 92.81,-285.61" /><path
         id="path30"
         style="fill:#ffffff;fill-opacity:1;fill-rule:nonzero;stroke:none"
         d="m 2913.37,3903.71 -242.96,176.52 h 300.3 l -242.96,-176.52 92.8,285.61 92.82,-285.61" /><path
         id="path32"
         style="fill:#ffffff;fill-opacity:1;fill-rule:nonzero;stroke:none"
         d="m 3179.05,3424.4 -242.95,176.51 h 300.29 l -242.94,-176.51 92.8,285.61 92.8,-285.61" /><path
         id="path34"
         style="fill:#ffffff;fill-opacity:1;fill-rule:nonzero;stroke:none"
         d="m 1197.05,4243.07 242.96,176.52 H 1139.7 l 242.95,-176.52 -92.8,285.61 -92.8,-285.61" /><path
         id="path36"
         style="fill:#ffffff;fill-opacity:1;fill-rule:nonzero;stroke:none"
         d="m 738.43,3903.71 242.961,176.52 H 681.094 l 242.957,-176.52 -92.817,285.61 -92.804,-285.61" /><path
         id="path38"
         style="fill:#ffffff;fill-opacity:1;fill-rule:nonzero;stroke:none"
         d="m 472.746,3424.4 242.961,176.51 H 415.395 L 658.348,3424.4 565.551,3710.01 472.746,3424.4" /></g></g></svg>