<svg width="54" height="40" fill="none" xmlns="http://www.w3.org/2000/svg"><path d="M34.7 0H19.2a2.2 2.2 0 0 0-2.22 2.18v15.16c0 1.2 1 2.17 2.22 2.17h15.5a2.2 2.2 0 0 0 2.22-2.17V2.18c0-1.2-1-2.18-2.23-2.18Z" fill="#399AE3"/><path fill-rule="evenodd" clip-rule="evenodd" d="M30.48 14.5H28.1a.13.13 0 0 1-.08-.03.12.12 0 0 1-.04-.09v-.57l-1.79 1.75a.13.13 0 0 1-.18 0l-1.68-1.64a.12.12 0 0 1 0-.17l.42-.41h-2.53a.13.13 0 0 1-.09-.04.12.12 0 0 1-.04-.08v-2.33c0-.04.02-.07.04-.09a.13.13 0 0 1 .09-.04h.59L21 9.01a.12.12 0 0 1-.03-.08c0-.04.02-.07.04-.09L22.7 7.2a.13.13 0 0 1 .18 0l.41.4V5.13a.12.12 0 0 1 .08-.12h2.42c.04 0 .07 0 .1.03.02.02.03.05.03.09v.57l1.79-1.75a.13.13 0 0 1 .17 0l1.69 1.65a.12.12 0 0 1 0 .17l-.42.4h2.53c.03 0 .06.02.09.04l.03.09v2.33c0 .03-.01.06-.03.08a.13.13 0 0 1-.1.04h-.58l1.79 1.75a.12.12 0 0 1 0 .17l-1.68 1.64a.12.12 0 0 1-.09.04.13.13 0 0 1-.09-.04l-.41-.4v2.47c0 .04-.02.07-.04.1a.13.13 0 0 1-.09.03Zm-.3-6.48-.93.73H28.1a.13.13 0 0 1-.08-.04.12.12 0 0 1-.04-.08V6.3l-.13 1.15-.81.8a.13.13 0 0 1-.18 0l-.94-.93-.74-.72.74.9v1.13c0 .03-.02.06-.04.08a.13.13 0 0 1-.09.04h-2.37l1.18.13.8.8a.12.12 0 0 1 .04.08.12.12 0 0 1-.04.08l-1.68 1.65.93-.72h1.14c.04 0 .07.01.1.03l.03.09v2.32l.13-1.15.81-.8a.13.13 0 0 1 .18 0l1.68 1.65-.74-.9v-1.12c0-.03.01-.06.04-.09a.12.12 0 0 1 .08-.03h2.38l-1.18-.14-.8-.79a.12.12 0 0 1-.04-.08.12.12 0 0 1 .04-.09l.94-.92.73-.73Z" fill="#fff"/><path fill-rule="evenodd" clip-rule="evenodd" d="M5.09 29.71c.02.7-.54 1.2-1.25 1.2H1.98v-2.35h1.87a1.21 1.21 0 0 1 .87.32 1.16 1.16 0 0 1 .37.83Zm46.22-4.3v6.97a.21.21 0 0 1-.14.2.22.22 0 0 1-.09 0h-1.5a.23.23 0 0 1-.15-.05.22.22 0 0 1-.08-.14V25.4h-2.34a.22.22 0 0 1-.15-.08.21.21 0 0 1-.05-.15v-1.2a.2.2 0 0 1 .05-.15.22.22 0 0 1 .15-.07h6.68a.23.23 0 0 1 .15.07.21.21 0 0 1 .06.15v1.2c0 .06-.02.11-.06.15a.22.22 0 0 1-.15.08h-2.38Zm-37.36 6.88v-1.16a.21.21 0 0 0-.07-.16.22.22 0 0 0-.15-.06h-3.5a.65.65 0 0 1-.46-.2.62.62 0 0 1-.17-.47v-1.67h3.72c.05 0 .1-.03.15-.07a.21.21 0 0 0 .06-.14v-1.18a.2.2 0 0 0-.07-.16.22.22 0 0 0-.17-.05H9.6v-.94a.6.6 0 0 1 .18-.44.63.63 0 0 1 .45-.18h3.5a.22.22 0 0 0 .2-.13.2.2 0 0 0 .02-.09v-1.22a.21.21 0 0 0-.07-.16.22.22 0 0 0-.17-.05l-3.63-.02c-.64 0-1.25.25-1.7.68a2.36 2.36 0 0 0-.74 1.66v4.18c.01.62.26 1.2.7 1.64.45.44 1.05.68 1.68.69h3.7a.22.22 0 0 0 .16-.06.21.21 0 0 0 .07-.15v-.08Zm14.8-4.4v-.07c.27-.16.5-.38.68-.64.2-.28.33-.6.4-.93l.6-2.24a.2.2 0 0 0-.05-.18.21.21 0 0 0-.17-.07h-1.4c-.04 0-.1 0-.14.02a.2.2 0 0 0-.11.15l-.58 2.12c-.05.22-.14.43-.27.61-.1.14-.23.26-.38.34-.13.07-.28.12-.42.15l-.4.03h-1.03v-3.2a.2.2 0 0 0-.07-.16.22.22 0 0 0-.15-.06h-1.5a.22.22 0 0 0-.16.06.21.21 0 0 0-.08.14v8.42c0 .06.03.11.08.15.04.04.1.06.15.06h1.5a.22.22 0 0 0 .16-.06.21.21 0 0 0 .07-.15v-3.74h1.04c.26 0 .51.02.76.09.2.05.38.16.51.31.16.2.27.42.34.66l.79 2.73a.2.2 0 0 0 .07.11c.04.03.09.04.13.04h1.5a.22.22 0 0 0 .17-.07.21.21 0 0 0 .05-.18l-.8-2.93c-.04-.17-.1-.34-.16-.5a1.72 1.72 0 0 0-.23-.43c-.1-.13-.22-.24-.35-.33-.18-.1-.36-.2-.56-.26Zm5.4 1.3.5-1.6.49-1.79h.07l.48 1.8.49 1.59h-2.02Zm2.49 1.56.5 1.63c.04.15.12.2.22.2H39a.22.22 0 0 0 .18-.08.21.21 0 0 0 .03-.19l-2.67-7.86c-.12-.38-.3-.69-.76-.69H34.6a.66.66 0 0 0-.59.26c-.09.13-.16.28-.2.43l-2.66 7.85a.2.2 0 0 0 .03.2.22.22 0 0 0 .18.08h1.56c.05 0 .1 0 .14-.03a.2.2 0 0 0 .09-.1.74.74 0 0 0 .04-.1l.5-1.6h2.94Zm8.01-4.18a1.13 1.13 0 0 1-.34.81 1.18 1.18 0 0 1-.84.34h-1.75v-2.3h1.67a1.2 1.2 0 0 1 .89.3 1.16 1.16 0 0 1 .37.85Zm-2.93 5.75v-2.95h2.14a2.91 2.91 0 0 0 2.02-.85 2.8 2.8 0 0 0 .56-3.11 2.75 2.75 0 0 0-1.77-1.53 3.63 3.63 0 0 0-.98-.12h-3.27a.64.64 0 0 0-.6.36.6.6 0 0 0-.05.24v8.01a.2.2 0 0 0 .06.15.22.22 0 0 0 .16.06h1.52a.22.22 0 0 0 .19-.11c.02-.05.03-.1.02-.16v.01Zm-41.06.27h3.37c1.66.06 3.04-1.08 3.1-2.77a2.86 2.86 0 0 0-2.87-2.85H1.97v-1.56h3.88a.22.22 0 0 0 .17-.07.21.21 0 0 0 .06-.17v-1.12c0-.17-.05-.28-.23-.28H.71a.64.64 0 0 0-.48.16.61.61 0 0 0-.2.46v7.58a.6.6 0 0 0 .18.44.64.64 0 0 0 .45.18Zm15.42-7.98-.12 1.91a50.4 50.4 0 0 1-.12 1.7c-.07.8-.16 2.7-1.21 2.7h-.04a.22.22 0 0 0-.15.07.21.21 0 0 0-.07.14v1.23a.21.21 0 0 0 .06.16.22.22 0 0 0 .16.07h.1c.79 0 1.49-.09 2.09-.98.2-.29.35-.6.47-.94.13-.4.22-.8.28-1.2.07-.43.12-.91.17-1.44l.12-1.72.06-.89h2.5v6.95a.21.21 0 0 0 .07.16.22.22 0 0 0 .17.06h1.5a.22.22 0 0 0 .21-.14.2.2 0 0 0 .01-.1V24.4a.63.63 0 0 0-.2-.45.66.66 0 0 0-.48-.17h-4.93a.65.65 0 0 0-.43.18.62.62 0 0 0-.2.41l-.02.24ZM2.87 35.58l-.58.96-1.11 1.76-.1.14a.43.43 0 0 1-.1.09.33.33 0 0 1-.13.04l-.16.01H.43a.4.4 0 0 1-.34-.12.55.55 0 0 1-.09-.32V34.2c0-.08.05-.12.14-.12h.7c.06 0 .1.01.11.03.02.03.03.06.03.1v2.87h.04l.55-.9 1.14-1.82.1-.14a.39.39 0 0 1 .1-.1.32.32 0 0 1 .12-.04H3.46a.45.45 0 0 1 .34.1c.07.1.1.22.1.35v3.93c0 .08-.05.12-.14.12h-.71c-.04 0-.09 0-.12-.03a.14.14 0 0 1-.03-.1v-2.88h-.03Zm2.88 2.87c0 .06 0 .1-.03.1a.22.22 0 0 1-.12.03h-.65c-.1 0-.15-.04-.15-.13v-3.12c0-.08.05-.12.15-.12h.65c.05 0 .09 0 .12.03.02.01.03.04.03.1v1.1h1.23v-1.1c0-.09.05-.13.15-.13h.66a.2.2 0 0 1 .12.03.13.13 0 0 1 .02.1v3.11c0 .06 0 .1-.02.1a.2.2 0 0 1-.12.03h-.66c-.1 0-.15-.04-.15-.13v-1.29H5.75v1.3Zm4.68-2.48v2.48c0 .06-.01.1-.03.1a.22.22 0 0 1-.12.03h-.65c-.1 0-.15-.04-.15-.13v-2.48h-.93c-.1 0-.14-.05-.14-.14v-.47c0-.04 0-.08.03-.12.01-.02.05-.03.1-.03h2.83a.14.14 0 0 1 .1.03c.03.04.04.08.03.12v.47c0 .1-.04.14-.13.14h-.94Zm2.87-.84c.51 0 .9.13 1.15.38a1.45 1.45 0 0 1 .38 1.07.61.61 0 0 1-.13.46.5.5 0 0 1-.36.12h-1.68c0 .11.03.23.07.34a.58.58 0 0 0 .41.33l.3.03c.14 0 .27-.01.4-.04l.36-.12a.22.22 0 0 1 .11-.01c.03 0 .05.03.06.06l.2.46a.1.1 0 0 1 .02.09.16.16 0 0 1-.07.06c-.17.11-.37.19-.57.23-.2.04-.4.06-.6.06-.57 0-.99-.14-1.26-.41-.28-.28-.42-.72-.42-1.33 0-.25.04-.5.12-.75.07-.2.18-.4.33-.56.14-.16.32-.27.51-.35.21-.08.44-.12.67-.12Zm.02.77a.57.57 0 0 0-.44.19.79.79 0 0 0-.2.47h1.23c0-.09-.01-.18-.03-.26a.56.56 0 0 0-.1-.21.44.44 0 0 0-.17-.14.69.69 0 0 0-.3-.05Zm3.16 3.88c0 .05 0 .08-.03.09a.21.21 0 0 1-.11.02h-.68c-.03 0-.07 0-.1-.02-.02-.01-.04-.04-.04-.09V35.6c0-.04.01-.08.03-.11a.25.25 0 0 1 .1-.09c.23-.1.47-.17.71-.2.25-.04.5-.06.74-.06.27 0 .54.04.79.14a1.33 1.33 0 0 1 .79.93 2.66 2.66 0 0 1 0 1.36c-.06.2-.16.39-.3.56-.12.16-.29.28-.47.37-.22.1-.46.14-.7.14a3.62 3.62 0 0 1-.73-.08v1.22Zm1.29-2.9c0-.15-.02-.3-.06-.45a.72.72 0 0 0-.15-.29.57.57 0 0 0-.25-.15c-.1-.03-.22-.05-.33-.05a1.96 1.96 0 0 0-.5.08v1.75a2.02 2.02 0 0 0 .54.07.72.72 0 0 0 .54-.22c.14-.15.2-.4.2-.75Zm2.66 1.57c0 .06 0 .1-.03.1a.22.22 0 0 1-.12.03h-.65c-.1 0-.15-.04-.15-.13v-3.12c0-.08.05-.12.15-.12h.65c.05 0 .09 0 .12.03a.12.12 0 0 1 .03.1v1.1h1.23v-1.1c0-.09.05-.13.15-.13h.66a.2.2 0 0 1 .12.03.13.13 0 0 1 .03.1v3.11c0 .06-.01.1-.03.1a.2.2 0 0 1-.12.03h-.66c-.1 0-.15-.04-.15-.13v-1.29h-1.23v1.3Zm4.52-3.32c.51 0 .9.13 1.15.38a1.46 1.46 0 0 1 .38 1.07.61.61 0 0 1-.13.46.5.5 0 0 1-.36.12h-1.68c0 .11.03.23.07.34a.57.57 0 0 0 .41.33 1.7 1.7 0 0 0 .7-.01c.12-.03.25-.07.36-.12a.21.21 0 0 1 .11-.01c.03 0 .05.03.06.06l.2.46a.1.1 0 0 1 .02.09.16.16 0 0 1-.07.06c-.17.11-.36.19-.56.23-.2.04-.4.06-.6.06-.57 0-1-.14-1.27-.41-.28-.28-.4-.72-.4-1.33-.01-.25.03-.5.1-.75.08-.2.2-.4.34-.56.14-.15.32-.27.51-.35.21-.08.44-.12.67-.12Zm.02.77a.57.57 0 0 0-.44.19.79.79 0 0 0-.2.47h1.23c0-.09 0-.18-.03-.26a.56.56 0 0 0-.1-.21.45.45 0 0 0-.17-.14.7.7 0 0 0-.29-.05Zm3.86.07v2.48c0 .06 0 .1-.03.1a.22.22 0 0 1-.12.03h-.65c-.1 0-.15-.04-.15-.13v-2.48h-.93c-.09 0-.13-.05-.13-.14v-.47c0-.04 0-.08.02-.12.02-.02.05-.03.1-.03h2.84a.15.15 0 0 1 .1.03.2.2 0 0 1 .03.12v.47c0 .1-.04.14-.13.14h-.95Zm5.4 2.49c.01.03 0 .07-.02.1a.18.18 0 0 1-.12.02h-.71c-.1 0-.14-.04-.14-.12v-3.52h-1.76v3.52c0 .03-.01.07-.03.1a.2.2 0 0 1-.12.02h-.72c-.1 0-.14-.04-.14-.12v-3.94c0-.12.03-.23.1-.33a.42.42 0 0 1 .33-.1h2.93a.43.43 0 0 1 .33.1c.07.1.1.21.1.33v3.94h-.02Zm3.84-.3c0 .05 0 .1-.02.15a.24.24 0 0 1-.11.1 3.11 3.11 0 0 1-1.04.22l-.35.02c-.25 0-.5-.02-.74-.08a1.33 1.33 0 0 1-.46-.23.82.82 0 0 1-.25-.34c-.1-.28-.1-.6.01-.88a.98.98 0 0 1 .26-.36c.12-.1.27-.2.43-.24.2-.06.4-.1.6-.09h.72v-.1c0-.06 0-.12-.02-.18a.29.29 0 0 0-.08-.14.46.46 0 0 0-.17-.1.96.96 0 0 0-.3-.04l-.22.01-.25.03a4.76 4.76 0 0 0-.45.09.17.17 0 0 1-.12 0 .12.12 0 0 1-.04-.09l-.1-.45a.14.14 0 0 1 0-.1.11.11 0 0 1 .06-.04 4.54 4.54 0 0 1 1.26-.2c.48 0 .83.1 1.05.3a1.13 1.13 0 0 1 .33.88v1.86Zm-.95-1.1h-.71a.5.5 0 0 0-.2.07.4.4 0 0 0-.2.38c0 .06 0 .12.03.18.03.05.07.1.12.13.13.07.28.1.42.1h.1c.05 0 .1 0 .15-.02l.15-.02.14-.05v-.77Zm2.76 2.72c0 .05 0 .08-.02.09a.2.2 0 0 1-.11.02h-.68c-.04 0-.07 0-.1-.02-.03-.01-.04-.04-.04-.09V35.6c0-.04.01-.08.03-.11a.26.26 0 0 1 .1-.09c.23-.1.47-.17.71-.2a5 5 0 0 1 .74-.06c.27 0 .54.04.79.14a1.34 1.34 0 0 1 .79.93 2.67 2.67 0 0 1-.01 1.36c-.06.2-.15.39-.28.56-.13.16-.3.28-.49.37-.21.1-.45.14-.68.14a3.66 3.66 0 0 1-.75-.08v1.22Zm1.3-2.9c0-.15-.02-.3-.06-.45a.7.7 0 0 0-.15-.29.56.56 0 0 0-.25-.15c-.11-.03-.22-.05-.34-.05a1.94 1.94 0 0 0-.5.08v1.75a1.97 1.97 0 0 0 .55.07.72.72 0 0 0 .54-.22c.14-.15.2-.4.2-.75Zm4.9 0c0 .56-.15 1-.42 1.3-.28.3-.7.46-1.26.46s-.98-.16-1.25-.46c-.26-.31-.39-.74-.39-1.3 0-.26.04-.5.12-.75a1.44 1.44 0 0 1 .85-.9c.22-.08.45-.12.69-.12.55 0 .96.16 1.24.47.28.3.42.74.42 1.28v.01Zm-1 .01c0-.13-.02-.26-.04-.4a.87.87 0 0 0-.1-.3.57.57 0 0 0-.52-.28.58.58 0 0 0-.51.26 1.3 1.3 0 0 0-.17.7c-.02.26.04.51.15.74a.55.55 0 0 0 .51.25.6.6 0 0 0 .31-.08.6.6 0 0 0 .21-.2c.06-.1.1-.2.12-.3.03-.13.04-.26.04-.39Zm4.37-1.68a.41.41 0 0 1 .3.1c.07.08.1.18.09.29v2.85a.12.12 0 0 1-.03.1.22.22 0 0 1-.12.03h-.67l-.12-.03a.14.14 0 0 1-.03-.1v-2.48h-.8l-.02.33c-.02.37-.05.69-.09.96-.02.24-.08.47-.18.69-.07.18-.2.34-.35.46-.18.14-.39.24-.6.3-.07.02-.11.02-.14 0a.16.16 0 0 1-.06-.08l-.18-.44a.21.21 0 0 1-.02-.11c0-.03.03-.05.1-.08.1-.05.19-.1.27-.18a.68.68 0 0 0 .18-.27c.06-.16.1-.32.11-.48.03-.2.05-.46.07-.79l.05-.7c0-.1.03-.2.1-.3.09-.06.2-.09.3-.08h1.84Zm1.66 3.37a.42.42 0 0 1-.33-.1.43.43 0 0 1-.08-.28v-2.87c0-.08.05-.12.14-.12h.66c.04 0 .08 0 .12.03a.12.12 0 0 1 .03.1v.92h.81c.26 0 .52.04.76.14.16.07.3.18.42.32.09.11.15.24.18.38l.04.33a1.07 1.07 0 0 1-.37.82c-.12.11-.26.2-.41.25-.17.06-.34.09-.51.09l-1.46-.01Zm1.77-1.18a.44.44 0 0 0-.12-.3.44.44 0 0 0-.34-.13h-.77v.87h.76a.5.5 0 0 0 .23-.04.39.39 0 0 0 .22-.26.55.55 0 0 0 .02-.13Z" fill="#399AE3"/></svg>