<svg width="60" height="16" fill="none" xmlns="http://www.w3.org/2000/svg"><path d="M3.4 10.77a2.2 2.2 0 0 0 2.15 2.27c1.49 0 2.39-1.23 2.39-3.16 0-1.7-.79-3.08-2.37-3.08-.96 0-1.82.71-2.1 1.78a3 3 0 0 0-.07.63v1.56ZM.96 14.73c.04-.65.08-1.72.08-2.7V.73H3.4v5.72h.04a3.36 3.36 0 0 1 3-1.54c2.29 0 3.92 1.95 3.9 4.87 0 3.45-2.13 5.17-4.25 5.17a3.2 3.2 0 0 1-2.96-1.66H3.1l-.11 1.44H.96ZM18.75 8.91c.02-.89-.36-2.34-1.94-2.34-1.46 0-2.08 1.36-2.17 2.34h4.11Zm-4.11 1.7c.06 1.73 1.38 2.48 2.88 2.48 1.1 0 1.89-.15 2.6-.43l.35 1.68c-.81.33-1.93.59-3.27.59-3.04 0-4.83-1.92-4.83-4.85 0-2.67 1.58-5.17 4.58-5.17 3.03 0 4.03 2.56 4.03 4.67 0 .46-.03.81-.07 1.03h-6.27Z" fill="#F27421"/><path d="M26 7.8c.3.09.68.1 1.16.1 1.77 0 2.85-.88 2.85-2.44 0-1.48-1-2.27-2.64-2.27-.65 0-1.11.06-1.36.12v4.5Zm-2.34-6.19c.85-.15 2.02-.27 3.62-.27 1.73 0 3 .37 3.82 1.08a3.8 3.8 0 0 1 1.27 2.94c0 1.26-.38 2.3-1.11 3.02-.95.97-2.43 1.42-4.1 1.42-.44 0-.85-.02-1.15-.08v5.01h-2.35V1.61ZM39.55 10.04c-1.67-.04-3.27.33-3.27 1.8 0 .94.6 1.37 1.35 1.37.94 0 1.63-.63 1.85-1.32.05-.18.07-.37.07-.53v-1.32Zm.31 4.69-.15-1.07h-.06a3.44 3.44 0 0 1-2.77 1.29 2.81 2.81 0 0 1-2.94-2.86c0-2.43 2.1-3.65 5.55-3.63V8.3c0-.63-.25-1.68-1.9-1.68-.92 0-1.88.3-2.52.71l-.46-1.57A6.6 6.6 0 0 1 38 4.9c3 0 3.86 1.95 3.86 4.04v3.47c0 .87.04 1.72.13 2.31h-2.13ZM45.04 5.13h2.38v9.6h-2.38v-9.6Zm2.52-2.69c0 .73-.52 1.3-1.35 1.3-.79 0-1.3-.57-1.3-1.3 0-.75.53-1.32 1.32-1.32.8 0 1.3.57 1.33 1.32M56.9 9.13c0-.2-.02-.43-.05-.63-.22-.95-.96-1.72-2.04-1.72-1.52 0-2.37 1.38-2.37 3.18 0 1.75.85 3.03 2.35 3.03.96 0 1.8-.67 2.04-1.71.05-.22.07-.45.07-.71V9.13Zm2.37-8.4v11.3c0 .98.04 2.05.08 2.7h-2.12l-.1-1.52h-.03a3.35 3.35 0 0 1-3.06 1.74c-2.23 0-4-1.96-4-4.91-.02-3.22 1.94-5.13 4.2-5.13 1.28 0 2.2.55 2.63 1.26h.03V.73h2.37Z" fill="#fff"/></svg>