<svg xmlns="http://www.w3.org/2000/svg" width="48" height="48" fill="none"><path fill="#fff" d="M30 46.7a8.7 8.7 0 0 1-3.2-.9 8.1 8.1 0 0 0-2.8-.82c-.98.1-1.93.38-2.8.83-1.41.59-2.86 1.2-4.22.73-1.37-.47-2.26-1.9-3.08-3.24a8.25 8.25 0 0 0-1.73-2.32 7.83 7.83 0 0 0-2.66-1.02c-1.49-.39-3.02-.79-3.9-2.03-.86-1.24-.73-2.84-.64-4.42.14-1 .1-2.03-.1-3.02-.37-.89-.9-1.7-1.55-2.4-1-1.24-2.02-2.52-2.02-4.09 0-1.57 1.03-2.85 2.02-4.08a8.28 8.28 0 0 0 1.55-2.4c.21-1 .25-2.02.12-3.02-.1-1.58-.2-3.2.65-4.43.85-1.22 2.4-1.64 3.89-2.02a7.88 7.88 0 0 0 2.66-1.03c.7-.66 1.3-1.44 1.73-2.31.82-1.36 1.65-2.78 3.07-3.24 1.43-.47 2.82.14 4.22.73.87.44 1.82.71 2.79.82.98-.1 1.93-.38 2.8-.83 1.41-.59 2.86-1.2 4.22-.73 1.37.46 2.26 1.9 3.08 3.24a8.26 8.26 0 0 0 1.73 2.32c.82.5 1.72.85 2.66 1.02 1.49.39 3.02.79 3.9 2.03.86 1.24.73 2.84.64 4.42-.14 1-.1 2.03.1 3.02.37.89.9 1.7 1.55 2.4 1 1.24 2.02 2.52 2.02 4.09 0 1.57-1.03 2.85-2.02 4.08a8.27 8.27 0 0 0-1.55 2.4c-.21 1-.25 2.02-.12 3.02.1 1.58.2 3.2-.65 4.43-.85 1.22-2.4 1.64-3.89 2.02-.94.18-1.84.52-2.66 1.03a8.3 8.3 0 0 0-1.73 2.31c-.82 1.36-1.65 2.78-3.07 3.24a3.1 3.1 0 0 1-1.01.17Zm-6-3.01c1.15.09 2.28.4 3.31.92 1.23.52 2.4 1 3.3.7.9-.3 1.65-1.47 2.37-2.69a9.22 9.22 0 0 1 2.05-2.68c.95-.62 2-1.04 3.12-1.25 1.3-.34 2.55-.65 3.14-1.5.6-.87.5-2.19.41-3.6a9.86 9.86 0 0 1 .17-3.5 9.3 9.3 0 0 1 1.8-2.85c.9-1.08 1.74-2.13 1.74-3.24 0-1.1-.85-2.16-1.74-3.24a9.35 9.35 0 0 1-1.78-2.83 9.9 9.9 0 0 1-.17-3.5c.1-1.41.18-2.75-.4-3.6-.6-.83-1.84-1.16-3.15-1.5a8.85 8.85 0 0 1-3.14-1.27 9.22 9.22 0 0 1-2.07-2.68c-.72-1.22-1.4-2.36-2.37-2.69-.97-.32-2.05.18-3.28.7a9.08 9.08 0 0 1-3.31.92 9.08 9.08 0 0 1-3.31-.92c-1.24-.52-2.4-1.01-3.3-.7-.9.31-1.65 1.47-2.37 2.69a9.22 9.22 0 0 1-2.05 2.68c-.95.62-2 1.04-3.12 1.25-1.3.34-2.55.65-3.14 1.5-.6.87-.52 2.16-.43 3.6.15 1.17.1 2.35-.17 3.5a9.3 9.3 0 0 1-1.78 2.85C3.43 21.84 2.6 22.89 2.6 24c0 1.1.85 2.16 1.74 3.24a9.35 9.35 0 0 1 1.78 2.83 9.9 9.9 0 0 1 .17 3.5c-.1 1.41-.18 2.75.4 3.6.6.83 1.84 1.16 3.15 1.5 1.12.22 2.19.65 3.14 1.27a9.22 9.22 0 0 1 2.07 2.68c.72 1.22 1.4 2.36 2.37 2.69.97.32 2.06-.18 3.3-.7a9.08 9.08 0 0 1 3.29-.92Z"/><path fill="#fff" d="M15.57 28.1a4.1 4.1 0 1 1-.03-8.2 4.1 4.1 0 0 1 .03 8.2Zm0-6.9a2.8 2.8 0 1 0-.03 5.6 2.8 2.8 0 0 0 .03-5.6Zm16.86 6.9a4.1 4.1 0 1 1 .03-8.2 4.1 4.1 0 0 1-.03 8.2Zm0-6.9a2.8 2.8 0 1 0 .03 5.6 2.8 2.8 0 0 0-.03-5.6ZM20.56 35.05h-.21a.65.65 0 0 1-.41-.82l6.89-20.85a.65.65 0 1 1 1.23.4l-6.89 20.82a.65.65 0 0 1-.61.45Z"/></svg>