<svg width="16" height="15" viewBox="0 0 16 15" fill="none" xmlns="http://www.w3.org/2000/svg">
<path d="M4.16071 5.0888V11.1602H1.83929V5.0888H4.16071ZM4.875 5.07451C4.875 4.68791 4.5616 4.37451 4.175 4.37451H1.825C1.4384 4.37451 1.125 4.68791 1.125 5.07451V11.1745C1.125 11.5611 1.4384 11.8745 1.825 11.8745H4.175C4.5616 11.8745 4.875 11.5611 4.875 11.1745V5.07451ZM9.16071 1.3388V11.1602H6.83929V1.3388H9.16071ZM9.875 1.32451C9.875 0.937912 9.5616 0.624512 9.175 0.624512H6.825C6.4384 0.624512 6.125 0.937912 6.125 1.32451V11.1745C6.125 11.5611 6.4384 11.8745 6.825 11.8745H9.175C9.5616 11.8745 9.875 11.5611 9.875 11.1745V1.32451ZM14.1607 8.2138V11.1602H11.8393V8.2138H14.1607ZM14.875 8.19951C14.875 7.81291 14.5616 7.49951 14.175 7.49951H11.825C11.4384 7.49951 11.125 7.81291 11.125 8.19951V11.1745C11.125 11.5611 11.4384 11.8745 11.825 11.8745H14.175C14.5616 11.8745 14.875 11.5611 14.875 11.1745V8.19951Z" fill="#F07E1A"/>
</svg>
