<?xml version="1.0" encoding="utf-8"?>
<!-- Generator: Adobe Illustrator 16.0.0, SVG Export Plug-In . SVG Version: 6.00 Build 0)  -->
<!DOCTYPE svg PUBLIC "-//W3C//DTD SVG 1.1//EN" "http://www.w3.org/Graphics/SVG/1.1/DTD/svg11.dtd">
<svg version="1.1" id="Layer_1" xmlns="http://www.w3.org/2000/svg" xmlns:xlink="http://www.w3.org/1999/xlink" x="0px" y="0px"
	 width="106px" height="69px" viewBox="0 0 106 69" enable-background="new 0 0 106 69" xml:space="preserve">
<path fill="#F5F5F5" d="M98.061,69H7.938C3.554,69,0,65.47,0,61.111V7.887C0,3.532,3.554,0,7.938,0h90.123
	C102.446,0,106,3.531,106,7.887v53.224C106,65.47,102.446,69,98.061,69z"/>
<g>
	<path fill="#73AF00" d="M50.604,56.006c1.011-0.752,1.889-0.996,3.248-1.244c1.36-0.244,2.796-0.663,3.549-0.863
		c0.761-0.209-2.552,0.994-3.395,1.234C53.177,55.384,50.604,56.006,50.604,56.006L50.604,56.006z"/>
	<path fill="#73AF00" d="M56.078,53.893c-0.272-1.698,0.404-3.486,1.95-4.2C58.392,50.926,57.283,53.018,56.078,53.893
		L56.078,53.893z"/>
	<path fill="#73AF00" d="M58.721,53.012c-0.83-1.419,0.563-3.242,1.604-4.129C60.804,49.735,59.961,52.278,58.721,53.012
		L58.721,53.012z"/>
	<path fill="#73AF00" d="M61.153,51.917c-0.879-1.212,0.167-3.331,1.283-4.17C62.868,48.947,62.437,51.092,61.153,51.917
		L61.153,51.917z"/>
	<path fill="#73AF00" d="M63.595,50.393c-0.811-1.143-0.245-2.916,0.92-4.072C65.344,47.276,64.633,49.34,63.595,50.393
		L63.595,50.393z"/>
	<path fill="#73AF00" d="M65.555,48.869c-0.677-1.081,0.152-3.664,1.239-4.379C67.262,45.447,66.912,48.149,65.555,48.869
		L65.555,48.869z"/>
	<path fill="#73AF00" d="M67.107,48.461c-0.195-1.545,2.523-3.256,3.635-3.209C70.621,46.514,69.457,47.9,67.107,48.461
		L67.107,48.461z"/>
	<path fill="#73AF00" d="M65.589,50.206c1.282-1.302,3.757-1.302,4.636-1.032C69.994,49.936,67.066,51.593,65.589,50.206
		L65.589,50.206z"/>
	<path fill="#73AF00" d="M63.832,51.516c1.798-0.478,2.962-0.867,4.036,0.242C67.107,52.715,64.194,52.431,63.832,51.516
		L63.832,51.516z"/>
	<path fill="#73AF00" d="M61.267,52.672c1.722-0.914,3.807,0.436,4.12,1.221C63.469,54.688,61.23,52.873,61.267,52.672
		L61.267,52.672z"/>
	<path fill="#73AF00" d="M58.908,53.98c1.569-0.596,3.368,0.195,4.079,1.068C62.151,55.451,59.961,55.887,58.908,53.98L58.908,53.98
		z"/>
	<path fill="#73AF00" d="M56.761,54.653c1.799-0.2,3.521,1.156,3.897,1.926C58.371,56.801,57.485,56.115,56.761,54.653
		L56.761,54.653z"/>
	<path fill="#73AF00" d="M56.182,56.006c-0.997-0.752-1.875-0.996-3.235-1.244c-1.36-0.244-2.797-0.663-3.563-0.863
		c-0.746-0.209,2.567,0.994,3.41,1.234C53.63,55.384,56.182,56.006,56.182,56.006L56.182,56.006z"/>
	<path fill="#73AF00" d="M50.708,53.893c0.286-1.698-0.391-3.486-1.953-4.2C48.407,50.926,49.517,53.018,50.708,53.893
		L50.708,53.893z"/>
	<path fill="#73AF00" d="M48.079,53.012c0.844-1.419-0.565-3.242-1.604-4.129C45.995,49.735,46.839,52.278,48.079,53.012
		L48.079,53.012z"/>
	<path fill="#73AF00" d="M45.633,51.917c0.893-1.212-0.154-3.331-1.27-4.17C43.924,48.947,44.363,51.092,45.633,51.917
		L45.633,51.917z"/>
	<path fill="#73AF00" d="M43.199,50.393c0.801-1.143,0.244-2.916-0.914-4.072C41.456,47.276,42.167,49.34,43.199,50.393
		L43.199,50.393z"/>
	<path fill="#73AF00" d="M41.247,48.869c0.69-1.081-0.154-3.664-1.242-4.379C39.524,45.447,39.887,48.149,41.247,48.869
		L41.247,48.869z"/>
	<path fill="#73AF00" d="M39.677,48.461c0.209-1.545-2.51-3.256-3.62-3.209C36.177,46.514,37.321,47.9,39.677,48.461L39.677,48.461z
		"/>
	<path fill="#73AF00" d="M41.211,50.206c-1.282-1.302-3.758-1.302-4.636-1.032C36.818,49.936,39.733,51.593,41.211,50.206
		L41.211,50.206z"/>
	<path fill="#73AF00" d="M42.968,51.516c-1.799-0.478-2.963-0.867-4.038,0.242C39.677,52.715,42.606,52.431,42.968,51.516
		L42.968,51.516z"/>
	<path fill="#73AF00" d="M45.521,52.672c-1.716-0.914-3.793,0.436-4.108,1.221C43.331,54.688,45.555,52.873,45.521,52.672
		L45.521,52.672z"/>
	<path fill="#73AF00" d="M47.87,53.98c-1.562-0.596-3.353,0.195-4.065,1.068C44.649,55.451,46.839,55.887,47.87,53.98L47.87,53.98z"
		/>
	<path fill="#73AF00" d="M50.046,54.653c-1.813-0.2-3.535,1.156-3.905,1.926C48.442,56.801,49.321,56.115,50.046,54.653
		L50.046,54.653z"/>
</g>
<path fill="#FFC850" d="M30.634,28.986c0,0-0.5,0.647,0.348,2.286c0.848,1.639,0.239,3.531,1.152,4.136
	c0.915,0.606,0.039,1.805,1.085,2.604c1.047,0.801,3.798,2.642,5.697,2.855c1.899,0.215,3.745-1.691,4.839-0.284
	c1.096,1.407,0.856,2.397,1.889,2.509c1.034,0.108,1.034-0.346,0.958-1.025c-0.076-0.682,0.686-2.573,2.437-2.573
	c1.751,0,3.606-0.207,6.563-1.314c2.955-1.106,4.401-1.637,4.782-3.376c0.382-1.741,1.463-3.797,3.55-2.845
	c2.085,0.954,1.944,0.506,2.587,0.05c0.643-0.458,2.789,0.865,3.275,0.166c0.486-0.7-3.805-4.159-3.561-5.985
	c0.24-1.826,0.818-3.342,2.586-3.492s1.31-2.116,3.139-3.101c1.828-0.983,2.668-1.096,4.113-2.553
	c1.443-1.458,5.243-4.406,5.243-4.406s-7.392,3.517-8.869,3.838c-1.478,0.322-2.088,2.44-6.2,3.575
	c-4.112,1.135-4.342,1.589-7.462,2.271c-2.812,0.614-9.164,0.407-12.921-0.791c-0.518-0.166-1.033,0.241-0.986,0.78
	c0.154,1.814,0.11,5.077-2.108,5.583c0,0-3.022-2.243-4.926-1.26c-1.904,0.983-3.258,4.492-4.675,3.948
	C31.754,30.036,31.569,27.785,30.634,28.986z"/>
</svg>
