<svg width="16" height="16" fill="none" xmlns="http://www.w3.org/2000/svg"><g clip-path="url(#a)"><path d="M15.73 2.86a2.92 2.92 0 0 0-2.6-2.59 48.42 48.42 0 0 0-10.26 0 2.92 2.92 0 0 0-2.6 2.6 48.42 48.42 0 0 0 0 10.26 2.91 2.91 0 0 0 2.6 2.6c3.4.36 6.85.36 10.26 0a2.91 2.91 0 0 0 2.6-2.6c.36-3.4.36-6.85 0-10.27Zm-5.2 4.2-.16 1.39a.26.26 0 0 1-.25.23H8.66v4.13a.19.19 0 0 1-.19.19H7a.18.18 0 0 1-.18-.19V8.68h-1.1a.26.26 0 0 1-.25-.26v-1.4a.26.26 0 0 1 .25-.26h1.1V5.4C6.82 3.85 7.75 3 9.1 3h1.11a.26.26 0 0 1 .26.27v1.17a.26.26 0 0 1-.26.26h-.68c-.74 0-.89.37-.89.9v1.16h1.63a.26.26 0 0 1 .25.3Z" fill="#98A3B2"/></g><defs><clipPath id="a"><path fill="#fff" d="M0 0h16v16H0z"/></clipPath></defs></svg>