<svg width="40" height="40" viewBox="0 0 40 40" fill="none" xmlns="http://www.w3.org/2000/svg">
<g clip-path="url(#clip0_2456_2826)">
<path d="M33.7886 33.7886C30.1316 37.4455 25.1717 39.5 20 39.5C14.8283 39.5 9.86838 37.4455 6.21142 33.7886C2.55446 30.1316 0.5 25.1717 0.5 20C0.5 14.8283 2.55446 9.86838 6.21142 6.21142C9.86838 2.55446 14.8283 0.5 20 0.5C25.1717 0.5 30.1316 2.55446 33.7886 6.21142C37.4455 9.86838 39.5 14.8283 39.5 20C39.5 25.1717 37.4455 30.1316 33.7886 33.7886Z" stroke="#3B5998"/>
<path d="M24.14 19.98H21.47V30H17.42V19.98H15.5V16.46H17.42V14.18C17.42 12.55 18.18 10 21.5 10L24.5 10.01V13.43H22.33C21.97 13.43 21.47 13.61 21.47 14.39V16.46H24.49L24.14 19.98V19.98Z" fill="#3B5998"/>
</g>
<defs>
<clipPath id="clip0_2456_2826">
<rect width="40" height="40" fill="white"/>
</clipPath>
</defs>
</svg>
