<svg width="60" height="28" fill="none" xmlns="http://www.w3.org/2000/svg"><g clip-path="url(#a)"><path d="M28.35 14.48v6.83H26.1V4.41h5.85c1.42 0 2.77.51 3.82 1.47a4.63 4.63 0 0 1 1.58 3.6c0 1.4-.53 2.65-1.58 3.6a5.51 5.51 0 0 1-3.82 1.47l-3.6-.07Zm0-8.01v5.88h3.75c.82 0 1.65-.3 2.17-.89 1.2-1.1 1.2-2.93.08-4.04l-.08-.07a2.76 2.76 0 0 0-2.17-.88h-3.75ZM42.52 9.4c1.65 0 2.93.45 3.9 1.33a4.5 4.5 0 0 1 1.43 3.53v7.05h-2.1V19.7h-.08A4.28 4.28 0 0 1 42 21.68a5.1 5.1 0 0 1-3.3-1.1 3.87 3.87 0 0 1-1.35-2.87c0-1.17.45-2.13 1.35-2.86.9-.74 2.17-1.03 3.67-1.03 1.35 0 2.4.22 3.23.73v-.51c0-.74-.3-1.47-.9-1.91a3.3 3.3 0 0 0-2.18-.81c-1.27 0-2.25.51-2.92 1.54l-1.95-1.17a5.76 5.76 0 0 1 4.87-2.28Zm-2.85 8.38c0 .6.3 1.1.75 1.4.53.37 1.13.59 1.73.59.9 0 1.8-.37 2.47-1.03a3.08 3.08 0 0 0 1.13-2.35 4.75 4.75 0 0 0-2.93-.81c-.9 0-1.65.22-2.25.66-.6.37-.9.88-.9 1.54ZM60 9.77l-7.43 16.69h-2.25l2.78-5.8-4.88-10.81h2.4l3.53 8.3h.07l3.45-8.3H60v-.08Z" fill="#5F6368"/><path d="M19.43 13c0-.65-.08-1.32-.15-1.98H9.9v3.75h5.33a4.45 4.45 0 0 1-1.95 2.94v2.43h3.22c1.88-1.7 2.93-4.2 2.93-7.13Z" fill="#4285F4"/><path d="M9.9 22.49c2.7 0 4.95-.88 6.6-2.35l-3.22-2.43c-.9.59-2.03.96-3.38.96a5.86 5.86 0 0 1-5.55-4.05h-3.3v2.5A9.93 9.93 0 0 0 9.9 22.5Z" fill="#34A853"/><path d="M4.35 14.62a5.37 5.37 0 0 1 0-3.74v-2.5h-3.3a9.48 9.48 0 0 0 0 8.74l3.3-2.5Z" fill="#FBBC04"/><path d="M9.9 6.9c1.42 0 2.78.52 3.82 1.48l2.85-2.8a9.6 9.6 0 0 0-6.6-2.5 9.85 9.85 0 0 0-8.85 5.37l3.3 2.5A5.7 5.7 0 0 1 9.9 6.91Z" fill="#EA4335"/></g><defs><clipPath id="a"><path fill="#fff" d="M0 0h60v28H0z"/></clipPath></defs></svg>