<?xml version="1.0" encoding="utf-8"?>
<!-- Generator: Adobe Illustrator 21.0.0, SVG Export Plug-In . SVG Version: 6.00 Build 0)  -->
<svg version="1.1" id="Слой_1" xmlns="http://www.w3.org/2000/svg" xmlns:xlink="http://www.w3.org/1999/xlink" x="0px" y="0px"
	 viewBox="0 0 15 15" style="enable-background:new 0 0 15 15;" xml:space="preserve">
<path d="M7.5,4.4c-1.7,0-3.1,1.4-3.1,3.1s1.4,3.1,3.1,3.1s3.1-1.4,3.1-3.1S9.2,4.4,7.5,4.4z M7.5,9.8c-1.3,0-2.3-1-2.3-2.3
	s1-2.3,2.3-2.3s2.3,1,2.3,2.3S8.8,9.8,7.5,9.8z"/>
<path d="M13.7,6l-1-0.2c-0.1-0.3-0.2-0.5-0.3-0.8l0.6-0.9C13,4,13,3.8,12.9,3.7l-1.6-1.6C11.2,2,11,2,10.8,2.1L10,2.6
	C9.7,2.5,9.5,2.4,9.2,2.3L9,1.3C9,1.1,8.8,1,8.6,1H6.4C6.2,1,6.1,1.1,6,1.3l-0.2,1C5.5,2.4,5.3,2.5,5,2.6L4.2,2.1C4,2,3.8,2,3.7,2.1
	L2.1,3.7C2,3.8,2,4,2.1,4.1L2.6,5C2.5,5.3,2.4,5.5,2.3,5.8L1.3,6C1.1,6,1,6.2,1,6.4v2.2C1,8.8,1.1,8.9,1.3,9l1,0.2
	C2.4,9.4,2.5,9.7,2.6,10l-0.6,0.9C2,11,2,11.2,2.1,11.3l1.6,1.6C3.8,13,4,13,4.2,12.9L5,12.4c0.2,0.1,0.5,0.2,0.8,0.3l0.2,1
	c0,0.2,0.2,0.3,0.4,0.3h2.2C8.8,14,9,13.9,9,13.7l0.2-1c0.3-0.1,0.5-0.2,0.8-0.3l0.9,0.6c0.2,0.1,0.4,0.1,0.5-0.1l1.6-1.6
	c0.1-0.1,0.2-0.3,0.1-0.5L12.4,10c0.1-0.2,0.2-0.5,0.3-0.8l1-0.2c0.2,0,0.3-0.2,0.3-0.4V6.4C14,6.2,13.9,6,13.7,6z M13.2,8.3
	l-0.9,0.2c-0.1,0-0.3,0.1-0.3,0.3c-0.1,0.4-0.2,0.7-0.4,1c-0.1,0.1-0.1,0.3,0,0.4l0.5,0.8L11,12.1l-0.8-0.5c-0.1-0.1-0.3-0.1-0.4,0
	c-0.3,0.2-0.7,0.3-1,0.4c-0.1,0-0.2,0.2-0.3,0.3l-0.2,0.9H6.7l-0.2-0.9c0-0.1-0.1-0.3-0.3-0.3c-0.4-0.1-0.7-0.2-1-0.4
	c-0.1-0.1-0.3-0.1-0.4,0L4,12.1L2.9,11l0.5-0.8c0.1-0.1,0.1-0.3,0-0.4C3.2,9.5,3.1,9.1,3,8.7c0-0.1-0.2-0.2-0.3-0.3L1.8,8.3V6.7
	l0.9-0.2C2.8,6.5,3,6.4,3,6.2c0.1-0.4,0.2-0.7,0.4-1c0.1-0.1,0.1-0.3,0-0.4L2.9,4L4,2.9l0.8,0.5c0.1,0.1,0.3,0.1,0.4,0
	c0.3-0.2,0.7-0.3,1-0.4c0.1,0,0.2-0.2,0.3-0.3l0.2-0.9h1.6l0.2,0.9c0,0.1,0.1,0.3,0.3,0.3c0.4,0.1,0.7,0.2,1,0.4
	c0.1,0.1,0.3,0.1,0.4,0L11,2.9L12.1,4l-0.5,0.8c-0.1,0.1-0.1,0.3,0,0.4c0.2,0.3,0.3,0.7,0.4,1c0,0.1,0.2,0.2,0.3,0.3l0.9,0.2V8.3z"
	/>
</svg>
