<svg width="16" height="16" fill="none" xmlns="http://www.w3.org/2000/svg"><g clip-path="url(#a)"><path d="M10.02 4H5.98A1.97 1.97 0 0 0 4 5.99v4.04a1.97 1.97 0 0 0 1.97 1.97h4.04A1.97 1.97 0 0 0 12 10.02V5.98A1.97 1.97 0 0 0 10.02 4ZM8 10.6A2.59 2.59 0 1 1 8 5.4a2.59 2.59 0 0 1 0 5.18Zm2.6-4.54a.64.64 0 1 1 0-1.27.64.64 0 0 1 0 1.27ZM8 6.42a1.58 1.58 0 1 0 0 3.16 1.58 1.58 0 0 0 0-3.16ZM10.02 4H5.98A1.97 1.97 0 0 0 4 5.98v4.04a1.97 1.97 0 0 0 1.97 1.97h4.04A1.97 1.97 0 0 0 12 10.02V5.98A1.97 1.97 0 0 0 10.02 4ZM8 10.59A2.59 2.59 0 1 1 8 5.4a2.59 2.59 0 0 1 0 5.18Zm2.6-4.54a.64.64 0 1 1 0-1.27.64.64 0 0 1 0 1.27ZM8 6.42a1.58 1.58 0 1 0 0 3.16 1.58 1.58 0 0 0 0-3.16Zm7.73-3.56a2.91 2.91 0 0 0-2.6-2.59 48.42 48.42 0 0 0-10.26 0 2.91 2.91 0 0 0-2.6 2.6 48.42 48.42 0 0 0 0 10.26 2.91 2.91 0 0 0 2.6 2.6c3.4.36 6.85.36 10.26 0a2.91 2.91 0 0 0 2.6-2.6c.36-3.4.36-6.85 0-10.27ZM13 10.02A2.98 2.98 0 0 1 10.02 13H5.98A2.98 2.98 0 0 1 3 10.02V5.98A2.98 2.98 0 0 1 5.98 3h4.04A2.98 2.98 0 0 1 13 5.98v4.04Zm-2.98-6.01H5.98A1.97 1.97 0 0 0 4 5.98v4.04a1.97 1.97 0 0 0 1.97 1.97h4.04A1.97 1.97 0 0 0 12 10.02V5.98A1.97 1.97 0 0 0 10.02 4ZM8 10.59A2.59 2.59 0 1 1 8 5.4a2.59 2.59 0 0 1 0 5.18Zm2.6-4.54a.64.64 0 1 1 0-1.27.64.64 0 0 1 0 1.27ZM8 6.42a1.58 1.58 0 1 0 0 3.16 1.58 1.58 0 0 0 0-3.16Z" fill="#98A3B2"/></g><defs><clipPath id="a"><path fill="#fff" d="M0 0h16v16H0z"/></clipPath></defs></svg>