<?xml version="1.0" encoding="utf-8"?>
<!-- Generator: Adobe Illustrator 21.0.0, SVG Export Plug-In . SVG Version: 6.00 Build 0)  -->
<svg version="1.1" id="Слой_1" xmlns="http://www.w3.org/2000/svg" xmlns:xlink="http://www.w3.org/1999/xlink" x="0px" y="0px"
	 viewBox="0 0 183 30" style="enable-background:new 0 0 183 30;" xml:space="preserve">
<style type="text/css">
	.st0{fill:#ffffff;}
</style>
<g>
	<g>
		<path class="st0" d="M77.3,23.6l-7.4-10.1v10.1h-4.5V6.1H70l7,9.6V6.1h4.5v17.5H77.3z M53.5,10.5l-2.2,6.6h4.4L53.5,10.5z
			 M57.8,23.6L56.9,21H50l-0.9,2.5H44L50.5,6h5.6l6.6,17.5h-4.9V23.6z M37,6.1h4.5v17.5H37V6.1z M28.6,11.9c0-1.2-1-1.9-2.2-1.9
			h-3.5v3.7h3.5C27.6,13.8,28.6,13.1,28.6,11.9 M28.1,23.6l-2.9-5.9h-2.3v5.9h-4.5V6.1h8.7c3.9,0,6.1,2.6,6.1,5.8
			c0,3-1.9,4.7-3.5,5.2l3.5,6.4h-5.1V23.6z M10.6,11.9c0-1.2-0.9-1.9-2.1-1.9H4.9v3.7h3.6C9.7,13.8,10.6,13.1,10.6,11.9 M0.4,23.6
			V6.1h8.7c3.9,0,6,2.6,6,5.8c0,3.1-2.1,5.8-6,5.8H4.9v5.9H0.4z M150.6,6.1l11.2,0l0,3.4H155l0,3.8h6.3l0,3.4H155l0,6.8l-4.4,0
			L150.6,6.1z M180.8,14.7c0,5.7-3.5,9.2-8.6,9.2c-5.2,0-8.2-3.9-8.2-8.9c0-5.3,3.4-9.2,8.5-9.2C177.8,5.8,180.8,9.9,180.8,14.7z
			 M168.1,14.9c0,3.4,1.6,5.8,4.3,5.8c2.7,0,4.2-2.5,4.2-6c0-3.1-1.5-5.8-4.2-5.8C169.7,9,168.1,11.5,168.1,14.9z M122.3,6.3h4.4
			v17.3h-4.4V6.3z M142.5,23.6l-7.4-10.1v10.1h-4.5V6.2h4.6l7,9.6V6.2h4.5v17.4H142.5z"/>
		<path class="st0" d="M101.9,0.3c-8,0-14.5,6.5-14.5,14.5s6.5,14.6,14.5,14.6s14.5-6.5,14.5-14.6C116.4,6.8,109.9,0.3,101.9,0.3"/>
	</g>
</g>
</svg>
