<?xml version="1.0" encoding="utf-8"?>
<!-- Generator: Adobe Illustrator 16.0.0, SVG Export Plug-In . SVG Version: 6.00 Build 0)  -->
<!DOCTYPE svg PUBLIC "-//W3C//DTD SVG 1.1//EN" "http://www.w3.org/Graphics/SVG/1.1/DTD/svg11.dtd">
<svg version="1.1" id="Layer_1" xmlns="http://www.w3.org/2000/svg" xmlns:xlink="http://www.w3.org/1999/xlink" x="0px" y="0px"
	 width="134px" height="34px" viewBox="0 0 134 34" enable-background="new 0 0 134 34" xml:space="preserve">
<path fill="#FFFFFF" d="M2.399,34c-0.309,0-0.621-0.061-0.918-0.186C0.581,33.434-0.003,32.549,0,31.57V12.143C0,5.447,5.383,0,12,0
	s12,5.447,12,12.143c0,4.972-2.968,9.255-7.206,11.13l6.503,6.58c0.938,0.953,0.938,2.482,0,3.436
	c-0.924,0.938-2.434,0.948-3.371,0.023c-0.008-0.008-0.016-0.016-0.024-0.023l-9.599-9.715c-0.688-0.699-0.893-1.739-0.521-2.646
	c0.366-0.904,1.243-1.496,2.218-1.498c3.97,0,7.2-3.27,7.2-7.287c0-4.018-3.23-7.286-7.2-7.286s-7.2,3.269-7.2,7.286v13.566
	l1.279-1.295c0.923-0.938,2.431-0.949,3.369-0.026c0.009,0.009,0.018,0.018,0.026,0.026c0.937,0.953,0.937,2.481,0,3.436
	l-5.376,5.439C3.649,33.743,3.038,34,2.399,34z"/>
<g>
	<path fill="#FFFFFF" d="M40.708,18.533c0.918-0.253,1.685-0.772,2.3-1.557c0.614-0.785,0.922-1.787,0.922-3.007
		c0-1.475-0.467-2.671-1.401-3.59C41.595,9.46,40.366,9,38.84,9h-5.393C32.483,9,32,9.492,32,10.474v13.124
		c0,0.381,0.132,0.709,0.397,0.986c0.252,0.272,0.609,0.424,0.98,0.416c0.374,0,0.692-0.139,0.957-0.416s0.397-0.605,0.397-0.986
		v-4.66h3.175l3.665,5.47c0.254,0.382,0.687,0.605,1.145,0.593c0.358,0,0.661-0.135,0.911-0.404C43.875,24.327,44,24.041,44,23.74
		c0.006-0.313-0.083-0.62-0.257-0.881L40.708,18.533z M40.521,15.8c-0.507,0.459-1.155,0.689-1.946,0.689h-3.798v-5.04h3.798
		c0.791,0,1.439,0.23,1.946,0.69c0.506,0.46,0.76,1.069,0.76,1.831C41.281,14.73,41.027,15.34,40.521,15.8z M55.765,11.471
		c0.326,0.002,0.639-0.127,0.867-0.36C56.877,10.871,57,10.583,57,10.248c0-0.352-0.123-0.648-0.368-0.888
		C56.387,9.12,56.098,9,55.765,9h-8.292C46.491,9,46,9.496,46,10.487v13.025C46,24.504,46.491,25,47.474,25h8.292
		c0.333,0,0.621-0.119,0.867-0.359C56.879,24.4,57,24.105,57,23.752c0-0.336-0.123-0.623-0.368-0.863
		c-0.245-0.24-0.534-0.358-0.867-0.358H48.78v-4.438h6.818c0.333,0,0.622-0.119,0.867-0.359c0.242-0.231,0.376-0.554,0.368-0.889
		c0-0.336-0.123-0.624-0.368-0.864c-0.245-0.24-0.534-0.36-0.867-0.36H48.78v-4.15L55.765,11.471z M68.168,10.555
		c-0.174-0.447-0.473-0.835-0.859-1.12C66.932,9.15,66.472,8.998,66,9c-0.473-0.002-0.933,0.15-1.31,0.436
		c-0.387,0.284-0.684,0.673-0.858,1.12l-4.719,12.537C59.038,23.326,59,23.492,59,23.586c0,0.393,0.131,0.727,0.395,1.002
		C59.658,24.861,59.979,25,60.355,25c0.564,0.003,1.066-0.359,1.242-0.895l0.791-2.264h7.225l0.791,2.264
		c0.09,0.268,0.248,0.482,0.474,0.647S71.359,25,71.646,25c0.375,0,0.695-0.139,0.959-0.412C72.868,24.313,73,23.979,73,23.586
		c0-0.094-0.037-0.26-0.111-0.494L68.168,10.555z M63.223,19.415L66,11.475l2.777,7.94H63.223z M83.752,22.551h-5.947V10.403
		c0-0.38-0.135-0.709-0.406-0.987C77.143,9.146,76.786,8.995,76.414,9c-0.396,0-0.734,0.139-1.007,0.416
		c-0.265,0.26-0.411,0.616-0.407,0.987v13.123C75,24.509,75.495,25,76.486,25h7.266c0.336,0,0.628-0.119,0.875-0.357
		c0.244-0.227,0.379-0.546,0.373-0.879c0-0.332-0.125-0.617-0.373-0.854C84.396,22.677,84.08,22.547,83.752,22.551z M94.163,9
		h-9.659c-0.314,0-0.59,0.119-0.822,0.357c-0.23,0.233-0.356,0.551-0.349,0.879c0,0.333,0.116,0.618,0.349,0.855
		c0.233,0.237,0.508,0.357,0.822,0.357h3.512v12.149c0,0.379,0.129,0.709,0.385,0.985C88.652,24.861,88.969,25,89.346,25
		c0.358,0,0.666-0.139,0.922-0.416s0.385-0.605,0.385-0.986V11.449h3.512c0.314,0,0.589-0.119,0.82-0.357
		c0.229-0.226,0.354-0.534,0.35-0.855c0-0.348-0.115-0.642-0.35-0.879C94.773,9.128,94.475,8.999,94.163,9z M99.512,9
		c-0.428,0-0.785,0.138-1.076,0.413C98.146,9.688,98,10.013,98,10.39v13.219c0,0.377,0.146,0.703,0.436,0.979
		C98.727,24.861,99.084,25,99.512,25c0.411,0,0.762-0.139,1.053-0.412c0.291-0.275,0.437-0.602,0.437-0.979V10.39
		c0-0.377-0.146-0.703-0.437-0.978S99.923,9,99.512,9z M115.673,9c-0.358,0-0.667,0.138-0.923,0.413
		c-0.25,0.264-0.387,0.615-0.382,0.978v9.897l-7.242-10.533C106.795,9.251,106.331,9,105.73,9c-0.479,0-0.889,0.177-1.226,0.53
		c-0.333,0.343-0.515,0.806-0.505,1.284v12.795c0,0.377,0.127,0.703,0.382,0.979c0.255,0.273,0.569,0.412,0.943,0.412
		c0.36,0,0.669-0.139,0.924-0.412c0.255-0.275,0.382-0.602,0.382-0.979V13.407l7.445,10.886c0.314,0.473,0.75,0.707,1.305,0.707
		c0.449,0,0.831-0.168,1.146-0.507c0.314-0.337,0.473-0.734,0.473-1.188V10.39c0-0.377-0.127-0.703-0.383-0.978
		C116.377,9.144,116.033,8.994,115.673,9L115.673,9z M132.611,16.409h-4.659c-0.313,0-0.587,0.116-0.817,0.348
		c-0.227,0.218-0.353,0.519-0.349,0.833c0,0.34,0.116,0.625,0.349,0.855c0.23,0.231,0.504,0.349,0.817,0.349h3.427v2.408
		c-0.388,0.37-0.9,0.692-1.533,0.973c-0.633,0.276-1.314,0.419-2.005,0.416c-1.479,0-2.708-0.528-3.687-1.586
		c-0.977-1.057-1.467-2.396-1.467-4.018c0-1.62,0.49-2.956,1.467-4.005c0.979-1.049,2.207-1.575,3.687-1.575
		c1.298,0,2.418,0.486,3.359,1.458c0.237,0.248,0.53,0.371,0.873,0.371c0.327,0,0.612-0.119,0.852-0.358
		c0.239-0.24,0.358-0.536,0.358-0.892c0.008-0.337-0.122-0.663-0.358-0.903C131.581,9.695,129.887,9,127.841,9
		c-2.211,0-4.069,0.737-5.579,2.211c-1.508,1.475-2.262,3.4-2.262,5.777c0,2.377,0.754,4.307,2.262,5.79
		c1.51,1.482,3.368,2.223,5.579,2.223c2.091,0,3.904-0.695,5.442-2.084c0.479-0.432,0.717-1.02,0.717-1.76v-3.313
		C134,16.888,133.536,16.409,132.611,16.409L132.611,16.409z"/>
</g>
</svg>
