<?xml version="1.0" encoding="utf-8"?>
<!-- Generator: Adobe Illustrator 20.1.0, SVG Export Plug-In . SVG Version: 6.00 Build 0)  -->
<svg version="1.1" id="Слой_1" xmlns="http://www.w3.org/2000/svg" xmlns:xlink="http://www.w3.org/1999/xlink" x="0px" y="0px"
	 viewBox="0 0 114 44" style="enable-background:new 0 0 114 44;" xml:space="preserve">
<style type="text/css">
	.st0{fill:#FFFFFF;}
</style>
<path class="st0" d="M24.2,21.3c-0.4,0.7-1,1.2-1.7,1.5l2.7,5.6h-4.4l-2.2-4.9h-1.5v4.9h-3.9V15h7.5c0.9,0,1.6,0.2,2.2,0.6
	c0.6,0.4,1.1,0.9,1.4,1.5c0.3,0.6,0.5,1.3,0.5,2.1C24.8,20,24.6,20.7,24.2,21.3z M20.5,18.4c-0.2-0.2-0.5-0.4-0.8-0.4h-2.6v2.5h2.6
	c0.3,0,0.6-0.1,0.8-0.4c0.2-0.2,0.3-0.5,0.3-0.9C20.8,18.9,20.7,18.7,20.5,18.4z M11,21.3c-1.4,2.2-3,2.1-5,2.2c-0.5,0-2.1,0-2.1,0
	v4.9H0V15h7.5c0.9,0,1.6,0.2,2.2,0.6c0.6,0.4,1.1,0.9,1.4,1.5c0.3,0.6,0.5,1.3,0.5,2.1C11.6,20,11.4,20.7,11,21.3z M7.3,18.4
	c-0.2-0.2-0.5-0.4-0.8-0.4H3.9v2.5h2.6c0.3,0,0.6-0.1,0.8-0.4s0.3-0.5,0.3-0.9C7.6,18.9,7.5,18.7,7.3,18.4z M27.2,28.4V15h3.9v13.4
	H27.2z M42.1,28.4l-0.5-1.9h-4.3l-0.5,1.9h-4L37.3,15h4.6l4.5,13.4H42.1z M38.1,23.5h2.6l-1.3-4.8h0L38.1,23.5z M56.5,28.4l-5.1-6.5
	v6.5h-3.6V15h3.4l5.1,6.6V15h3.6v13.4H56.5z M85.5,21.8c0,6-4.9,10.9-10.9,10.9c-6,0-10.9-4.9-10.9-10.9S68.7,11,74.7,11
	S85.5,15.8,85.5,21.8z M94.1,23.4l-1.5,1.5v3.5H89V15h3.6v5.5L97,15h4.4l-5,5.9l5,7.5h-4.2L94.1,23.4z M107.4,25.4h6.6v3h-11.5v-3
	l6.6-7.3h-6.6V15H114v3L107.4,25.4z"/>
</svg>
