<svg xmlns="http://www.w3.org/2000/svg" viewBox="150 0 1000 890" style="width:100%; height:100%">
	<path fill="#fff" d="M749.14,515.701c50.504-54.674,82.012-127.883,82.012-208.505C831.151,138.076,693.538,0,523.955,0
			C354.371,0,216.758,138.076,216.758,307.196c0,169.121,137.613,307.197,307.197,307.197c69.038,0,132.516-22.703,183.946-61.161
			L936.329,781.66c5.561,5.56,12.511,8.34,19.461,8.34c6.949,0,14.363-2.78,19.46-8.34c10.657-10.658,10.657-28.264,0-39.384
			L749.14,515.701z M272.359,307.196c0-138.54,112.592-251.595,251.596-251.595c138.54,0,251.595,112.593,251.595,251.595
			c0,139.004-112.592,251.596-251.595,251.596C384.952,558.792,272.359,445.737,272.359,307.196z"/>
	</svg>
