<svg width="52" height="40" fill="none" xmlns="http://www.w3.org/2000/svg"><path d="M9.49 39.67v-2.63a1.55 1.55 0 0 0-1.01-1.57 1.6 1.6 0 0 0-.66-.1 1.66 1.66 0 0 0-1.5.74 1.55 1.55 0 0 0-1.4-.74 1.42 1.42 0 0 0-1.24.62v-.52h-.93v4.2h.94v-2.3a.97.97 0 0 1 .6-1.05 1 1 0 0 1 .44-.07c.6 0 .92.4.92 1.1v2.34h.93v-2.33a.98.98 0 0 1 .62-1.04c.13-.06.28-.08.42-.07.63 0 .94.4.94 1.1v2.34l.93-.02Zm13.8-4.2h-1.51V34.2h-.93v1.27H20v.84h.86v1.93c0 .98.39 1.56 1.48 1.56.4 0 .8-.11 1.15-.33l-.26-.78c-.25.15-.53.23-.82.24-.44 0-.61-.28-.61-.7V36.3h1.5v-.84Zm7.9-.1a1.26 1.26 0 0 0-1.13.61v-.5h-.91v4.2h.92v-2.36c0-.7.3-1.08.9-1.08.19 0 .38.03.57.1l.28-.88a2 2 0 0 0-.65-.11l.01.02Zm-11.93.44a3.2 3.2 0 0 0-1.73-.44c-1.08 0-1.78.5-1.78 1.34 0 .69.52 1.11 1.47 1.24l.44.06c.51.07.75.2.75.44 0 .33-.34.51-.97.51-.5.02-1-.14-1.41-.44l-.45.72a3.1 3.1 0 0 0 1.84.54c1.23 0 1.94-.57 1.94-1.37 0-.8-.56-1.13-1.48-1.26l-.45-.06c-.4-.05-.72-.13-.72-.41 0-.28.3-.5.81-.5.47.01.93.13 1.33.37l.41-.74Zm24.76-.44a1.26 1.26 0 0 0-1.12.61v-.5H42v4.2h.92v-2.36c0-.7.3-1.08.9-1.08.19 0 .38.03.57.1l.28-.88a2 2 0 0 0-.65-.11l.01.02Zm-11.9 2.2a2.1 2.1 0 0 0 1.38 2.06c.28.1.58.15.88.13.55.03 1.1-.15 1.53-.5l-.45-.74c-.32.24-.7.38-1.1.38a1.37 1.37 0 0 1-.9-.43 1.34 1.34 0 0 1 .9-2.26c.4 0 .78.14 1.1.38l.45-.74a2.24 2.24 0 0 0-1.53-.5 2.17 2.17 0 0 0-2.12 1.33 2.1 2.1 0 0 0-.15.87v.01Zm8.65 0v-2.1h-.92v.51a1.61 1.61 0 0 0-1.34-.61 2.19 2.19 0 1 0 0 4.4 1.63 1.63 0 0 0 1.34-.62v.5h.92v-2.09Zm-3.44 0a1.26 1.26 0 0 1 .84-1.12 1.3 1.3 0 0 1 1.37.32 1.26 1.26 0 0 1-.92 2.14 1.29 1.29 0 0 1-1.22-.83 1.25 1.25 0 0 1-.07-.52Zm-11.16-2.2a2.19 2.19 0 0 0-1.52 3.77c.43.4 1 .63 1.59.62A2.6 2.6 0 0 0 28 39.2l-.44-.68c-.35.28-.79.44-1.24.44-.3.03-.6-.06-.85-.26-.23-.19-.39-.46-.42-.76h3.16v-.36c0-1.31-.83-2.2-2.02-2.2h-.02Zm0 .81a1.06 1.06 0 0 1 1 .63c.05.12.08.26.08.4h-2.22c.01-.29.14-.55.35-.74.21-.2.5-.3.78-.29h.01Zm23.16 1.4v-3.8h-.88v2.2a1.61 1.61 0 0 0-1.34-.61 2.19 2.19 0 1 0 0 4.4 1.63 1.63 0 0 0 1.34-.62v.5h.88v-2.08Zm1.55 1.48a.45.45 0 0 1 .3.12l.1.13a.4.4 0 0 1-.1.46.44.44 0 0 1-.13.09.42.42 0 0 1-.17.03.45.45 0 0 1-.4-.25.41.41 0 0 1 0-.33c.02-.04.05-.09.09-.13a.44.44 0 0 1 .32-.12h-.01Zm0 .75a.32.32 0 0 0 .23-.1.32.32 0 0 0 0-.44.33.33 0 0 0-.23-.1.34.34 0 0 0-.24.1.32.32 0 0 0 0 .44l.1.07.15.03h-.01Zm.02-.53c.04 0 .09.01.12.04a.1.1 0 0 1 .03.04.1.1 0 0 1 0 .05.1.1 0 0 1-.02.08.16.16 0 0 1-.1.04l.13.14h-.1l-.12-.14h-.04v.14h-.08v-.38h.18Zm-.1.08v.1h.1a.1.1 0 0 0 .06 0v-.08a.1.1 0 0 0-.06 0l-.1-.02Zm-4.88-1.79a1.26 1.26 0 0 1 .84-1.12 1.3 1.3 0 0 1 1.37.32 1.27 1.27 0 0 1 .25 1.38 1.28 1.28 0 0 1-1.17.77 1.29 1.29 0 0 1-1.22-.83 1.25 1.25 0 0 1-.07-.52Zm-31.22 0v-2.1h-.92v.51a1.61 1.61 0 0 0-1.33-.61 2.19 2.19 0 1 0 0 4.4 1.63 1.63 0 0 0 1.33-.62v.5h.92v-2.08Zm-3.44 0a1.26 1.26 0 0 1 .85-1.12 1.3 1.3 0 0 1 1.37.32 1.26 1.26 0 0 1-.93 2.15 1.29 1.29 0 0 1-1.22-.83 1.25 1.25 0 0 1-.08-.52h.01Z" fill="#fff"/><path d="M32.96 3.45h-14v24.88h14V3.45Z" fill="#FF5F00"/><path d="M19.84 15.9a15.65 15.65 0 0 1 6.11-12.45A16.1 16.1 0 0 0 2.51 7.5a15.7 15.7 0 0 0 0 16.79 15.94 15.94 0 0 0 6.56 5.84 16.16 16.16 0 0 0 16.88-1.8 15.83 15.83 0 0 1-6.1-12.44Z" fill="#EB001B"/><path d="M51.84 15.9c0 2.96-.84 5.87-2.43 8.39a15.94 15.94 0 0 1-6.57 5.84 16.16 16.16 0 0 1-16.88-1.8 15.86 15.86 0 0 0 6.1-12.44 15.68 15.68 0 0 0-6.1-12.44A16.1 16.1 0 0 1 49.4 7.5a15.7 15.7 0 0 1 2.43 8.4ZM50.32 25.7v-.51h.2v-.1H50v.1h.22v.5h.1Zm1.02 0v-.62h-.16l-.18.44-.2-.44h-.13v.62h.11v-.46l.18.4h.12l.17-.4v.46h.1Z" fill="#F79E1B"/></svg>