<svg width="40" height="40" fill="none" xmlns="http://www.w3.org/2000/svg"><path d="M38.53 39.44h-.07v.2h-.04v-.2h-.08v-.04h.2l-.01.04Zm.3.2h-.04v-.2l-.07.18h-.04l-.07-.17v.2h-.04v-.25h.06l.07.17.07-.17h.05v.24Zm-36.02 0H2.3v-5.93h.52v5.93Zm3.98-5.93c.46 0 .91.06 1.35.2.38.13.73.33 1.02.6.29.26.5.58.65.93.3.8.3 1.67 0 2.47a2.6 2.6 0 0 1-1.67 1.52c-.44.15-.9.22-1.35.21H4.61v-5.93h2.18Zm-1.66.49v4.95h1.66c.4 0 .78-.05 1.16-.18.3-.1.6-.27.84-.5.23-.21.4-.48.51-.78.23-.65.23-1.37 0-2.03a2.1 2.1 0 0 0-1.35-1.28 3.51 3.51 0 0 0-1.16-.17l-1.66-.01Zm11.28-.56a3.25 3.25 0 0 1 1.43.33 2.7 2.7 0 0 1 1 .9l-.43.28a2.1 2.1 0 0 0-.83-.74 2.41 2.41 0 0 0-1.16-.27c-.34 0-.67.06-1 .18a2.37 2.37 0 0 0-1.32 1.32c-.26.66-.26 1.4 0 2.06a2.4 2.4 0 0 0 2.32 1.5 2.3 2.3 0 0 0 2-1l.42.3a2.53 2.53 0 0 1-1 .88 3.37 3.37 0 0 1-2.62.1 2.87 2.87 0 0 1-1.61-1.58 3.34 3.34 0 0 1 0-2.46 2.87 2.87 0 0 1 1.61-1.58c.39-.15.8-.22 1.2-.22Zm4.2 2.71a1.53 1.53 0 0 1 1-.7 2.02 2.02 0 0 1 1.1.07 1.4 1.4 0 0 1 .88.82c.09.21.13.44.12.67v2.45h-.49v-2.3c0-.18-.02-.37-.08-.54a1.07 1.07 0 0 0-.66-.67 1.56 1.56 0 0 0-1.07 0 1.27 1.27 0 0 0-.82 1.24v2.27h-.49v-6.1h.49l.01 2.8Zm6.3-.75a1.85 1.85 0 0 1 1.34.57c.17.19.3.4.4.64.1.27.14.54.14.82v.2h-3.37c.02.22.07.43.16.62a1.46 1.46 0 0 0 .82.75 1.8 1.8 0 0 0 1.33-.05c.23-.11.43-.25.6-.42l.27.33a2.38 2.38 0 0 1-.8.53 3.17 3.17 0 0 1-.85.14c-.28 0-.55-.06-.8-.16a1.89 1.89 0 0 1-1.07-1.06c-.1-.27-.15-.55-.15-.84a2.21 2.21 0 0 1 .56-1.49 2.03 2.03 0 0 1 1.43-.59l-.01.01Zm0 .43a1.48 1.48 0 0 0-1.01.39 1.5 1.5 0 0 0-.32.44c-.08.17-.13.36-.15.56h2.87c-.01-.2-.06-.39-.14-.57a1.34 1.34 0 0 0-1.25-.82Zm4.86-.43c.29 0 .57.05.84.16.25.1.47.26.65.46l-.32.34a1.6 1.6 0 0 0-1.18-.5 1.55 1.55 0 0 0-1.44.98c-.16.41-.16.87 0 1.28a1.48 1.48 0 0 0 .82.84c.2.08.4.12.61.12.23 0 .45-.04.66-.13.2-.1.38-.21.53-.36l.3.34c-.17.2-.4.35-.64.46-.27.1-.55.16-.83.16-.29 0-.57-.05-.83-.16a1.94 1.94 0 0 1-1.08-1.08c-.2-.53-.2-1.1 0-1.64a1.92 1.92 0 0 1 1.08-1.08c.26-.12.55-.2.84-.2v.01Zm3.13 1.75h.65l1.7-1.7h.62l-1.91 1.88 1.95 2.1h-.62l-1.71-1.86h-.65v1.87h-.52v-6.1h.49v3.8ZM7.35 30.66v-2.03a1.2 1.2 0 0 0-.78-1.21 1.23 1.23 0 0 0-.5-.08 1.27 1.27 0 0 0-1.15.58 1.2 1.2 0 0 0-1.08-.58 1.09 1.09 0 0 0-.96.48v-.4h-.71v3.24h.72v-1.8a.75.75 0 0 1 .47-.8c.1-.04.21-.06.33-.06.47 0 .7.3.7.86v1.8h.72v-1.8a.76.76 0 0 1 .48-.8c.1-.04.21-.06.32-.06.49 0 .72.3.72.86v1.8h.72Zm10.62-3.25h-1.16v-.98h-.72v.98h-.66v.63h.66v1.48c0 .75.3 1.2 1.13 1.2.32 0 .63-.08.9-.25l-.21-.6c-.19.12-.4.2-.62.2-.35 0-.48-.2-.48-.53v-1.5h1.16v-.63Zm6.06-.08a.97.97 0 0 0-.86.47v-.39h-.7v3.24h.71v-1.82c0-.53.23-.83.68-.83.16 0 .3.03.45.08l.22-.68a1.53 1.53 0 0 0-.5-.08Zm-9.16.34c-.4-.24-.87-.36-1.34-.34-.83 0-1.37.4-1.37 1.04 0 .52.4.85 1.13.95l.34.05c.4.05.58.16.58.34 0 .25-.26.4-.75.4-.39 0-.77-.12-1.08-.35l-.35.55c.42.29.92.44 1.42.42.94 0 1.5-.44 1.5-1.06 0-.61-.44-.86-1.15-.97l-.34-.04c-.31-.04-.56-.1-.56-.32s.24-.38.63-.38c.36 0 .7.1 1.02.28l.32-.57Zm19.04-.34a.97.97 0 0 0-.86.47v-.39h-.7v3.24h.7v-1.82c0-.53.24-.83.7-.83.14 0 .3.03.44.08l.21-.68a1.53 1.53 0 0 0-.5-.08h.01Zm-9.16 1.7a1.62 1.62 0 0 0 1.07 1.59c.21.08.44.11.67.1.43.02.85-.12 1.18-.39l-.34-.57c-.25.19-.55.3-.86.3a1.05 1.05 0 0 1-.96-1.04 1.04 1.04 0 0 1 .96-1.04c.31 0 .61.1.86.3l.34-.58c-.33-.27-.75-.4-1.18-.38a1.66 1.66 0 0 0-1.62 1.02c-.09.22-.13.44-.12.67v.01Zm6.66 0V27.4h-.71v.4a1.24 1.24 0 0 0-1.03-.48 1.72 1.72 0 0 0-1.7 1.7c0 .45.17.88.5 1.2.31.31.75.5 1.2.5a1.25 1.25 0 0 0 1.03-.48v.39h.7v-1.6Zm-2.65 0a.98.98 0 0 1 .65-.87 1 1 0 0 1 1.06.25.98.98 0 0 1-.72 1.65.99.99 0 0 1-.93-.64.97.97 0 0 1-.06-.4Zm-8.58-1.7a1.69 1.69 0 1 0 .05 3.39 2 2 0 0 0 1.34-.46l-.34-.52c-.27.22-.6.34-.95.34a.91.91 0 0 1-.98-.8h2.43v-.26c0-1.02-.64-1.7-1.55-1.7Zm0 .63a.82.82 0 0 1 .76.48c.04.1.07.2.07.3H19.3a.83.83 0 0 1 .87-.78h.01Zm17.84 1.07v-2.92h-.71v1.7a1.24 1.24 0 0 0-1.03-.48 1.72 1.72 0 0 0-1.7 1.7c0 .44.17.87.5 1.2.31.31.75.49 1.2.49a1.25 1.25 0 0 0 1.03-.48v.4h.7v-1.61Zm-2.65 0a.97.97 0 0 1 .65-.86 1 1 0 0 1 1.05.24.98.98 0 0 1 .2 1.06.98.98 0 0 1-.9.6.99.99 0 0 1-.94-.64.97.97 0 0 1-.06-.4Zm-24 0v-1.62h-.72v.4a1.24 1.24 0 0 0-1.03-.48 1.72 1.72 0 0 0-1.7 1.7c0 .44.18.87.5 1.2.32.31.75.49 1.2.49a1.25 1.25 0 0 0 1.03-.48v.4h.71v-1.61Zm-2.66 0a.97.97 0 0 1 .65-.86 1 1 0 0 1 1.06.24.98.98 0 0 1-.71 1.66.99.99 0 0 1-.94-.64.97.97 0 0 1-.06-.4Zm30.49 1.15a.34.34 0 0 1 .24.1c.03.02.05.05.07.1a.31.31 0 0 1-.07.35.34.34 0 0 1-.11.06.33.33 0 0 1-.31-.02.34.34 0 0 1-.13-.15.32.32 0 0 1 0-.25.34.34 0 0 1 .07-.1.34.34 0 0 1 .24-.09Zm0 .57a.24.24 0 0 0 .24-.24.25.25 0 0 0-.06-.17.25.25 0 0 0-.18-.08.26.26 0 0 0-.18.08.25.25 0 0 0 0 .34l.08.05c.03.02.07.02.1.03Zm.02-.4c.03 0 .06 0 .09.03l.02.03.01.04a.08.08 0 0 1-.02.06.12.12 0 0 1-.08.03l.1.11h-.07l-.1-.11h-.03v.11h-.06v-.3h.14Zm-.07.06v.08H39.26v-.03a.03.03 0 0 0 0-.03h-.04l-.07-.02Z" fill="#fff"/><path d="M25.4 2.72H14.65V21.9H25.4V2.7Z" fill="#FF5F00"/><path d="M15.32 12.31a12.1 12.1 0 0 1 4.7-9.6A12.36 12.36 0 0 0 1.98 5.85a12.13 12.13 0 0 0 5.06 17.45 12.4 12.4 0 0 0 12.98-1.38 12.2 12.2 0 0 1-4.7-9.6Z" fill="#EB001B"/><path d="M38.76 19.87v-.39h.16v-.08h-.4v.08h.15v.4h.09Zm.79 0v-.47h-.12l-.15.34-.14-.34H39v.47h.1v-.35l.13.3h.09l.13-.3v.36h.09ZM39.94 12.31A12.13 12.13 0 0 1 33 23.3a12.4 12.4 0 0 1-12.99-1.38 12.22 12.22 0 0 0 4.7-9.6 12.12 12.12 0 0 0-4.7-9.6 12.37 12.37 0 0 1 18.04 3.12 12.13 12.13 0 0 1 1.88 6.48Z" fill="#F79E1B"/></svg>