<svg width="32" height="32" fill="none" xmlns="http://www.w3.org/2000/svg"><g clip-path="url(#clip0)" fill="#07C"><path d="M18.13 0h-6.4c-.88 0-1.6.72-1.6 1.6v.53H9.6A1.6 1.6 0 008.1 3.2H5.87c-.89 0-1.6.72-1.6 1.6v23.47c0 .88.71 1.6 1.6 1.6h.53v.53c0 .88.72 1.6 1.6 1.6h18.13c.89 0 1.6-.72 1.6-1.6V6.93c0-.88-.71-1.6-1.6-1.6h-.53V4.8c0-.88-.72-1.6-1.6-1.6h-2.23a1.6 1.6 0 00-1.5-1.07h-.54V1.6c0-.88-.71-1.6-1.6-1.6zm8 6.4c.3 0 .54.24.54.53V30.4c0 .3-.24.53-.54.53H8a.53.53 0 01-.53-.53v-.53H24c.88 0 1.6-.72 1.6-1.6V6.4h.53zm-1.6-1.6v23.47c0 .3-.24.53-.53.53H5.87a.53.53 0 01-.54-.53V4.8c0-.3.24-.53.54-.53H8v1.06c0 .6.48 1.07 1.07 1.07H20.8c.59 0 1.07-.48 1.07-1.07V4.27H24c.3 0 .53.24.53.53zm-4.26-1.6c.3 0 .53.24.53.53v1.6H9.07v-1.6c0-.3.24-.53.53-.53h1.07c.3 0 .53-.24.53-.53V1.6c0-.3.24-.53.53-.53h6.4c.3 0 .54.24.54.53v1.07c0 .3.24.53.53.53h1.07z"/><path fill-rule="evenodd" clip-rule="evenodd" d="M16 2.67h-2.13a.53.53 0 000 1.06H16a.53.53 0 100-1.06z"/><path d="M8.93 15.08c.17.2.4.33.67.37v4.82c0 .88.72 1.6 1.6 1.6h7.47c.88 0 1.6-.72 1.6-1.6v-4.82c.26-.04.5-.17.67-.37l.68-.83a1.06 1.06 0 00-.15-1.5l-1.2-.98v-2.7c0-.6-.48-1.07-1.07-1.07h-1.07c-.59 0-1.06.48-1.06 1.07v.12L15.6 8c-.4-.32-.96-.32-1.35 0L8.4 12.75a1.06 1.06 0 00-.16 1.5l.69.83zm4.94 5.72v-2.67c0-.3.24-.53.53-.53h1.07c.3 0 .53.24.53.53v2.67h-2.13zm4.8 0h-1.6v-2.67c0-.88-.72-1.6-1.6-1.6H14.4c-.88 0-1.6.72-1.6 1.6v2.67h-1.6a.53.53 0 01-.53-.53v-5.23l4.26-3.38 4.27 3.38v5.23c0 .3-.24.53-.53.53zm-.54-11.73h1.07v1.84l-1.07-.86v-.98zm-3.19-.23l5.86 4.73-.68.83h-.02l-4.84-3.84a.53.53 0 00-.66 0L9.75 14.4l-.68-.82 5.87-4.74z"/><path fill-rule="evenodd" clip-rule="evenodd" d="M13.87 22.93H6.93a.53.53 0 000 1.07h6.94a.53.53 0 000-1.07zM13.87 25.07H6.93a.53.53 0 000 1.06h6.94a.53.53 0 100-1.06zM16 22.93A.53.53 0 0016 24h6.93a.53.53 0 100-1.07H16zM22.93 25.07H16a.53.53 0 000 1.06h6.93a.53.53 0 100-1.06z"/></g><defs><clipPath id="clip0"><path fill="#fff" d="M0 0h32v32H0z"/></clipPath></defs></svg>