<svg width="64" height="64" fill="none" xmlns="http://www.w3.org/2000/svg"><path d="M55.414 16.586a2 2 0 1 1-2.828 2.828 2 2 0 0 1 2.828-2.828Z" fill="#D3DEEB"/><path d="M58 8H47.658A6.012 6.012 0 0 0 42 4H22c-2.57 0-4.755 1.631-5.608 3.907l3.218 3.218c.227-.324.39-.698.39-1.125 0-1.103.896-2 2-2h20c1.103 0 2 .897 2 2 0 1.106.894 2 2 2h12c1.103 0 2 .897 2 2v36c0 .426-.164.8-.392 1.124l2.851 2.851C63.406 52.915 64 51.531 64 50V14c0-3.309-2.69-6-6-6Z" fill="#D3DEEB"/><path d="M46.728 38.244A15.905 15.905 0 0 0 48 32c0-8.822-7.178-16-16-16-2.215 0-4.324.454-6.244 1.271l3.175 3.176C29.917 20.185 30.933 20 32 20c6.617 0 12 5.383 12 12 0 1.067-.185 2.083-.448 3.068l3.176 3.176ZM0 2.828l5.248 5.248C2.298 8.451 0 10.95 0 14v36c0 3.309 2.691 6 6 6h47.172l8 8L64 61.172 2.828 0 0 2.828ZM6 52c-1.103 0-2-.896-2-2V14c0-1.103.897-2 2-2h3.172l10.277 10.278C17.338 24.98 16 28.312 16 32c0 8.822 7.178 16 16 16 3.688 0 7.029-1.328 9.733-3.439l7.439 7.44H6Zm16.288-26.883 16.606 16.605C36.939 43.125 34.585 44 32 44c-6.617 0-12-5.383-12-12 0-2.585.885-4.929 2.288-6.883Z" fill="#D3DEEB"/></svg>