<svg xmlns="http://www.w3.org/2000/svg" width="32" height="32" fill="none"><g fill="#003073" clip-path="url(#a)"><path fill-rule="evenodd" d="m17.9 19.62-6.86 9.2a.53.53 0 1 0 .85.65l6.87-9.21a.53.53 0 0 0-.85-.64Z" clip-rule="evenodd"/><path d="m1.16 22.15 2.85.95a.88.88 0 0 0 .77-.07l9.74-5.84c.12.35.27.7.44 1.02l-1.7 2.3c-.15.19-.2.43-.17.67l.14.98-1.06.32a.91.91 0 0 0-.66.88c.01.23.04.45.08.67l.05.27-1.07.31a.92.92 0 0 0-.64 1l.11.82-1.02.3a1.65 1.65 0 0 0-1.14 1.95l.58 2.6a.9.9 0 0 0 .88.72h.07l3-.2a.9.9 0 0 0 .68-.37l7-9.4a7.45 7.45 0 0 0 8.48-9.88 6.66 6.66 0 1 0-9.53-8.81 7.44 7.44 0 0 0-7.5 8.18l-2.46 1.47a.92.92 0 0 0-.4.55l-.25.97-1.1-.12a.91.91 0 0 0-.94.57 4.4 4.4 0 0 0-.18.66l-.06.26-1.1-.11a.91.91 0 0 0-.99.68l-.2.8-1.06-.1A1.63 1.63 0 0 0 1 18.5l-.45 2.62a.9.9 0 0 0 .61 1.02Zm25.91-4.17a6.36 6.36 0 0 1-7.06 2.94.53.53 0 0 0-.56.2l-7.17 9.61-2.8.2-.57-2.48a.6.6 0 0 1 .1-.48c.08-.1.19-.17.3-.2l1.16-.35a.9.9 0 0 0 .64-1L11 25.6l1.07-.32a.9.9 0 0 0 .64-1l-.06-.42-.07-.4 1.08-.31a.9.9 0 0 0 .64-1l-.15-1.07 1.87-2.5a.53.53 0 0 0 .04-.6 6.4 6.4 0 1 1 11.15-6.27c-.61.3-1.28.47-1.95.53a2.13 2.13 0 1 0-.11 1.07c.86-.04 1.7-.25 2.48-.62a6.39 6.39 0 0 1-.56 5.29Zm-4.59-6.23a1.06 1.06 0 0 1 1.68.47 5.5 5.5 0 0 1-1.68-.47Zm1.48 1.53a1.06 1.06 0 0 1-1.86-.52c.6.26 1.22.43 1.86.52Zm.85-12.21a5.6 5.6 0 0 1 3.31 10.1 7.34 7.34 0 0 0-1.94-2.32A7.3 7.3 0 0 0 23.9 5.2a7.4 7.4 0 0 0-3.68-1.75 5.57 5.57 0 0 1 4.58-2.37ZM2.05 18.68a.57.57 0 0 1 .28-.4c.1-.07.23-.1.36-.08l1.2.12a.9.9 0 0 0 .97-.68l.2-.8 1.11.11a.92.92 0 0 0 .98-.7l.1-.38.09-.4 1.12.11a.9.9 0 0 0 .97-.68l.27-1.04 2.68-1.6a.53.53 0 0 0 .26-.54 6.4 6.4 0 0 1 12.04-3.79 7.37 7.37 0 0 0-6.75.26 7.47 7.47 0 0 0-3.7 7.93l-9.94 5.95-2.66-.89.42-2.5Z"/><path fill-rule="evenodd" d="M12.95 15.64a.53.53 0 0 0-.55-.91l-8.53 5.11a.53.53 0 1 0 .55.92l8.53-5.12Z" clip-rule="evenodd"/></g><defs><clipPath id="a"><path fill="#fff" d="M0 0h32v32H0z"/></clipPath></defs></svg>