<svg xmlns="http://www.w3.org/2000/svg" width="32" height="32" fill="none"><g fill="#003073" clip-path="url(#a)"><path d="M27 21.5a.5.5 0 0 0-.5.5v4.8l-.65-.65a.5.5 0 0 0-.7.7l1.5 1.5c.2.2.5.2.7 0l1.5-1.5a.5.5 0 0 0-.7-.7l-.65.64V22a.5.5 0 0 0-.5-.5ZM22.65 21.65c.2-.2.5-.2.7 0l1.5 1.5a.5.5 0 0 1-.7.7l-.65-.64V28a.5.5 0 0 1-1 0v-4.8l-.65.65a.5.5 0 0 1-.7-.7l1.5-1.5Z"/><path fill-rule="evenodd" d="M1.07 27.2H18V31a1 1 0 0 0 1 1h12a1 1 0 0 0 1-1V19a1 1 0 0 0-1-1h-3.27V9.6a1.07 1.07 0 0 0-1.06-1.07h-1.6V3.2h2.13a1.07 1.07 0 0 0 1.07-1.07V1.07A1.07 1.07 0 0 0 27.2 0h-5.33c-.32 0-.63.1-.89.27l-15.6 10.4H1.07A1.07 1.07 0 0 0 0 11.73v1.07a1.07 1.07 0 0 0 1.07 1.07h4.8v4.41a1.07 1.07 0 0 0-.54.92v2.13H1.07A1.07 1.07 0 0 0 0 22.4v3.73a1.07 1.07 0 0 0 1.07 1.07Zm25.6-9.2V9.6H22.4v2.67a.53.53 0 0 1-.53.53h-4.8v2.67a.53.53 0 0 1-.54.53h-4.8v2.67a.53.53 0 0 1-.53.53H6.4v2.67a.53.53 0 0 1-.53.53h-4.8v3.73H18V19a1 1 0 0 1 1-1h7.67ZM24 8.53h-1.07V3.2H24v5.33Zm-2.67 3.2h-1.6V4.94l2.14-1.41v5.15a1.07 1.07 0 0 0-.54.92v2.13ZM16 14.93h-1.6V8.5l2.13-1.42v4.8a1.07 1.07 0 0 0-.53.92v2.13ZM10.67 16v2.13h-1.6v-6.08l2.13-1.42v4.45a1.07 1.07 0 0 0-.53.92Zm-3.74-2.52L8 12.77v5.36H6.93v-4.65Zm5.34-3.56 1.06-.7v5.71h-1.06V9.92Zm5.33-3.55 1.07-.72v6.08H17.6V6.37ZM1.07 12.8v-1.07h4.48c.1 0 .2-.03.29-.09L21.57 1.16a.53.53 0 0 1 .3-.1h5.33v1.07h-4.82c-.23 0-.46.08-.66.21L6.17 12.71c-.1.06-.2.09-.3.09h-4.8ZM19 19h12v12H19V19Z" clip-rule="evenodd"/></g><defs><clipPath id="a"><path fill="#fff" d="M0 0h32v32H0z"/></clipPath></defs></svg>