<svg xmlns="http://www.w3.org/2000/svg" width="32" height="32" fill="none"><g fill="#003073" clip-path="url(#a)"><path d="M30.4 17.07h-.53V5.87a4.78 4.78 0 0 0-4.8-4.8c-2.36 0-4.06 1.75-4.25 4.31A2.64 2.64 0 0 0 18.67 8c0 .32.21.53.53.53h4.27c.32 0 .53-.21.53-.53 0-1.3-.9-2.36-2.11-2.61.16-1.7 1.18-3.26 3.18-3.26a3.71 3.71 0 0 1 3.73 3.74v11.2H12.75a2.64 2.64 0 0 0-2.62-2.14 2.64 2.64 0 0 0-4.48.37c-.42-.2-.9-.37-1.38-.37-1.31 0-2.38.9-2.62 2.14H1.6c-.9 0-1.6.69-1.6 1.6 0 .9.7 1.6 1.6 1.6h.64l1.44 5.7a3.76 3.76 0 0 0 3.63 2.83h.42l-.69 1.39c-.16.26-.05.58.21.69.06.05.16.05.22.05.21 0 .37-.1.48-.26l.93-1.87h14.8l.9 1.81c.11.22.27.32.49.32.1 0 .16 0 .21-.1.21-.11.32-.43.21-.7l-.66-1.33a3.78 3.78 0 0 0 3.49-2.77l1.45-5.76h.63c.9 0 1.6-.7 1.6-1.6 0-.91-.7-1.6-1.6-1.6Zm-7.52-9.6h-3.04c.21-.64.85-1.07 1.55-1.07.7 0 1.28.43 1.49 1.07ZM4.27 16c.48 0 .9.21 1.28.59.1.16.32.21.53.16.21-.06.32-.22.37-.43.16-.8.8-1.39 1.6-1.39.59 0 1.12.27 1.39.8.1.22.37.32.59.27h.16c.69 0 1.28.43 1.49 1.07h-8.9A1.55 1.55 0 0 1 4.26 16Zm23.09 9.7a2.74 2.74 0 0 1-2.61 2.03H7.36c-1.23 0-2.3-.85-2.61-2.02l-1.39-5.44h25.28l-1.28 5.44Zm3.04-6.5H1.6c-.32 0-.53-.21-.53-.53 0-.32.21-.54.53-.54h28.8c.32 0 .53.22.53.54 0 .32-.21.53-.53.53Z"/><path d="M19.2 10.93c.32 0 .53-.21.53-.53v-.27c0-.32-.21-.53-.53-.53-.32 0-.53.21-.53.53v.27c0 .32.21.53.53.53Zm0 2.46a.53.53 0 0 0 .53-.54v-.58c0-.32-.21-.54-.53-.54-.32 0-.53.22-.53.54v.58c0 .32.21.54.53.54Zm0 2.08c.32 0 .53-.22.53-.54v-.26c0-.32-.21-.54-.53-.54-.32 0-.53.22-.53.54v.26c0 .32.21.54.53.54Zm2.13-4.54c.32 0 .54-.21.54-.53v-.27c0-.32-.22-.53-.54-.53-.32 0-.53.21-.53.53v.27c0 .32.21.53.53.53Zm-.53 1.92c0 .32.21.54.53.54a.53.53 0 0 0 .54-.54v-.58c0-.32-.22-.54-.54-.54-.32 0-.53.22-.53.54v.58Zm0 2.08c0 .32.21.54.53.54.32 0 .54-.22.54-.54v-.26c0-.32-.22-.54-.54-.54-.32 0-.53.22-.53.54v.26Zm2.67-4c.32 0 .53-.21.53-.53v-.27c0-.32-.21-.53-.53-.53-.32 0-.54.21-.54.53v.27c0 .32.22.53.54.53Zm-.54 1.92c0 .32.22.54.54.54.32 0 .53-.27.53-.54v-.58c0-.32-.21-.54-.53-.54-.32 0-.54.22-.54.54v.58Zm0 2.08c0 .32.22.54.54.54.32 0 .53-.22.53-.54v-.26c0-.32-.21-.54-.53-.54-.32 0-.54.22-.54.54v.26Z"/></g><defs><clipPath id="a"><path fill="#fff" d="M0 0h32v32H0z"/></clipPath></defs></svg>