<svg xmlns="http://www.w3.org/2000/svg" width="32" height="32" fill="none"><g fill="#003073" clip-path="url(#a)"><path d="M30.4 0h-3.2a1.6 1.6 0 0 0-1.6 1.6v1.07H6.4V1.6A1.6 1.6 0 0 0 4.8 0H1.6A1.6 1.6 0 0 0 0 1.6v3.2a1.6 1.6 0 0 0 1.6 1.6h1.07v19.2H1.6A1.6 1.6 0 0 0 0 27.2v3.2A1.6 1.6 0 0 0 1.6 32h3.2a1.6 1.6 0 0 0 1.6-1.6v-1.07h19.2v1.07a1.6 1.6 0 0 0 1.6 1.6h3.2a1.6 1.6 0 0 0 1.6-1.6v-3.2a1.6 1.6 0 0 0-1.6-1.6h-1.07V6.4h1.07A1.6 1.6 0 0 0 32 4.8V1.6A1.6 1.6 0 0 0 30.4 0ZM1.07 4.8V1.6a.53.53 0 0 1 .53-.53h3.2a.53.53 0 0 1 .53.53v3.2a.53.53 0 0 1-.53.53H1.6a.53.53 0 0 1-.53-.53Zm4.26 25.6a.53.53 0 0 1-.53.53H1.6a.53.53 0 0 1-.53-.53v-3.2a.53.53 0 0 1 .53-.53h3.2a.53.53 0 0 1 .53.53v3.2Zm25.6-3.2v3.2a.53.53 0 0 1-.53.53h-3.2a.53.53 0 0 1-.53-.53v-3.2a.53.53 0 0 1 .53-.53h3.2a.53.53 0 0 1 .53.53Zm-3.73-1.6a1.6 1.6 0 0 0-1.6 1.6v1.07H13.33V14.93h.54a1.07 1.07 0 0 0 1.06-1.06v-.54h13.34V25.6H27.2ZM11.73 13.87v-2.14h2.14v2.14h-2.14ZM28.27 8h-.54a.53.53 0 0 0 0 1.07h.54v3.2H14.93v-.54a1.07 1.07 0 0 0-1.06-1.06h-2.14a1.07 1.07 0 0 0-1.06 1.06v2.14a1.07 1.07 0 0 0 1.06 1.06h.54v13.34h-3.2v-.54a.53.53 0 0 0-1.07 0v.54H6.4V27.2a1.6 1.6 0 0 0-1.6-1.6H3.73V6.4H4.8a1.6 1.6 0 0 0 1.6-1.6V3.73h19.2V4.8a1.6 1.6 0 0 0 1.6 1.6h1.07V8Zm2.66-3.2a.53.53 0 0 1-.53.53h-3.2a.53.53 0 0 1-.53-.53V1.6a.53.53 0 0 1 .53-.53h3.2a.53.53 0 0 1 .53.53v3.2Z"/><path d="M24.53 20.27a.53.53 0 0 0-.53.53v2.45l-6.18-6.18h2.45a.53.53 0 0 0 0-1.07h-3.74a.53.53 0 0 0-.53.53v3.74a.53.53 0 0 0 1.07 0v-2.45L23.25 24H20.8a.53.53 0 0 0 0 1.07h3.73a.53.53 0 0 0 .54-.54V20.8a.53.53 0 0 0-.54-.53ZM8.53 24a.53.53 0 0 0-.53.53v1.07a.53.53 0 0 0 1.07 0v-1.07a.53.53 0 0 0-.54-.53Zm0-3.2a.53.53 0 0 0-.53.53v1.07a.53.53 0 0 0 1.07 0v-1.07a.53.53 0 0 0-.54-.53Zm0-3.2a.53.53 0 0 0-.53.53v1.07a.53.53 0 0 0 1.07 0v-1.07a.53.53 0 0 0-.54-.53Zm0-3.2a.53.53 0 0 0-.53.53V16a.53.53 0 0 0 1.07 0v-1.07a.53.53 0 0 0-.54-.53Zm0-3.2a.53.53 0 0 0-.53.53v1.07a.53.53 0 0 0 1.07 0v-1.07a.53.53 0 0 0-.54-.53ZM12.8 8h-1.07a.53.53 0 0 0 0 1.07h1.07a.53.53 0 0 0 0-1.07ZM16 8h-1.07a.53.53 0 0 0 0 1.07H16A.53.53 0 0 0 16 8Zm3.2 0h-1.07a.53.53 0 0 0 0 1.07h1.07a.53.53 0 0 0 0-1.07Zm3.2 0h-1.07a.53.53 0 0 0 0 1.07h1.07a.53.53 0 0 0 0-1.07Zm3.2 0h-1.07a.53.53 0 0 0 0 1.07h1.07a.53.53 0 0 0 0-1.07Zm-16 0H8.53a.53.53 0 0 0-.53.53V9.6a.53.53 0 1 0 1.07 0v-.53h.53A.53.53 0 1 0 9.6 8Z"/></g><defs><clipPath id="a"><path fill="#fff" d="M0 0h32v32H0z"/></clipPath></defs></svg>