<svg width="2000" height="340" fill="none" xmlns="http://www.w3.org/2000/svg"><path d="M1996.79 234.94v7.46l.92 2.25 2.29.05V224l-22.33-.2 1.03 20.52 5.99.1V229.1h3.85v4l-1.05 1.85v7.46l.85 2.09 5.65.1v-15.5h3.85v4l-1.05 1.85v-.01Zm3.21-22.63-16.33-.22.12.05-4.07-.39-2.26-.46.21 11.71 22.33.17V212.3v.01Zm0 127.69v-94.4l-21.19-.08-.05-.26-.01.25-.05-.12-.01 22.82-.12 26.73.81 45.06H2000Zm-21.73-140.69-.2 10.63-.54.34 3.52.58 3.82.1v-12.05h3.12v2.8l-.9.8v6.9l.84 1.63 12.07.32V135.9l-.83 6.7-1.18 2.63c-4.04 1.97-5.8 4.8-6.44 9.79l-1.17 1.17-.19 2.54.72 1.8-.4 9.8-2.86.88-.98-.39-.78-4.49-.98 4.1-1.56 1.56-.2 2.34.98.98-.11 6.3c-.04 1.84-1.04 2.6-2.82 2.09l-.58-2.34-1.38 5.66-.97.78v4.68l-.98.78v2.34l.98 1.17V199.31Zm-743.04 20.92.38-2.42 3.3.1.77 3.2 1.07.67-.3-6.2-1.64-.3-.29-2.02-6.87-.2 3.58 7.17Zm-43.55-69.3 3.44-.03 1.53 2.03 3.93.02c-.68-3.87-2.18-5.27-5.49-6.22l-.59-11.32c.94-.87.26-1.98-.64-1.98-.81 0-1.61.92-.81 1.88l-.98 11.46a7.1 7.1 0 0 0-5.23 5.98l3.62.03 1.22-1.86v.01Zm-68.95 70.26-.58 1.56-.2 2.93-2.74 1.95.2 10.14 111.37 3.52-18.95-15.8.78-1.37-21.69-7.6-12.51-2.35-28.85-1.26.2 2.17-2.44 2.36-5.69-.02-8.79-5.24-21.24-.94 8.59 8.2 88.9 4.29 1.57.59-.78.77-87.15-3.9Zm85.7 16.52-3.7-.17v-6.73l3.7.17v6.73Zm27.76-27.26-2.51-.3-.2-9.97-.87.2-.48 10.16-.97.2v.97l5.23.38-.2-1.64Z" fill="#EEF3FA"/><path d="m1213.45 225.75.36.24v-.9l-.36.66Z" fill="#EEF3FA"/><path d="M1213.81 223.35v-.52h3.18v4.14h-1.73l4.38 2.94 13.65-6.68 1.26-1.94-5.51-9.97-21.59-1.07c-4.27 3.8-7.96 5.67-14.43 6l20.79 7.1Zm7.03-.42h3.18v4.13h-3.18v-4.13Z" fill="#EEF3FA"/><path d="m1239.14 222.15-.58-2.92h-1.95l-.59 2.73-1.56 2.14-14.03 6.62 9.09 7.18-.17-4.38h1.93l.23 5.95 1.98 1.56-1.76 2.34 31.59-.2 3.1-2.91 8.41-13.82-1.57-1.17.98-1.17h-33.15l-.97-1.75-.98-.2Zm-2.98 18.1-.27-6.74h1.93l.26 6.75h-1.92v-.01Zm25.35-6.74.27 6.75h-1.93l-.27-6.75h1.93Zm-6.74 0 .26 6.75h-1.92l-.27-6.75h1.93Zm-10.31 0 .27 6.75h-1.93l-.26-6.75h1.92Zm94.1-44.81 1.56-6 2.15 6.68 1.56.88.39 3.51-.97 1.47-.02 5.64c0 .76.24 1.27 1.19 1l1.12-3.96 1.9 7.47 1.57 1.37-.01 4.58 1.37 1.15.1 1.49h19.71l19.22-12.5 1.56-4.3 6.83-.19 2.34 3.03 8.99-.18-24.5-22.66h-3.03v3.37c0 3.77-3.63 4.46-7.04 3.17-3.93-1.49-6.49-4.16-9.74-7.52l-27.51-.14v2.15l-.97 2.07.27 8.03 1.96.39Zm37.17 10.71.03 9.53h-4.07l-.02-9.53h4.06Zm-12.71 0 .03 9.53h-4.25l-.03-9.53h4.25Zm80.67-46.8h.02l-.01-.02-.01.02Z" fill="#EEF3FA"/><path d="m1400.55 155.99.03 1.8c.06 2.79 1.03 3.99 3.03 4.34l-.12-3.28 25.83-3.67 13.48.54.89-3.11-.25-.01-13.29-.46c-1.13-2.04-2.66-1.4-3.94 0l-19.34 3.26.92-.88 18.37-3.35c1.03-1.67 3.89-1.91 5.49-.3l12.58.51 9.86.68.93 1.2-6.61-.36v-.06l-4.71-.23 1.09 3.2 3.47.14v-.02l10.14.38-.12 3.35c2-.53 2.97-1.94 3.03-4.66l.03-1.76-5.05-1.37-.36-9.42 1.45-1.73v-1.4l-13.41-1.18v.02l-15.46-1.49-24 4.52v1.44l1.44 1.63-.35 10.29-5.05 1.44Zm27.74-16.4 24.54 2.2 2.35.22-.53.8-3.84-.15v6.1l-1.11.1v-6.28l-5.73-.57v.22l-.09-.01v6.15h-1.16v-6.25l-8.3-.73v6.1h-1.16v-6.2l-5.16-.45-3.77.66v6.38h-1.16v-6.17l-6.57 1.15v6.47h-1.15v-6.27l-5.07.9v6.43h-1.11v-6.24l-2.02.35-.53-.77 21.57-4.14Z" fill="#EEF3FA"/><path d="m1430.86 186.07 7.59-17.36.43-3 2.48-3.75 1.05-4.58-12.81-.48-24.9 3.24.18 30.88-1.08.35-.37 1.27 7.01 6.48 11.37-.15 5.41-5.17 2.02-4.43.09-26.48c-1.53-1.78-2.23-3.87.45-4.88 2.68.59 2.43 2.88 1.08 4.84v23.22Zm-9.61 7.55h-1.06v-1.93l-8.66.1.38-1.25 6.77-.06v-12.04l-2.88-.97-.91 6.13v-8.65l3.19-4.24 3.19 4.24v15.4h.08l-.1 3.27Zm24.16-36.16 1.12 4.07 1.56 2.18 1.12 3.7 7.93.58.05-10.16-11.78-.37Zm-2.46-64.11c-.19-2.6-.16-3.4-3.28-4.11l-.15-4.2-2.53-.72-2.17-11.97-1.99-2.12-.02-3.09 1.46-1.47-4.44-34.22 1.93-.03.01-1.62-1.82-.54-.46-9.08-1.07-.18-.58 9.07-1.89.08-.04 1.82 1.84.35-2.1 34.89 1.51 1.54-.02 2.62-1.85 1.44-2.02 13.13-1.43.82-.02 3.89c-3.09.93-3.33 1.16-3.77 4.42l9.38-2.35 15.52 1.63Zm-19.59-6.71 1.3-.63c.63.15-.48-.57 1.12.73l.04 1.35 2.8-.58h.68l.68-1.88.87-.05 1.15.1.54 2.12 3.08.05.05-1.06.15-.24.87-.73 1.15.82.15 2.22-9.47-.62-5.4.92.24-2.52ZM1251.3 221.97a62.43 62.43 0 0 1 6.62-8.91h-6.14l-.29 1.66-9.87.18.19 7.1 9.49-.03Z" fill="#EEF3FA"/><path d="m1409.75 139.02 1.47-2 2.15-.55.05-3.36c.05-3.28.35-4.78 3.09-6.54l.89-2.53.92 2.17c1.98 1.38 2.47 2.95 2.48 5.4l.01 3.55 4.82-.81 1.08 1.06 4.15-.18.73-1.08 7.99.81.21-3.43c.16-2.57 1.38-4.68 3.52-5.06l.9-2.07.82 2.4c1.95.97 3.32 2.98 3.42 6.08l.1 3.25 3.24.35 2 1.33 1.7.13 1.07-1.31-1.92-4.33.02-2.17-1.42-2.84-1.27-20.22c.91-.98.08-3.14-.7-3.14-.77 0-1.5 1.31-.6 3.08l-1.23 19.37c-1.15-5.14-2.46-8.9-5.68-12.05l-.28-4.65-3.06-1.35.18-10.1 1.27-.91.72-2.17-14.8-1.62-9.2 1.8.72 2.17 1.99 1.8.36 9.21-2.71 1.27-.23 4.96c-4.21 3.6-5.53 7.82-6.81 13.09l-1.08-17.7c.81-1.14.26-3.41-.56-3.45-.84-.03-1.56 1.27-.84 3.45l-.23 22.21-1.08.9-1.63 4.33-.54 1.27 1.26.72 2.54-.54Zm12.65-41.76 5.1-.93 12.19.87v1.3l-2.27-.16v9.2h-1.73v-9.33l-3.18-.23v9.55h-1.73v-5.87c-.13.25-.3.44-.52.55l.4 10.87 11.24.37v1.25l-11.19-.37.53 14.47.62.77.09 1.44-3.57-.19-2.31.3.2-1.84.77.1.57-2.31 2.02-.2-.23-24.8c1.68-.71.84-3.12-.13-3.43.75-.07 1.24.3 1.51.83v-1.5h1.58l-4.81-.34-1.92.34h.14v9.57h-1.73v-9.28l-1.64.3v-1.3Zm-2.21 16.36 6.45-.46v1.15l-6.45.46v-1.16.01Zm-114.56 98.6v-1.17h-3.7l-2.93 1.17-.16-2.14h-3.63l-.11 3.7-7.6 4.67-11.7 6.03 29.83-.77v-4.87c-2.23-.99-2.21-1.77-2.34-3.9l.97-2.65 1.37-.07Zm39.98 19.47 75.38-2.23 1.07-1.46v-21.6l-.39-2.81v-2.62l-22.42.39-2.14-3.1-4.74.14-1.47 3.73-42 28.01-3.29 1.56v-.01Zm72.52-11.48.26 6.74h-1.93l-.26-6.74h1.93Zm-10.8.27.26 6.74h-1.92l-.27-6.74h1.93Zm-10.79.27.26 6.74h-1.93l-.26-6.74h1.93Zm-10.8.27.26 6.74h-1.92l-.27-6.74h1.93Zm-10.8.27.27 6.75h-1.93l-.26-6.75h1.92Zm-10.79.28.26 6.74h-1.93l-.26-6.75h1.93v.01Z" fill="#EEF3FA"/><path d="m1257.04 222.2 2.82-5.92 2.82 5.97 12.62.1 18.3-9.58.1-4.07 2.13-.1.87-6.58.77 6.4 2.52.09.29 1.55 2.13-.78 3.58-.19-.1-2.61 1.26-.68-.09-3.97-17.23.29-.68-1.36-5.23.1-.39.97h-7.84c-11.49 6.3-15.54 9.81-23.33 20.33l4.68.04Zm48.79 6.37v-3.11l-28.86.2-9.55 16.15-2.54 2.14 37.44-.78 3.51-3.5v-5.84l-2.34-2.14v-2.73l2.34-.39Zm63.09-13.23-18.57.39-1.27 1.56.1 9.36 1.56.88 18.18-12.19Zm-2.84-51.6v12.27c3.03 3.03 5.42 5.18 9.16 6.45 2.69.92 5.26.76 5.26-2.24v-7.13l.59-.78v-4.67l-.59-.78v-2.92l1.91-1.28-.12-1.71-1.59-.12c.08-5.5-.12-8.5-4.29-12.07l-.04-9.02c1.63-1.48-.08-3.61-1.76-3.99l-.15-3.34-.03-3.05-.19-1.36-2.34.39-.2.78 1.17.39-.16 6.16c-2.37.6-3.05 2.47-1.95 3.9l-.2 8.95c-4.1 3.36-4.99 6.25-5.26 12.07l-2.4.1.04 2.06 3.14.94Zm10.32 1.37h1.83v6.84h-1.83v-6.84Zm-4.91 0h2.4v6.84h-2.4v-6.84Zm-4.24 0h1.83v6.84h-1.83v-6.84ZM923.9 211.53l13.2-.47.07-.68-.96-.39-.4-.97.01-6.97-.64-.15-.78-5.08-1.36.02-.6 5.1-4.26.3v1.91l-3.1.2v5.1l-1.16.8-.02 1.28Zm-202.24-3.31 1.57-.89.1-9.36-1.27-1.56-18.57-.39 18.17 12.2Zm-98.24-58.75-64.24 4.76-18.75 33.26 65.2-3.6-.1-3.11 5.06-5.45 12.83-25.86Zm-55.5 28.98-3.5.4 7.76-15.14 2.92-.4-7.18 15.14Zm14.03-1.2-3.78.2 7.77-15.13 3.2-.21-7.19 15.13v.01Zm14.03-1.23-4.05.4L599.7 161l3.46-.4-7.18 15.4v.02Z" fill="#EEF3FA"/><path d="m726.8 212.37-3.3-1.55-42-28.01-1.46-3.74-4.74-.14-2.14 3.1-22.43-.39v2.62l-.39 2.8v21.62l1.07 1.46 75.4 2.23h-.01Zm-18.54-10.13h1.93l-.27 6.75H708l.26-6.75Zm-10.8-.27h1.93l-.26 6.75h-1.93l.26-6.75Zm-10.79-.27h1.93l-.27 6.75h-1.92l.26-6.75Zm-10.8-.27h1.93l-.26 6.75h-1.93l.26-6.75Zm-10.8-.27H667l-.26 6.74h-1.93l.27-6.74h-.01Zm-10.79-.27h1.93l-.27 6.74h-1.92l.26-6.74ZM488.5 179.27l24.2 13.51-1.62.18v6.21l3.97.1.18-1.8.9-1.72 6.4-.09 5.4 3.27h8.4l-.08-4.35-2.44-3.87.18-7.66-2.4-1.27v-4.65l-3.62-.68-3.59.68v2.06l-10.38.04v-3l-3.69-.6-3.5.6v3.03l-3.04.01-2.88 1.08-6.55-.18v-4.72l-2.98-.5-2.84.5-.02 3.82Zm-83.95 6.98-.1 10.94c1.1 2.25 3.11 3.9 5.9 3.85.77 0 1.85-.24 2.5-.97l.26-13.69h-4.5v4.24l-3.08-.18v-4.15l-.98-.04Z" fill="#EEF3FA"/><path d="m455 220.21-20.53-27.59-20.32-.14v8.44c-.78.88-1.75 1.48-3.81 1.46a8.25 8.25 0 0 1-7.1-4.78v-5.3l-5.99-.02 4.8 7.22 3.47 3.62-1.73.18v2.5l-1.5 1.73.02 25.93h63.2l-7.18-6.9.05-6.22-3.38-.13Zm-29.89-9.97-17.43.39-3.98-1.46 31.8-.2-10.39 1.27Zm353.6-1.54.1 4.07 18.3 9.6 12.62-.12 2.82-5.97 2.82 5.93 4.67-.04c-7.79-10.53-11.83-14.03-23.32-20.34h-7.85l-.38-.97-5.23-.1-.68 1.36-6.86.03.86 6.46 2.13.1v-.01Zm-3-6.68-.02.13h.04l-.02-.13Zm-101.09-24.35 6.83.2 1.56 4.3 19.23 12.49h19.7l.1-1.5 1.38-1.14-.01-4.58 1.56-1.37 1.9-7.47 1.13 3.96c.95.27 1.18-.24 1.18-1l-.01-5.64-.98-1.46.4-3.52 1.55-.88 2.15-6.69 1.56 6 1.97-.38.27-8.02-.97-2.08v-2.15l-47.32 1.12-24.5 22.67 8.99.17 2.34-3.03h-.01Zm34.76 2.42h4.25l-.02 9.54h-4.25l.02-9.54Zm-12.7 0h4.06l-.02 9.54h-4.07l.02-9.54h.01Zm70.13 24.07 7.37.02.76 4.23.75-6.26-9.17.04.3 1.97h-.01ZM483.4 190.53l5.4-3.51h11.37l-18.22-9.2-32.47.2 12.35 12.42 21.57.09Zm-78.35-8.48-1.1.77-.03 1.81 9.39.1v-1.81l-1-.81c-.51-2.34-.18-3.03-2.39-3.95l-1.3-4.54-1.3 4.57c-2 .57-1.74 1.92-2.27 3.86Z" fill="#EEF3FA"/><path d="m403.12 190.55-.02-4.52-.99-.34v-3.34l1.53-1.14c.42-2.27 1.07-3.9 2.93-4.52l-3.27.1-.02-.94-5.41-5.6v2.36l-3.8 2.8-.08 5.95-2.63 2.16 4.61 7.05 7.15-.02Zm147.46 8.7-4.05 1.87-19.08-.06-5.18-3.55-5.12-.1-.78 3.62-64.9-.2-4.52-3.82-7.4-.16 16.52 21.5 120.69 2.04-26.18-21.13v-.01Zm-63.22 17.59h-4.62l.35-7.76h4.63l-.36 7.76Zm32.24.39h-4.63l.36-7.75h4.62l-.35 7.75Z" fill="#EEF3FA"/><path d="m413.2 180.9 1.27 1-.27 9.12 21.11-.36 3.7 4.33 9.11.09 3.88 4.06 4.24-.09-.09-4.78 4.88-.36-24.63-24.37-6.6 6.4-19.4.46c2.02 1.36 2.48 2.25 2.8 4.5Zm58.37-12.4-.58.79v4.67l.58.78.04 1.68 10.86.2 3.53 1.28v-12.5l3.14-.95.03-2.06-2.4-.11c-.26-5.82-1.15-8.7-5.26-12.07l-.2-8.95c1.1-1.42.43-3.29-1.94-3.9l-.17-6.16 1.17-.39-.2-.78-2.34-.38-.19 1.36-.02 3.04-.15 3.35c-1.68.37-3.4 2.51-1.77 4l-.03 9c-4.17 3.57-4.37 6.57-4.3 12.08l-1.58.12-.12 1.7 1.9 1.29v2.92-.01Zm11.42-1.75h.77v6.85h-.77v-6.85Zm-4.81 0h1.06v6.85h-1.06v-6.85Zm-4.33 0h.84v6.85h-.84v-6.85Zm35.18 32.66v-6.86l-7.67-4.24h-11.73l-5.42 3.25h-18.13v7.94h27.04v-3.97h5.08v3.97l10.83-.09Zm-48.28-28.46-2.6-.68-2.58.68v5.98h5.18v-5.98Zm369.85 51.06.2-7.1-9.88-.2-.3-1.65h-6.13a63.2 63.2 0 0 1 6.62 8.91l9.49.04Zm8.52 1.22 13.65 6.69 4.38-2.95h-1.73v-4.14h3.18v.52l20.79-7.09 10.31-4.94h-46.32l-5.52 9.98 1.26 1.93Zm9.27-.3h3.18v4.13h-3.18v-4.13Zm194.78-25.17h3.48l-.48-1.36-.87-.1-.48-17.23.58-.97-1.55-.2.58 1.07-.19 17.24-1.07.1c.1.48-.1.97 0 1.45Zm37.62 6.03v-4.92h-7.4l-.14 3.08 2.68 1.89 4.86-.05Zm-81.67-2.3-.1-4.98h-7.4v2.96l2.68 1.97 4.82.05Zm52.47-2.55h-9.19l-.97 1.17 12 .48-1.84-1.65Zm46.57 5.05v-4.93h-6.28l-.11 3.08 2.2 1.89 4.19-.04Zm54.4 8.3 25.94 1.07 3.78.48-5.33-3.68-20.04-.78-4.35 2.9v.01Z" fill="#EEF3FA"/><path d="m1149.75 211.51 1.65.1 3.96-3.2 20.53.68-.1-1.26-7.84-.29-.05-2.8-1.84-1.84-1.69 1.3-5.04-.05-.19 3.49-6.58-.1-.78-2.9-3.29-.1-.09 3.87 1.35.97v2.13Zm-198.12 10.07 29.9-4.9-7.22-15.31 9.78 15.32 46.17.9.02-.08 27.39-12.31 26.77 15.21 36.34 1.17-2.15-1.17-17.19-17.56-2.34.08.02 2.22-5.7-.15-2.73-2.54-9-.16.06 2.38-6.89-.07-3.12-2.34-40.25-1.17-31.35-1 .09 2.16-6.89.07-3.26-2.38-16.37-.01-19.93 20.47-2.15 1.17Zm183.6-11.2v1.87l6.78 4.2 4.65.08 1.93-2.4-.1-3.88-1.16-.8v-8.2l-5.03-.78.02-2.44 1.91-.39v-1.91l-4.26-.3-.61-5.1-1.35-.03-.78 5.1-.65.14.01 13.48-.39.97-.97.39Z" fill="#EEF3FA"/><path d="M1113.69 210.12v-1.37l1.2-.1.24-2.07 1.49-.04.24 2.16 1.69.2.1 1.43 15.52.65.03-1.57 1.12-.25.4-.84-.01-6-5.8-.2-.1-3.1h-6.78v6.1h-1.07l-.18-1.19-.63-.19-.77-8.43.58-.2v-.67l-.68-.14v-1.5h-.52l.04 1.6-.72.04-.05.58.87.4v9.7h-6.16l-1.16-.87h-7.75l5.62 5.81 3.24.06Zm-175.48-.71.03 1.57 15.52-.65.1-1.44 1.68-.19.24-2.16 1.5.04.24 2.08 1.2.1v1.36l3.24-.06 5.61-5.81h-7.74l-1.16.87h-6.16v-9.7l.87-.4-.05-.58-.73-.04.05-1.6h-.52v1.5l-.68.14v.68l.58.2-.77 8.42-.63.2-.18 1.18h-1.07v-6.1h-6.78l-.1 3.1-5.8.2v6l.4.84 1.11.25Zm-104.7 8.5 3.28-.1.39 2.42 3.58-7.17-6.87.2-.3 2.03-1.64.3-.29 6.19 1.07-.68.77-3.2.01.01Zm7.74-7.17-.97-.2-.49-10.16-.87-.2-.2 9.98-2.5.29-.2 1.65 5.23-.4v-.96Z" fill="#EEF3FA"/><path d="m799.14 225.26-1.56 1.17 8.41 13.83 3.1 2.91 31.58.2-1.75-2.34 1.98-1.56.23-5.96h1.93l-.17 4.38 9.09-7.18-14.03-6.61-1.57-2.14-.58-2.73h-1.95l-.59 2.92-.97.2-.98 1.75h-33.14l.97 1.16Zm387.2-10.65c8.26.54 12.87-.3 19.56-5.23l.19-2.22-1.27-1.1-.08-3.26 1.64-1.36.29-1.84-1.94-.1-.48-17.23 1.65-1.07.09-1.55v-.97l-1.84-.39c-.39-4.72.3-7.23-3.19-10.45l.19-1.07-.97-1.26.1-8.71 1.26-1.75.19-1.26-5.54.01-1.43-1.46h-2.42l-1.52 1.47-5.31-.02.38 1.36 1.61 1.36.19 9.2-1.45 1.16v1.35c-3.22 2.71-2.63 4.42-3 8.62l-1.74.59.09 2.13 1.46 2.03-.58 16.76-2.61.16.64 2.25 1.57.88-.09 3-3.67.48-.97 1.36-.1 2.71 1.16.48 7.94 4.94Zm5.74-56.97c0-2.62 3.27-2.72 3.27-.1v6.75l-3.27-.1v-6.55Zm8.23 10.74a4.86 4.86 0 0 0-2.89 4l-.16 4.63-1.83-6.94-3.51-.05-1.66 5.54-.08-2.65c-.07-2.73-1.32-3.63-2.77-4.44l12.9-.09Zm-433.4 56.18 29.7-.07-11.7-6.04-7.6-4.67-.11-3.7h-3.64l-.15 2.14-.94-6.56-5.67.02.02 3.12 1.99.26.66 3.69-2.61 2.95.05 8.86ZM858.6 226l.36-.24-.36-.67v.91Zm61.25-13.7-4.36-2.9-20.03.77-7.62 3.85 32.01-1.72Zm-152.88 28 3.12 3.64 37.44.01-2.54-2.14-9.55-16.16-28.73.66.26 14v-.01Z" fill="#EEF3FA"/><path d="m921.01 211.61 1.65-.1v-2.13l1.35-.97-.1-3.87-3.28.1-.78 2.9-6.58.1-.2-3.49-5.03.05-1.69-1.3-1.84 1.83-.05 2.81-7.84.3-.1 1.25 20.52-.68 3.97 3.2ZM953 237.77l.2-10.14-2.74-1.95-.2-2.93-.58-1.56-87.14 3.9-.78-.78 1.56-.58 88.9-4.3 8.6-8.19-75.62 3.86-25.4 9.02.78 1.37-18.95 15.8L953 237.77Zm602.51-21.8-5.12.08-5.17 3.56-19.08.05-4.06-1.85-26.18 21.13 120.69-2.04 16.52-21.5-7.4.16-4.51 3.83-64.91.19-.78-3.61Zm34.06 11.66.35 7.76h-4.62l-.36-7.75h4.63v-.01Zm-31.88 8.15h-4.62l-.36-7.76h4.62l.36 7.76Zm-25.45-29.74-18.76-33.26-64.24-4.76 12.83 25.86 5.05 5.45-.09 3.1 65.21 3.6v.01Zm-31.76-23.78 7.77 15.13-3.51-.39-7.18-15.13 2.92.39Zm-13.76-1.4 7.77 15.14-3.78-.2-7.18-15.14 3.19.2Zm-13.75-1.3 7.77 15.4-4.05-.39-7.19-15.41 3.47.4Z" fill="#EEF3FA"/><path d="M1606.58 218.05v-7.94h-18.13l-5.41-3.25h-11.73l-7.67 4.24v6.86l10.82.1v-3.98h5.08v3.97h27.04Zm68.83-7.22-5.99.01v5.31a8.24 8.24 0 0 1-7.1 4.78c-2.06.02-3.03-.58-3.81-1.46v-8.44l-20.32.14-20.53 27.6-3.37.13.04 6.22-7.18 6.9h63.2l.02-25.94-1.49-1.73-.01-2.5-1.73-.18 3.48-3.62 4.79-7.22Zm-6.45 16.89-3.98 1.45-17.43-.38-10.39-1.27 31.8.2Z" fill="#EEF3FA"/><path d="m1659.55 204.93.27 13.7c.64.72 1.72.95 2.49.96 2.79.04 4.8-1.6 5.9-3.85l-.1-10.94-.98.04V209l-3.07.18v-4.23h-4.51v-.02Zm-42.46-15.43-2.58-.68-2.6.68v5.97h5.18v-5.97Zm-30.43-5.56v12.5l3.53-1.28 10.86-.2.04-1.67.58-.78v-4.67l-.58-.78v-2.92l1.9-1.29-.12-1.7-1.59-.13c.08-5.5-.12-8.5-4.28-12.07l-.04-9.01c1.63-1.48-.09-3.62-1.77-4l-.15-3.34-.02-3.04-.2-1.37-2.33.4-.2.77 1.17.4-.16 6.15c-2.38.6-3.06 2.48-1.96 3.9l-.19 8.95c-4.11 3.36-4.99 6.25-5.27 12.07l-2.39.11.03 2.06 3.14.94Zm11.31 1.37h.85v6.84h-.85v-6.84Zm-4.55 0h1.06v6.84h-1.06v-6.84Zm-4.52 0h.77v6.84h-.77v-6.84Zm-16.4 20.25h11.37l5.41 3.52 21.56-.1 12.35-12.42-32.47-.18-18.22 9.19v-.01Z" fill="#EEF3FA"/><path d="M1536.32 217.48h8.4l5.41-3.27 6.4.09.9 1.71.18 1.8 3.97-.09v-6.21l-1.62-.18 24.2-13.52-.02-3.8-2.84-.5-2.98.5v4.7l-6.54.2-2.89-1.1h-3.03v-3.04l-3.51-.59-3.69.6v3l-10.38-.04v-2.06l-3.59-.68-3.61.68v4.64l-2.41 1.28.18 7.66-2.43 3.87-.1 4.35Zm132.7-17.73 1.54 1.15-.01 3.34-.99.34-.02 4.52 7.15.02 4.61-7.05-2.62-2.16-.1-5.96-3.78-2.8v-2.34l-5.42 5.6-.02.93-3.27-.1c1.86.61 2.51 2.25 2.93 4.51Z" fill="#EEF3FA"/><path d="m1660.36 200.66-1 .8v1.81l9.39-.09-.03-1.81-1.09-.77c-.53-1.94-.28-3.3-2.27-3.86l-1.3-4.57-1.31 4.54c-2.21.92-1.87 1.61-2.39 3.94v.01Z" fill="#EEF3FA"/><path d="m1616.51 212.82-.09 4.78 4.24.1 3.88-4.07 9.11-.1 3.7-4.32 21.11.36-.27-9.12 1.26-1c.33-2.24.79-3.14 2.81-4.5l-19.41-.46-6.58-6.4-24.64 24.36 4.88.37ZM42.83 196l-18.56.38-1.27 1.57.1 9.36 1.56.88L42.83 196Zm163.07-8.54-18.75-33.25-64.24-4.76 12.83 25.86 5.05 5.44-.1 3.11 65.21 3.6Z" fill="#EEF3FA"/><path d="m73.17 182-2.14-3.1-4.74.15-1.47 3.73-42 28.01-3.3 1.55 75.4-2.22 1.06-1.46v-21.62l-.39-2.8v-2.63l-22.42.4V182Zm136.82 16.9h8.4l5.4-3.26 6.4.09.91 1.7.18 1.8 3.97-.08v-6.22l-1.63-.17 24.2-13.52-.01-3.8-2.84-.51-2.98.5v4.71l-6.55.19-2.88-1.09h-3.03v-3.04l-3.51-.6-3.69.6v3l-10.39-.04v-2.05l-3.58-.68-3.61.68v4.64l-2.41 1.28.18 7.66-2.44 3.87-.09 4.35v-.01Zm123.23-12.54.26 13.7c.65.71 1.72.95 2.5.96 2.79.04 4.8-1.6 5.9-3.85l-.1-10.94-.99.04v4.14l-3.07.19v-4.24h-4.5Z" fill="#EEF3FA"/><path d="m349.07 192.25-5.99.02v5.3a8.23 8.23 0 0 1-7.09 4.8c-2.06 0-3.04-.59-3.81-1.47v-8.45l-20.32.15-20.54 27.6-3.37.12.05 6.23-7.18 6.9h63.2l.01-25.94-1.49-1.74v-2.5l-1.74-.17 3.48-3.62 4.8-7.23h-.01Zm-336.59-22.9 1.56-6 2.15 6.69 1.56.88.39 3.51-.98 1.47-.01 5.64c0 .75.24 1.26 1.19 1l1.12-3.96 1.9 7.46 1.56 1.37V192l1.37 1.15.1 1.48h19.7l19.22-12.49 1.57-4.3 6.82-.19 2.35 3.03 8.99-.18-24.5-22.66-47.33-1.13v2.15l-.97 2.08.27 8.03 1.97.38ZM257.53 187l5.41 3.51 21.56-.09L296.86 178l-32.47-.19-18.22 9.2h11.36V187Zm76.5-4.91-1 .81v1.81l9.39-.1-.04-1.8-1.09-.77c-.53-1.94-.27-3.3-2.26-3.86l-1.3-4.57-1.31 4.54c-2.21.91-1.88 1.6-2.4 3.94h.01Z" fill="#EEF3FA"/><path d="m342.69 181.18 1.53 1.15v3.33l-1 .34-.01 4.52 7.14.02 4.61-7.05-2.62-2.16-.1-5.95-3.78-2.8v-2.35l-5.41 5.6-.02.94-3.27-.1c1.86.6 2.5 2.25 2.93 4.51Zm33.44.27 6.7-.06 8.35.02.14-4.46-12.13.09-.36.81-2.52-.1-.54-2.42h-7.58l-1.9 1.8-11.28-.2.13 4.46 20.99.06Zm24.1 18.89-11.77-17.81-30.59-.03-11.78 17.81-2 1.5 58.15.03-2-1.5h-.01Zm-171.05-2.94-5.13.08-5.17 3.56-19.08.05-4.05-1.86-26.18 21.14 120.69-2.04 16.52-21.5-7.4.15-4.52 3.83-64.9.2-.78-3.61Z" fill="#EEF3FA"/><path d="m290.17 194.24-.09 4.79 4.25.09 3.87-4.07 9.12-.09 3.7-4.33 21.1.36-.26-9.11 1.26-1c.33-2.25.8-3.15 2.81-4.5l-19.4-.46-6.6-6.41-24.63 24.37 4.87.36Zm-9.92 5.24v-7.94h-18.13l-5.42-3.25h-11.73l-7.67 4.24v6.86l10.83.09v-3.97h5.08v3.97h27.04Zm10.5-28.55-2.57-.68-2.6.68v5.97h5.18v-5.97h-.01Zm1660.07-2.91-64.24 4.76-18.75 33.26 65.21-3.6-.1-3.11 5.05-5.45 12.83-25.86Zm-112.34 43.49v6.21l3.97.1.18-1.8.9-1.72 6.41-.09 5.4 3.26h8.4l-.09-4.34-2.44-3.87.18-7.66-2.41-1.28v-4.64l-3.61-.68-3.58.68v2.06l-10.39.04v-3l-3.69-.6-3.51.6v3.03h-3.03l-2.88 1.1-6.55-.2v-4.7l-2.98-.5-2.84.5-.02 3.8 24.2 13.52-1.62.18Zm-106.53-6.71-.09 10.94c1.09 2.25 3.1 3.9 5.89 3.85.77 0 1.85-.24 2.5-.97l.26-13.69h-4.5v4.24l-3.07-.18v-4.15l-.99-.04Z" fill="#EEF3FA"/><path d="m1782.41 238.76-20.54-27.6-20.32-.14v8.45c-.78.88-1.75 1.47-3.81 1.46a8.21 8.21 0 0 1-7.09-4.78v-5.3l-5.99-.02 4.79 7.22 3.48 3.62-1.74.18v2.5l-1.49 1.72.01 25.94h63.2l-7.18-6.9.05-6.22-3.37-.13Zm28.38-29.68 5.41-3.52h11.36l-18.22-9.18-32.47.18 12.36 12.43 21.56.09Zm-78.35-8.48-1.09.77-.04 1.81 9.39.1v-1.81l-1-.82c-.51-2.33-.18-3.02-2.39-3.94l-1.3-4.54-1.31 4.57c-1.99.57-1.73 1.92-2.26 3.86Z" fill="#EEF3FA"/><path d="m1730.52 209.1-.02-4.52-.99-.34v-3.33l1.53-1.15c.43-2.26 1.07-3.9 2.93-4.52l-3.27.1-.02-.94-5.41-5.6v2.36l-3.79 2.8-.09 5.95-2.63 2.16 4.62 7.05 7.14-.02Zm-40.68-9.16 6.7.06 22.05-.04.13-4.46-12.35.18-1.9-1.8h-7.57l-.55 2.43-2.52.09-.36-.81-12.12-.1.13 4.47 8.36-.02Zm37.8 18.95-11.78-17.82h-31.66l-11.78 17.82-1.99 1.5h59.21l-2-1.5Zm150.34-1.08-4.05 1.85-19.08-.05-5.17-3.56-5.13-.08-.78 3.6-64.9-.18-4.52-3.83-7.4-.16 16.52 21.5 120.69 2.04-26.18-21.13Z" fill="#EEF3FA"/><path d="m1740.61 199.46 1.26 1-.27 9.1 21.11-.35 3.7 4.33 9.11.09 3.88 4.06 4.24-.09-.09-4.78 4.87-.36-24.63-24.37-6.59 6.4-19.4.46c2.02 1.36 2.48 2.26 2.81 4.51Zm95.82 18.5v-6.86l-7.67-4.24h-11.73l-5.42 3.25h-18.13v7.94h27.04v-3.97h5.08v3.97l10.83-.09Zm-48.27-28.46-2.6-.68-2.59.68v5.97h5.19v-5.97ZM21.24 213.7l-4.68-.04-.35-1.52.12-.05L0 212.3v10.85l21.26-.16-.02-9.3v.01ZM3.2 242.4v-7.46l-1.04-1.84v-4.01h3.85v15.5l5.65-.1.85-2.09v-7.46l-1.05-1.84v-4.01h3.85v15.34l5.98-.1-.03-20.52-21.26.18v20.7l2.29-.04.92-2.25H3.2Z" fill="#EEF3FA"/><path d="m1978.44 321.4.13-26.46-.03-1.67-2.28-55.35v-32.77l.39-2.7v-3.87l-5.32-4.83-11.24-25.03-.31-2.72-2.57-4.27-1.07-6.22-1.32 6.35-2.22 3.27-.58 3.31-12.53 25.9-4.84 5.5v3.48l.97 3.29v38.08l-.54 13.21-1.31-51.5-1.26-2.33-65.24 3.97-.49-2.8 19.03-33.25 1.94-.3-2.13-2.71-.69-2.62-1.16 3.2-17.28 30.63-2.43 2.71-.39 6.2 2.04 3.79.1 4.6h7.92l3.89-1.95 7.91 6.35 45.81-.86-1.65 1.07-43.1.66 21.3 16.14 1.17.03 1.71-.46v-5.63l-2.72-1v-2.12l5.54-.2v10.66l-8.43.13-1.57 5.79-3.06 1.4-2.61 21.59-.15-1.78-.29-23.18 2.04-.74.56-2.41-112.7-2.04-.01 5.52 8.7 8.07-.87.88-3.56 1.1v4.27l-1.3.92v6.22l-2.9 17.87v-25.56l1.67-.74.09-2.88-59.52-.46-1.94.36-.14-28.53 2.22-2.92v-1.3h-59.58v1.3l2.22 2.92-.13 28.53-1.94-.36-59.52.46.09 2.88 1.67.74v25.56l-2.9-17.87v-6.22l-1.3-.92v-4.27l-3.56-1.1-.87-.88 8.7-8.07v-5.52l-112.71 2.04.56 2.4 2.04.75-.29 23.18-.15 1.78-2.61-21.6-3.06-1.4-1.57-5.78-8.43-.13V229.5l5.54.2v2.12l-2.72 1v5.64l1.71.46 1.17-.03 21.3-16.14-43.1-.66-1.65-1.07 45.82.86 7.9-6.34 3.89 1.94h7.92l.1-4.6 2.04-3.78-.39-6.2-2.43-2.72-17.28-30.63-1.16-3.2-.69 2.62-2.13 2.71 1.94.3 19.03 33.24-.49 2.81-65.24-3.97-1.26 2.33-1.31 51.5-.54-13.2v-38.1l.97-3.28v-3.48l-4.84-5.5-12.53-25.9-.58-3.31-2.22-3.27-1.31-6.35-1.09 6.22-2.56 4.27-.31 2.72-11.24 25.03-5.32 4.83v3.87l.38 2.7v32.77l-2.27 55.35-.07 1.04.41-62.91-73.78 1.55.39 1.84 2.23.77-1 76.4c-.42 9.4-1.81 14.8-3.08 28.04h631.24l.57-18.6v.01Zm-621.87-74.5-.01-6.75h2.62l.02 6.75h-2.63Zm10.88.2-.01-6.75h2.63l.01 6.74h-2.63v.01Zm10.89 23.23-.01-6.74h2.62l.02 5.58-2.63 1.16Zm0-23.24-.01-6.74h2.62l.02 6.74h-2.63Zm10.03 22.62-.02-6.12h2.64l.01 3.18-2.63 2.94Zm0-22.62-.02-6.74h2.64l.01 6.74h-2.63Zm8.53 23.24-.01-6.74h2.62l-2.61 6.74Zm1.38-23.24h-1.38l-.01-6.74h2.62l.01 4.5-1.24 2.24Zm9.49 18.07-1.24 5.17-.01-6.74h2.63l-1.38 1.57Zm-1.24-18.07-.02-6.74h2.63l.02 4.24-2.63 2.5Zm9.33 20.93-.02-4.43h1.65l-1.63 4.43Zm1.12-24.64-1.12 3.71-.02-6.74h2.63l.02 1.4-1.51 1.63Zm20.58-60.06 7.21-.09v-4.63l-2.72-1.11v-2.11h5.54v7.82l5.5-.07.87.87-18.25.3 1.85-.98Zm-7.67 14.64 8.64-.14v-6.95l-2.72-1.11v-2.11h5.54v10.12l9.77-.16v-7.25l-2.72-1.1v-2.11h5.54v10.42l5.37-.09.77.77-32.04.68 1.85-.97Zm6.32 41.78h-5.84v-1.1l3.02-.7v-5.64l-2.72-1.1v-2.12h5.54v10.66Zm11.28-.3h-5.84v-1.1l3.02-.71v-5.64l-2.72-1.1v-2.11h5.54v10.66Zm11.89-5.01-3.4 4.8h-2.44v-1.1l3.02-.7v-5.63l-2.72-1.11v-2.12h5.54v5.86Zm3.33-9.71-1.36.67-35.92.39-.88-.97 35.92-.29 2.72-1.55-.48 1.75Zm-32.14-13.64v-2.11h5.54v10.66h-5.84v-1.11l3.02-.7v-5.64l-2.72-1.1Zm11.28-.3v-2.12h5.54v10.66h-5.84v-1.1l3.02-.7v-5.64l-2.72-1.1Zm11.89-.2v-2.12h5.54v10.66h-5.84v-1.1l3.01-.7v-5.64l-2.71-1.1Zm9.65-5.83-1.36.68-35.93.38-.87-.97 35.92-.3 2.72-1.54-.48 1.75Zm15.53 25.81-2.72 1.15-2.82 7.48v-10.66l5.54-.08v2.11Z" fill="#EEF3FA"/><path d="m1347.38 287.55-.01-12.55-.05.12v-.26l-.05.27-26.19.1-7.85-.7 14.12-.2 1.73-3.15.02-22.95c0-5.57-7.64-7.54-8.28 1.73l-1.3 18.84v-21.55c0-4.25 2.87-6.53 5.06-7.08l1.08-5.8 1.36 5.96c2 .5 4.79 3.2 4.79 6.92v26.92l15.56-.24-.05-40.88-4.68-.05-.35-1.51.12-.06-34.48.47-.5-.7 4.69-.13.73-1.42v-6.89l-.91-.8v-2.8h3.12V231l5.19-.14h-.05l.9-1.75v-6.9l-.9-.79v-2.8h3.12v12.17l14.82-.4.85-1.63v-6.9l-.91-.8v-2.8h3.12v12.05l3.83-.1 3.51-1.64-.54-.35-.19-9.56v-2.53l.98-1.17v-2.34l-.98-.78v-4.69l-.98-.78-1.36-5.65-.59 2.34c-1.78.5-2.78-.25-2.82-2.1l-.11-6.3.98-.97-.2-2.34-1.56-1.56-.98-4.1-.78 4.5-.97.38-2.87-.87-.4-9.82.72-1.8-.19-2.53-1.17-1.17c-.64-5-2.4-7.82-6.44-9.79l-1.18-2.63-.83-6.7-1.13 6.83-.97 2.34c-3.15 2.24-5.55 4.46-6.06 9.17l-.78.98-.59 2.14.59 2.15-.4 12.1-1.75.58-1.37-.4-.98-4.28-.39 4.09-.98 1.17v2.15l.98.39-.19 6.24a5.26 5.26 0 0 1-2.15 2.54l-1.74-1.8.07 5.17-.88.72v5.72l-2.09.15-.44 1.35c.09 1.5.42 2.25 2.15 2.93l.19 12.1-2.15.19-.19 1.36 2.15 1.76-.2 6.83-2.4 3.12-.04 1.95 2.05.58-.98 53.45-3.71 4.69v6.75l-1.13-8.5-.06-.04 3.37-3.85.78-51.4-1.96-.19.39-1.94-37.04.77.78 1.17 1.36.4v30.78l-1.2-15.14.23-14.67-1.37-.4-1.95-1.94-33.34-.4-.39 3.32-.78 1.95-.19 49.06 1.95.97.19 3.7-1.36 1.16-.09 1.71-1.09.92-.59-3.1.03-.5 1.36-.79.2-2.14-2.15-.78v-51.5l.78-.78-.19-2.93.97-.78.98-2.15-14.45-.43-.05 1.28-1.43 1.43-.39 56.44-1.83.22.8-57.2 1.6-1.25.05-.96-74.46-2.22-.17 2.47-2.67 1.96-.47 66.1-1.9.22.94-66.85 2.85-1.79.17-2.15-19.57-.59-1.16 70.23 1.56 2.54.66 1.81-1.64 9.35v-5.65l.09-3.1-.43-.57-.05-.28-1.56-2.34.78-83.89 2.73-2.34v-1.76l-1.76-.19-34.97-1.17-25.4-14.24-26.84 12.11-48.59-1.12-.01 2.07 1.23 3.43-.07 40.97-1.2 21.1-.65-61.89-1.7-2.35-.14-3.1-26.12 4.19-1.76.2v1.75l2.74 2.34.78 83.89-1.57 2.34-.05.28-.43.56.1 3.1v5.66l-1.65-9.35.67-1.81 1.56-2.54-1.17-70.23-19.56.59-1.25.03-74.46 2.23.04.96 1.6 1.25.19 19.32-1.06-1.15-.55-17.63-1.43-1.44-.05-1.27-14.45.43.98 2.15.98.77-.2 2.93.78.78v51.5l-2.15.78.2 2.15 1.37.78.02.5-.6 3.1-1.08-.91-.09-1.71-1.36-1.17.2-3.7 1.94-.97-.2-49.06-.77-1.94-.39-3.32-33.34.4-1.95 1.94-1.37.4.23 14.67-1.2 15.13v-30.78l1.36-.39.78-1.17-37.04-.01.39 1.94-1.95.2.78 31.31 3.37 3.84-.07.05-1.12 8.5v-6.75l-3.72-4.69-.98-33.37 2.06-.58-.04-1.95-2.4-3.12-.2-26.91 2.15-1.76-.2-1.36-2.15-.2.2-12.1c1.73-.67 2.06-1.42 2.15-2.92l-.45-1.36-2.1-.14v-5.72l-.87-.72.08-5.18-1.74 1.8a5.16 5.16 0 0 1-2.15-2.53l-.2-6.24.98-.4v-2.14l-.98-1.17-.39-4.1-.98 4.3-1.37.38-1.75-.58-.4-12.1.6-2.14-.6-2.15-.77-.97c-.52-4.71-2.92-6.93-6.06-9.17l-.98-2.34-1.13-6.83-.83 6.7-1.17 2.63c-4.05 1.97-5.8 4.8-6.45 9.79l-1.17 1.17-.2 2.53.74 1.8-.41 9.81-2.86.88-.98-.39-.78-4.49-.98 4.1-1.56 1.56-.2 2.34.98.98-.11 6.3c-.04 1.84-1.03 2.6-2.82 2.09l-.58-2.35-1.37 5.66-.98.78v4.68l-.98.79v2.34l.98 1.16v2.54l-.2 9.56-.53.34 3.52 1.65 3.82.1v-12.05h3.12v2.8l-.91.8v6.9l.85 1.63 14.82.4V199.3h3.12v2.8l-.9.8v6.88l.9 1.76h-.05l5.19.14v-11.83h3.12v2.8l-.9.8v6.89l.73 1.41 4.68.13-.5.7-34.47-.46.12.05-.35 1.52-4.69.04-.01 9.3 29.68.24-3.61.8-26.07-.23-.04 20.52 5.99.1v-15.33h3.85v4l-1.05 1.85v7.46l.85 2.09 5.65.1v-15.5h3.85v4l-1.05 1.85v7.46l.92 2.25 5.26.1v-15.66h3.85v4l-1.05 1.85v7.46l.98 2.41 4.8.09v-15.81h3.84v4l-1.04 1.85v7.46l1.04 2.57h-3.1l-7.29.65-26.18-.1-.06-.27v.26l-.05-.12-.01 22.82-.25 53.19c-1.84-9.53-2.65-19.13-3.08-28.79v-76.4l2.24-.77.39-1.84-73.79-1.55.6 62.64-2.27-55.35v-32.76l.38-2.7v-3.87l-5.32-4.84-11.24-25.02-.31-2.73-2.57-4.27-1.07-6.2-1.32 6.34-2.22 3.26-.58 3.31-12.53 25.9-4.84 5.5v3.48l.97 3.3v38.07l-.54 13.22-1.31-51.51-1.26-2.33-65.24 3.97-.49-2.8 19.03-33.25 1.94-.3-2.13-2.71-.69-2.62-1.16 3.2-17.28 30.63-2.43 2.72-.39 6.2 2.04 3.78.1 4.6h7.93l3.88-1.94 7.9 6.34 45.82-.86-1.65 1.07-43.1.66 21.3 16.14 1.17.03 1.7-.46v-5.63l-2.71-1v-2.12l5.54-.2v10.66l-8.43.13-1.56 5.79-3.07 1.4-2.61 21.59-.15-1.78-.3-23.18 2.05-.74.56-2.4-112.7-2.05-.01 5.53 8.7 8.07-.87.87-3.56 1.1v4.27l-1.3.92v6.22l-2.9 17.87v-25.56l1.67-.74.1-2.88-59.53-.46-1.94.36-.14-28.53 2.22-2.92v-1.3l-58.51-.02v1.3l2.22 2.91-.13 28.54-1.94-.37-59.53.47.1 2.87 1.66.75v25.56l-2.9-17.88v-6.2l-1.3-.94v-4.26l-3.55-1.1-.88-.88 8.7-8.07v-5.52l-112.7 2.04.55 2.4 2.04.75-.29 23.17-.15 1.78-2.61-21.58-3.06-1.4-1.57-5.8-8.43-.12v-10.67l5.54.2v2.11l-2.72 1.01v5.63l1.7.46 1.18-.03 21.3-16.14-43.1-.66-1.65-1.07 45.82.87 7.9-6.35 3.89 1.95h7.92l.1-4.6 2.04-3.78-.4-6.21-2.42-2.71L189.96 151l-1.16-3.2-.69 2.61-2.13 2.72 1.94.29 19.03 33.25-.49 2.81-65.24-3.98-1.26 2.33-1.3 51.5-.54-13.2v-38.08l.96-3.3v-3.47l-4.84-5.5-12.53-25.9-.58-3.31-2.22-3.27-1.31-6.34-1.08 6.2-2.56 4.28-.31 2.72-11.25 25.03-5.32 4.83v3.86l.39 2.71v32.77l-2.28 55.35.6-62.65-73.78 1.55.39 1.85 2.23.77v76.4c-.43 9.65-1.24 19.26-3.07 28.78l-.25-53.19-.01-22.82-.05.13v-.26l-.06.26L0 245.6V340h1347.63l-.25-52.45Zm-7.79-37.27c-.01-4.72-3.94-4.96-4.29-.4l-1.18 3.9v-4.03c0-6.97 8.16-6 8.16 0v21.36l-8.16.33 5.5-2.28-.03-18.88Zm-7.85-19.73h-3.12l.9-1.76v-6.9l-.9-.78v-2.8h3.12v12.24Zm2.43-54.74-.5 1.2-14.1-.1-.51-.7 15.11-.4Zm-8.51 16.62.69-1.24v-4.93l-.91-2.12v-2.57h3.13v10.77l12.6-.4-.5 1.2-27.6.4-.51-.7 13.1-.41Zm7.39 8.42v-2.8h3.12v12.24h-3.12l.91-1.75v-6.9l-.91-.8v.01Zm-8.41.3v-2.8h3.12v12.25h-3.12l.91-1.76v-6.9l-.91-.79Zm-8.26.56v-2.8h3.12v12.24h-3.12l.91-1.75v-6.9l-.91-.8v.01Zm29.33 12.95-.51 1.21-37.26.5-.51-.7 38.28-1v-.01Zm-746.43 5.98-2.82-7.48-2.72-1.15v-2.11l5.54.08v10.66Zm20.29-56.06 5.5.07v-7.82h5.54v2.1l-2.72 1.11v4.65l7.21.08 1.85.97-18.25-.29.87-.87Zm-6.21 14.35 5.36.09v-10.43h5.54v2.12l-2.72 1.1v7.25l9.77.16V169.1h5.55v2.1l-2.73 1.12v6.95l8.64.14 1.85.97-32.04-.68.78-.77Zm-4.57 5.52 2.72 1.55 35.92.3-.87.96-35.92-.38-1.37-.68-.48-1.75Zm33.6 15.52v1.1h-5.84v-10.65h5.54v2.1l-2.72 1.11v5.64l3.02.7Zm-11.28-.3v1.1h-5.84v-10.65h5.54v2.1l-2.72 1.12v5.63l3.02.7Zm-11.88-.2v1.1h-5.85v-10.65h5.55v2.11l-2.72 1.1v5.64l3.02.7Zm-.1 21.22h-2.45l-3.4-4.81v-5.85h5.55v2.11l-2.73 1.1v5.64l3.03.7v1.11Zm11.88.2h-5.84v-10.66h5.54v2.11l-2.72 1.1v5.64l3.02.7v1.11Zm11.28.3h-5.84v-10.66H642v2.11l-2.72 1.11v5.63l3.02.7v1.11h-.01Zm4.95-13.96-35.92-.39-1.37-.67-.48-1.75 2.72 1.55 35.92.3-.87.96Zm9.31 20.54-1.13-3.7-1.5-1.64.01-1.4h2.63v6.74h-.01Zm9.33 0-2.63-2.5.01-4.24h2.63l-.01 6.74Zm9.63 0h-1.38l-1.25-2.23.02-4.5h2.62v6.73h-.01Zm8.53 0h-2.63l.01-6.74h2.63l-.01 6.74Zm10.03 0h-2.63l.01-6.74h2.63l-.01 6.74Zm10.88 0h-2.62v-6.74h2.64l-.01 6.74h-.01Zm10.9-.2h-2.64l.01-6.74h2.63v6.75-.01Zm37.5-70.68-.51.7-14.1.1-.5-1.2 15.1.4h.01Zm-9.5 16.13v-10.77h3.12v2.57l-.91 2.12v4.94l.69 1.23 13.09.41-.5.7-27.6-.4-.5-1.2 12.6.4h.01Zm12.18 18.81h-3.12V179.6h3.12v2.8l-.9.8v6.89l.9 1.75v-.01Zm-8.26-.55h-3.12v-12.25h3.12v2.8l-.9.8v6.9l.9 1.75Zm-8.41-.3h-3.12v-12.25h3.12v2.8l-.9.8v6.9l.9 1.75Zm4.43 10.8-.9.8v6.9l.9 1.75h-3.12V199h3.12v2.8-.02Zm20.68-4.72-37.26-.5-.5-1.21 38.27 1-.5.7-.01.01Zm62.22 74.81-.01 5.5-1-3.06-1.72-1.26.1-6.65h2.63v5.47Zm0-21.8v2.95l-.01 4.16-2.63.01.01-8.3 2.63-.02v1.2Zm5.34 21.8-.01 5.5h-2.63l.01-10.97h2.63v5.47Zm0-21.82V253l-.01 4.16-2.63.02.01-8.31 2.63-.01v1.2-.01Zm5.94 21.82v5.5h-2.64l.02-10.97h2.62v5.47Zm0-21.85v7.11h-2.64l.02-8.3 2.62-.01v1.2Zm16.2 5.15-4.48.12v-5.08l4.48-.14v5.1Zm15 6.03-4.47.13V250l4.48-.13v11.33h-.01Zm11.9 17.04-4.49-1.58v-8.2l4.48-.13v9.9l.01.01Zm0-17.04-4.49.13V250l4.48-.13v11.33h.01Zm12.68 17.04-4.48.13v-9.92l4.48-.13v9.92Zm.2-17.75-4.48.13V249.3l4.48-.13v11.32Zm6.6-11.19 4.48-.13v11.32l-4.48.13V249.3Zm5.19 28.94-4.48.13v-9.92l4.48-.13v9.92Zm7.7-28.94 4.48-.13v11.32l-4.48.13V249.3Zm4.89 27.14-4.48 1.93v-9.92l4.48-.13v8.12Zm11.98-15.95-4.47.13V249.3l4.47-.13v11.32Zm13.1-.15-4.47.13v-11.32l4.47-.13v11.32Zm21.4 36.9-4.94.2 2.67-1.38v-7.1l-2.67-1.11v-2.53l4.93-.2v12.12h.01Zm0-22.12-4.94.2 2.52-2.19v-5.74l-2.52-1.16v-3.04l4.93-.2v12.13h.01Zm0-22.13-4.94.2 1.81-1.41v-7.36l-1.81-1.1v-2.25l4.93-.2v12.12h.01Zm10.11 21.4-4.13-.04 1.55-7.46-1.55-1.6v-3.06l4.13.04v12.12Zm0-22.12-4.13-.04 1.25-7.78-1.25-1.6v-2.75l4.13.04v12.13Zm19.24-13.51 6.05-.45v12.13l-6.05.44v-12.12Zm0 22.12 6.05-.16v3.93l-2.93 6.37-3.12 1.36v-11.5Zm6.33 23.51-2.87 2.63-2.79 3.63v-8.76l5.66-.2v2.7Zm10.24-.28-3 3.73v-6.36l4.27-.27-1.27 2.9Zm2.85-12.37-2.4 1.49-3.45.25v-12.35h5.85v10.61Zm.03-23.86-2.8 3.18-3.05.1v-12.12l5.85-.2v9.04Zm14.37 43.01-3.19-.6-2.66-2.09v-5.7h5.85v8.4-.01Zm0-17.41h-5.85v-12.35h5.85v12.35Zm0-21.69h-5.85v-12.35h5.85v12.35Zm29.32-37.27c2.94.1 4.62 1.83 6.2 3.97l-13.07-.59c1.42-1.8 4.32-3.48 6.87-3.38Zm-14.55 76.69-5.86 3.32v-12.35h5.86v9.03Zm0-18.05h-5.86v-12.35h5.86v12.35Zm0-21.69h-5.86v-12.34h5.86v12.35-.01Zm14.77 40.53-2.48 3.17h-3.38v-12.35h5.86V292Zm-6.01-40.31v-12.15l5.66.2v12.13h-.06l-5.6-.18Zm6.01 22.1h-5.86v-12.34h5.86v12.35-.01Zm14.77 21.7h-5.86v-12.36h5.86v12.36Zm0-21.38h-5.86v-12.34h5.86v12.34Zm.09-21.8-5.84-.2v-12.13l5.84.2v12.13Zm1.31-29.76-34.95-1.2-3.93-1.72 3.32-.5 40.4 1.5c-1.03 2.34-2.54 2-4.84 1.92Zm6.25 17.63 6.04.44v12.13l-6.04-.44v-12.13Zm.1 21.59h5.85v12.34h-5.85v-12.34Zm6.32 34.5h-5.85v-12.34h5.85v12.34Zm12.76.77-3.12-1.36-2.93-6.37v-3.93l6.05.17v11.49Zm.87-30.85-1.56 1.6 1.56 7.47-6.05.04v-12.12l6.05-.04v3.06-.01Zm0-22.43-1.26 1.6 1.26 7.78-6.05.04v-12.13l6.05-.04v2.75Zm13.28 44.09-2.67 1.1v7.1l2.67 1.4-5.66-.2v-12.13l5.66.2v2.53Zm0-21.62-2.52 1.16v5.74l2.52 2.2-5.66-.21v-12.13l5.66.2v3.04Zm0-22.92-1.82 1.11v7.36l1.82 1.42-5.66-.2v-12.13l5.66.2v2.24Zm15.38 9.37-4.49-.13v-5.1l4.49.14v5.09Zm17.93 1.7-4.49-.12v-5.1l4.49.14v5.09-.01Zm11.98 21.03-4.48-1.93v-8.12l4.48.13v9.92Zm.4-21.02-4.48-.13v-5.1l4.48.14v5.09Zm12.19 21.02-4.48-.13v-9.92l4.48.13v9.92Zm.7-21.02-4.48-.13v-5.1l4.48.14v5.09Zm6.6-5.22 4.49.13v5.09l-4.49-.13v-5.1.01Zm4.69 16.32v9.92l-4.48-.13v-9.92l4.48.13Zm-4.31 24.16-.18-2.37 4.49.14.17 6.9-4.48-4.67Zm17 7.68-4.48-.13v-9.92l4.48.13v9.92Zm0-21.92-4.48-.13v-9.92l4.48.13v9.92Zm0-20.32-4.48-.13v-5.09l4.48.13v5.1-.01Zm11.88 0-4.48-.13v-5.09l4.48.13v5.1-.01Zm15.01.2-4.48-.12v-5.1l4.48.13v5.1-.01Zm25.63-6.4v8.3l-2.62-.01-.01-4.16 1.66-1.87v-.99l-1.66-.08-.01-1.2h2.64v.01Zm-13.9 28.49-.01-5.5 1.66-2.48v-1.3l-1.66-.1v-1.6h2.62l.02 10.98h-2.63Zm0-20.26-.01-4.16 1.66-1.86v-1l-1.66-.08v-1.2h2.62l.02 8.32-2.63-.02Zm5.94 20.26-.01-5.5 1.66-2.48v-1.3l-1.66-.1v-1.6h2.63l.01 10.98h-2.63Zm0-20.23-.01-4.16 1.66-1.86v-1l-1.66-.08v-1.2l2.63.01.01 8.31-2.63-.02Zm6.34 17.16-1 3.07-.01-5.5 1.66-2.48v-1.3l-1.66-.11-.01-1.6h2.64l.1 6.66-1.72 1.25v.01Zm63.46-24.18-1.14 10.78v-11.16c0-6.13 7.65-5.99 7.65 0v21.7l-7.65.16 5.92-2.55.08-18.18c.02-4.77-4.52-4.6-4.86-.75ZM1977.87 340h1.51l-.81-45.06-.13 26.46-.57 18.6ZM12.91 209.4v-6.9l-.9-.78v-2.8h3.12v12.04l3.82-.1 3.52-1.65-.54-.34-.2-9.56v-2.53l.98-1.17v-2.34l-.98-.78v-4.68l-.97-.78-1.37-5.66-.59 2.34c-1.78.5-2.78-.25-2.81-2.1l-.12-6.3.98-.97-.2-2.34-1.56-1.56-.98-4.1-.78 4.49-.97.4-2.86-.88-.41-9.82.73-1.8-.2-2.53-1.17-1.17c-.64-5-2.4-7.82-6.44-9.79l-1.18-2.63-.83-6.69v75.44l12.07-.32.84-1.64Z" fill="#EEF3FA"/></svg>