<svg xmlns="http://www.w3.org/2000/svg" width="40" height="40" fill="none"><g clip-path="url(#a)"><path stroke="#4C9CD5" d="M33.79 33.79A19.5 19.5 0 1 1 6.2 6.2 19.5 19.5 0 0 1 33.8 33.8Z"/><path fill="#4C9CD5" d="M17.32 22.54 17 27.02c.44 0 .64-.2.87-.43l2.07-2.04 4.3 3.23c.8.45 1.33.21 1.56-.73l2.81-13.6c.26-1.2-.42-1.66-1.2-1.36l-16.54 6.53c-1.14.44-1.11 1.1-.2 1.39l4.23 1.33 9.84-6.32c.46-.32.88-.13.54.17l-7.97 7.34h.01v.01Z"/></g><defs><clipPath id="a"><path fill="#fff" d="M0 0h40v40H0z"/></clipPath></defs></svg>