<svg width="16" height="16" fill="none" xmlns="http://www.w3.org/2000/svg"><g clip-path="url(#a)"><path d="M15.73 2.86a2.9 2.9 0 0 0-2.6-2.59 48.18 48.18 0 0 0-10.26 0 2.9 2.9 0 0 0-2.6 2.6 48.43 48.43 0 0 0 0 10.27 2.9 2.9 0 0 0 2.6 2.59c3.4.36 6.85.36 10.26 0a2.9 2.9 0 0 0 2.6-2.6c.36-3.4.36-6.85 0-10.27ZM12.4 6.97h-.78c-.58 0-1.14-.16-1.64-.45V9.8A3.2 3.2 0 1 1 6.8 6.6h.78v1.56H6.8a1.64 1.64 0 1 0 1.64 1.64V3h1.56v.78a1.64 1.64 0 0 0 1.63 1.64h.78v1.55Z" fill="#98A3B2"/></g><defs><clipPath id="a"><path fill="#fff" d="M0 0h16v16H0z"/></clipPath></defs></svg>