<svg width="40" height="40" fill="none" xmlns="http://www.w3.org/2000/svg"><path d="M40 0H0v40h40V0Z" fill="#fff"/><path d="M40 20H0v20h40V20ZM15.81 5.6l-3.76 8.97H9.59L7.74 7.41c-.11-.44-.21-.6-.55-.8a9.7 9.7 0 0 0-2.3-.76l.06-.26H8.9c.5 0 .96.34 1.08.92l.97 5.2 2.42-6.12h2.44Zm9.63 6.04c0-2.37-3.28-2.5-3.26-3.56 0-.32.31-.66.99-.75a4.4 4.4 0 0 1 2.29.4l.4-1.9c-.55-.2-1.27-.4-2.17-.4-2.3 0-3.91 1.22-3.92 2.97-.02 1.3 1.15 2.01 2.03 2.44.9.44 1.21.73 1.2 1.12 0 .6-.72.87-1.38.88-1.17.02-1.85-.32-2.39-.57l-.42 1.97c.54.25 1.55.46 2.58.48 2.44 0 4.04-1.21 4.05-3.08Zm6.06 2.93h2.15L31.78 5.6h-1.99c-.44 0-.82.26-.99.66l-3.48 8.32h2.44l.48-1.34h2.98l.28 1.34Zm-2.6-3.18 1.23-3.37.7 3.37h-1.92Zm-9.77-5.8-1.92 8.98H14.9L16.8 5.6h2.32Z" fill="#1A1F71"/><path d="M9.32 31.08c.26.15.67.29 1.1.29.52 0 .82-.25.82-.62 0-.35-.23-.55-.8-.76-.76-.26-1.24-.66-1.24-1.3 0-.76.62-1.31 1.61-1.31.5 0 .85.1 1.08.22l-.2.67a1.98 1.98 0 0 0-.9-.22c-.53 0-.75.28-.75.55 0 .35.26.51.87.74.79.3 1.16.7 1.16 1.35 0 .73-.55 1.35-1.71 1.35-.49 0-.98-.13-1.23-.28l.19-.68ZM15.3 29.97h-1.71v1.33h1.9v.68h-2.73v-4.54h2.64v.68h-1.81v1.17h1.7v.68ZM19.4 31.84a3 3 0 0 1-1.17.2c-1.44 0-2.32-.9-2.32-2.27 0-1.5 1.04-2.4 2.43-2.4.55 0 .93.11 1.1.2l-.18.66c-.21-.1-.52-.18-.89-.18-.92 0-1.59.58-1.59 1.67 0 1 .58 1.63 1.59 1.63.33 0 .68-.06.9-.16l.14.65ZM20.87 27.44v2.65c0 .89.37 1.3.93 1.3.6 0 .95-.41.95-1.3v-2.65h.83v2.6c0 1.4-.72 2.01-1.8 2.01-1.06 0-1.74-.59-1.74-2.01v-2.6h.83ZM24.46 27.51c.32-.06.78-.1 1.26-.1.65 0 1.09.1 1.4.36.24.21.39.53.39.92 0 .58-.4.98-.83 1.13v.02c.33.12.52.44.63.88.15.56.27 1.09.36 1.26h-.85c-.07-.14-.18-.5-.3-1.07-.14-.6-.35-.78-.82-.8h-.42v1.87h-.82v-4.47Zm.82 2h.5c.55 0 .9-.3.9-.75 0-.49-.35-.73-.89-.73-.26 0-.43.02-.5.04v1.44ZM30.76 29.97h-1.7v1.33h1.9v.68h-2.74v-4.54h2.64v.68h-1.8v1.17h1.7v.68Z" fill="#fff"/></svg>