<svg width="60" height="20" fill="none" xmlns="http://www.w3.org/2000/svg"><path d="M22.72.48 14.91 19.5H9.8L5.95 4.32c-.24-.93-.44-1.27-1.15-1.67A19.92 19.92 0 0 0 .05 1.03L.16.48h8.22c1.04 0 1.98.71 2.22 1.94l2.04 11L17.66.48h5.06Zm20 12.8c.01-5.01-6.82-5.29-6.77-7.53.01-.68.65-1.4 2.05-1.59.69-.1 2.6-.16 4.75.85L43.6.98a12.72 12.72 0 0 0-4.52-.84c-4.76 0-8.12 2.58-8.15 6.28-.03 2.74 2.4 4.26 4.22 5.17 1.88.94 2.51 1.53 2.5 2.37 0 1.27-1.5 1.83-2.88 1.85-2.43.04-3.84-.66-4.96-1.2l-.87 4.17c1.13.52 3.2.98 5.36 1 5.08 0 8.4-2.55 8.41-6.5ZM55.3 19.5h4.46l-3.9-19h-4.12c-.92 0-1.7.54-2.05 1.39l-7.24 17.61h5.07l1-2.84h6.2l.58 2.84Zm-5.39-6.73 2.54-7.14 1.47 7.14h-4ZM29.62.48 25.63 19.5h-4.82l3.99-19h4.82Z" fill="#2933CF"/></svg>