<svg width="40" height="40" viewBox="0 0 40 40" fill="none" xmlns="http://www.w3.org/2000/svg">
<g clip-path="url(#clip0_2456_2851)">
<path d="M33.7886 33.7886C30.1316 37.4455 25.1717 39.5 20 39.5C14.8283 39.5 9.86838 37.4455 6.21142 33.7886C2.55446 30.1316 0.5 25.1717 0.5 20C0.5 14.8283 2.55446 9.86838 6.21142 6.21142C9.86838 2.55446 14.8283 0.5 20 0.5C25.1717 0.5 30.1316 2.55446 33.7886 6.21142C37.4455 9.86838 39.5 14.8283 39.5 20C39.5 25.1717 37.4455 30.1316 33.7886 33.7886Z" stroke="#4D76A1"/>
<path d="M29.88 25.84C29.2646 24.8742 28.502 24.0105 27.62 23.28L27.6 23.26L27.59 23.25L27.57 23.24C27.07 22.79 26.77 22.49 26.64 22.34C26.4 22.04 26.34 21.75 26.48 21.45C26.57 21.22 26.91 20.75 27.51 20.02L28.25 19.09C29.57 17.41 30.15 16.33 29.97 15.87L29.9 15.76C29.86 15.69 29.74 15.63 29.55 15.58C29.35 15.52 29.11 15.51 28.81 15.55L25.51 15.57C25.4347 15.5501 25.3554 15.5501 25.28 15.57L25.14 15.61L25.08 15.64L25.03 15.67C24.9843 15.6998 24.9438 15.737 24.91 15.78C24.8599 15.84 24.8194 15.9075 24.79 15.98C24.2685 17.2676 23.5972 18.4893 22.79 19.62C22.61 19.88 22.41 20.12 22.19 20.35C22.03 20.51 21.89 20.63 21.76 20.73C21.63 20.83 21.53 20.86 21.46 20.85C21.3932 20.8341 21.3265 20.8174 21.26 20.8C21.1565 20.7353 21.0707 20.6459 21.01 20.54C20.9391 20.4065 20.8949 20.2604 20.88 20.11C20.8322 19.789 20.8188 19.4638 20.84 19.14L20.85 18.68C20.85 18.4 20.85 18.1 20.87 17.78L20.9 17.01L20.91 16.41C20.9328 16.1175 20.8776 15.8242 20.75 15.56C20.7023 15.4489 20.6222 15.3547 20.52 15.29C20.3985 15.2202 20.267 15.1696 20.13 15.14C19.73 15.06 19.21 15.01 18.58 15C17.16 14.99 16.25 15.07 15.85 15.26C15.69 15.34 15.55 15.46 15.41 15.59C15.27 15.75 15.26 15.84 15.36 15.86C15.81 15.92 16.14 16.08 16.33 16.33L16.4 16.46C16.5468 16.8791 16.6343 17.3167 16.66 17.76C16.7337 18.5142 16.7 19.2752 16.56 20.02C16.5218 20.2904 16.4188 20.5477 16.26 20.77C16.2446 20.794 16.2241 20.8145 16.2 20.83C16.1 20.86 16 20.88 15.9 20.88C15.7547 20.871 15.6154 20.8187 15.5 20.73C15.3275 20.6088 15.1698 20.4678 15.03 20.31C14.83 20.07 14.63 19.82 14.47 19.56C14.24 19.19 14.03 18.81 13.83 18.42L13.65 18.1C13.2933 17.4351 12.9598 16.758 12.65 16.07C12.5984 15.9282 12.5041 15.8059 12.38 15.72L12.32 15.69C12.181 15.6097 12.0285 15.5555 11.87 15.53L8.73004 15.55C8.41004 15.55 8.20004 15.62 8.08004 15.75L8.04004 15.82C8.01038 15.8751 7.99654 15.9374 8.00004 16C8.00004 16.08 8.02004 16.18 8.07004 16.3C9.16897 18.7635 10.5481 21.0922 12.18 23.24C12.5438 23.6937 12.9241 24.134 13.32 24.56L13.6 24.82C13.79 25 14.05 25.21 14.4 25.45C14.77 25.7 15.16 25.94 15.59 26.18C16.5688 26.698 17.6628 26.9595 18.77 26.94H20.09C20.35 26.92 20.55 26.84 20.69 26.7L20.74 26.64C20.82 26.49 20.87 26.31 20.86 26.14C20.8509 25.8544 20.8778 25.5688 20.94 25.29C20.98 25.09 21.04 24.89 21.14 24.72C21.24 24.52 21.39 24.36 21.57 24.24C21.6024 24.2243 21.6358 24.2109 21.67 24.2C21.85 24.14 22.07 24.2 22.31 24.37C22.56 24.54 22.79 24.75 23.01 25C23.23 25.26 23.49 25.54 23.8 25.85C24.1 26.17 24.37 26.4 24.6 26.55L24.83 26.69C24.98 26.77 25.18 26.85 25.43 26.93C25.67 27 25.88 27.02 26.06 26.98L29 26.94C29.29 26.94 29.51 26.89 29.67 26.8C29.83 26.71 29.93 26.6 29.96 26.5C29.9886 26.3783 29.9886 26.2517 29.96 26.13C29.95 26.03 29.92 25.93 29.88 25.83V25.84Z" fill="#4D76A1"/>
</g>
<defs>
<clipPath id="clip0_2456_2851">
<rect width="40" height="40" fill="white"/>
</clipPath>
</defs>
</svg>
