<svg width="16" height="16" fill="none" xmlns="http://www.w3.org/2000/svg"><g clip-path="url(#a)" fill="#98A3B2"><path d="M6.8 6.08 9.92 8 6.8 9.92V6.08Z"/><path d="M15.73 2.86a2.91 2.91 0 0 0-2.6-2.59 48.42 48.42 0 0 0-10.26 0 2.91 2.91 0 0 0-2.6 2.6 48.42 48.42 0 0 0 0 10.26 2.91 2.91 0 0 0 2.6 2.6c3.4.36 6.85.36 10.26 0a2.91 2.91 0 0 0 2.6-2.6c.36-3.4.36-6.85 0-10.27Zm-2.96 7.55c-.2.61-.86.98-1.47 1.07-2.2.23-4.4.23-6.6 0-.6-.09-1.27-.45-1.47-1.07a12.5 12.5 0 0 1 0-4.82c.2-.61.87-.98 1.48-1.07 2.19-.23 4.4-.23 6.59 0 .6.09 1.27.46 1.47 1.07a12.5 12.5 0 0 1 0 4.82Z"/></g><defs><clipPath id="a"><path fill="#fff" d="M0 0h16v16H0z"/></clipPath></defs></svg>