<svg width="16" height="16" fill="none" xmlns="http://www.w3.org/2000/svg"><g clip-path="url(#a)"><path fill-rule="evenodd" clip-rule="evenodd" d="M14.89 1.11c.47.47.77 1.09.84 1.75.36 3.42.36 6.86 0 10.28a2.91 2.91 0 0 1-2.6 2.59c-3.41.36-6.85.36-10.27 0a2.92 2.92 0 0 1-2.59-2.6 48.42 48.42 0 0 1 0-10.27A2.91 2.91 0 0 1 2.87.27c3.41-.36 6.85-.36 10.27 0 .66.07 1.28.37 1.75.84ZM7.83 2c-.02 0-.04.02-.04.04l-.3 2.93A2.83 2.83 0 0 1 4.97 7.5l-2.92.29a.04.04 0 0 0-.04.04.04.04 0 0 0 .04.05l2.93.29A2.83 2.83 0 0 1 7.5 10.7l.29 2.93a.04.04 0 0 0 .04.04c.02 0 .05-.02.05-.04l.29-2.93a2.83 2.83 0 0 1 2.53-2.53l2.93-.3c.01 0 .04-.01.04-.04 0-.02-.02-.04-.04-.04l-2.93-.3a2.83 2.83 0 0 1-2.53-2.52l-.3-2.93c0-.02-.02-.04-.04-.04Z" fill="#98A3B2"/></g><defs><clipPath id="a"><path fill="#fff" d="M0 0h16v16H0z"/></clipPath></defs></svg>