<svg xmlns="http://www.w3.org/2000/svg" width="48" height="48" fill="none"><path fill="#fff" d="M44.1 46.05H3.9a2.6 2.6 0 0 1-2.6-2.59v-27.9a.65.65 0 0 1 .65-.64h44.1a.65.65 0 0 1 .65.65v27.89a2.6 2.6 0 0 1-2.6 2.6ZM2.6 16.22v27.24a1.3 1.3 0 0 0 1.3 1.3h40.2a1.3 1.3 0 0 0 1.3-1.3V16.22H2.6Z"/><path fill="#fff" d="M46.05 16.22H1.95a.65.65 0 0 1-.65-.65V8.43a2.6 2.6 0 0 1 2.6-2.6h5.83a.65.65 0 1 1 0 1.3H3.89a1.3 1.3 0 0 0-1.3 1.3v6.49h42.82V8.43a1.3 1.3 0 0 0-1.3-1.3h-5.84a.65.65 0 1 1 0-1.3h5.84a2.6 2.6 0 0 1 2.6 2.6v7.14a.65.65 0 0 1-.66.65Z"/><path fill="#fff" d="M33.73 7.14H14.27a.65.65 0 0 1 0-1.3h19.46a.65.65 0 1 1 0 1.3Z"/><path fill="#fff" d="M37.62 11.03h-3.24a1.3 1.3 0 0 1-1.3-1.3V3.24a1.3 1.3 0 0 1 1.3-1.3h3.24a1.3 1.3 0 0 1 1.3 1.3v6.49a1.3 1.3 0 0 1-1.3 1.3Zm-3.24-7.79v6.49h3.24V3.24h-3.24Zm-20.76 7.79h-3.24a1.3 1.3 0 0 1-1.3-1.3V3.24a1.3 1.3 0 0 1 1.3-1.3h3.24a1.3 1.3 0 0 1 1.3 1.3v6.49a1.3 1.3 0 0 1-1.3 1.3Zm0-7.79h-3.24v6.49h3.24V3.24ZM39.37 25.3H36.2a1.01 1.01 0 0 1-1.01-1.02v-3.16a1.02 1.02 0 0 1 1.01-1.01h3.17a1.01 1.01 0 0 1 1 1.01v3.16a1.01 1.01 0 0 1-1 1.02ZM36.49 24h2.6v-2.6h-2.6V24Zm-6.31 1.3H27A1.01 1.01 0 0 1 26 24.28v-3.16a1.01 1.01 0 0 1 1.01-1.01h3.17a1.01 1.01 0 0 1 1 1.01v3.16a1.01 1.01 0 0 1-1 1.02ZM27.3 24h2.6v-2.6h-2.6V24Zm-6.31 1.3h-3.17a1.01 1.01 0 0 1-1-1.02v-3.16a1.01 1.01 0 0 1 1-1.01H21A1.01 1.01 0 0 1 22 21.12v3.16a1.01 1.01 0 0 1-1.01 1.02ZM18.1 24h2.6v-2.6h-2.6V24Zm21.26 9.08H36.2a1.01 1.01 0 0 1-1.01-1.01V28.9a1.01 1.01 0 0 1 1.01-1.02h3.17a1.01 1.01 0 0 1 1 1.02v3.16a1.01 1.01 0 0 1-1 1.01Zm-2.88-1.3h2.6v-2.6h-2.6v2.6Zm-6.31 1.3H27A1.01 1.01 0 0 1 26 32.07V28.9a1.01 1.01 0 0 1 1.01-1.02h3.17a1.01 1.01 0 0 1 1 1.02v3.16a1.01 1.01 0 0 1-1 1.01Zm-2.88-1.3h2.6v-2.6h-2.6v2.6Zm-6.31 1.3h-3.17a1.01 1.01 0 0 1-1-1.01V28.9a1.01 1.01 0 0 1 1-1.02H21A1.01 1.01 0 0 1 22 28.91v3.16a1.01 1.01 0 0 1-1.01 1.01Zm-2.88-1.3h2.6v-2.6h-2.6v2.6Zm-6.31 1.3H8.63a1.01 1.01 0 0 1-1-1.01V28.9a1.01 1.01 0 0 1 1-1.02h3.17a1.01 1.01 0 0 1 1.01 1.02v3.16a1.01 1.01 0 0 1-1.01 1.01Zm-2.88-1.3h2.6v-2.6h-2.6v2.6Zm21.26 9.08H27a1.01 1.01 0 0 1-1.01-1v-3.17a1.01 1.01 0 0 1 1.01-1.01h3.17a1.01 1.01 0 0 1 1 1v3.17a1.01 1.01 0 0 1-1 1.01Zm-2.88-1.3h2.6v-2.59h-2.6v2.6Zm-6.31 1.3h-3.17a1.01 1.01 0 0 1-1-1v-3.17a1.01 1.01 0 0 1 1-1.01H21a1.01 1.01 0 0 1 1.01 1v3.17a1.01 1.01 0 0 1-1.01 1.01Zm-2.88-1.3h2.6v-2.59h-2.6v2.6Zm-6.31 1.3H8.63a1.01 1.01 0 0 1-1-1v-3.17a1.01 1.01 0 0 1 1-1.01h3.17a1.01 1.01 0 0 1 1.01 1v3.17a1.01 1.01 0 0 1-1.01 1.01Zm-2.88-1.3h2.6v-2.59h-2.6v2.6Z"/></svg>