<svg xmlns="http://www.w3.org/2000/svg" width="48" height="48" fill="none"><path fill="#fff" d="M9.73 39.57H1.95a.65.65 0 0 1-.65-.65V23.35a.65.65 0 0 1 .65-.65h7.78a.65.65 0 0 1 .65.65v15.57a.65.65 0 0 1-.65.65Zm-7.14-1.3h6.5V24h-6.5v14.27Z"/><path fill="#fff" d="M30.55 34.38H19.65v-1.3H30.4a1.65 1.65 0 0 0 1.27-.44 1.9 1.9 0 0 0-1.27-3.27h-3.85c-1.59 0-3.15-.43-4.53-1.23-1.72-1.01-3.67-1.54-5.66-1.55H9.73v-1.3h6.63c2.22.01 4.4.6 6.32 1.73a7.67 7.67 0 0 0 3.87 1.05h3.85a3.2 3.2 0 0 1 2.16 5.51c-.54.52-1.26.8-2 .8Z"/><path fill="#fff" d="M26.07 42.17c-1.06 0-2.12-.17-3.13-.5L9.53 37.34l.4-1.23 13.4 4.34c2.22.72 4.63.54 6.71-.5l15.08-7.56a.5.5 0 0 0 .13-.8 4.53 4.53 0 0 0-4.63-1.04l-7.84 2.63-.41-1.23 7.84-2.64a5.82 5.82 0 0 1 5.94 1.36 1.79 1.79 0 0 1-.45 2.88l-15.08 7.55a10.16 10.16 0 0 1-4.55 1.08ZM5.8 29.02a2 2 0 1 1 0-4 2 2 0 0 1 0 4Zm0-2.71a.7.7 0 1 0 0 1.42.7.7 0 0 0 0-1.42Zm37.01-2.96H20.76a1.95 1.95 0 0 1-1.95-1.94V7.78a1.95 1.95 0 0 1 1.95-1.94H42.8a1.95 1.95 0 0 1 1.95 1.94v13.63a1.95 1.95 0 0 1-1.95 1.94ZM20.76 7.14a.65.65 0 0 0-.65.64v13.63a.65.65 0 0 0 .65.64H42.8a.65.65 0 0 0 .65-.64V7.78a.65.65 0 0 0-.65-.64H20.76Z"/><path fill="#fff" d="M19.46 9.73H44.1v1.3H19.46v-1.3Zm0 3.24H44.1v1.3H19.46v-1.3Zm3.24 4.54h3.25v1.3H22.7v-1.3Zm5.84 0h3.24v1.3h-3.24v-1.3Zm5.84 0h3.24v1.3h-3.24v-1.3Z"/></svg>