<svg width="32" height="32" viewBox="0 0 32 32" fill="none" xmlns="http://www.w3.org/2000/svg">
<rect width="32" height="32" rx="4" fill="#2D68A0"/>
<path d="M11.3311 14.7508V21.8519H9V14.7508H11.3311ZM12.5391 14.243C12.5391 13.8564 12.2257 13.543 11.8391 13.543H8.48906C8.10246 13.543 7.78906 13.8564 7.78906 14.243V22.343C7.78906 22.7296 8.10246 23.043 8.48906 23.043H11.8391C12.2257 23.043 12.5391 22.7296 12.5391 22.343V14.243ZM17.6745 10L17.67 21.85H15.33L15.3327 10H17.6745ZM18.8724 9.49297C18.8724 9.10637 18.559 8.79297 18.1724 8.79297H14.8224C14.4358 8.79297 14.1224 9.10637 14.1224 9.49297V22.343C14.1224 22.7296 14.4358 23.043 14.8224 23.043H18.1724C18.559 23.043 18.8724 22.7296 18.8724 22.343V9.49297ZM24.01 18.7V21.85H21.66V18.7H24.01ZM25.2057 18.2013C25.2057 17.8147 24.8923 17.5013 24.5057 17.5013H21.1557C20.7691 17.5013 20.4557 17.8147 20.4557 18.2013V22.343C20.4557 22.7296 20.7691 23.043 21.1557 23.043H24.5057C24.8923 23.043 25.2057 22.7296 25.2057 22.343V18.2013Z" fill="white"/>
</svg>
