<?xml version="1.0" encoding="utf-8"?>
<!-- Generator: Adobe Illustrator 27.0.1, SVG Export Plug-In . SVG Version: 6.00 Build 0)  -->
<svg version="1.1" id="Ebene_1" xmlns="http://www.w3.org/2000/svg" xmlns:xlink="http://www.w3.org/1999/xlink" x="0px" y="0px"
	 viewBox="0 0 300 120" enable-background="new 0 0 300 120" xml:space="preserve">
<g>
	<path fill="#EC6608" d="M82.1,43.5l16.1,5.7C98.2,24.9,78.5,5,54,5S10,24.9,10,49.2l41.2-16.7l22.7,8v-3.1h8
		C82.1,37.3,82.1,43.5,82.1,43.5z"/>
	<path fill="#EC6608" d="M105.4,50.5h9.2c7.1,0,11.6,3.6,11.6,10.7s-5.3,10.7-11.9,10.7h-5.2V88h-3.7
		C105.4,88,105.4,50.5,105.4,50.5z M109.2,68.5h2.5c5.6,0,10.8-0.7,10.8-7.3c0-4.7-2.7-7.5-7.3-7.5h-6V68.5L109.2,68.5z"/>
	<path fill="#EC6608" d="M131.8,66.7c0-2.9,0-4.1-0.3-6.1h3.3v5.3h0.1c1.2-3.1,3.6-5.9,7.1-5.9c0.8,0,1.7,0.1,2.4,0.4v3.5
		c-0.7-0.3-1.6-0.3-2.4-0.3c-5.5,0-6.8,6-6.8,10.9v13.6H132L131.8,66.7L131.8,66.7z"/>
	<path fill="#EC6608" d="M159.5,60c8.8,0,12.8,6.9,12.8,14.3s-4,14.3-12.8,14.3s-12.8-6.9-12.8-14.3C146.7,66.9,150.7,60,159.5,60
		 M159.5,85.8c5.9,0,9.1-5.2,9.1-11.5s-3.1-11.3-9.1-11.3s-9.1,5.1-9.1,11.3S153.6,85.8,159.5,85.8"/>
	<path fill="#EC6608" d="M226.7,87.2c-2.4,0.9-5.5,1.5-7.9,1.5c-9.1,0-12.4-6.1-12.4-14.3s4.5-14.3,11.5-14.3
		c7.7,0,10.9,6.1,10.9,13.6v1.7h-18.7c0,5.7,3.1,10.5,9.1,10.5c2.4,0,6-1.1,7.6-2.1L226.7,87.2L226.7,87.2z M225,72.4
		c0-4.8-2-9.5-6.9-9.5s-8,4.9-8,9.5H225z"/>
	<path fill="#EC6608" d="M235.1,66.7c0-2.9,0-4.1-0.3-6.1h3.3v5.3h0.1c1.2-3.1,3.6-5.9,7.1-5.9c0.8,0,1.7,0.1,2.4,0.4v3.5
		c-0.7-0.3-1.6-0.3-2.4-0.3c-5.3,0-6.8,6-6.8,10.9v13.6h-3.3V66.7H235.1z"/>
	<path fill="#EC6608" d="M264.8,63.5h-6.1v17.8c0,2.4,0.9,4.5,3.6,4.5c1.3,0,2.1-0.3,3.1-0.7l0.3,2.8c-0.8,0.4-2.4,0.8-4.1,0.8
		c-6,0-6.3-4.1-6.3-9.1v-16h-5.3v-2.9h5.3V54l3.3-1.2v7.7h6.1L264.8,63.5L264.8,63.5z"/>
	<path fill="#EC6608" d="M278.5,83.4L278.5,83.4l8-22.8h3.5l-12.5,36.2c-1.2,3.7-3.2,7.5-7.1,7.5c-1.2,0-3.2,0-4.3-0.4l0.9-2.9
		c0.7,0.3,1.3,0.4,2.5,0.4c2.9,0,3.9-2.4,4.9-6l2.3-7.1L267,60.4h3.7L278.5,83.4L278.5,83.4z"/>
	<path fill="#EC6408" d="M178.3,60.5h3.3l-0.3,5.1h0.1c0.8-1.5,2.9-5.6,8.7-5.6c8,0,11.2,6,11.2,14.3s-3.7,14.3-11.2,14.3
		c-4.3,0-6.8-1.7-8.5-5.3h-0.1v11.5h-3.3L178.3,60.5L178.3,60.5z M189.8,62.9c-6,0-8,6.4-8,11.3c0,5.1,2.1,11.5,8,11.5
		c6.4,0,8.1-6.1,8.1-11.5S196.2,62.9,189.8,62.9"/>
	<g>
		<path fill="#015E9F" d="M10.3,50.5h9.6c6.5,0,10.9,2.8,10.9,9.7c0,4.8-3.7,8-8.3,8.7v0.1c2.9,0.4,3.7,2,4.8,4.5L33.8,88h-4.1
			l-5.5-12.7c-2.1-4.8-3.7-5.1-7.3-5.1h-3.1v17.6H10V50.5H10.3z M14,67.1h3.9c4.4,0,9.3-1.7,9.3-6.9c0-6.1-4.4-6.5-9.5-6.5h-3.9
			L14,67.1L14,67.1z"/>
		<path fill="#015E9F" d="M57.9,87.2c-2.4,0.9-5.5,1.5-7.9,1.5c-9.1,0-12.4-6.1-12.4-14.3s4.5-14.3,11.5-14.3
			c7.7,0,10.8,6.1,10.8,13.6v1.7H41.2c0,5.7,3.1,10.5,9.1,10.5c2.4,0,6-1.1,7.6-2.1V87.2L57.9,87.2z M56.3,72.4c0-4.8-2-9.5-6.9-9.5
			s-8,4.9-8,9.5C41.2,72.4,56.3,72.4,56.3,72.4z"/>
		<path fill="#015E9F" d="M64.3,84c2,1.1,4.5,1.7,7.2,1.7c3.2,0,6-1.9,6-4.9c0-6.4-13.1-5.5-13.1-13.5c0-5.5,4.4-7.5,8.9-7.5
			c1.5,0,4.4,0.4,6.7,1.2L79.8,64c-1.7-0.8-4.3-1.2-6.1-1.2c-3.5,0-5.9,1.1-5.9,4.5c0,5.2,13.5,4.4,13.5,13.5c0,5.9-5.5,7.7-9.5,7.7
			c-2.7,0-5.3-0.3-7.7-1.2L64.3,84L64.3,84z"/>
		<path fill="#015E9F" d="M99,63.5h-6.3v17.8c0,2.4,0.9,4.5,3.6,4.5c1.3,0,2.1-0.3,3.1-0.7l0.3,2.8c-0.8,0.4-2.4,0.8-4.1,0.8
			c-6,0-6.3-4.1-6.3-9.1v-16h-5.3v-2.9h5.3V54l3.3-1.2v7.7h6.3L99,63.5L99,63.5z"/>
	</g>
	
		<linearGradient id="SVGID_1_" gradientUnits="userSpaceOnUse" x1="265.3098" y1="590.3107" x2="10.2669" y2="590.3107" gradientTransform="matrix(1 0 0 1 0 -484)">
		<stop  offset="0" style="stop-color:#36A9E1"/>
		<stop  offset="5.000000e-02" style="stop-color:#2A99D2"/>
		<stop  offset="0.13" style="stop-color:#1B83BF"/>
		<stop  offset="0.23" style="stop-color:#0F72B1"/>
		<stop  offset="0.35" style="stop-color:#0766A6"/>
		<stop  offset="0.52" style="stop-color:#025FA0"/>
		<stop  offset="1" style="stop-color:#015E9F"/>
	</linearGradient>
	<polygon fill="url(#SVGID_1_)" points="259.4,115 10.3,115 10.3,97.6 265.3,97.6 	"/>
	<g>
		<path fill="#F6F6F6" d="M17.5,99.2c0.5,0,0.9,0,1.5,0.1c0.5,0.1,0.8,0.3,1.2,0.4c0.4,0.3,0.7,0.5,0.8,0.8c0.1,0.3,0.3,0.8,0.3,1.2
			c0,0.4-0.1,0.8-0.4,1.3c-0.3,0.4-0.7,0.8-1.2,1.1v0.1c0.5,0.1,1.1,0.5,1.3,0.9c0.4,0.4,0.5,0.9,0.5,1.6c0,0.5-0.1,1.1-0.4,1.5
			c-0.3,0.4-0.5,0.8-0.9,1.1c-0.4,0.3-0.8,0.5-1.3,0.7c-0.5,0.1-1.1,0.3-1.7,0.3c-0.3,0-0.5,0-0.8,0c-0.3,0-0.7,0-0.9-0.1
			c-0.3,0-0.7-0.1-0.9-0.1c-0.3-0.1-0.5-0.1-0.8-0.3l0.4-1.2c0.5,0.1,1.1,0.3,1.6,0.4c0.4,0.1,0.9,0.1,1.3,0.1
			c0.9,0,1.6-0.1,2.1-0.5c0.5-0.4,0.7-0.9,0.7-1.6c0-0.3,0-0.5-0.1-0.8c-0.1-0.3-0.3-0.4-0.5-0.5c-0.3-0.1-0.5-0.3-0.8-0.4
			c-0.3-0.1-0.7-0.1-0.9-0.1H16v-1.2h1.2c0.4,0,0.7,0,0.9-0.1c0.3-0.1,0.5-0.3,0.7-0.4c0.1-0.1,0.4-0.4,0.4-0.5
			c0.1-0.1,0.1-0.4,0.1-0.7c0-0.5-0.1-0.9-0.5-1.2c-0.4-0.3-0.9-0.4-1.6-0.4c-0.3,0-0.8,0-1.3,0.1c-0.5,0.1-1.1,0.3-1.5,0.4L14,99.9
			c0.3-0.1,0.5-0.1,0.8-0.3c0.3-0.1,0.5-0.1,0.8-0.3c0.3,0,0.7-0.1,0.9-0.1C16.9,99.2,17.2,99.2,17.5,99.2L17.5,99.2z"/>
		<path fill="#F6F6F6" d="M30.2,109h1.1l0.1,0.9c-0.3,0.1-0.5,0.1-0.8,0.3c-0.3,0.1-0.5,0.1-0.8,0.1c-0.3,0-0.5,0-0.8-0.1
			c-0.1-0.1-0.3-0.4-0.3-0.8l0,0c-0.3,0.3-0.5,0.4-0.8,0.5c-0.3,0.1-0.5,0.3-0.8,0.3c-0.3,0-0.4,0.1-0.7,0.1c-0.1,0-0.3,0-0.4,0
			c-0.4,0-0.8-0.1-1.2-0.3c-0.3-0.1-0.5-0.3-0.7-0.5c-0.1-0.3-0.3-0.5-0.4-0.7c-0.1-0.3-0.1-0.5-0.1-0.7c0-0.4,0.1-0.7,0.3-0.9
			c0.1-0.3,0.4-0.5,0.7-0.7c0.3-0.1,0.5-0.4,0.9-0.4c0.4-0.1,0.8-0.1,1.2-0.1l1.9-0.1v-0.7c0-0.5-0.1-0.9-0.3-1.2
			c-0.3-0.3-0.7-0.4-1.2-0.4c-0.4,0-0.8,0-1.2,0.1c-0.4,0.1-0.8,0.1-1.2,0.3c0-0.1-0.1-0.4-0.1-0.5c0-0.1-0.1-0.4-0.1-0.5
			c0.4-0.1,0.9-0.4,1.5-0.4c0.5-0.1,1.1-0.1,1.6-0.1c0.4,0,0.8,0,1.2,0.1c0.4,0.1,0.7,0.3,0.9,0.4c0.3,0.1,0.4,0.5,0.5,0.8
			c0.1,0.3,0.1,0.8,0.1,1.2L30.2,109L30.2,109z M26.7,106.7c-0.4,0-0.8,0.1-1.1,0.4c-0.3,0.1-0.3,0.5-0.3,0.8c0,0.4,0.1,0.7,0.3,0.9
			c0.1,0.1,0.5,0.3,0.9,0.3c0.3,0,0.5-0.1,0.9-0.3c0.3-0.1,0.7-0.4,0.9-0.7v-1.6L26.7,106.7L26.7,106.7z"/>
		<path fill="#F6F6F6" d="M34.8,103.2c0.4-0.3,0.7-0.5,1.1-0.7c0.4-0.1,0.8-0.3,1.2-0.3c0.5,0,1.1,0.1,1.5,0.3
			c0.4,0.1,0.7,0.5,0.9,0.8c0.3,0.4,0.4,0.8,0.5,1.2c0.1,0.4,0.1,0.9,0.1,1.5s0,1.1-0.1,1.6c-0.1,0.5-0.3,0.9-0.5,1.3
			c-0.3,0.4-0.5,0.7-0.9,0.8c-0.4,0.3-0.9,0.3-1.5,0.3c-0.1,0-0.3,0-0.5,0c-0.1,0-0.4,0-0.5-0.1c-0.1-0.1-0.4-0.1-0.5-0.1
			c-0.1,0-0.4-0.1-0.5-0.3v3.6h-1.7v-10.9h1.6L34.8,103.2L34.8,103.2z M36.6,109c0.3,0,0.4,0,0.7-0.1c0.3-0.1,0.4-0.3,0.5-0.4
			c0.1-0.1,0.3-0.5,0.4-0.9c0.1-0.4,0.1-0.8,0.1-1.3s0-0.9-0.1-1.2c-0.1-0.3-0.1-0.5-0.4-0.8c-0.1-0.1-0.4-0.3-0.5-0.4
			c-0.3-0.1-0.4-0.1-0.7-0.1c-0.1,0-0.3,0-0.5,0c-0.1,0-0.4,0.1-0.5,0.1c-0.1,0.1-0.3,0.1-0.5,0.3c-0.1,0.1-0.3,0.1-0.4,0.3v4.1
			c0.1,0,0.1,0.1,0.3,0.1c0.1,0,0.3,0.1,0.4,0.1s0.3,0.1,0.5,0.1C36.3,109,36.4,109,36.6,109z"/>
		<path fill="#F6F6F6" d="M45.5,107.6c0.3-0.8,0.5-1.7,0.8-2.5c0.3-0.9,0.5-1.7,0.8-2.5h1.7l-3.1,9.1c-0.3,0.7-0.5,1.2-0.9,1.5
			c-0.4,0.3-0.9,0.5-1.5,0.5c-0.1,0-0.1,0-0.3,0c-0.1,0-0.3,0-0.4,0c-0.1,0-0.3,0-0.5-0.1c-0.3-0.1-0.3-0.3-0.5-0.3l0.3-1.2
			c0.3,0,0.5,0.1,0.7,0.1c0.1,0,0.4,0,0.5,0c0.3,0,0.5-0.1,0.8-0.3c0.1-0.1,0.4-0.4,0.5-0.8l0.4-1.2h-0.9c-0.4-1.3-0.8-2.5-1.2-3.7
			c-0.4-1.2-0.8-2.5-1.2-3.7h1.7c0.1,0.4,0.3,0.8,0.4,1.2c0.1,0.4,0.3,0.9,0.4,1.3c0.1,0.4,0.3,0.9,0.4,1.3c0.1,0.4,0.3,0.9,0.4,1.3
			c0.1,0.3,0.1,0.5,0.3,0.8c0.1,0.3,0.1,0.4,0.1,0.5h0.1L45.5,107.6L45.5,107.6z"/>
		<path fill="#F6F6F6" d="M53.8,99.5c0.1-0.1,0.4-0.1,0.7-0.3c0.3-0.1,0.5-0.1,0.8-0.3c0.3-0.1,0.5-0.1,0.7-0.3
			c0.3-0.1,0.4-0.1,0.5-0.3c0.1,0.1,0.1,0.4,0.3,0.5c0.1,0.1,0.1,0.4,0.3,0.5c-0.4,0.1-0.7,0.4-0.9,0.5c-0.3,0.1-0.5,0.3-0.7,0.3
			c-0.5,0.3-0.9,0.4-1.3,0.5s-0.7,0.4-1.1,0.7c-0.3,0.3-0.5,0.5-0.7,0.9s-0.3,0.8-0.4,1.3l0,0c0.3-0.4,0.7-0.7,1.1-0.9
			s0.9-0.4,1.5-0.4s1.1,0.1,1.5,0.3c0.4,0.1,0.7,0.4,0.9,0.8c0.3,0.4,0.4,0.8,0.5,1.2c0.1,0.4,0.1,0.9,0.1,1.5s0,0.9-0.1,1.5
			c-0.1,0.5-0.3,0.9-0.7,1.2c-0.3,0.4-0.7,0.7-1.2,0.9s-1.1,0.4-1.7,0.4s-1.2-0.1-1.7-0.4c-0.4-0.3-0.8-0.5-1.1-0.9
			c-0.3-0.4-0.4-0.8-0.5-1.2c-0.1-0.4-0.1-0.9-0.1-1.3c0-0.5,0-1.1,0-1.3c0-0.4,0-0.7,0-0.9s0-0.5,0-0.7c0-0.1,0-0.3,0.1-0.4
			c0.1-0.8,0.5-1.5,1.1-2.1C52.2,100.3,52.8,99.9,53.8,99.5L53.8,99.5z M53.9,103.8c-0.4,0-0.7,0.1-0.9,0.3
			c-0.3,0.1-0.4,0.4-0.7,0.7c-0.3,0.3-0.3,0.5-0.4,0.9c0.1,0.3,0,0.5,0,0.9c0,0.3,0,0.5,0,0.9c0,0.3,0.1,0.5,0.3,0.8
			c0.1,0.3,0.3,0.4,0.5,0.5c0.3,0.1,0.5,0.3,0.9,0.3c0.4,0,0.7-0.1,0.9-0.3c0.3-0.1,0.4-0.4,0.5-0.5c0.1-0.3,0.3-0.5,0.3-0.8
			c0-0.3,0.1-0.7,0.1-0.9c0-0.3,0-0.7-0.1-0.9c0-0.3-0.1-0.5-0.3-0.8c-0.1-0.3-0.3-0.4-0.5-0.5C54.6,103.9,54.3,103.8,53.9,103.8
			L53.9,103.8z"/>
		<path fill="#F6F6F6" d="M62.9,102.3c0.5,0,0.9,0.1,1.3,0.1c0.4,0,0.7,0.3,0.9,0.5c0.3,0.3,0.4,0.4,0.5,0.7
			c0.1,0.3,0.3,0.5,0.3,0.8c0.1,0.3,0.1,0.5,0.1,0.8c0,0.3,0,0.5,0,0.7v0.7H61c0,0.3,0,0.7,0.1,0.9c0.1,0.3,0.1,0.5,0.4,0.8
			c0.1,0.3,0.4,0.4,0.7,0.5c0.3,0.1,0.5,0.1,0.9,0.1c0.4,0,0.8,0,1.2-0.1c0.4-0.1,0.8-0.3,1.2-0.4l0.4,1.1c-0.5,0.3-0.9,0.4-1.5,0.5
			c-0.5,0.1-1.1,0.1-1.6,0.1c-0.7,0-1.3-0.1-1.7-0.3c-0.4-0.1-0.8-0.5-1.1-0.8c-0.3-0.4-0.4-0.8-0.5-1.2c-0.1-0.5-0.1-0.9-0.1-1.5
			c0-0.4,0-0.8,0.1-1.2c0.1-0.4,0.3-0.9,0.5-1.3c0.3-0.4,0.7-0.8,1.1-1.1C61.5,102.4,62.2,102.3,62.9,102.3L62.9,102.3z M63,103.5
			c-0.3,0-0.7,0-0.8,0.1c-0.3,0.1-0.4,0.3-0.5,0.5c-0.1,0.1-0.3,0.4-0.3,0.7s-0.1,0.5-0.1,0.8h3.5c0-0.3,0-0.7-0.1-0.9
			c-0.1-0.3-0.1-0.5-0.3-0.7c-0.1-0.1-0.3-0.4-0.5-0.4C63.5,103.5,63.3,103.5,63,103.5L63,103.5z"/>
		<path fill="#F6F6F6" d="M72.7,110.2v-3.6h-0.9c-0.4,0-0.7,0.1-0.9,0.3c-0.3,0.1-0.5,0.4-0.7,0.9l0,0c-0.1,0.4-0.3,0.8-0.4,1.2
			c-0.1,0.4-0.3,0.8-0.4,1.2h-1.6c0.1-0.4,0.3-0.9,0.4-1.3c0.1-0.4,0.3-0.9,0.4-1.3c0.1-0.3,0.3-0.7,0.4-0.8
			c0.1-0.3,0.5-0.4,0.9-0.5l0,0c-0.3-0.1-0.5-0.3-0.7-0.5c-0.1-0.3-0.4-0.5-0.4-0.9c-0.1-0.4-0.1-0.7-0.3-1.1
			c-0.1-0.4-0.1-0.7-0.3-1.1h1.6l0.5,1.9c0.1,0.3,0.1,0.4,0.3,0.5c0.1,0.1,0.3,0.3,0.4,0.3c0.1,0.1,0.3,0.1,0.4,0.1
			c0.1,0,0.3,0,0.4,0h0.9v-3.1h1.7v3.1h0.9c0.1,0,0.3,0,0.4,0c0.1,0,0.3-0.1,0.4-0.1c0.1-0.1,0.3-0.1,0.4-0.3
			c0.1-0.1,0.1-0.3,0.3-0.5l0.5-1.9h1.6l-0.5,2.1c-0.1,0.3-0.3,0.7-0.4,0.9c-0.1,0.3-0.4,0.4-0.7,0.5l0,0c0.4,0.1,0.7,0.3,0.9,0.5
			c0.1,0.3,0.4,0.5,0.4,0.8c0.1,0.4,0.3,0.9,0.4,1.3c0.1,0.4,0.3,0.9,0.4,1.3h-1.6l-0.8-2.4l0,0c-0.1-0.3-0.1-0.4-0.3-0.5
			c-0.1-0.1-0.3-0.3-0.4-0.4c-0.1-0.1-0.3-0.1-0.4-0.1c-0.1,0-0.3,0-0.5,0h-0.9v3.5L72.7,110.2L72.7,110.2z"/>
		<path fill="#F6F6F6" d="M86.3,110.2v-3.5H83v3.5h-1.7v-7.6H83v2.9h3.3v-2.9h1.7v7.6H86.3L86.3,110.2z"/>
		<path fill="#F6F6F6" d="M96.6,109h1.1l0.1,0.9c-0.3,0.1-0.5,0.1-0.8,0.3c-0.3,0-0.5,0.1-0.8,0.1s-0.5,0-0.8-0.1
			c-0.1-0.1-0.3-0.4-0.3-0.8l0,0c-0.3,0.3-0.5,0.4-0.8,0.5c-0.3,0.1-0.5,0.3-0.8,0.3s-0.4,0.1-0.7,0.1c-0.1,0-0.3,0-0.4,0
			c-0.4,0-0.8-0.1-1.2-0.3c-0.3-0.1-0.5-0.3-0.7-0.5c-0.1-0.3-0.3-0.5-0.4-0.7c-0.1-0.3-0.1-0.5-0.1-0.7c0-0.4,0.1-0.7,0.3-0.9
			c0.1-0.3,0.4-0.5,0.7-0.7c0.3-0.1,0.5-0.4,0.9-0.4c0.4-0.1,0.8-0.1,1.2-0.1l1.9-0.1v-0.7c0-0.5-0.1-0.9-0.3-1.2
			c-0.3-0.3-0.7-0.4-1.2-0.4c-0.4,0-0.8,0-1.2,0.1c-0.4,0.1-0.8,0.1-1.2,0.3c0-0.1-0.1-0.4-0.1-0.5c0-0.1-0.1-0.4-0.1-0.5
			c0.4-0.1,0.9-0.4,1.5-0.4c0.5-0.1,1.1-0.1,1.6-0.1c0.4,0,0.8,0,1.2,0.1c0.4,0.1,0.7,0.3,0.9,0.4c0.3,0.1,0.4,0.5,0.5,0.8
			s0.1,0.8,0.1,1.2v4H96.6z M93.3,106.7c-0.4,0-0.8,0.1-1.1,0.4c-0.3,0.1-0.3,0.5-0.3,0.8c0,0.4,0.1,0.7,0.3,0.9
			c0.1,0.1,0.5,0.3,0.9,0.3c0.3,0,0.5-0.1,0.9-0.3c0.3-0.1,0.7-0.4,0.9-0.7v-1.6L93.3,106.7L93.3,106.7z"/>
		<path fill="#F6F6F6" d="M101,106.6c-0.4-0.1-0.8-0.4-0.9-0.7c-0.1-0.3-0.3-0.7-0.3-1.1c0-0.3,0-0.7,0.1-0.9
			c0.1-0.3,0.3-0.5,0.5-0.8s0.5-0.4,0.8-0.5c0.4-0.1,0.8-0.1,1.2-0.1h3.7v7.7h-1.7v-3.1h-1.3c-0.4,0-0.7,0.1-0.9,0.1
			c-0.3,0.1-0.4,0.4-0.5,0.8l-0.7,2.1h-1.7l0.8-2.1c0.1-0.3,0.1-0.5,0.4-0.8C100.5,107,100.8,106.7,101,106.6L101,106.6L101,106.6z
			 M101.6,104.7c0,0.3,0,0.4,0.1,0.7c0.1,0.1,0.1,0.3,0.4,0.4c0.1,0.1,0.3,0.1,0.4,0.1c0.1,0,0.3,0,0.5,0h1.6v-2.4H103
			c-0.4,0-0.8,0.1-1.1,0.3C101.7,103.9,101.4,104.3,101.6,104.7L101.6,104.7z"/>
		<path fill="#F6F6F6" d="M118.6,110.2v-3.5h-3.3v3.5h-1.7v-7.6h1.7v2.9h3.3v-2.9h1.7v7.6H118.6L118.6,110.2z"/>
		<path fill="#F6F6F6" d="M126.1,102.3c0.5,0,0.9,0.1,1.3,0.1s0.7,0.3,0.9,0.5s0.4,0.4,0.5,0.7c0.1,0.3,0.3,0.5,0.3,0.8
			c0.1,0.3,0.1,0.5,0.1,0.8c0,0.3,0,0.5,0,0.7v0.7h-5.1c0,0.3,0,0.7,0.1,0.9c0.1,0.3,0.1,0.5,0.4,0.8c0.1,0.3,0.4,0.4,0.7,0.5
			c0.3,0.1,0.5,0.1,0.9,0.1s0.8,0,1.2-0.1c0.4-0.1,0.8-0.3,1.2-0.4l0.4,1.1c-0.5,0.3-0.9,0.4-1.5,0.5c-0.5,0.1-1.1,0.1-1.6,0.1
			c-0.7,0-1.3-0.1-1.7-0.3c-0.5-0.3-0.8-0.5-1.1-0.8c-0.3-0.4-0.4-0.8-0.5-1.2c-0.1-0.5-0.1-0.9-0.1-1.5c0-0.4,0-0.8,0.1-1.2
			c0.1-0.4,0.3-0.9,0.5-1.3c0.3-0.4,0.7-0.8,1.1-1.1C124.8,102.4,125.3,102.3,126.1,102.3L126.1,102.3z M126.1,103.5
			c-0.3,0-0.7,0-0.8,0.1c-0.3,0.1-0.4,0.3-0.5,0.5c-0.1,0.1-0.3,0.4-0.3,0.7s-0.1,0.5-0.1,0.8h3.5c0-0.3,0-0.7-0.1-0.9
			c-0.1-0.3-0.1-0.5-0.3-0.7c-0.1-0.1-0.3-0.4-0.5-0.4C126.8,103.5,126.5,103.5,126.1,103.5L126.1,103.5z"/>
		<path fill="#F6F6F6" d="M138.4,109h0.8v3.3h-1.3V110h-5.7v2.3h-1.3V109h0.7c0.3-0.3,0.4-0.5,0.5-0.8c0.1-0.3,0.3-0.7,0.4-1.1
			c0.1-0.4,0.1-0.8,0.1-1.3s0.1-1.1,0.1-1.7l0.1-1.5h5.5v6.4H138.4z M134.5,103.6v0.7c0,0.7-0.1,1.2-0.1,1.6c0,0.5-0.1,0.9-0.1,1.3
			c-0.1,0.4-0.1,0.7-0.3,0.9c-0.1,0.3-0.3,0.5-0.4,0.7h3.3v-5.2L134.5,103.6L134.5,103.6z"/>
		<path fill="#F6F6F6" d="M145.2,102.4c0.8,0,1.5,0.1,1.9,0.5c0.4,0.4,0.7,0.8,0.7,1.5c0,0.3-0.1,0.5-0.1,0.8
			c-0.1,0.3-0.4,0.5-0.8,0.8l0,0c0.3,0.1,0.4,0.3,0.5,0.4c0.1,0.1,0.3,0.3,0.4,0.5c0.1,0.1,0.1,0.4,0.1,0.5s0,0.4,0,0.5
			c0,0.3-0.1,0.7-0.1,0.9c-0.1,0.3-0.3,0.5-0.5,0.7c-0.3,0.1-0.5,0.3-0.8,0.4c-0.3,0.1-0.7,0.1-0.9,0.1h-4.3v-7.6L145.2,102.4
			L145.2,102.4z M142.9,103.6v2h1.9c0.4,0,0.7-0.1,0.9-0.3c0.3-0.1,0.4-0.4,0.4-0.8s-0.1-0.5-0.3-0.8c-0.3-0.1-0.5-0.3-1.1-0.3
			C144.7,103.6,142.9,103.6,142.9,103.6z M142.9,106.7v2.3h1.9c0.5,0,0.9-0.1,1.1-0.4c0.3-0.3,0.3-0.5,0.3-0.8s-0.1-0.5-0.4-0.8
			c-0.3-0.3-0.5-0.4-1.1-0.4h-1.7V106.7z"/>
		<path fill="#F6F6F6" d="M155.2,110.2v-5.5l0,0l-0.9,1.6c-0.1,0.3-0.4,0.5-0.5,0.9c-0.3,0.4-0.5,0.8-0.7,1.2
			c-0.3,0.4-0.5,0.8-0.7,1.1c-0.3,0.3-0.4,0.5-0.5,0.7h-1.6v-7.6h1.7v5.3h0.1c0.1-0.3,0.3-0.4,0.4-0.7c0.1-0.1,0.3-0.4,0.4-0.7
			c0.3-0.4,0.5-0.7,0.7-1.1c0.3-0.4,0.5-0.8,0.7-1.1c0.3-0.4,0.4-0.7,0.7-1.1c0.1-0.3,0.4-0.7,0.5-0.9h1.6v7.6L155.2,110.2
			L155.2,110.2z"/>
		<path fill="#F6F6F6" d="M163.7,110.2v-3.6h-1.1c-0.4,0-0.7,0.1-0.9,0.3c-0.3,0.1-0.5,0.4-0.7,0.9l0,0c-0.1,0.4-0.3,0.8-0.4,1.2
			c-0.1,0.4-0.3,0.8-0.4,1.2h-1.6c0.1-0.4,0.3-0.9,0.4-1.3s0.3-0.9,0.4-1.3c0.1-0.3,0.3-0.7,0.4-0.8c0.1-0.3,0.5-0.4,0.9-0.5l0,0
			c-0.3-0.1-0.5-0.3-0.7-0.5c-0.1-0.3-0.4-0.5-0.4-0.9c-0.1-0.4-0.1-0.7-0.3-1.1c-0.1-0.4-0.1-0.7-0.3-1.1h1.6l0.5,1.9
			c0.1,0.3,0.1,0.4,0.3,0.5c0.1,0.1,0.3,0.3,0.4,0.3c0.1,0.1,0.3,0.1,0.4,0.1s0.3,0,0.4,0h0.9v-3.1h1.7v3.1h0.9c0.1,0,0.3,0,0.4,0
			s0.3-0.1,0.4-0.1c0.1-0.1,0.3-0.1,0.4-0.3c0.1-0.1,0.1-0.3,0.3-0.5l0.5-1.9h1.6l-0.5,2.1c-0.1,0.3-0.3,0.7-0.4,0.9
			s-0.4,0.4-0.7,0.5l0,0c0.4,0.1,0.7,0.3,0.9,0.5c0.1,0.3,0.4,0.5,0.4,0.8c0.1,0.4,0.3,0.9,0.4,1.3c0.1,0.4,0.3,0.9,0.4,1.3H169
			l-0.8-2.4l0,0c-0.1-0.3-0.1-0.4-0.3-0.5c-0.1-0.1-0.3-0.3-0.4-0.4c-0.1-0.1-0.3-0.1-0.4-0.1s-0.3,0-0.5,0h-1.2v3.5L163.7,110.2
			L163.7,110.2z"/>
		<path fill="#F6F6F6" d="M177.4,110.2v-5.5l0,0l-0.9,1.6c-0.1,0.3-0.4,0.5-0.5,0.9c-0.3,0.4-0.5,0.8-0.7,1.2
			c-0.3,0.4-0.5,0.8-0.7,1.1c-0.3,0.3-0.4,0.5-0.5,0.7h-1.6v-7.6h1.7v5.3h0.1c0.1-0.3,0.3-0.4,0.4-0.7c0.1-0.1,0.3-0.4,0.4-0.7
			c0.3-0.4,0.5-0.7,0.7-1.1c0.3-0.4,0.5-0.8,0.7-1.1c0.3-0.4,0.4-0.7,0.7-1.1c0.3-0.3,0.4-0.7,0.5-0.9h1.6v7.6L177.4,110.2
			L177.4,110.2z"/>
		<path fill="#F6F6F6" d="M188.6,110.2v-5.1h-0.1l-0.7,1.3c-0.3,0.5-0.5,0.9-0.7,1.5c-0.3,0.5-0.5,0.9-0.7,1.5h-1.1
			c-0.1-0.1-0.3-0.4-0.4-0.7s-0.3-0.5-0.4-0.8c-0.1-0.3-0.3-0.5-0.4-0.8c-0.1-0.3-0.3-0.5-0.4-0.7c-0.1-0.3-0.3-0.7-0.4-0.9
			c-0.1-0.3-0.3-0.4-0.3-0.5l0,0v5.2h-1.7v-7.6h1.9l1.7,3.2c0.3,0.4,0.4,0.8,0.5,1.1c0.1,0.3,0.3,0.5,0.4,0.7l0,0
			c0-0.1,0.1-0.4,0.4-0.7c0.1-0.4,0.4-0.8,0.5-1.2c0.1-0.3,0.3-0.5,0.4-0.8c0.1-0.3,0.3-0.7,0.5-0.9c0.1-0.3,0.3-0.5,0.4-0.8
			c0.1-0.3,0.3-0.4,0.3-0.5h1.7v7.6L188.6,110.2L188.6,110.2z"/>
		<path fill="#F6F6F6" d="M199.6,106.3c0,0.5,0,1.1-0.1,1.5c-0.1,0.5-0.3,0.9-0.7,1.3c-0.3,0.4-0.7,0.7-1.2,0.9
			c-0.5,0.3-1.1,0.3-1.7,0.3c-0.7,0-1.2-0.1-1.7-0.3c-0.4-0.3-0.8-0.5-1.1-0.8c-0.3-0.4-0.5-0.8-0.5-1.2c-0.1-0.5-0.1-0.9-0.1-1.5
			s0.1-1.1,0.1-1.5c0.1-0.5,0.4-0.9,0.7-1.3c0.3-0.4,0.7-0.7,1.2-0.9c0.4-0.3,1.1-0.4,1.7-0.4s1.2,0.1,1.7,0.4
			c0.4,0.3,0.8,0.5,1.1,0.9c0.3,0.4,0.5,0.8,0.5,1.3C199.5,105.4,199.6,105.8,199.6,106.3L199.6,106.3z M197.8,106.3
			c0-0.3,0-0.7,0-0.9c0-0.3-0.1-0.7-0.3-0.9c-0.1-0.3-0.3-0.5-0.5-0.7c-0.3-0.1-0.5-0.3-0.9-0.3c-0.4,0-0.7,0.1-0.9,0.3
			c-0.3,0.1-0.4,0.4-0.5,0.7c-0.1,0.3-0.3,0.5-0.3,0.9c0,0.3-0.1,0.7-0.1,0.9c0,0.4,0,0.7,0.1,1.1c0,0.3,0.1,0.7,0.3,0.8
			c0.1,0.3,0.3,0.4,0.5,0.5c0.3,0.1,0.5,0.3,0.9,0.3c0.4,0,0.7-0.1,0.9-0.3c0.3-0.1,0.4-0.4,0.5-0.7c0.1-0.3,0.3-0.5,0.3-0.8
			C197.8,107,197.8,106.7,197.8,106.3L197.8,106.3z"/>
		<path fill="#F6F6F6" d="M203.4,106.3c0,0.4,0,0.8,0.1,1.1c0.1,0.3,0.1,0.5,0.4,0.8c0.1,0.3,0.4,0.4,0.7,0.5
			c0.3,0.1,0.5,0.1,0.9,0.1c0.4,0,0.8,0,1.1-0.1c0.4-0.1,0.7-0.1,1.1-0.4l0.4,1.2c-0.4,0.1-0.8,0.4-1.2,0.4
			c-0.5,0.1-0.9,0.1-1.5,0.1c-0.7,0-1.2-0.1-1.7-0.3c-0.4-0.1-0.8-0.5-1.1-0.8c-0.3-0.3-0.5-0.8-0.5-1.2c-0.1-0.5-0.1-0.9-0.1-1.5
			c0-0.4,0-0.9,0.1-1.3c0.1-0.5,0.3-0.9,0.5-1.3c0.3-0.4,0.7-0.8,1.1-0.9c0.5-0.3,1.1-0.4,1.9-0.4c0.3,0,0.7,0,1.1,0.1
			c0.4,0,0.8,0.1,1.2,0.3l-0.3,1.2c-0.4-0.1-0.7-0.1-0.9-0.3c-0.3,0-0.5,0-0.8,0c-0.7,0-1.2,0.3-1.6,0.7
			C203.7,104.8,203.4,105.5,203.4,106.3L203.4,106.3z"/>
		<path fill="#F6F6F6" d="M211.8,103.6h-2.7v-1.2h7.1v1.2h-2.7v6.4h-1.7V103.6L211.8,103.6z"/>
		<path fill="#F6F6F6" d="M219.4,102.4v2.7h2.4c0.4,0,0.8,0.1,1.2,0.1c0.4,0.1,0.7,0.3,0.8,0.5c0.3,0.3,0.4,0.5,0.5,0.8
			c0.1,0.3,0.1,0.7,0.1,0.9c0,0.4-0.1,0.7-0.1,1.1c-0.1,0.3-0.3,0.5-0.5,0.8s-0.5,0.4-0.8,0.5c-0.3,0.1-0.7,0.1-1.1,0.1h-4.1v-7.6
			H219.4L219.4,102.4z M219.4,106.2v2.7h2c0.4,0,0.7-0.1,0.9-0.4c0.3-0.3,0.4-0.5,0.4-0.9c0-0.4-0.1-0.8-0.4-1.1
			c-0.3-0.3-0.7-0.4-1.1-0.4L219.4,106.2L219.4,106.2z"/>
	</g>
	<path fill="#015E9F" d="M268.5,106c0.8,0,1.5,0.1,2.3,0.5c0.7,0.4,1.2,0.9,1.6,1.6c0.4,0.7,0.5,1.5,0.5,2.3c0,0.8-0.1,1.6-0.5,2.3
		c-0.4,0.7-0.9,1.2-1.6,1.6c-0.7,0.4-1.5,0.5-2.3,0.5s-1.6-0.1-2.3-0.5c-0.7-0.4-1.2-0.9-1.6-1.6c-0.4-0.7-0.5-1.5-0.5-2.3
		c0-0.8,0.1-1.6,0.5-2.3c0.4-0.7,0.9-1.2,1.6-1.6C266.9,106.2,267.7,106,268.5,106L268.5,106z M268.5,106.7c-1.1,0-1.9,0.4-2.7,1.1
		c-0.7,0.7-1.1,1.6-1.1,2.7s0.4,1.9,1.1,2.7c0.7,0.7,1.6,1.1,2.7,1.1s1.9-0.4,2.7-1.1c0.7-0.7,1.1-1.6,1.1-2.7s-0.4-1.9-1.1-2.7
		C270.4,107.1,269.4,106.7,268.5,106.7L268.5,106.7z M267.4,112.9h-0.7V108h1.6c0.5,0,0.9,0,1.2,0.1c0.3,0.1,0.4,0.3,0.5,0.4
		c0.1,0.3,0.3,0.4,0.3,0.7c0,0.4-0.1,0.7-0.4,0.9s-0.5,0.4-0.9,0.4c0.1,0.1,0.4,0.1,0.5,0.4c0.1,0.1,0.4,0.4,0.5,0.8l0.5,0.9h-0.9
		l-0.4-0.8c-0.3-0.5-0.5-0.9-0.7-1.1c-0.1-0.1-0.4-0.3-0.7-0.3h-0.4L267.4,112.9L267.4,112.9z M267.4,108.7v1.5h0.9
		c0.4,0,0.7,0,0.9-0.1c0.1-0.1,0.3-0.3,0.3-0.5s-0.1-0.4-0.3-0.5c-0.1-0.1-0.5-0.1-0.9-0.1L267.4,108.7L267.4,108.7z"/>
</g>
</svg>
