<svg width="16" height="16" viewBox="0 0 16 16" fill="none" xmlns="http://www.w3.org/2000/svg">
<path d="M9.99438 10.5258C9.99438 10.5162 9.99757 10.4988 10.0039 10.4733L10.8916 7.562C10.917 7.48241 10.9751 7.42113 11.0658 7.37816C11.1565 7.33519 11.2606 7.31372 11.3784 7.31372C11.4961 7.31372 11.6004 7.33519 11.691 7.37816C11.7818 7.42113 11.8397 7.48241 11.8653 7.562L12.7577 10.4733C12.764 10.4988 12.7674 10.5162 12.7674 10.5258C12.7674 10.6085 12.7156 10.6802 12.6122 10.7406C12.5088 10.801 12.4014 10.8312 12.29 10.8312C12.1532 10.8312 12.072 10.7852 12.0466 10.6928L11.8844 10.0963H10.8773L10.7151 10.6928C10.6896 10.7852 10.6084 10.8312 10.4717 10.8312C10.3602 10.8312 10.2528 10.801 10.1494 10.7406C10.046 10.6802 9.99442 10.6085 9.99442 10.5258H9.99438ZM11.03 9.52356H11.7268L11.3784 8.2445L11.03 9.52356Z" fill="#98A3B2"/>
<path d="M13.7277 5.53308H10.5369V3.96705C10.5369 2.71408 9.51756 1.6947 8.26453 1.6947H2.27234C1.01937 1.6947 0 2.71411 0 3.96705V6.63476C0 7.87061 0.991562 8.87914 2.22106 8.90664C2.21287 9.16576 2.18397 9.45445 2.1345 9.76892C2.10106 9.9812 2.18006 10.1898 2.34559 10.327C2.45666 10.4191 2.59203 10.4669 2.73034 10.4669C2.79919 10.4669 2.86878 10.455 2.93653 10.4308C3.38697 10.2698 4.17053 9.86255 4.57459 8.90711H6.82653V10.4733C6.82653 11.7262 7.84594 12.7456 9.09888 12.7456H11.4254C11.8296 13.701 12.613 14.1081 13.0636 14.2693C13.1297 14.293 13.1994 14.3052 13.2697 14.3053C13.408 14.3053 13.5433 14.2575 13.6544 14.1654C13.8201 14.0283 13.8989 13.8196 13.8655 13.6073C13.816 13.293 13.7871 13.0042 13.7789 12.745C15.0084 12.7176 16 11.7091 16 10.4733V7.80555C16 6.55248 14.9806 5.53308 13.7277 5.53308ZM15.375 10.4731C15.375 11.3816 14.636 12.1206 13.7277 12.1206H13.467C13.3862 12.1206 13.3085 12.152 13.2503 12.208C13.192 12.2641 13.1578 12.3406 13.1548 12.4214C13.1413 12.7822 13.1708 13.2019 13.2427 13.6693C12.7877 13.4998 12.2043 13.1314 11.9375 12.334C11.9167 12.2719 11.8769 12.2178 11.8238 12.1795C11.7706 12.1412 11.7068 12.1206 11.6412 12.1206H9.09888C8.19056 12.1206 7.45153 11.3816 7.45153 10.4731V7.80542C7.45153 7.52526 7.52309 7.24867 7.65831 7.00561C7.67828 6.96975 7.69099 6.93031 7.69571 6.88954C7.70043 6.84877 7.69708 6.80747 7.68583 6.768C7.67459 6.72853 7.65567 6.69166 7.63017 6.6595C7.60467 6.62734 7.57309 6.60052 7.53722 6.58058C7.38647 6.49658 7.19616 6.55089 7.11219 6.70167C6.92531 7.03748 6.82656 7.41908 6.82656 7.80542V8.28211H4.35875C4.29321 8.28211 4.22934 8.30271 4.17615 8.341C4.12296 8.37929 4.08316 8.43333 4.06238 8.49548C3.79578 9.29286 3.21228 9.66139 2.75731 9.8308C2.82909 9.36339 2.85866 8.94373 2.84522 8.58289C2.84218 8.50208 2.80794 8.4256 2.74968 8.36951C2.69143 8.31342 2.61371 8.28209 2.53284 8.28211H2.27234C1.364 8.28211 0.625 7.54308 0.625 6.63476V3.96705C0.625 3.0587 1.364 2.3197 2.27234 2.3197H8.26453C9.17284 2.3197 9.91187 3.0587 9.91187 3.96705V5.5332H9.46875C9.29616 5.5332 9.15625 5.67311 9.15625 5.8457C9.15625 6.0183 9.29616 6.1582 9.46875 6.1582H13.7277C14.636 6.1582 15.375 6.8972 15.375 7.80555V10.4731Z" fill="#98A3B2"/>
<path d="M6.48758 4.27231C6.66017 4.27231 6.80008 4.13244 6.80008 3.95981C6.80008 3.78719 6.66017 3.64731 6.48758 3.64731H5.29542V3.17969C5.29542 3.00706 5.15555 2.86719 4.98292 2.86719C4.81042 2.86719 4.67042 3.00706 4.67042 3.17969V3.64731H3.47845C3.30583 3.64731 3.16595 3.78722 3.16595 3.95981C3.16595 4.13241 3.30583 4.27231 3.47845 4.27231H5.5497C5.49052 4.53247 5.34439 4.9525 4.9843 5.42553C4.81095 5.19788 4.68899 4.98559 4.60367 4.80272C4.53067 4.64634 4.34464 4.57872 4.18827 4.65184C4.03192 4.72484 3.96427 4.91075 4.03727 5.06712C4.15033 5.30919 4.31708 5.59494 4.5617 5.89891C4.26127 6.18969 3.87333 6.48656 3.37186 6.76819C3.22136 6.85266 3.16789 7.04306 3.25236 7.19359C3.27953 7.24205 3.31913 7.28239 3.36709 7.31043C3.41505 7.33847 3.46962 7.35321 3.52517 7.35313C3.57864 7.35317 3.6312 7.33939 3.67777 7.31312C4.22161 7.00781 4.6487 6.68272 4.98442 6.35984C5.3173 6.68066 5.7432 7.00731 6.28814 7.31309C6.32393 7.3332 6.36332 7.34605 6.40408 7.35093C6.44483 7.3558 6.48615 7.3526 6.52566 7.3415C6.56518 7.3304 6.60212 7.31163 6.63438 7.28625C6.66664 7.26087 6.69359 7.22939 6.71367 7.19359C6.79814 7.04306 6.74455 6.85266 6.59417 6.76819C6.0922 6.48644 5.70549 6.18872 5.40692 5.89928C5.9478 5.22631 6.12689 4.61228 6.18583 4.27231H6.48758ZM8.21045 5.74594H8.20974C8.03724 5.74594 7.89761 5.88584 7.89761 6.05844C7.89761 6.23103 8.03799 6.37094 8.21045 6.37094C8.38308 6.37094 8.52295 6.23106 8.52295 6.05844C8.52295 5.88581 8.38308 5.74594 8.21045 5.74594Z" fill="#98A3B2"/>
</svg>
