<svg xmlns="http://www.w3.org/2000/svg" width="16" height="16" fill="none"><g clip-path="url(#a)"><path fill="#98A3B2" d="m7.5 1.87.35.36-.35-.36Zm6.63 6.63.35.36-.35-.36Zm-5.34.92.22-.45a.5.5 0 0 0-.57.1l.35.35ZM6.6 7.2l.34.35a.5.5 0 0 0 .1-.57l-.45.22ZM2.7 15.5v.5a.5.5 0 0 0 .35-.15l-.35-.35Zm-2.21 0H0c0 .28.22.5.5.5v-.5Zm0-1.17H1 .5Zm1.04-1.04v-.5.5Zm.13 0v.5-.5Zm1.04-1.04h.5-.5Zm0-.13h-.5.5Zm1.04-1.04v-.5.5Zm.13 0v.5-.5Zm1.04-1.04h-.5.5Zm0-.74h.5-.5Zm.3-.73.36.35-.36-.35Zm3.34 1.08-.35-.35.35.35Zm-.7-7.42a4.19 4.19 0 0 1 5.91 0l.71-.71a5.19 5.19 0 0 0-7.34 0l.71.7Zm5.91 0a4.19 4.19 0 0 1 0 5.92l.71.7a5.19 5.19 0 0 0 0-7.33l-.7.7Zm0 5.92a4.19 4.19 0 0 1-4.76.82l-.43.9c1.92.92 4.3.58 5.9-1.01l-.7-.71ZM7.03 6.99a4.19 4.19 0 0 1 .82-4.76l-.7-.71a5.19 5.19 0 0 0-1.02 5.9l.9-.43ZM2.71 15H.5v1h2.21v-1ZM1 15.5v-1.17H0v1.17h1Zm.54-1.71h.13v-1h-.13v1Zm1.67-1.54v-.13h-1v.13h1Zm.54-.67h.13v-1h-.13v1Zm1.67-1.54V9.3h-1v.74h1Zm.16-1.12 1.35-1.36-.7-.7L4.87 8.2l.7.7Zm-.16.38c0-.14.06-.28.16-.38l-.7-.7c-.3.28-.46.67-.46 1.08h1Zm-1.54 2.28c.85 0 1.54-.69 1.54-1.54h-1c0 .3-.24.54-.54.54v1Zm-.67.54c0-.3.24-.54.54-.54v-1c-.85 0-1.54.7-1.54 1.54h1ZM1.67 13.8c.85 0 1.54-.69 1.54-1.54h-1c0 .3-.24.54-.54.54v1Zm-.67.54c0-.3.24-.54.54-.54v-1c-.85 0-1.54.7-1.54 1.54h1ZM13 4a1 1 0 0 1-1 1v1a2 2 0 0 0 2-2h-1Zm-1 1a1 1 0 0 1-1-1h-1c0 1.1.9 2 2 2V5Zm-1-1a1 1 0 0 1 1-1V2a2 2 0 0 0-2 2h1Zm1-1a1 1 0 0 1 1 1h1a2 2 0 0 0-2-2v1Zm3 6a3 3 0 0 1-3 3v1a4 4 0 0 0 4-4h-1Zm-3-3a3 3 0 0 1 3 3h1a4 4 0 0 0-4-4v1Zm0 6a3 3 0 0 1-2.95-2.44l-.98.18A4 4 0 0 0 12 13v-1ZM8.44 9.07l-.23.23.7.7.23-.23-.7-.7Zm-.23.23-5.85 5.85.7.7L8.91 10l-.7-.7Z"/></g><defs><clipPath id="a"><path fill="#fff" d="M0 0h16v16H0z"/></clipPath></defs></svg>